<?xml version="1.0" encoding="UTF-8" standalone="no"?>
<svg
   xmlns:dc="http://purl.org/dc/elements/1.1/"
   xmlns:cc="http://creativecommons.org/ns#"
   xmlns:rdf="http://www.w3.org/1999/02/22-rdf-syntax-ns#"
   xmlns:svg="http://www.w3.org/2000/svg"
   xmlns="http://www.w3.org/2000/svg"
   xmlns:sodipodi="http://sodipodi.sourceforge.net/DTD/sodipodi-0.dtd"
   xmlns:inkscape="http://www.inkscape.org/namespaces/inkscape"
   width="6.8000002mm"
   height="6.8000002mm"
   viewBox="0 0 6.8000001 6.8000001"
   version="1.1"
   id="svg15246"
   sodipodi:docname="SmallPortTRIG.svg"
   inkscape:version="1.0.2 (e86c870879, 2021-01-15)">
  <defs
     id="defs15240">
    <clipPath
       id="clip89">
      <rect
         y="0"
         x="0"
         width="18"
         height="19"
         id="rect4864" />
    </clipPath>
    <clipPath
       id="clip90">
      <path
         inkscape:connector-curvature="0"
         d="m 0.898438,0.128906 h 16.25 v 17.882813 h -16.25 z m 0,0"
         id="path4861" />
    </clipPath>
    <mask
       id="mask44">
      <g
         style="filter:url(#alpha)"
         id="g4858"
         transform="matrix(0.26458333,0,0,0.26458333,89.358789,128.57765)">
        <rect
           x="0"
           y="0"
           width="3052.8701"
           height="3351.5"
           style="fill:#000000;fill-opacity:0.149994;stroke:none"
           id="rect4856" />
      </g>
    </mask>
    <filter
       id="alpha"
       filterUnits="objectBoundingBox"
       x="0"
       y="0"
       width="1"
       height="1">
      <feColorMatrix
         type="matrix"
         in="SourceGraphic"
         values="0 0 0 0 1 0 0 0 0 1 0 0 0 0 1 0 0 0 1 0"
         id="feColorMatrix4149" />
    </filter>
    <clipPath
       id="clipPath17821">
      <rect
         y="0"
         x="0"
         width="18"
         height="19"
         id="rect17819" />
    </clipPath>
    <clipPath
       id="clipPath17825">
      <path
         inkscape:connector-curvature="0"
         d="m 0.898438,0.128906 h 16.25 v 17.882813 h -16.25 z m 0,0"
         id="path17823" />
    </clipPath>
    <clipPath
       id="clip87">
      <rect
         y="0"
         x="0"
         width="24"
         height="26"
         id="rect4848" />
    </clipPath>
    <clipPath
       id="clip88">
      <path
         inkscape:connector-curvature="0"
         d="m 0.683594,0.921875 h 22.679687 v 24.9375 H 0.683594 Z m 0,0"
         id="path4845" />
    </clipPath>
    <mask
       id="mask43">
      <g
         style="filter:url(#alpha)"
         id="g4842"
         transform="matrix(0.26458333,0,0,0.26458333,89.358789,128.57765)">
        <rect
           x="0"
           y="0"
           width="3052.8701"
           height="3351.5"
           style="fill:#000000;fill-opacity:0.149994;stroke:none"
           id="rect4840" />
      </g>
    </mask>
    <filter
       id="filter17836"
       filterUnits="objectBoundingBox"
       x="0"
       y="0"
       width="1"
       height="1">
      <feColorMatrix
         type="matrix"
         in="SourceGraphic"
         values="0 0 0 0 1 0 0 0 0 1 0 0 0 0 1 0 0 0 1 0"
         id="feColorMatrix17834" />
    </filter>
    <clipPath
       id="clipPath17840">
      <rect
         y="0"
         x="0"
         width="24"
         height="26"
         id="rect17838" />
    </clipPath>
    <clipPath
       id="clipPath17844">
      <path
         inkscape:connector-curvature="0"
         d="m 0.683594,0.921875 h 22.679687 v 24.9375 H 0.683594 Z m 0,0"
         id="path17842" />
    </clipPath>
  </defs>
  <sodipodi:namedview
     id="base"
     pagecolor="#ffffff"
     bordercolor="#666666"
     borderopacity="1.0"
     inkscape:pageopacity="0.0"
     inkscape:pageshadow="2"
     inkscape:zoom="5.6"
     inkscape:cx="16.642017"
     inkscape:cy="2.4360352"
     inkscape:document-units="mm"
     inkscape:current-layer="layer1"
     showgrid="false"
     inkscape:window-width="1920"
     inkscape:window-height="1017"
     inkscape:window-x="-8"
     inkscape:window-y="-8"
     inkscape:window-maximized="1"
     units="px"
     fit-margin-top="0"
     fit-margin-left="0"
     fit-margin-right="0"
     fit-margin-bottom="0"
     inkscape:document-rotation="0"
     inkscape:snap-bbox="true"
     inkscape:snap-bbox-midpoints="true"
     inkscape:pagecheckerboard="true"
     showguides="false" />
  <metadata
     id="metadata15243">
    <rdf:RDF>
      <cc:Work
         rdf:about="">
        <dc:format>image/svg+xml</dc:format>
        <dc:type
           rdf:resource="http://purl.org/dc/dcmitype/StillImage" />
        <dc:title />
      </cc:Work>
    </rdf:RDF>
  </metadata>
  <g
     inkscape:label="Layer 1"
     inkscape:groupmode="layer"
     id="layer1"
     transform="translate(-89.288962,-119.87643)">
    <path
       inkscape:connector-curvature="0"
       id="path7255"
       d="m 92.688962,126.55143 c -1.806206,0 -3.275,-1.46879 -3.275,-3.275 0,-1.80618 1.468794,-3.275 3.275,-3.275 1.806205,0 3.275,1.46882 3.275,3.275 0,1.80621 -1.468795,3.275 -3.275,3.275"
       style="fill:#e6e20d;fill-opacity:0.87903231;fill-rule:nonzero;stroke:#fefefe;stroke-width:0.15;stroke-miterlimit:4;stroke-dasharray:none;stroke-opacity:0.822394;paint-order:stroke fill markers" />
    <path
       inkscape:connector-curvature="0"
       id="path7261"
       d="m 92.688963,126.19512 c -1.609548,0 -2.918684,-1.30916 -2.918684,-2.91871 0,-1.60954 1.309137,-2.91867 2.918684,-2.91867 1.609549,0 2.918683,1.30913 2.918683,2.91867 0,1.60955 -1.309134,2.91871 -2.918683,2.91871"
       style="fill:#e6e6e6;fill-opacity:0;fill-rule:nonzero;stroke:#636663;stroke-width:0.25;stroke-miterlimit:4;stroke-dasharray:none;stroke-opacity:0" />
    <path
       inkscape:connector-curvature="0"
       id="path7265"
       d="m 94.872634,123.2764 c 0,1.24467 -0.978138,2.25457 -2.183671,2.25457 -1.205534,0 -2.183673,-1.0099 -2.183673,-2.25457 0,-1.24465 0.978139,-2.2545 2.183673,-2.2545 1.205533,0 2.183671,1.00985 2.183671,2.2545"
       style="fill:#ffffff;fill-opacity:1;fill-rule:nonzero;stroke:#ffffff;stroke-width:0.311917;stroke-miterlimit:4;stroke-dasharray:none;stroke-opacity:0.803089;paint-order:stroke fill markers" />
    <g
       aria-label="trig"
       id="text866"
       style="font-style:normal;font-variant:normal;font-weight:normal;font-stretch:normal;font-size:2.11667px;line-height:1.25;font-family:Bahnschrift;-inkscape-font-specification:Bahnschrift;fill:#333333;fill-opacity:1;stroke:none;stroke-width:0.264583">
      <path
         d="m 91.536573,123.81491 q -0.130224,0 -0.191203,-0.0713 -0.05994,-0.0723 -0.05994,-0.21291 v -1.10587 h 0.21084 v 1.10794 q 0,0.0393 0.0155,0.061 0.0155,0.0207 0.04547,0.0207 h 0.101286 v 0.20051 z m -0.361735,-1.07798 h 0.483692 v 0.19017 h -0.483692 z"
         style="font-style:normal;font-variant:normal;font-weight:normal;font-stretch:normal;font-size:2.11667px;font-family:Bahnschrift;-inkscape-font-specification:Bahnschrift;fill:#333333;stroke-width:0.264583"
         id="path872" />
      <path
         d="m 91.947919,122.73693 h 0.21084 v 1.07281 h -0.21084 z m 0.590145,0.25425 q -0.02791,-0.0341 -0.07028,-0.0517 -0.04237,-0.0176 -0.09819,-0.0176 -0.100253,0 -0.156063,0.0558 -0.05478,0.0548 -0.05478,0.15296 l -0.0217,-0.20671 q 0.04961,-0.0961 0.128157,-0.14883 0.07855,-0.0537 0.173633,-0.0537 0.07338,0 0.132292,0.0217 0.05995,0.0207 0.104387,0.062 z"
         style="font-style:normal;font-variant:normal;font-weight:normal;font-stretch:normal;font-size:2.11667px;font-family:Bahnschrift;-inkscape-font-specification:Bahnschrift;fill:#333333;stroke-width:0.264583"
         id="path874" />
      <path
         d="m 92.851224,122.30699 h 0.21084 v 0.21084 h -0.21084 z m 0,0.42994 h 0.21084 v 1.07281 h -0.21084 z"
         style="font-style:normal;font-variant:normal;font-weight:normal;font-stretch:normal;font-size:2.11667px;font-family:Bahnschrift;-inkscape-font-specification:Bahnschrift;fill:#333333;stroke-width:0.264583"
         id="path876" />
      <path
         d="m 93.742127,124.24589 q -0.120923,0 -0.217041,-0.0455 -0.09508,-0.0444 -0.147795,-0.12609 v 0 l 0.142627,-0.12919 v 0 q 0.04134,0.0568 0.09819,0.0878 0.05788,0.031 0.120923,0.031 0.120924,0 0.187069,-0.0672 0.06615,-0.0661 0.06615,-0.18811 v -1.07177 h 0.210841 v 1.04077 q 0,0.14779 -0.05478,0.25321 -0.05374,0.10542 -0.157096,0.1602 -0.103353,0.0548 -0.249081,0.0548 z m -0.01964,-0.41755 q -0.117822,0 -0.201538,-0.0506 -0.08268,-0.0517 -0.126091,-0.14986 -0.04341,-0.0982 -0.04341,-0.23565 v -0.23668 q 0,-0.13849 0.04237,-0.23667 0.04237,-0.0982 0.12299,-0.14883 0.08165,-0.0517 0.195338,-0.0517 0.09508,0 0.173633,0.0496 0.07958,0.0496 0.128158,0.13953 l -0.0217,0.2191 q 0,-0.0682 -0.0248,-0.11678 -0.02481,-0.0486 -0.07235,-0.0734 -0.04651,-0.0258 -0.113689,-0.0258 -0.104386,0 -0.162264,0.0651 -0.05684,0.0651 -0.05684,0.18293 v 0.23358 q 0,0.11679 0.05684,0.18087 0.05788,0.0631 0.162264,0.0631 0.06718,0 0.113689,-0.0258 0.04754,-0.0269 0.07235,-0.0765 0.0248,-0.0496 0.0248,-0.11886 l 0.01447,0.22634 q -0.03204,0.0796 -0.10542,0.13333 -0.07235,0.0537 -0.178801,0.0537 z"
         style="font-style:normal;font-variant:normal;font-weight:normal;font-stretch:normal;font-size:2.11667px;font-family:Bahnschrift;-inkscape-font-specification:Bahnschrift;fill:#333333;stroke-width:0.264583"
         id="path878" />
    </g>
  </g>
</svg>
