<?xml version="1.0" encoding="UTF-8" standalone="no"?>
<svg
   xmlns:dc="http://purl.org/dc/elements/1.1/"
   xmlns:cc="http://creativecommons.org/ns#"
   xmlns:rdf="http://www.w3.org/1999/02/22-rdf-syntax-ns#"
   xmlns:svg="http://www.w3.org/2000/svg"
   xmlns="http://www.w3.org/2000/svg"
   xmlns:sodipodi="http://sodipodi.sourceforge.net/DTD/sodipodi-0.dtd"
   xmlns:inkscape="http://www.inkscape.org/namespaces/inkscape"
   width="6.8000002mm"
   height="6.8000002mm"
   viewBox="0 0 6.8000001 6.8000001"
   version="1.1"
   id="svg15246"
   sodipodi:docname="SmallPortB.svg"
   inkscape:version="1.0.2 (e86c870879, 2021-01-15)">
  <defs
     id="defs15240">
    <clipPath
       id="clip89">
      <rect
         y="0"
         x="0"
         width="18"
         height="19"
         id="rect4864" />
    </clipPath>
    <clipPath
       id="clip90">
      <path
         inkscape:connector-curvature="0"
         d="m 0.898438,0.128906 h 16.25 v 17.882813 h -16.25 z m 0,0"
         id="path4861" />
    </clipPath>
    <mask
       id="mask44">
      <g
         style="filter:url(#alpha)"
         id="g4858"
         transform="matrix(0.26458333,0,0,0.26458333,89.358789,128.57765)">
        <rect
           x="0"
           y="0"
           width="3052.8701"
           height="3351.5"
           style="fill:#000000;fill-opacity:0.149994;stroke:none"
           id="rect4856" />
      </g>
    </mask>
    <filter
       id="alpha"
       filterUnits="objectBoundingBox"
       x="0"
       y="0"
       width="1"
       height="1">
      <feColorMatrix
         type="matrix"
         in="SourceGraphic"
         values="0 0 0 0 1 0 0 0 0 1 0 0 0 0 1 0 0 0 1 0"
         id="feColorMatrix4149" />
    </filter>
    <clipPath
       id="clipPath17821">
      <rect
         y="0"
         x="0"
         width="18"
         height="19"
         id="rect17819" />
    </clipPath>
    <clipPath
       id="clipPath17825">
      <path
         inkscape:connector-curvature="0"
         d="m 0.898438,0.128906 h 16.25 v 17.882813 h -16.25 z m 0,0"
         id="path17823" />
    </clipPath>
    <clipPath
       id="clip87">
      <rect
         y="0"
         x="0"
         width="24"
         height="26"
         id="rect4848" />
    </clipPath>
    <clipPath
       id="clip88">
      <path
         inkscape:connector-curvature="0"
         d="m 0.683594,0.921875 h 22.679687 v 24.9375 H 0.683594 Z m 0,0"
         id="path4845" />
    </clipPath>
    <mask
       id="mask43">
      <g
         style="filter:url(#alpha)"
         id="g4842"
         transform="matrix(0.26458333,0,0,0.26458333,89.358789,128.57765)">
        <rect
           x="0"
           y="0"
           width="3052.8701"
           height="3351.5"
           style="fill:#000000;fill-opacity:0.149994;stroke:none"
           id="rect4840" />
      </g>
    </mask>
    <filter
       id="filter17836"
       filterUnits="objectBoundingBox"
       x="0"
       y="0"
       width="1"
       height="1">
      <feColorMatrix
         type="matrix"
         in="SourceGraphic"
         values="0 0 0 0 1 0 0 0 0 1 0 0 0 0 1 0 0 0 1 0"
         id="feColorMatrix17834" />
    </filter>
    <clipPath
       id="clipPath17840">
      <rect
         y="0"
         x="0"
         width="24"
         height="26"
         id="rect17838" />
    </clipPath>
    <clipPath
       id="clipPath17844">
      <path
         inkscape:connector-curvature="0"
         d="m 0.683594,0.921875 h 22.679687 v 24.9375 H 0.683594 Z m 0,0"
         id="path17842" />
    </clipPath>
  </defs>
  <sodipodi:namedview
     id="base"
     pagecolor="#ffffff"
     bordercolor="#666666"
     borderopacity="1.0"
     inkscape:pageopacity="0.0"
     inkscape:pageshadow="2"
     inkscape:zoom="22.4"
     inkscape:cx="20.322459"
     inkscape:cy="16.712591"
     inkscape:document-units="mm"
     inkscape:current-layer="layer1"
     showgrid="false"
     inkscape:window-width="1920"
     inkscape:window-height="1017"
     inkscape:window-x="-8"
     inkscape:window-y="-8"
     inkscape:window-maximized="1"
     units="px"
     fit-margin-top="0"
     fit-margin-left="0"
     fit-margin-right="0"
     fit-margin-bottom="0"
     inkscape:document-rotation="0"
     inkscape:snap-bbox="true"
     inkscape:snap-bbox-midpoints="true"
     inkscape:pagecheckerboard="true" />
  <metadata
     id="metadata15243">
    <rdf:RDF>
      <cc:Work
         rdf:about="">
        <dc:format>image/svg+xml</dc:format>
        <dc:type
           rdf:resource="http://purl.org/dc/dcmitype/StillImage" />
        <dc:title />
      </cc:Work>
    </rdf:RDF>
  </metadata>
  <g
     inkscape:label="Layer 1"
     inkscape:groupmode="layer"
     id="layer1"
     transform="translate(-89.288962,-119.87643)">
    <path
       inkscape:connector-curvature="0"
       id="path7255"
       d="m 92.688962,126.55143 c -1.806206,0 -3.275,-1.46879 -3.275,-3.275 0,-1.80618 1.468794,-3.275 3.275,-3.275 1.806205,0 3.275,1.46882 3.275,3.275 0,1.80621 -1.468795,3.275 -3.275,3.275"
       style="fill:#8c85d8;fill-opacity:1;fill-rule:nonzero;stroke:#fefefe;stroke-width:0.15;stroke-miterlimit:4;stroke-dasharray:none;stroke-opacity:0.86486489;paint-order:stroke fill markers" />
    <path
       inkscape:connector-curvature="0"
       id="path7261"
       d="m 92.688963,126.19512 c -1.609548,0 -2.918684,-1.30916 -2.918684,-2.91871 0,-1.60954 1.309137,-2.91867 2.918684,-2.91867 1.609549,0 2.918683,1.30913 2.918683,2.91867 0,1.60955 -1.309134,2.91871 -2.918683,2.91871"
       style="display:none;fill:#e6e6e6;fill-opacity:0;fill-rule:nonzero;stroke:#636663;stroke-width:0.25;stroke-miterlimit:4;stroke-dasharray:none;stroke-opacity:0" />
    <path
       inkscape:connector-curvature="0"
       id="path7265"
       d="m 94.872634,123.2764 c 0,1.24467 -0.978138,2.25457 -2.183671,2.25457 -1.205534,0 -2.183673,-1.0099 -2.183673,-2.25457 0,-1.24465 0.978139,-2.2545 2.183673,-2.2545 1.205533,0 2.183671,1.00985 2.183671,2.2545"
       style="fill:#ffffff;fill-opacity:1;fill-rule:nonzero;stroke:#ffffff;stroke-width:0.311917;stroke-miterlimit:4;stroke-dasharray:none;stroke-opacity:0.86486489;paint-order:stroke fill markers" />
    <g
       aria-label="«"
       transform="scale(0.98120041,1.0191598)"
       id="text872"
       style="font-style:normal;font-variant:normal;font-weight:normal;font-stretch:normal;font-size:7.19074px;line-height:1.25;font-family:Corbel;-inkscape-font-specification:Corbel;display:none;fill:#ffffff;fill-opacity:1;stroke:none;stroke-width:0.269652">
      <path
         d="m 92.843848,120.88513 1.028753,-1.32018 h 0.530177 l -0.909376,1.32018 0.909376,1.32017 h -0.530177 z m 1.393908,0 0.930442,-1.32018 h 0.50911 l -0.789998,1.32018 0.789998,1.32017 h -0.50911 z"
         style="font-style:normal;font-variant:normal;font-weight:normal;font-stretch:normal;font-size:7.19074px;font-family:Corbel;-inkscape-font-specification:Corbel;fill:#ffffff;fill-opacity:1;stroke-width:0.269652"
         id="path874" />
    </g>
    <g
       aria-label="֎"
       id="text863"
       style="font-style:normal;font-weight:normal;font-size:3.88056px;line-height:1.25;font-family:sans-serif;fill:#1a1a1a;fill-opacity:1;stroke:none;stroke-width:0.264583">
      <path
         d="m 91.182593,123.89887 q -0.108004,-0.12506 -0.170532,-0.28422 -0.06063,-0.15916 -0.06063,-0.33917 0,-0.18001 0.06063,-0.33727 0.06253,-0.15917 0.170532,-0.28423 0.02463,-0.34864 0.280431,-0.60254 0.255799,-0.2558 0.602548,-0.28043 0.125057,-0.10801 0.284221,-0.16864 0.159163,-0.0625 0.337275,-0.0625 0.181901,0 0.33917,0.0625 0.159164,0.0606 0.286116,0.16864 0.346749,0.0189 0.602547,0.27853 0.255799,0.2577 0.280431,0.60444 0.108004,0.12506 0.168638,0.28423 0.06253,0.15916 0.06253,0.34106 0,0.17811 -0.06253,0.33728 -0.06063,0.15726 -0.168638,0.28232 -0.02274,0.34486 -0.274746,0.59876 -0.252009,0.2558 -0.608232,0.28422 -0.125058,0.108 -0.284221,0.16864 -0.159164,0.0625 -0.341065,0.0625 -0.178112,0 -0.337275,-0.0625 -0.157269,-0.0606 -0.282326,-0.16864 -0.346749,-0.019 -0.604443,-0.27664 -0.255798,-0.25769 -0.280431,-0.60634 z m 2.825154,-1.18425 q 0,-0.23685 -0.140216,-0.43581 -0.140215,-0.20085 -0.367592,-0.27664 0.06253,0.10422 0.09664,0.22738 0.036,0.12316 0.036,0.2558 0,0.33348 -0.202745,0.58739 -0.200849,0.2539 -0.509702,0.32969 0.07769,0.0379 0.159164,0.0569 0.08148,0.017 0.168637,0.017 0.312643,0 0.53623,-0.22548 0.223587,-0.22548 0.223587,-0.53623 z m -2.637568,1.12172 q 0,0.24443 0.140215,0.44149 0.140216,0.19706 0.367592,0.27285 -0.06253,-0.10421 -0.09853,-0.22737 -0.03411,-0.12127 -0.03411,-0.2558 0,-0.32401 0.198955,-0.57981 0.200849,-0.25769 0.513492,-0.33538 -0.07769,-0.0379 -0.161059,-0.055 -0.08148,-0.019 -0.166743,-0.019 -0.310748,0 -0.536229,0.22359 -0.223587,0.22358 -0.223587,0.53433 z m 1.316889,0.99099 q 0.180006,0 0.327801,-0.0758 -0.316432,-0.0853 -0.513492,-0.33917 -0.19706,-0.2539 -0.19706,-0.57412 0,-0.12695 0.03221,-0.25012 0.03221,-0.12316 0.100425,-0.23685 -0.231166,0.0815 -0.369487,0.27854 -0.136426,0.19516 -0.136426,0.4377 0,0.31075 0.221692,0.53433 0.221692,0.22549 0.534335,0.22549 z m -1.54995,-1.55185 q 0,0.17811 0.07579,0.32591 0.08527,-0.31644 0.33917,-0.5135 0.253904,-0.19705 0.574126,-0.19705 0.126952,0 0.250114,0.0322 0.123162,0.0322 0.236851,0.10042 -0.08337,-0.23116 -0.280431,-0.36759 -0.19706,-0.13832 -0.435806,-0.13832 -0.310748,0 -0.536229,0.22169 -0.223587,0.22169 -0.223587,0.53623 z m 3.10369,0.004 q 0,-0.18001 -0.07579,-0.3278 -0.08527,0.31833 -0.34296,0.51539 -0.255799,0.19516 -0.572231,0.19516 -0.125057,0 -0.248219,-0.0322 -0.123163,-0.0322 -0.236851,-0.10043 0.08148,0.23117 0.276641,0.36949 0.19706,0.13643 0.439595,0.13643 0.310748,0 0.534335,-0.2217 0.225482,-0.22169 0.225482,-0.53433 z m -1.55374,-1.55374 q -0.176217,0 -0.324012,0.0758 0.318328,0.0853 0.513492,0.34296 0.19706,0.2558 0.19706,0.57223 0,0.12506 -0.03221,0.24822 -0.03221,0.12316 -0.100424,0.23685 0.234956,-0.0853 0.369487,-0.28232 0.136426,-0.19896 0.136426,-0.43391 0,-0.31265 -0.223587,-0.53623 -0.223587,-0.22359 -0.53623,-0.22359 z m 0.564652,2.86873 q 0.242535,0 0.439594,-0.14211 0.198955,-0.14021 0.272852,-0.3638 -0.106109,0.0625 -0.229271,0.0985 -0.121268,0.0341 -0.253904,0.0341 -0.327801,0 -0.5836,-0.19896 -0.255798,-0.20085 -0.333485,-0.51538 -0.0379,0.0777 -0.05684,0.15916 -0.01705,0.0815 -0.01705,0.16864 0,0.31075 0.223587,0.53433 0.223587,0.22548 0.538125,0.22548 z m -1.123619,-2.63567 q -0.234956,0 -0.433911,0.13643 -0.198954,0.13642 -0.282326,0.36948 0.108004,-0.0625 0.229272,-0.0966 0.123162,-0.036 0.255798,-0.036 0.325907,0 0.581705,0.20085 0.257694,0.19895 0.335381,0.51349 0.0379,-0.0777 0.05495,-0.15916 0.01895,-0.0815 0.01895,-0.16864 0,-0.31264 -0.227376,-0.53623 -0.225482,-0.22359 -0.53244,-0.22359 z"
         style="font-size:3.88056px;fill:#1a1a1a;stroke-width:0.264583"
         id="path865" />
    </g>
  </g>
</svg>
