<?xml version="1.0" encoding="UTF-8" standalone="no"?>
<svg
   xmlns:dc="http://purl.org/dc/elements/1.1/"
   xmlns:cc="http://creativecommons.org/ns#"
   xmlns:rdf="http://www.w3.org/1999/02/22-rdf-syntax-ns#"
   xmlns:svg="http://www.w3.org/2000/svg"
   xmlns="http://www.w3.org/2000/svg"
   xmlns:sodipodi="http://sodipodi.sourceforge.net/DTD/sodipodi-0.dtd"
   xmlns:inkscape="http://www.inkscape.org/namespaces/inkscape"
   width="6.8000002mm"
   height="6.8000002mm"
   viewBox="0 0 6.8000001 6.8000001"
   version="1.1"
   id="svg15246"
   sodipodi:docname="SmallPortSTEP.svg"
   inkscape:version="1.0.2 (e86c870879, 2021-01-15)">
  <defs
     id="defs15240">
    <clipPath
       id="clip89">
      <rect
         y="0"
         x="0"
         width="18"
         height="19"
         id="rect4864" />
    </clipPath>
    <clipPath
       id="clip90">
      <path
         inkscape:connector-curvature="0"
         d="m 0.898438,0.128906 h 16.25 v 17.882813 h -16.25 z m 0,0"
         id="path4861" />
    </clipPath>
    <mask
       id="mask44">
      <g
         style="filter:url(#alpha)"
         id="g4858"
         transform="matrix(0.26458333,0,0,0.26458333,89.358789,128.57765)">
        <rect
           x="0"
           y="0"
           width="3052.8701"
           height="3351.5"
           style="fill:#000000;fill-opacity:0.149994;stroke:none"
           id="rect4856" />
      </g>
    </mask>
    <filter
       id="alpha"
       filterUnits="objectBoundingBox"
       x="0"
       y="0"
       width="1"
       height="1">
      <feColorMatrix
         type="matrix"
         in="SourceGraphic"
         values="0 0 0 0 1 0 0 0 0 1 0 0 0 0 1 0 0 0 1 0"
         id="feColorMatrix4149" />
    </filter>
    <clipPath
       id="clipPath17821">
      <rect
         y="0"
         x="0"
         width="18"
         height="19"
         id="rect17819" />
    </clipPath>
    <clipPath
       id="clipPath17825">
      <path
         inkscape:connector-curvature="0"
         d="m 0.898438,0.128906 h 16.25 v 17.882813 h -16.25 z m 0,0"
         id="path17823" />
    </clipPath>
    <clipPath
       id="clip87">
      <rect
         y="0"
         x="0"
         width="24"
         height="26"
         id="rect4848" />
    </clipPath>
    <clipPath
       id="clip88">
      <path
         inkscape:connector-curvature="0"
         d="m 0.683594,0.921875 h 22.679687 v 24.9375 H 0.683594 Z m 0,0"
         id="path4845" />
    </clipPath>
    <mask
       id="mask43">
      <g
         style="filter:url(#alpha)"
         id="g4842"
         transform="matrix(0.26458333,0,0,0.26458333,89.358789,128.57765)">
        <rect
           x="0"
           y="0"
           width="3052.8701"
           height="3351.5"
           style="fill:#000000;fill-opacity:0.149994;stroke:none"
           id="rect4840" />
      </g>
    </mask>
    <filter
       id="filter17836"
       filterUnits="objectBoundingBox"
       x="0"
       y="0"
       width="1"
       height="1">
      <feColorMatrix
         type="matrix"
         in="SourceGraphic"
         values="0 0 0 0 1 0 0 0 0 1 0 0 0 0 1 0 0 0 1 0"
         id="feColorMatrix17834" />
    </filter>
    <clipPath
       id="clipPath17840">
      <rect
         y="0"
         x="0"
         width="24"
         height="26"
         id="rect17838" />
    </clipPath>
    <clipPath
       id="clipPath17844">
      <path
         inkscape:connector-curvature="0"
         d="m 0.683594,0.921875 h 22.679687 v 24.9375 H 0.683594 Z m 0,0"
         id="path17842" />
    </clipPath>
  </defs>
  <sodipodi:namedview
     id="base"
     pagecolor="#ffffff"
     bordercolor="#666666"
     borderopacity="1.0"
     inkscape:pageopacity="0.0"
     inkscape:pageshadow="2"
     inkscape:zoom="31.678384"
     inkscape:cx="13.535975"
     inkscape:cy="13.213991"
     inkscape:document-units="mm"
     inkscape:current-layer="layer1"
     showgrid="false"
     inkscape:window-width="1920"
     inkscape:window-height="1017"
     inkscape:window-x="-8"
     inkscape:window-y="-8"
     inkscape:window-maximized="1"
     units="px"
     fit-margin-top="0"
     fit-margin-left="0"
     fit-margin-right="0"
     fit-margin-bottom="0"
     inkscape:document-rotation="0"
     inkscape:snap-bbox="true"
     inkscape:snap-bbox-midpoints="true"
     inkscape:pagecheckerboard="true"
     showguides="false" />
  <metadata
     id="metadata15243">
    <rdf:RDF>
      <cc:Work
         rdf:about="">
        <dc:format>image/svg+xml</dc:format>
        <dc:type
           rdf:resource="http://purl.org/dc/dcmitype/StillImage" />
        <dc:title></dc:title>
      </cc:Work>
    </rdf:RDF>
  </metadata>
  <g
     inkscape:label="Layer 1"
     inkscape:groupmode="layer"
     id="layer1"
     transform="translate(-89.288962,-119.87643)">
    <path
       inkscape:connector-curvature="0"
       id="path7255"
       d="m 92.688962,126.55143 c -1.806206,0 -3.275,-1.46879 -3.275,-3.275 0,-1.80618 1.468794,-3.275 3.275,-3.275 1.806205,0 3.275,1.46882 3.275,3.275 0,1.80621 -1.468795,3.275 -3.275,3.275"
       style="fill:#b5e60d;fill-opacity:0.87903231;fill-rule:nonzero;stroke:#fefefe;stroke-width:0.15;stroke-miterlimit:4;stroke-dasharray:none;stroke-opacity:0.822394;paint-order:stroke fill markers" />
    <path
       inkscape:connector-curvature="0"
       id="path7261"
       d="m 92.688963,126.19512 c -1.609548,0 -2.918684,-1.30916 -2.918684,-2.91871 0,-1.60954 1.309137,-2.91867 2.918684,-2.91867 1.609549,0 2.918683,1.30913 2.918683,2.91867 0,1.60955 -1.309134,2.91871 -2.918683,2.91871"
       style="fill:#e6e6e6;fill-opacity:0;fill-rule:nonzero;stroke:#636663;stroke-width:0.25;stroke-miterlimit:4;stroke-dasharray:none;stroke-opacity:0" />
    <path
       inkscape:connector-curvature="0"
       id="path7265"
       d="m 94.872634,123.2764 c 0,1.24467 -0.978138,2.25457 -2.183671,2.25457 -1.205534,0 -2.183673,-1.0099 -2.183673,-2.25457 0,-1.24465 0.978139,-2.2545 2.183673,-2.2545 1.205533,0 2.183671,1.00985 2.183671,2.2545"
       style="fill:#ffffff;fill-opacity:1;fill-rule:nonzero;stroke:#ffffff;stroke-width:0.311917;stroke-miterlimit:4;stroke-dasharray:none;stroke-opacity:0.803089;paint-order:stroke fill markers" />
    <g
       aria-label="step"
       id="text946"
       style="font-size:2.11667px;line-height:1.25;font-family:Bahnschrift;-inkscape-font-specification:Bahnschrift;fill:#333333;stroke-width:0.264583">
      <path
         d="m 91.224968,123.76632 q -0.09508,0 -0.1788,-0.0186 -0.08268,-0.0186 -0.15503,-0.0558 -0.07235,-0.0372 -0.133325,-0.093 v 0 l 0.125057,-0.154 v 0 q 0.08682,0.0661 0.172599,0.0992 0.08578,0.0331 0.169499,0.0331 0.125057,0 0.187069,-0.0382 0.06305,-0.0393 0.06305,-0.11679 0,-0.0517 -0.03411,-0.0775 -0.03411,-0.0258 -0.08475,-0.0341 -0.05064,-0.009 -0.142628,-0.0165 -0.0083,0 -0.01757,0 -0.0093,-0.001 -0.01757,-0.002 -0.0041,0 -0.0083,0 -0.0041,-0.001 -0.0083,-0.001 -0.104387,-0.008 -0.176734,-0.03 -0.07235,-0.0227 -0.120923,-0.0837 -0.04754,-0.061 -0.04754,-0.17467 0,-0.11369 0.04651,-0.18914 0.04651,-0.0754 0.138493,-0.11265 0.09198,-0.0382 0.230477,-0.0382 0.08372,0 0.159164,0.0155 0.07648,0.0155 0.145727,0.0465 0.06925,0.03 0.133326,0.0765 v 0 l -0.127124,0.154 v 0 q -0.08062,-0.0517 -0.159164,-0.0775 -0.07751,-0.0258 -0.151929,-0.0258 -0.107487,0 -0.161231,0.0372 -0.05374,0.0362 -0.05374,0.10956 0,0.0434 0.02997,0.0651 0.03101,0.0217 0.07752,0.0289 0.04651,0.007 0.132292,0.0124 0.0062,0.001 0.0124,0.001 0.0072,0 0.01447,0.001 0.0031,0 0.0062,0 0.0031,0 0.0062,0.001 0.112655,0.007 0.191203,0.03 0.07958,0.0227 0.133325,0.0899 0.05374,0.0672 0.05374,0.1943 0,0.11576 -0.04961,0.19224 -0.04961,0.0755 -0.149861,0.11369 -0.09922,0.0382 -0.250115,0.0382 z"
         style="font-size:2.11667px;fill:#333333;stroke-width:0.264583"
         id="path948" />
      <path
         d="m 92.222325,123.75598 q -0.130225,0 -0.191203,-0.0713 -0.05994,-0.0724 -0.05994,-0.21291 v -1.10587 h 0.21084 v 1.10794 q 0,0.0393 0.0155,0.061 0.0155,0.0207 0.04547,0.0207 h 0.101286 v 0.2005 z m -0.361736,-1.07797 h 0.483692 v 0.19017 h -0.483692 z"
         style="font-size:2.11667px;fill:#333333;stroke-width:0.264583"
         id="path950" />
      <path
         d="m 93.07292,123.76632 q -0.148828,0 -0.254248,-0.0558 -0.10542,-0.0558 -0.161231,-0.1633 -0.05478,-0.10852 -0.05478,-0.26148 v -0.12093 q 0,-0.15916 0.05271,-0.27181 0.05374,-0.11266 0.15503,-0.17157 0.101286,-0.0589 0.243913,-0.0589 0.134359,0 0.229443,0.0672 0.09508,0.0672 0.144695,0.1943 0.05064,0.12713 0.05064,0.30489 v 0.0703 h -0.723471 v -0.1695 h 0.522966 v 0 q -0.0093,-0.13125 -0.06821,-0.2036 -0.05788,-0.0734 -0.156063,-0.0734 -0.11989,0 -0.186036,0.0785 -0.06511,0.0786 -0.06511,0.22221 v 0.13642 q 0,0.13333 0.07028,0.20464 0.07028,0.0713 0.199471,0.0713 0.06408,0 0.127125,-0.0258 0.06305,-0.0258 0.112654,-0.0724 v 0 l 0.138493,0.13849 v 0 q -0.07958,0.0765 -0.1788,0.11886 -0.09922,0.0413 -0.199472,0.0413 z"
         style="font-size:2.11667px;fill:#333333;stroke-width:0.264583"
         id="path952" />
      <path
         d="m 93.768486,122.67801 h 0.21084 v 1.50896 h -0.21084 z m 0.480592,1.08831 q -0.100253,0 -0.174667,-0.0475 -0.07441,-0.0486 -0.109554,-0.13643 l 0.01447,-0.22428 q 0,0.0692 0.02481,0.11783 0.02481,0.0486 0.07131,0.0744 0.04754,0.0258 0.114721,0.0258 0.104387,0 0.161231,-0.0631 0.05788,-0.0641 0.05788,-0.17983 v -0.23254 q 0,-0.11783 -0.05788,-0.18294 -0.05684,-0.0651 -0.161231,-0.0651 -0.06718,0 -0.114721,0.0248 -0.04651,0.0248 -0.07131,0.0734 -0.02481,0.0476 -0.02481,0.11473 l -0.0217,-0.20671 q 0.04858,-0.094 0.127124,-0.14469 0.07855,-0.0517 0.174667,-0.0517 0.113688,0 0.194304,0.0517 0.08165,0.0506 0.124023,0.14882 0.04237,0.0982 0.04237,0.23668 v 0.23358 q 0,0.13643 -0.04341,0.23358 -0.04341,0.0971 -0.127124,0.14883 -0.08372,0.0506 -0.200505,0.0506 z"
         style="font-size:2.11667px;fill:#333333;stroke-width:0.264583"
         id="path954" />
    </g>
  </g>
</svg>
