<?xml version="1.0" encoding="UTF-8" standalone="no"?>
<svg
   xmlns:dc="http://purl.org/dc/elements/1.1/"
   xmlns:cc="http://creativecommons.org/ns#"
   xmlns:rdf="http://www.w3.org/1999/02/22-rdf-syntax-ns#"
   xmlns:svg="http://www.w3.org/2000/svg"
   xmlns="http://www.w3.org/2000/svg"
   xmlns:sodipodi="http://sodipodi.sourceforge.net/DTD/sodipodi-0.dtd"
   xmlns:inkscape="http://www.inkscape.org/namespaces/inkscape"
   width="6.8000002mm"
   height="6.8000002mm"
   viewBox="0 0 6.8000001 6.8000001"
   version="1.1"
   id="svg15246"
   sodipodi:docname="SmallPortRND.svg"
   inkscape:version="1.0.2 (e86c870879, 2021-01-15)">
  <defs
     id="defs15240">
    <clipPath
       id="clip89">
      <rect
         y="0"
         x="0"
         width="18"
         height="19"
         id="rect4864" />
    </clipPath>
    <clipPath
       id="clip90">
      <path
         inkscape:connector-curvature="0"
         d="m 0.898438,0.128906 h 16.25 v 17.882813 h -16.25 z m 0,0"
         id="path4861" />
    </clipPath>
    <mask
       id="mask44">
      <g
         style="filter:url(#alpha)"
         id="g4858"
         transform="matrix(0.26458333,0,0,0.26458333,89.358789,128.57765)">
        <rect
           x="0"
           y="0"
           width="3052.8701"
           height="3351.5"
           style="fill:#000000;fill-opacity:0.149994;stroke:none"
           id="rect4856" />
      </g>
    </mask>
    <filter
       id="alpha"
       filterUnits="objectBoundingBox"
       x="0"
       y="0"
       width="1"
       height="1">
      <feColorMatrix
         type="matrix"
         in="SourceGraphic"
         values="0 0 0 0 1 0 0 0 0 1 0 0 0 0 1 0 0 0 1 0"
         id="feColorMatrix4149" />
    </filter>
    <clipPath
       id="clipPath17821">
      <rect
         y="0"
         x="0"
         width="18"
         height="19"
         id="rect17819" />
    </clipPath>
    <clipPath
       id="clipPath17825">
      <path
         inkscape:connector-curvature="0"
         d="m 0.898438,0.128906 h 16.25 v 17.882813 h -16.25 z m 0,0"
         id="path17823" />
    </clipPath>
    <clipPath
       id="clip87">
      <rect
         y="0"
         x="0"
         width="24"
         height="26"
         id="rect4848" />
    </clipPath>
    <clipPath
       id="clip88">
      <path
         inkscape:connector-curvature="0"
         d="m 0.683594,0.921875 h 22.679687 v 24.9375 H 0.683594 Z m 0,0"
         id="path4845" />
    </clipPath>
    <mask
       id="mask43">
      <g
         style="filter:url(#alpha)"
         id="g4842"
         transform="matrix(0.26458333,0,0,0.26458333,89.358789,128.57765)">
        <rect
           x="0"
           y="0"
           width="3052.8701"
           height="3351.5"
           style="fill:#000000;fill-opacity:0.149994;stroke:none"
           id="rect4840" />
      </g>
    </mask>
    <filter
       id="filter17836"
       filterUnits="objectBoundingBox"
       x="0"
       y="0"
       width="1"
       height="1">
      <feColorMatrix
         type="matrix"
         in="SourceGraphic"
         values="0 0 0 0 1 0 0 0 0 1 0 0 0 0 1 0 0 0 1 0"
         id="feColorMatrix17834" />
    </filter>
    <clipPath
       id="clipPath17840">
      <rect
         y="0"
         x="0"
         width="24"
         height="26"
         id="rect17838" />
    </clipPath>
    <clipPath
       id="clipPath17844">
      <path
         inkscape:connector-curvature="0"
         d="m 0.683594,0.921875 h 22.679687 v 24.9375 H 0.683594 Z m 0,0"
         id="path17842" />
    </clipPath>
  </defs>
  <sodipodi:namedview
     id="base"
     pagecolor="#ffffff"
     bordercolor="#666666"
     borderopacity="1.0"
     inkscape:pageopacity="0.0"
     inkscape:pageshadow="2"
     inkscape:zoom="22.4"
     inkscape:cx="21.631182"
     inkscape:cy="16.086052"
     inkscape:document-units="mm"
     inkscape:current-layer="layer1"
     showgrid="false"
     inkscape:window-width="1920"
     inkscape:window-height="1017"
     inkscape:window-x="-8"
     inkscape:window-y="-8"
     inkscape:window-maximized="1"
     units="px"
     fit-margin-top="0"
     fit-margin-left="0"
     fit-margin-right="0"
     fit-margin-bottom="0"
     inkscape:document-rotation="0"
     inkscape:snap-bbox="true"
     inkscape:snap-bbox-midpoints="true"
     inkscape:pagecheckerboard="true" />
  <metadata
     id="metadata15243">
    <rdf:RDF>
      <cc:Work
         rdf:about="">
        <dc:format>image/svg+xml</dc:format>
        <dc:type
           rdf:resource="http://purl.org/dc/dcmitype/StillImage" />
        <dc:title />
      </cc:Work>
    </rdf:RDF>
  </metadata>
  <g
     inkscape:label="Layer 1"
     inkscape:groupmode="layer"
     id="layer1"
     transform="translate(-89.288962,-119.87643)">
    <path
       inkscape:connector-curvature="0"
       id="path7255"
       d="m 92.688962,126.55143 c -1.806206,0 -3.275,-1.46879 -3.275,-3.275 0,-1.80618 1.468794,-3.275 3.275,-3.275 1.806205,0 3.275,1.46882 3.275,3.275 0,1.80621 -1.468795,3.275 -3.275,3.275"
       style="fill:#1aa810;fill-opacity:0.87903231;fill-rule:nonzero;stroke:#fefefe;stroke-width:0.15;stroke-miterlimit:4;stroke-dasharray:none;stroke-opacity:0.822394;paint-order:stroke fill markers" />
    <path
       inkscape:connector-curvature="0"
       id="path7261"
       d="m 92.688963,126.19512 c -1.609548,0 -2.918684,-1.30916 -2.918684,-2.91871 0,-1.60954 1.309137,-2.91867 2.918684,-2.91867 1.609549,0 2.918683,1.30913 2.918683,2.91867 0,1.60955 -1.309134,2.91871 -2.918683,2.91871"
       style="fill:#e6e6e6;fill-opacity:0;fill-rule:nonzero;stroke:#636663;stroke-width:0.25;stroke-miterlimit:4;stroke-dasharray:none;stroke-opacity:0" />
    <path
       inkscape:connector-curvature="0"
       id="path7265"
       d="m 94.872634,123.2764 c 0,1.24467 -0.978138,2.25457 -2.183671,2.25457 -1.205534,0 -2.183673,-1.0099 -2.183673,-2.25457 0,-1.24465 0.978139,-2.2545 2.183673,-2.2545 1.205533,0 2.183671,1.00985 2.183671,2.2545"
       style="fill:#ffffff;fill-opacity:1;fill-rule:nonzero;stroke:#ffffff;stroke-width:0.311917;stroke-miterlimit:4;stroke-dasharray:none;stroke-opacity:0.803089;paint-order:stroke fill markers" />
    <g
       aria-label="rnd"
       id="text869"
       style="font-size:2.82222px;line-height:1.25;font-family:'DIN Alternate Light';-inkscape-font-specification:'DIN Alternate Light, ';letter-spacing:-0.238125px;fill:#000000;stroke-width:0.264583">
      <path
         d="m 91.941099,123.02563 -0.103353,0.10473 q -0.06339,-0.0634 -0.117133,-0.0854 -0.05374,-0.0221 -0.14056,-0.0221 -0.08268,0 -0.152962,0.0331 -0.0689,0.0317 -0.117133,0.0896 -0.04685,0.0579 -0.07028,0.13091 -0.02343,0.073 -0.02343,0.15847 v 0.83785 h -0.143316 v -1.36012 h 0.143316 v 0.18052 q 0.05926,-0.0937 0.168121,-0.14469 0.108865,-0.0524 0.230132,-0.0524 0.100597,0 0.177767,0.0289 0.07855,0.0289 0.148828,0.1006 z"
         style="font-size:2.82222px;fill:#000000;stroke-width:0.264583"
         id="path871" />
      <path
         d="M 93.035536,124.27275 H 92.89222 v -0.84336 q 0,-0.19706 -0.09646,-0.30179 -0.09646,-0.10473 -0.278363,-0.10473 -0.121267,0 -0.208084,0.0482 -0.08544,0.0469 -0.130913,0.13918 -0.04548,0.091 -0.04548,0.21911 v 0.84336 h -0.143316 v -1.36012 h 0.143316 v 0.16123 q 0.152962,-0.17777 0.401008,-0.17777 0.228754,0 0.361046,0.12954 0.14056,0.13367 0.14056,0.37758 z"
         style="font-size:2.82222px;fill:#000000;stroke-width:0.264583"
         id="path873" />
      <path
         d="m 94.304983,124.27275 h -0.143315 v -0.17501 q -0.05788,0.0758 -0.121268,0.11851 -0.06201,0.0413 -0.133669,0.0565 -0.07028,0.0165 -0.148828,0.0165 -0.214974,0 -0.333485,-0.11851 -0.175011,-0.17501 -0.175011,-0.57878 0,-0.40239 0.175011,-0.5774 0.05512,-0.0551 0.14056,-0.0868 0.08682,-0.0317 0.192925,-0.0317 0.126779,0 0.22462,0.0413 0.09784,0.04 0.179145,0.15021 v -0.82407 h 0.143315 z M 94.161668,123.592 q 0,-0.25769 -0.07855,-0.41341 -0.07855,-0.15572 -0.305924,-0.15572 -0.225998,0 -0.304546,0.15572 -0.07855,0.15572 -0.07855,0.41341 0,0.25907 0.07855,0.41479 0.07855,0.15572 0.304546,0.15572 0.227376,0 0.305924,-0.15572 0.07855,-0.15572 0.07855,-0.41479 z"
         style="font-size:2.82222px;fill:#000000;stroke-width:0.264583"
         id="path875" />
    </g>
  </g>
</svg>
