<?xml version="1.0" encoding="UTF-8" standalone="no"?>
<svg
   xmlns:dc="http://purl.org/dc/elements/1.1/"
   xmlns:cc="http://creativecommons.org/ns#"
   xmlns:rdf="http://www.w3.org/1999/02/22-rdf-syntax-ns#"
   xmlns:svg="http://www.w3.org/2000/svg"
   xmlns="http://www.w3.org/2000/svg"
   xmlns:sodipodi="http://sodipodi.sourceforge.net/DTD/sodipodi-0.dtd"
   xmlns:inkscape="http://www.inkscape.org/namespaces/inkscape"
   width="6.8000002mm"
   height="6.8000002mm"
   viewBox="0 0 6.8000001 6.8000001"
   version="1.1"
   id="svg15246"
   sodipodi:docname="SPCVR.svg"
   inkscape:version="1.0.2 (e86c870879, 2021-01-15)">
  <defs
     id="defs15240">
    <clipPath
       id="clip89">
      <rect
         y="0"
         x="0"
         width="18"
         height="19"
         id="rect4864" />
    </clipPath>
    <clipPath
       id="clip90">
      <path
         inkscape:connector-curvature="0"
         d="m 0.898438,0.128906 h 16.25 v 17.882813 h -16.25 z m 0,0"
         id="path4861" />
    </clipPath>
    <mask
       id="mask44">
      <g
         style="filter:url(#alpha)"
         id="g4858"
         transform="matrix(0.26458333,0,0,0.26458333,89.358789,128.57765)">
        <rect
           x="0"
           y="0"
           width="3052.8701"
           height="3351.5"
           style="fill:#000000;fill-opacity:0.149994;stroke:none"
           id="rect4856" />
      </g>
    </mask>
    <filter
       id="alpha"
       filterUnits="objectBoundingBox"
       x="0"
       y="0"
       width="1"
       height="1">
      <feColorMatrix
         type="matrix"
         in="SourceGraphic"
         values="0 0 0 0 1 0 0 0 0 1 0 0 0 0 1 0 0 0 1 0"
         id="feColorMatrix4149" />
    </filter>
    <clipPath
       id="clipPath17821">
      <rect
         y="0"
         x="0"
         width="18"
         height="19"
         id="rect17819" />
    </clipPath>
    <clipPath
       id="clipPath17825">
      <path
         inkscape:connector-curvature="0"
         d="m 0.898438,0.128906 h 16.25 v 17.882813 h -16.25 z m 0,0"
         id="path17823" />
    </clipPath>
    <clipPath
       id="clip87">
      <rect
         y="0"
         x="0"
         width="24"
         height="26"
         id="rect4848" />
    </clipPath>
    <clipPath
       id="clip88">
      <path
         inkscape:connector-curvature="0"
         d="m 0.683594,0.921875 h 22.679687 v 24.9375 H 0.683594 Z m 0,0"
         id="path4845" />
    </clipPath>
    <mask
       id="mask43">
      <g
         style="filter:url(#alpha)"
         id="g4842"
         transform="matrix(0.26458333,0,0,0.26458333,89.358789,128.57765)">
        <rect
           x="0"
           y="0"
           width="3052.8701"
           height="3351.5"
           style="fill:#000000;fill-opacity:0.149994;stroke:none"
           id="rect4840" />
      </g>
    </mask>
    <filter
       id="filter17836"
       filterUnits="objectBoundingBox"
       x="0"
       y="0"
       width="1"
       height="1">
      <feColorMatrix
         type="matrix"
         in="SourceGraphic"
         values="0 0 0 0 1 0 0 0 0 1 0 0 0 0 1 0 0 0 1 0"
         id="feColorMatrix17834" />
    </filter>
    <clipPath
       id="clipPath17840">
      <rect
         y="0"
         x="0"
         width="24"
         height="26"
         id="rect17838" />
    </clipPath>
    <clipPath
       id="clipPath17844">
      <path
         inkscape:connector-curvature="0"
         d="m 0.683594,0.921875 h 22.679687 v 24.9375 H 0.683594 Z m 0,0"
         id="path17842" />
    </clipPath>
  </defs>
  <sodipodi:namedview
     id="base"
     pagecolor="#ffffff"
     bordercolor="#666666"
     borderopacity="1.0"
     inkscape:pageopacity="0.0"
     inkscape:pageshadow="2"
     inkscape:zoom="16.000001"
     inkscape:cx="10.174916"
     inkscape:cy="11.740813"
     inkscape:document-units="mm"
     inkscape:current-layer="layer1"
     showgrid="false"
     inkscape:window-width="1920"
     inkscape:window-height="1017"
     inkscape:window-x="-8"
     inkscape:window-y="-8"
     inkscape:window-maximized="1"
     units="px"
     fit-margin-top="0"
     fit-margin-left="0"
     fit-margin-right="0"
     fit-margin-bottom="0"
     inkscape:document-rotation="0"
     inkscape:snap-bbox="true"
     inkscape:snap-bbox-midpoints="true"
     inkscape:pagecheckerboard="true" />
  <metadata
     id="metadata15243">
    <rdf:RDF>
      <cc:Work
         rdf:about="">
        <dc:format>image/svg+xml</dc:format>
        <dc:type
           rdf:resource="http://purl.org/dc/dcmitype/StillImage" />
        <dc:title />
      </cc:Work>
    </rdf:RDF>
  </metadata>
  <g
     inkscape:label="Layer 1"
     inkscape:groupmode="layer"
     id="layer1"
     transform="translate(-89.288962,-119.87643)">
    <path
       inkscape:connector-curvature="0"
       id="path7255"
       d="m 92.688962,126.55143 c -1.806206,0 -3.275,-1.46879 -3.275,-3.275 0,-1.80618 1.468794,-3.275 3.275,-3.275 1.806205,0 3.275,1.46882 3.275,3.275 0,1.80621 -1.468795,3.275 -3.275,3.275"
       style="fill:#9892fb;fill-opacity:1;fill-rule:nonzero;stroke:#fefefe;stroke-width:0.15;stroke-miterlimit:4;stroke-dasharray:none;stroke-opacity:0.86559141;paint-order:stroke fill markers" />
    <path
       inkscape:connector-curvature="0"
       id="path7261"
       d="m 92.688963,126.19512 c -1.609548,0 -2.918684,-1.30916 -2.918684,-2.91871 0,-1.60954 1.309137,-2.91867 2.918684,-2.91867 1.609549,0 2.918683,1.30913 2.918683,2.91867 0,1.60955 -1.309134,2.91871 -2.918683,2.91871"
       style="fill:#e6e6e6;fill-opacity:0;fill-rule:nonzero;stroke:#636663;stroke-width:0.25;stroke-miterlimit:4;stroke-dasharray:none;stroke-opacity:0" />
    <path
       inkscape:connector-curvature="0"
       id="path7265"
       d="m 94.872634,123.2764 c 0,1.24467 -0.978138,2.25457 -2.183671,2.25457 -1.205534,0 -2.183673,-1.0099 -2.183673,-2.25457 0,-1.24465 0.978139,-2.2545 2.183673,-2.2545 1.205533,0 2.183671,1.00985 2.183671,2.2545"
       style="fill:#ffffff;fill-opacity:1;fill-rule:nonzero;stroke:#ffffff;stroke-width:0.311917;stroke-miterlimit:4;stroke-dasharray:none;stroke-opacity:0.803089;paint-order:stroke fill markers" />
    <path
       style="fill:#000000;fill-opacity:1;stroke:#ffffff;stroke-width:0.0253221;stroke-opacity:0.946237;paint-order:stroke markers fill;stop-color:#000000"
       d="m 91.863618,124.66764 c 5.6e-5,-0.003 -0.0054,-0.008 -0.01206,-0.01 -0.0067,-0.001 -0.01705,-0.0157 -0.02308,-0.0299 -0.0102,-0.0239 -0.0096,-0.12196 0.0081,-1.3538 0.01105,-0.77316 0.02151,-1.32788 0.02494,-1.32783 0.0033,5e-5 0.0078,-0.008 0.01031,-0.0162 0.0023,-0.009 0.01042,-0.0182 0.01781,-0.0203 0.0074,-0.003 0.0135,-0.006 0.01355,-0.0107 1.02e-4,-0.009 0.07221,-0.006 0.07753,0.002 0.0023,0.004 0.01083,0.01 0.01868,0.0135 0.0079,0.002 0.02935,0.0156 0.04767,0.0271 0.01837,0.0109 0.0393,0.0239 0.04663,0.0278 0.0074,0.003 0.02231,0.0132 0.03331,0.0206 0.01105,0.006 0.02644,0.0164 0.03435,0.0201 0.0079,0.002 0.01626,0.0107 0.01867,0.0138 0.0023,0.004 0.01031,0.006 0.01731,0.008 0.0071,1.1e-4 0.01304,0.002 0.01302,0.005 -5.8e-5,0.003 0.0068,0.006 0.01491,0.0117 0.0083,0.001 0.01651,0.006 0.0184,0.009 0.0058,0.005 0.02898,0.0213 0.0483,0.0291 0.0101,0.004 0.01838,0.01 0.01827,0.0136 -5.7e-5,0.003 0.0043,0.005 0.0096,0.005 0.0053,7e-5 0.01354,0.004 0.01842,0.008 0.0048,0.004 0.02227,0.0156 0.03877,0.0244 0.01649,0.009 0.039,0.0218 0.04997,0.029 0.01105,0.006 0.03348,0.0201 0.04996,0.029 0.01649,0.009 0.0315,0.0177 0.03331,0.0198 0.0018,0.002 0.0078,0.004 0.01331,0.009 0.0055,0.002 0.01899,0.0109 0.02997,0.0185 0.01105,0.006 0.02823,0.0172 0.03833,0.0214 0.0101,0.004 0.0184,0.009 0.01831,0.0122 -3.7e-5,0.002 0.01345,0.0107 0.02992,0.0183 0.01645,0.008 0.02999,0.0156 0.02997,0.0181 -4e-6,0.002 0.0083,0.008 0.01838,0.012 0.0101,0.004 0.02886,0.0143 0.04167,0.0222 0.01289,0.008 0.03232,0.0197 0.0433,0.0261 0.01954,0.011 0.06067,0.0366 0.08684,0.0539 0.0072,0.004 0.01948,0.012 0.02744,0.015 0.0079,0.002 0.01629,0.01 0.01868,0.0137 0.0023,0.004 0.01031,0.006 0.01731,0.008 0.0071,1e-4 0.01304,0.002 0.01301,0.005 -5.6e-5,0.003 0.0067,0.006 0.01458,0.0117 0.0082,0.001 0.01885,0.009 0.02379,0.0143 0.0048,0.004 0.01336,0.01 0.01872,0.009 0.0053,7e-5 0.0096,0.003 0.0096,0.005 -7.7e-5,0.004 0.0043,0.005 0.0096,0.005 0.0053,6e-5 0.01354,0.004 0.01842,0.008 0.0048,0.004 0.01627,0.0123 0.02543,0.017 0.009,0.005 0.03165,0.0177 0.04998,0.0292 0.01827,0.012 0.03976,0.0238 0.04767,0.0274 0.0079,0.002 0.01626,0.0107 0.01868,0.0139 0.0023,0.004 0.01031,0.006 0.01731,0.008 0.0071,9e-5 0.01304,0.002 0.01302,0.005 -5.8e-5,0.003 0.0068,0.006 0.01499,0.0107 0.0083,0.001 0.01651,0.006 0.01842,0.009 0.0049,0.005 0.0279,0.0206 0.04649,0.0288 0.0091,0.004 0.01816,0.009 0.01999,0.0121 0.0019,0.002 0.01393,0.0107 0.02676,0.0175 0.0419,0.0232 0.06962,0.0396 0.08994,0.0531 0.01105,0.006 0.02598,0.0163 0.03331,0.02 0.0073,0.003 0.02831,0.0163 0.04664,0.0275 0.01837,0.0108 0.03929,0.0238 0.04663,0.0278 0.0073,0.003 0.02233,0.013 0.03332,0.0204 0.01105,0.006 0.03348,0.0201 0.04999,0.0288 0.01648,0.009 0.03156,0.0178 0.03343,0.0206 0.0019,0.002 0.01096,0.008 0.01999,0.0126 0.01533,0.006 0.04754,0.0259 0.0965,0.0565 0.01108,0.005 0.02598,0.0157 0.03333,0.0195 0.0073,0.003 0.02232,0.0132 0.03332,0.0205 0.01105,0.006 0.02644,0.0164 0.03434,0.0201 0.0079,0.002 0.01626,0.0107 0.01868,0.0139 0.0023,0.004 0.01031,0.006 0.01731,0.008 0.0071,1.1e-4 0.01302,0.003 0.01302,0.005 -5.6e-5,0.003 0.0076,0.006 0.01667,0.0107 0.0091,0.001 0.01668,0.006 0.01662,0.01 -5.7e-5,0.003 0.0077,0.005 0.01663,0.01 0.0091,0.001 0.01666,0.008 0.01667,0.0107 -5.4e-5,0.003 0.0033,0.005 0.0076,0.004 0.0062,9e-5 0.08157,0.0437 0.119136,0.069 0.0055,0.004 0.0164,0.01 0.02435,0.0132 0.0079,0.002 0.01629,0.01 0.01868,0.0138 0.0023,0.004 0.01031,0.006 0.01731,0.008 0.0071,1e-4 0.01302,0.003 0.01302,0.005 -5.6e-5,0.003 0.0068,0.006 0.0149,0.0117 0.0083,0.001 0.02433,0.0153 0.03566,0.0276 0.01741,0.0192 0.02051,0.0282 0.02013,0.0568 -4.19e-4,0.0288 -0.0038,0.0371 -0.02173,0.0554 -0.01168,0.0119 -0.03495,0.0282 -0.05169,0.0364 -0.01664,0.006 -0.0396,0.0204 -0.05078,0.0273 -0.02019,0.0121 -0.04627,0.0265 -0.09112,0.05 -0.01286,0.006 -0.02757,0.0159 -0.03268,0.0204 -0.005,0.004 -0.01361,0.008 -0.01889,0.008 -0.0053,-6e-5 -0.0096,0.003 -0.0097,0.005 -7.5e-5,0.004 -0.0044,0.005 -0.0097,0.005 -0.0053,-6e-5 -0.01375,0.003 -0.0189,0.009 -0.005,0.004 -0.01602,0.0112 -0.02421,0.0136 -0.0083,0.003 -0.0148,0.005 -0.01494,0.0107 -5.7e-5,0.003 -0.0059,0.005 -0.0131,0.005 -0.0071,-1.1e-4 -0.01504,0.002 -0.01744,0.005 -0.0025,0.004 -0.01107,0.01 -0.01906,0.0132 -0.0081,0.004 -0.02055,0.01 -0.02784,0.0143 -0.02666,0.0165 -0.0685,0.0408 -0.08834,0.0514 -0.01116,0.005 -0.031,0.0172 -0.04404,0.0248 -0.01304,0.008 -0.03124,0.017 -0.04047,0.0208 -0.0092,0.003 -0.01834,0.009 -0.02032,0.0119 -0.0019,0.002 -0.01726,0.0116 -0.03401,0.0194 -0.01664,0.006 -0.03644,0.0183 -0.04375,0.0224 -0.05656,0.0335 -0.07044,0.0416 -0.08834,0.0511 -0.01117,0.005 -0.031,0.0172 -0.04404,0.0248 -0.01305,0.008 -0.02982,0.0169 -0.03726,0.0206 -0.0073,0.004 -0.02877,0.0156 -0.04741,0.0265 -0.01864,0.0109 -0.0415,0.0234 -0.05079,0.0276 -0.0092,0.004 -0.01852,0.01 -0.02048,0.0125 -0.0035,0.004 -0.04202,0.0203 -0.046,0.0185 -0.0013,-4.2e-4 -0.0074,0.005 -0.01361,0.0112 -0.0063,0.006 -0.02512,0.0189 -0.04189,0.0272 -0.01664,0.006 -0.0396,0.0206 -0.05079,0.0274 -0.02019,0.0121 -0.04626,0.0263 -0.09112,0.0499 -0.01286,0.006 -0.02757,0.016 -0.03268,0.0204 -0.005,0.004 -0.01361,0.008 -0.01889,0.008 -0.0053,-7e-5 -0.0097,0.002 -0.0097,0.005 -5.8e-5,0.003 -0.0076,0.009 -0.01694,0.01 -0.0092,0.002 -0.0168,0.005 -0.01695,0.0107 -7.7e-5,0.004 -0.0062,0.005 -0.01371,0.005 -0.0074,-9e-5 -0.01535,0.003 -0.01766,0.01 -0.0021,0.005 -0.0096,0.01 -0.01631,0.01 -0.0068,-10e-5 -0.01405,0.002 -0.01604,0.004 -0.002,0.003 -0.01592,0.0121 -0.03071,0.0196 -0.0147,0.006 -0.03994,0.0216 -0.05591,0.0316 -0.04416,0.0275 -0.08121,0.0476 -0.101787,0.0553 -0.0102,0.003 -0.01858,0.009 -0.01863,0.0122 -5.6e-5,0.003 -0.0076,0.008 -0.01693,0.009 -0.0092,0.002 -0.0168,0.005 -0.01695,0.0108 -7.4e-5,0.004 -0.0058,0.005 -0.01268,0.005 -0.007,-1.2e-4 -0.01635,0.003 -0.02112,0.01 -0.0046,0.005 -0.0127,0.01 -0.01775,0.01 -0.005,-7e-5 -0.0093,0.002 -0.0095,0.005 -5.6e-5,0.003 -0.0067,0.009 -0.01466,0.0107 -0.0082,0.003 -0.04075,0.0195 -0.0728,0.0384 -0.03202,0.0188 -0.06278,0.0363 -0.06836,0.0388 -0.0056,0.002 -0.01929,0.01 -0.03049,0.0173 -0.01119,0.006 -0.03406,0.0195 -0.05078,0.0277 -0.01665,0.006 -0.03451,0.0187 -0.03946,0.0234 -0.0049,0.004 -0.01331,0.008 -0.0186,0.008 -0.0053,-8e-5 -0.0097,0.002 -0.0097,0.005 -5.7e-5,0.003 -0.0086,0.01 -0.01867,0.013 -0.01953,0.008 -0.04332,0.0207 -0.04911,0.0277 -0.0018,0.002 -0.0102,0.005 -0.01857,0.009 -0.0084,0.003 -0.01511,0.005 -0.01526,0.0107 -5.6e-5,0.003 -0.0059,0.005 -0.01311,0.005 -0.0071,-1.1e-4 -0.01504,0.002 -0.01745,0.005 -0.0025,0.004 -0.01107,0.01 -0.01908,0.0132 -0.0081,0.004 -0.02055,0.01 -0.02786,0.0145 -0.06055,0.0373 -0.11861,0.0696 -0.140795,0.0779 -0.0102,0.003 -0.01861,0.01 -0.01867,0.0131 -5.7e-5,0.003 -0.0166,0.004 -0.03701,0.005 -0.02034,-3.2e-4 -0.03691,-0.002 -0.03686,-0.006 z"
       id="path946-5" />
  </g>
</svg>
