<?xml version="1.0" encoding="UTF-8" standalone="no"?>
<svg
   xmlns:dc="http://purl.org/dc/elements/1.1/"
   xmlns:cc="http://creativecommons.org/ns#"
   xmlns:rdf="http://www.w3.org/1999/02/22-rdf-syntax-ns#"
   xmlns:svg="http://www.w3.org/2000/svg"
   xmlns="http://www.w3.org/2000/svg"
   xmlns:sodipodi="http://sodipodi.sourceforge.net/DTD/sodipodi-0.dtd"
   xmlns:inkscape="http://www.inkscape.org/namespaces/inkscape"
   width="6.8000002mm"
   height="6.8000002mm"
   viewBox="0 0 6.8000001 6.8000001"
   version="1.1"
   id="svg15246"
   sodipodi:docname="SPCVN.svg"
   inkscape:version="1.0.2 (e86c870879, 2021-01-15)">
  <defs
     id="defs15240">
    <clipPath
       id="clip89">
      <rect
         y="0"
         x="0"
         width="18"
         height="19"
         id="rect4864" />
    </clipPath>
    <clipPath
       id="clip90">
      <path
         inkscape:connector-curvature="0"
         d="m 0.898438,0.128906 h 16.25 v 17.882813 h -16.25 z m 0,0"
         id="path4861" />
    </clipPath>
    <mask
       id="mask44">
      <g
         style="filter:url(#alpha)"
         id="g4858"
         transform="matrix(0.26458333,0,0,0.26458333,89.358789,128.57765)">
        <rect
           x="0"
           y="0"
           width="3052.8701"
           height="3351.5"
           style="fill:#000000;fill-opacity:0.149994;stroke:none"
           id="rect4856" />
      </g>
    </mask>
    <filter
       id="alpha"
       filterUnits="objectBoundingBox"
       x="0"
       y="0"
       width="1"
       height="1">
      <feColorMatrix
         type="matrix"
         in="SourceGraphic"
         values="0 0 0 0 1 0 0 0 0 1 0 0 0 0 1 0 0 0 1 0"
         id="feColorMatrix4149" />
    </filter>
    <clipPath
       id="clipPath17821">
      <rect
         y="0"
         x="0"
         width="18"
         height="19"
         id="rect17819" />
    </clipPath>
    <clipPath
       id="clipPath17825">
      <path
         inkscape:connector-curvature="0"
         d="m 0.898438,0.128906 h 16.25 v 17.882813 h -16.25 z m 0,0"
         id="path17823" />
    </clipPath>
    <clipPath
       id="clip87">
      <rect
         y="0"
         x="0"
         width="24"
         height="26"
         id="rect4848" />
    </clipPath>
    <clipPath
       id="clip88">
      <path
         inkscape:connector-curvature="0"
         d="m 0.683594,0.921875 h 22.679687 v 24.9375 H 0.683594 Z m 0,0"
         id="path4845" />
    </clipPath>
    <mask
       id="mask43">
      <g
         style="filter:url(#alpha)"
         id="g4842"
         transform="matrix(0.26458333,0,0,0.26458333,89.358789,128.57765)">
        <rect
           x="0"
           y="0"
           width="3052.8701"
           height="3351.5"
           style="fill:#000000;fill-opacity:0.149994;stroke:none"
           id="rect4840" />
      </g>
    </mask>
    <filter
       id="filter17836"
       filterUnits="objectBoundingBox"
       x="0"
       y="0"
       width="1"
       height="1">
      <feColorMatrix
         type="matrix"
         in="SourceGraphic"
         values="0 0 0 0 1 0 0 0 0 1 0 0 0 0 1 0 0 0 1 0"
         id="feColorMatrix17834" />
    </filter>
    <clipPath
       id="clipPath17840">
      <rect
         y="0"
         x="0"
         width="24"
         height="26"
         id="rect17838" />
    </clipPath>
    <clipPath
       id="clipPath17844">
      <path
         inkscape:connector-curvature="0"
         d="m 0.683594,0.921875 h 22.679687 v 24.9375 H 0.683594 Z m 0,0"
         id="path17842" />
    </clipPath>
  </defs>
  <sodipodi:namedview
     id="base"
     pagecolor="#ffffff"
     bordercolor="#666666"
     borderopacity="1.0"
     inkscape:pageopacity="0.0"
     inkscape:pageshadow="2"
     inkscape:zoom="11.313709"
     inkscape:cx="-16.23823"
     inkscape:cy="18.734882"
     inkscape:document-units="mm"
     inkscape:current-layer="layer1"
     showgrid="false"
     inkscape:window-width="1920"
     inkscape:window-height="1017"
     inkscape:window-x="-8"
     inkscape:window-y="-8"
     inkscape:window-maximized="1"
     units="px"
     fit-margin-top="0"
     fit-margin-left="0"
     fit-margin-right="0"
     fit-margin-bottom="0"
     inkscape:document-rotation="0"
     inkscape:snap-bbox="true"
     inkscape:snap-bbox-midpoints="true"
     inkscape:pagecheckerboard="true" />
  <metadata
     id="metadata15243">
    <rdf:RDF>
      <cc:Work
         rdf:about="">
        <dc:format>image/svg+xml</dc:format>
        <dc:type
           rdf:resource="http://purl.org/dc/dcmitype/StillImage" />
        <dc:title />
      </cc:Work>
    </rdf:RDF>
  </metadata>
  <g
     inkscape:label="Layer 1"
     inkscape:groupmode="layer"
     id="layer1"
     transform="translate(-89.288962,-119.87643)">
    <path
       inkscape:connector-curvature="0"
       id="path7255"
       d="m 92.688962,126.55143 c -1.806206,0 -3.275,-1.46879 -3.275,-3.275 0,-1.80618 1.468794,-3.275 3.275,-3.275 1.806205,0 3.275,1.46882 3.275,3.275 0,1.80621 -1.468795,3.275 -3.275,3.275"
       style="fill:#fb8590;fill-opacity:1;fill-rule:nonzero;stroke:#fefefe;stroke-width:0.15;stroke-miterlimit:4;stroke-dasharray:none;stroke-opacity:0.86559141;paint-order:stroke fill markers" />
    <path
       inkscape:connector-curvature="0"
       id="path7261"
       d="m 92.688963,126.19512 c -1.609548,0 -2.918684,-1.30916 -2.918684,-2.91871 0,-1.60954 1.309137,-2.91867 2.918684,-2.91867 1.609549,0 2.918683,1.30913 2.918683,2.91867 0,1.60955 -1.309134,2.91871 -2.918683,2.91871"
       style="fill:#e6e6e6;fill-opacity:0;fill-rule:nonzero;stroke:#636663;stroke-width:0.25;stroke-miterlimit:4;stroke-dasharray:none;stroke-opacity:0" />
    <path
       inkscape:connector-curvature="0"
       id="path7265"
       d="m 94.872634,123.2764 c 0,1.24467 -0.978138,2.25457 -2.183671,2.25457 -1.205534,0 -2.183673,-1.0099 -2.183673,-2.25457 0,-1.24465 0.978139,-2.2545 2.183673,-2.2545 1.205533,0 2.183671,1.00985 2.183671,2.2545"
       style="fill:#ffffff;fill-opacity:1;fill-rule:nonzero;stroke:#ffffff;stroke-width:0.311917;stroke-miterlimit:4;stroke-dasharray:none;stroke-opacity:0.803089;paint-order:stroke fill markers" />
    <g
       aria-label="#"
       id="text984"
       style="font-size:3.52778px;line-height:1.25;font-family:'DIN Alternate Light';-inkscape-font-specification:'DIN Alternate Light, ';fill:#000000;stroke-width:0.264583">
      <path
         d="m 93.577794,122.99049 h -0.353122 l -0.08785,0.53916 h 0.339342 v 0.15503 h -0.363458 l -0.134359,0.84749 h -0.179145 l 0.136081,-0.84749 h -0.620117 l -0.130914,0.84749 h -0.179145 l 0.134359,-0.84749 h -0.339342 v -0.15503 h 0.363457 l 0.08785,-0.53916 h -0.349677 v -0.15847 h 0.370348 l 0.127469,-0.81132 h 0.184312 l -0.130913,0.81132 h 0.616672 l 0.127469,-0.81132 h 0.1757 l -0.125746,0.81132 h 0.330729 z m -0.532268,0 h -0.616672 l -0.08957,0.53916 h 0.618395 z"
         style="font-size:3.52778px;fill:#000000;stroke-width:0.264583"
         id="path986" />
    </g>
  </g>
</svg>
