<?xml version="1.0" encoding="UTF-8" standalone="no"?>
<svg
   xmlns:dc="http://purl.org/dc/elements/1.1/"
   xmlns:cc="http://creativecommons.org/ns#"
   xmlns:rdf="http://www.w3.org/1999/02/22-rdf-syntax-ns#"
   xmlns:svg="http://www.w3.org/2000/svg"
   xmlns="http://www.w3.org/2000/svg"
   xmlns:sodipodi="http://sodipodi.sourceforge.net/DTD/sodipodi-0.dtd"
   xmlns:inkscape="http://www.inkscape.org/namespaces/inkscape"
   width="6.8000002mm"
   height="6.8000002mm"
   viewBox="0 0 6.8000001 6.8000001"
   version="1.1"
   id="svg15246"
   sodipodi:docname="SPEOC.svg"
   inkscape:version="1.0.2 (e86c870879, 2021-01-15)">
  <defs
     id="defs15240">
    <clipPath
       id="clip89">
      <rect
         y="0"
         x="0"
         width="18"
         height="19"
         id="rect4864" />
    </clipPath>
    <clipPath
       id="clip90">
      <path
         inkscape:connector-curvature="0"
         d="m 0.898438,0.128906 h 16.25 v 17.882813 h -16.25 z m 0,0"
         id="path4861" />
    </clipPath>
    <mask
       id="mask44">
      <g
         style="filter:url(#alpha)"
         id="g4858"
         transform="matrix(0.26458333,0,0,0.26458333,89.358789,128.57765)">
        <rect
           x="0"
           y="0"
           width="3052.8701"
           height="3351.5"
           style="fill:#000000;fill-opacity:0.149994;stroke:none"
           id="rect4856" />
      </g>
    </mask>
    <filter
       id="alpha"
       filterUnits="objectBoundingBox"
       x="0"
       y="0"
       width="1"
       height="1">
      <feColorMatrix
         type="matrix"
         in="SourceGraphic"
         values="0 0 0 0 1 0 0 0 0 1 0 0 0 0 1 0 0 0 1 0"
         id="feColorMatrix4149" />
    </filter>
    <clipPath
       id="clipPath17821">
      <rect
         y="0"
         x="0"
         width="18"
         height="19"
         id="rect17819" />
    </clipPath>
    <clipPath
       id="clipPath17825">
      <path
         inkscape:connector-curvature="0"
         d="m 0.898438,0.128906 h 16.25 v 17.882813 h -16.25 z m 0,0"
         id="path17823" />
    </clipPath>
    <clipPath
       id="clip87">
      <rect
         y="0"
         x="0"
         width="24"
         height="26"
         id="rect4848" />
    </clipPath>
    <clipPath
       id="clip88">
      <path
         inkscape:connector-curvature="0"
         d="m 0.683594,0.921875 h 22.679687 v 24.9375 H 0.683594 Z m 0,0"
         id="path4845" />
    </clipPath>
    <mask
       id="mask43">
      <g
         style="filter:url(#alpha)"
         id="g4842"
         transform="matrix(0.26458333,0,0,0.26458333,89.358789,128.57765)">
        <rect
           x="0"
           y="0"
           width="3052.8701"
           height="3351.5"
           style="fill:#000000;fill-opacity:0.149994;stroke:none"
           id="rect4840" />
      </g>
    </mask>
    <filter
       id="filter17836"
       filterUnits="objectBoundingBox"
       x="0"
       y="0"
       width="1"
       height="1">
      <feColorMatrix
         type="matrix"
         in="SourceGraphic"
         values="0 0 0 0 1 0 0 0 0 1 0 0 0 0 1 0 0 0 1 0"
         id="feColorMatrix17834" />
    </filter>
    <clipPath
       id="clipPath17840">
      <rect
         y="0"
         x="0"
         width="24"
         height="26"
         id="rect17838" />
    </clipPath>
    <clipPath
       id="clipPath17844">
      <path
         inkscape:connector-curvature="0"
         d="m 0.683594,0.921875 h 22.679687 v 24.9375 H 0.683594 Z m 0,0"
         id="path17842" />
    </clipPath>
  </defs>
  <sodipodi:namedview
     id="base"
     pagecolor="#ffffff"
     bordercolor="#666666"
     borderopacity="1.0"
     inkscape:pageopacity="0.0"
     inkscape:pageshadow="2"
     inkscape:zoom="22.627417"
     inkscape:cx="7.4670949"
     inkscape:cy="14.367462"
     inkscape:document-units="mm"
     inkscape:current-layer="layer1"
     showgrid="false"
     inkscape:window-width="1254"
     inkscape:window-height="1040"
     inkscape:window-x="533"
     inkscape:window-y="57"
     inkscape:window-maximized="0"
     units="px"
     fit-margin-top="0"
     fit-margin-left="0"
     fit-margin-right="0"
     fit-margin-bottom="0"
     inkscape:document-rotation="0"
     inkscape:snap-bbox="true"
     inkscape:snap-bbox-midpoints="true"
     inkscape:pagecheckerboard="true" />
  <metadata
     id="metadata15243">
    <rdf:RDF>
      <cc:Work
         rdf:about="">
        <dc:format>image/svg+xml</dc:format>
        <dc:type
           rdf:resource="http://purl.org/dc/dcmitype/StillImage" />
        <dc:title />
      </cc:Work>
    </rdf:RDF>
  </metadata>
  <g
     inkscape:label="Layer 1"
     inkscape:groupmode="layer"
     id="layer1"
     transform="translate(-89.288962,-119.87643)">
    <path
       inkscape:connector-curvature="0"
       id="path7255"
       d="m 92.688962,126.55143 c -1.806206,0 -3.275,-1.46879 -3.275,-3.275 0,-1.80618 1.468794,-3.275 3.275,-3.275 1.806205,0 3.275,1.46882 3.275,3.275 0,1.80621 -1.468795,3.275 -3.275,3.275"
       style="fill:#fa70cd;fill-opacity:0.94594592;fill-rule:nonzero;stroke:#fefefe;stroke-width:0.15;stroke-miterlimit:4;stroke-dasharray:none;stroke-opacity:0.86559141;paint-order:stroke fill markers" />
    <path
       inkscape:connector-curvature="0"
       id="path7261"
       d="m 92.688963,126.19512 c -1.609548,0 -2.918684,-1.30916 -2.918684,-2.91871 0,-1.60954 1.309137,-2.91867 2.918684,-2.91867 1.609549,0 2.918683,1.30913 2.918683,2.91867 0,1.60955 -1.309134,2.91871 -2.918683,2.91871"
       style="fill:#e6e6e6;fill-opacity:0;fill-rule:nonzero;stroke:#636663;stroke-width:0.25;stroke-miterlimit:4;stroke-dasharray:none;stroke-opacity:0" />
    <path
       inkscape:connector-curvature="0"
       id="path7265"
       d="m 94.872634,123.2764 c 0,1.24467 -0.978138,2.25457 -2.183671,2.25457 -1.205534,0 -2.183673,-1.0099 -2.183673,-2.25457 0,-1.24465 0.978139,-2.2545 2.183673,-2.2545 1.205533,0 2.183671,1.00985 2.183671,2.2545"
       style="fill:#ffffff;fill-opacity:1;fill-rule:nonzero;stroke:#ffffff;stroke-width:0.311917;stroke-miterlimit:4;stroke-dasharray:none;stroke-opacity:0.803089;paint-order:stroke fill markers" />
    <g
       aria-label="eoc"
       id="text924"
       style="font-size:3.175px;line-height:1.25;font-family:'DIN Alternate Light';-inkscape-font-specification:'DIN Alternate Light, ';letter-spacing:-0.277813px;fill:#000000;stroke-width:0.264583">
      <path
         d="m 91.93893,123.31131 h -1.063501 q 0,0.29145 0.127124,0.44803 0.128674,0.15503 0.37052,0.15503 0.133325,0 0.227893,-0.0419 0.09457,-0.0419 0.195337,-0.14262 l 0.120923,0.0961 q -0.122474,0.12247 -0.248047,0.17828 -0.124024,0.0558 -0.305408,0.0558 -0.21084,0 -0.356567,-0.0884 -0.144178,-0.0899 -0.220142,-0.2651 -0.07441,-0.17518 -0.07441,-0.43098 0,-0.18603 0.04186,-0.33021 0.04186,-0.14573 0.119372,-0.24495 0.07906,-0.0992 0.195337,-0.15348 0.116272,-0.0543 0.257349,-0.0543 0.144177,0 0.255798,0.0496 0.111621,0.0496 0.192237,0.14728 0.08062,0.0961 0.122473,0.2341 0.04186,0.13797 0.04186,0.3147 z m -0.162781,-0.13023 q -0.0047,-0.11317 -0.01395,-0.16278 -0.0093,-0.0512 -0.03876,-0.12557 -0.04806,-0.11782 -0.15813,-0.18759 -0.110071,-0.0698 -0.238745,-0.0698 -0.131775,0 -0.238745,0.0698 -0.10697,0.0682 -0.15813,0.18759 -0.02946,0.0744 -0.04031,0.13022 -0.0093,0.0558 -0.01395,0.15813 z"
         style="font-size:3.175px;fill:#000000;stroke-width:0.264583"
         id="path951" />
      <path
         d="m 93.327682,123.27565 q 0,0.12247 -0.0155,0.23255 -0.0155,0.11007 -0.05736,0.20929 -0.04186,0.0992 -0.117822,0.17518 -0.170533,0.16743 -0.424781,0.16743 -0.255798,0 -0.42633,-0.16743 -0.07596,-0.076 -0.117822,-0.17363 -0.04186,-0.0992 -0.05736,-0.20774 -0.0155,-0.10852 -0.0155,-0.23565 0,-0.19223 0.04031,-0.34881 0.04031,-0.15658 0.150379,-0.26665 0.167432,-0.16744 0.42633,-0.16744 0.257349,0 0.424781,0.16744 0.07596,0.076 0.117822,0.17518 0.04186,0.0992 0.05736,0.20929 0.0155,0.10852 0.0155,0.23099 z m -0.162781,0 q 0,-0.17673 -0.02635,-0.30076 -0.02481,-0.12402 -0.110071,-0.20928 -0.127124,-0.13023 -0.31626,-0.13023 -0.190686,0 -0.31781,0.13023 -0.08527,0.0853 -0.111621,0.21394 -0.0248,0.12712 -0.0248,0.2961 0,0.16743 0.0248,0.29766 0.02635,0.12867 0.111621,0.21394 0.130225,0.13022 0.31781,0.13022 0.186036,0 0.31626,-0.13022 0.08527,-0.0853 0.110071,-0.20929 0.02635,-0.12558 0.02635,-0.30231 z"
         style="font-size:3.175px;fill:#000000;stroke-width:0.264583"
         id="path953" />
      <path
         d="m 94.665274,123.82601 q -0.122473,0.13487 -0.234094,0.18448 -0.111621,0.0496 -0.271302,0.0496 -0.153479,0 -0.277502,-0.0527 -0.122473,-0.0543 -0.21239,-0.15813 -0.08992,-0.10387 -0.136426,-0.25115 -0.04651,-0.14728 -0.04651,-0.32246 0,-0.24339 0.08062,-0.41858 0.08217,-0.17518 0.234094,-0.26975 0.151929,-0.0946 0.358117,-0.0946 0.164332,0 0.274402,0.0512 0.111621,0.0496 0.230994,0.18294 l -0.111621,0.10232 q -0.06356,-0.0729 -0.124024,-0.11472 -0.06046,-0.0434 -0.124023,-0.0605 -0.06201,-0.0186 -0.145728,-0.0186 -0.2651,0 -0.406176,0.20309 -0.05581,0.0806 -0.08062,0.18448 -0.02325,0.10232 -0.02325,0.2527 0,0.15038 0.02325,0.2527 0.02326,0.10077 0.08062,0.18603 0.141076,0.20309 0.406176,0.20309 0.120923,0 0.20929,-0.0419 0.08837,-0.0434 0.184485,-0.15192 z"
         style="font-size:3.175px;fill:#000000;stroke-width:0.264583"
         id="path955" />
    </g>
  </g>
</svg>
