<?xml version="1.0" encoding="UTF-8" standalone="no"?>
<svg
   xmlns:dc="http://purl.org/dc/elements/1.1/"
   xmlns:cc="http://creativecommons.org/ns#"
   xmlns:rdf="http://www.w3.org/1999/02/22-rdf-syntax-ns#"
   xmlns:svg="http://www.w3.org/2000/svg"
   xmlns="http://www.w3.org/2000/svg"
   xmlns:sodipodi="http://sodipodi.sourceforge.net/DTD/sodipodi-0.dtd"
   xmlns:inkscape="http://www.inkscape.org/namespaces/inkscape"
   width="6.8000002mm"
   height="6.8000002mm"
   viewBox="0 0 6.8000001 6.8000001"
   version="1.1"
   id="svg15246"
   sodipodi:docname="SPOUT.svg"
   inkscape:version="1.0.2 (e86c870879, 2021-01-15)">
  <defs
     id="defs15240">
    <clipPath
       id="clip89">
      <rect
         y="0"
         x="0"
         width="18"
         height="19"
         id="rect4864" />
    </clipPath>
    <clipPath
       id="clip90">
      <path
         inkscape:connector-curvature="0"
         d="m 0.898438,0.128906 h 16.25 v 17.882813 h -16.25 z m 0,0"
         id="path4861" />
    </clipPath>
    <mask
       id="mask44">
      <g
         style="filter:url(#alpha)"
         id="g4858"
         transform="matrix(0.26458333,0,0,0.26458333,89.358789,128.57765)">
        <rect
           x="0"
           y="0"
           width="3052.8701"
           height="3351.5"
           style="fill:#000000;fill-opacity:0.149994;stroke:none"
           id="rect4856" />
      </g>
    </mask>
    <filter
       id="alpha"
       filterUnits="objectBoundingBox"
       x="0"
       y="0"
       width="1"
       height="1">
      <feColorMatrix
         type="matrix"
         in="SourceGraphic"
         values="0 0 0 0 1 0 0 0 0 1 0 0 0 0 1 0 0 0 1 0"
         id="feColorMatrix4149" />
    </filter>
    <clipPath
       id="clipPath17821">
      <rect
         y="0"
         x="0"
         width="18"
         height="19"
         id="rect17819" />
    </clipPath>
    <clipPath
       id="clipPath17825">
      <path
         inkscape:connector-curvature="0"
         d="m 0.898438,0.128906 h 16.25 v 17.882813 h -16.25 z m 0,0"
         id="path17823" />
    </clipPath>
    <clipPath
       id="clip87">
      <rect
         y="0"
         x="0"
         width="24"
         height="26"
         id="rect4848" />
    </clipPath>
    <clipPath
       id="clip88">
      <path
         inkscape:connector-curvature="0"
         d="m 0.683594,0.921875 h 22.679687 v 24.9375 H 0.683594 Z m 0,0"
         id="path4845" />
    </clipPath>
    <mask
       id="mask43">
      <g
         style="filter:url(#alpha)"
         id="g4842"
         transform="matrix(0.26458333,0,0,0.26458333,89.358789,128.57765)">
        <rect
           x="0"
           y="0"
           width="3052.8701"
           height="3351.5"
           style="fill:#000000;fill-opacity:0.149994;stroke:none"
           id="rect4840" />
      </g>
    </mask>
    <filter
       id="filter17836"
       filterUnits="objectBoundingBox"
       x="0"
       y="0"
       width="1"
       height="1">
      <feColorMatrix
         type="matrix"
         in="SourceGraphic"
         values="0 0 0 0 1 0 0 0 0 1 0 0 0 0 1 0 0 0 1 0"
         id="feColorMatrix17834" />
    </filter>
    <clipPath
       id="clipPath17840">
      <rect
         y="0"
         x="0"
         width="24"
         height="26"
         id="rect17838" />
    </clipPath>
    <clipPath
       id="clipPath17844">
      <path
         inkscape:connector-curvature="0"
         d="m 0.683594,0.921875 h 22.679687 v 24.9375 H 0.683594 Z m 0,0"
         id="path17842" />
    </clipPath>
  </defs>
  <sodipodi:namedview
     id="base"
     pagecolor="#ffffff"
     bordercolor="#666666"
     borderopacity="1.0"
     inkscape:pageopacity="0.0"
     inkscape:pageshadow="2"
     inkscape:zoom="7.919596"
     inkscape:cx="-44.080189"
     inkscape:cy="2.1012432"
     inkscape:document-units="mm"
     inkscape:current-layer="layer1"
     showgrid="false"
     inkscape:window-width="1920"
     inkscape:window-height="1017"
     inkscape:window-x="-8"
     inkscape:window-y="-8"
     inkscape:window-maximized="1"
     units="px"
     fit-margin-top="0"
     fit-margin-left="0"
     fit-margin-right="0"
     fit-margin-bottom="0"
     inkscape:document-rotation="0"
     inkscape:snap-bbox="true"
     inkscape:snap-bbox-midpoints="true"
     inkscape:pagecheckerboard="true" />
  <metadata
     id="metadata15243">
    <rdf:RDF>
      <cc:Work
         rdf:about="">
        <dc:format>image/svg+xml</dc:format>
        <dc:type
           rdf:resource="http://purl.org/dc/dcmitype/StillImage" />
        <dc:title />
      </cc:Work>
    </rdf:RDF>
  </metadata>
  <g
     inkscape:label="Layer 1"
     inkscape:groupmode="layer"
     id="layer1"
     transform="translate(-89.288962,-119.87643)">
    <path
       inkscape:connector-curvature="0"
       id="path7255"
       d="m 92.688963,126.55143 c -1.806207,0 -3.275001,-1.46879 -3.275001,-3.275 0,-1.80618 1.468794,-3.275 3.275001,-3.275 1.806205,0 3.275,1.46882 3.275,3.275 0,1.80621 -1.468795,3.275 -3.275,3.275"
       style="fill:#86fd3e;fill-opacity:0.94999999;fill-rule:nonzero;stroke:#ffffff;stroke-width:0.15;stroke-miterlimit:4;stroke-dasharray:none;stroke-opacity:0.80308878;paint-order:normal" />
    <path
       inkscape:connector-curvature="0"
       id="path7261"
       d="m 92.688963,126.19512 c -1.609548,0 -2.918684,-1.30916 -2.918684,-2.91871 0,-1.60954 1.309137,-2.91867 2.918684,-2.91867 1.609549,0 2.918683,1.30913 2.918683,2.91867 0,1.60955 -1.309134,2.91871 -2.918683,2.91871"
       style="fill:#e6e6e6;fill-opacity:0;fill-rule:nonzero;stroke:#636663;stroke-width:0.25;stroke-miterlimit:4;stroke-dasharray:none;stroke-opacity:0" />
    <path
       inkscape:connector-curvature="0"
       id="path7265"
       d="m 94.872634,123.2764 c 0,1.24467 -0.978138,2.25457 -2.183671,2.25457 -1.205534,0 -2.183673,-1.0099 -2.183673,-2.25457 0,-1.24465 0.978139,-2.2545 2.183673,-2.2545 1.205533,0 2.183671,1.00985 2.183671,2.2545"
       style="fill:#ffffff;fill-opacity:1;fill-rule:nonzero;stroke:#ffffff;stroke-width:0.311917;stroke-miterlimit:4;stroke-dasharray:none;stroke-opacity:0.80308896;paint-order:stroke fill markers" />
    <g
       aria-label="out"
       id="text874"
       style="font-size:3.175px;line-height:1.25;font-family:'DIN Alternate Light';-inkscape-font-specification:'DIN Alternate Light, ';letter-spacing:-0.312208px;fill:#000000;stroke-width:0.264583"
       transform="translate(-4.4046326e-6,-0.09604999)">
      <path
         d="m 92.193468,123.51131 q 0,0.12247 -0.0155,0.23254 -0.0155,0.11007 -0.05736,0.20929 -0.04186,0.0992 -0.117822,0.17518 -0.170533,0.16744 -0.424781,0.16744 -0.255798,0 -0.42633,-0.16744 -0.07596,-0.076 -0.117822,-0.17363 -0.04186,-0.0992 -0.05736,-0.20774 -0.0155,-0.10852 -0.0155,-0.23564 0,-0.19224 0.04031,-0.34882 0.04031,-0.15658 0.150379,-0.26665 0.167431,-0.16743 0.42633,-0.16743 0.257349,0 0.424781,0.16743 0.07596,0.076 0.117822,0.17519 0.04186,0.0992 0.05736,0.20928 0.0155,0.10853 0.0155,0.231 z m -0.162781,0 q 0,-0.17674 -0.02635,-0.30076 -0.02481,-0.12402 -0.110071,-0.20929 -0.127124,-0.13022 -0.31626,-0.13022 -0.190686,0 -0.31781,0.13022 -0.08527,0.0853 -0.111621,0.21394 -0.0248,0.12713 -0.0248,0.29611 0,0.16743 0.0248,0.29765 0.02635,0.12868 0.111621,0.21394 0.130225,0.13023 0.31781,0.13023 0.186036,0 0.31626,-0.13023 0.08527,-0.0853 0.110071,-0.20928 0.02635,-0.12558 0.02635,-0.30231 z"
         style="font-size:3.175px;fill:#000000;stroke-width:0.264583"
         id="path967" />
      <path
         d="m 93.566428,124.27715 h -0.16123 v -0.18138 q -0.172083,0.19999 -0.451136,0.19999 -0.257348,0 -0.406176,-0.14573 -0.159681,-0.15193 -0.159681,-0.42478 v -0.97824 h 0.162781 v 0.94878 q 0,0.2217 0.108521,0.33952 0.10852,0.11782 0.313159,0.11782 0.136426,0 0.232544,-0.0527 0.09767,-0.0543 0.148828,-0.15658 0.05116,-0.10387 0.05116,-0.24805 v -0.94878 h 0.16123 z"
         style="font-size:3.175px;fill:#000000;stroke-width:0.264583"
         id="path969" />
      <path
         d="m 94.41694,124.27715 h -0.139527 q -0.116272,0 -0.199987,-0.0512 -0.08372,-0.0512 -0.127124,-0.14107 -0.04186,-0.0899 -0.04186,-0.20774 v -1.00924 h -0.20929 v -0.12093 h 0.20929 v -0.48989 h 0.16278 v 0.48989 h 0.345716 v 0.12093 h -0.345716 v 1.01234 q 0,0.25425 0.234095,0.25425 h 0.111621 z"
         style="font-size:3.175px;fill:#000000;stroke-width:0.264583"
         id="path971" />
    </g>
  </g>
</svg>
