<?xml version="1.0" encoding="UTF-8" standalone="no"?>
<svg
   xmlns:dc="http://purl.org/dc/elements/1.1/"
   xmlns:cc="http://creativecommons.org/ns#"
   xmlns:rdf="http://www.w3.org/1999/02/22-rdf-syntax-ns#"
   xmlns:svg="http://www.w3.org/2000/svg"
   xmlns="http://www.w3.org/2000/svg"
   xmlns:sodipodi="http://sodipodi.sourceforge.net/DTD/sodipodi-0.dtd"
   xmlns:inkscape="http://www.inkscape.org/namespaces/inkscape"
   width="6.8000002mm"
   height="6.8000002mm"
   viewBox="0 0 6.8000001 6.8000001"
   version="1.1"
   id="svg15246"
   sodipodi:docname="SPSOC.svg"
   inkscape:version="1.0.2 (e86c870879, 2021-01-15)">
  <defs
     id="defs15240">
    <clipPath
       id="clip89">
      <rect
         y="0"
         x="0"
         width="18"
         height="19"
         id="rect4864" />
    </clipPath>
    <clipPath
       id="clip90">
      <path
         inkscape:connector-curvature="0"
         d="m 0.898438,0.128906 h 16.25 v 17.882813 h -16.25 z m 0,0"
         id="path4861" />
    </clipPath>
    <mask
       id="mask44">
      <g
         style="filter:url(#alpha)"
         id="g4858"
         transform="matrix(0.26458333,0,0,0.26458333,89.358789,128.57765)">
        <rect
           x="0"
           y="0"
           width="3052.8701"
           height="3351.5"
           style="fill:#000000;fill-opacity:0.149994;stroke:none"
           id="rect4856" />
      </g>
    </mask>
    <filter
       id="alpha"
       filterUnits="objectBoundingBox"
       x="0"
       y="0"
       width="1"
       height="1">
      <feColorMatrix
         type="matrix"
         in="SourceGraphic"
         values="0 0 0 0 1 0 0 0 0 1 0 0 0 0 1 0 0 0 1 0"
         id="feColorMatrix4149" />
    </filter>
    <clipPath
       id="clipPath17821">
      <rect
         y="0"
         x="0"
         width="18"
         height="19"
         id="rect17819" />
    </clipPath>
    <clipPath
       id="clipPath17825">
      <path
         inkscape:connector-curvature="0"
         d="m 0.898438,0.128906 h 16.25 v 17.882813 h -16.25 z m 0,0"
         id="path17823" />
    </clipPath>
    <clipPath
       id="clip87">
      <rect
         y="0"
         x="0"
         width="24"
         height="26"
         id="rect4848" />
    </clipPath>
    <clipPath
       id="clip88">
      <path
         inkscape:connector-curvature="0"
         d="m 0.683594,0.921875 h 22.679687 v 24.9375 H 0.683594 Z m 0,0"
         id="path4845" />
    </clipPath>
    <mask
       id="mask43">
      <g
         style="filter:url(#alpha)"
         id="g4842"
         transform="matrix(0.26458333,0,0,0.26458333,89.358789,128.57765)">
        <rect
           x="0"
           y="0"
           width="3052.8701"
           height="3351.5"
           style="fill:#000000;fill-opacity:0.149994;stroke:none"
           id="rect4840" />
      </g>
    </mask>
    <filter
       id="filter17836"
       filterUnits="objectBoundingBox"
       x="0"
       y="0"
       width="1"
       height="1">
      <feColorMatrix
         type="matrix"
         in="SourceGraphic"
         values="0 0 0 0 1 0 0 0 0 1 0 0 0 0 1 0 0 0 1 0"
         id="feColorMatrix17834" />
    </filter>
    <clipPath
       id="clipPath17840">
      <rect
         y="0"
         x="0"
         width="24"
         height="26"
         id="rect17838" />
    </clipPath>
    <clipPath
       id="clipPath17844">
      <path
         inkscape:connector-curvature="0"
         d="m 0.683594,0.921875 h 22.679687 v 24.9375 H 0.683594 Z m 0,0"
         id="path17842" />
    </clipPath>
  </defs>
  <sodipodi:namedview
     id="base"
     pagecolor="#ffffff"
     bordercolor="#666666"
     borderopacity="1.0"
     inkscape:pageopacity="0.0"
     inkscape:pageshadow="2"
     inkscape:zoom="15.839192"
     inkscape:cx="12.996677"
     inkscape:cy="23.32624"
     inkscape:document-units="mm"
     inkscape:current-layer="layer1"
     showgrid="false"
     inkscape:window-width="1254"
     inkscape:window-height="1040"
     inkscape:window-x="111"
     inkscape:window-y="174"
     inkscape:window-maximized="0"
     units="px"
     fit-margin-top="0"
     fit-margin-left="0"
     fit-margin-right="0"
     fit-margin-bottom="0"
     inkscape:document-rotation="0"
     inkscape:snap-bbox="true"
     inkscape:snap-bbox-midpoints="true"
     inkscape:pagecheckerboard="true" />
  <metadata
     id="metadata15243">
    <rdf:RDF>
      <cc:Work
         rdf:about="">
        <dc:format>image/svg+xml</dc:format>
        <dc:type
           rdf:resource="http://purl.org/dc/dcmitype/StillImage" />
        <dc:title />
      </cc:Work>
    </rdf:RDF>
  </metadata>
  <g
     inkscape:label="Layer 1"
     inkscape:groupmode="layer"
     id="layer1"
     transform="translate(-89.288962,-119.87643)">
    <path
       inkscape:connector-curvature="0"
       id="path7255"
       d="m 92.688963,126.55143 c -1.806207,0 -3.275001,-1.46879 -3.275001,-3.275 0,-1.80618 1.468794,-3.275 3.275001,-3.275 1.806205,0 3.275,1.46882 3.275,3.275 0,1.80621 -1.468795,3.275 -3.275,3.275"
       style="fill:#4ccff9;fill-opacity:0.94999999;fill-rule:nonzero;stroke:#fefefe;stroke-width:0.15;stroke-miterlimit:4;stroke-dasharray:none;stroke-opacity:0.822394;paint-order:stroke fill markers" />
    <path
       inkscape:connector-curvature="0"
       id="path7261"
       d="m 92.688963,126.19512 c -1.609548,0 -2.918684,-1.30916 -2.918684,-2.91871 0,-1.60954 1.309137,-2.91867 2.918684,-2.91867 1.609549,0 2.918683,1.30913 2.918683,2.91867 0,1.60955 -1.309134,2.91871 -2.918683,2.91871"
       style="fill:#e6e6e6;fill-opacity:0;fill-rule:nonzero;stroke:#636663;stroke-width:0.25;stroke-miterlimit:4;stroke-dasharray:none;stroke-opacity:0" />
    <rect
       style="display:none;fill:#ffffff;fill-opacity:1;stroke:none;stroke-width:1.43169;stroke-opacity:0.946237;paint-order:stroke markers fill;stop-color:#000000"
       id="rect866"
       width="1.9544084"
       height="1.4298433"
       x="75.642181"
       y="115.52035"
       ry="0.30002752" />
    <g
       aria-label="TRG"
       id="text909"
       style="font-size:1.05833px;line-height:1.25;font-family:'DIN Alternate Light';-inkscape-font-specification:'DIN Alternate Light, ';letter-spacing:-0.0820208px;display:none;fill:#333333;stroke-width:0.264583"
       transform="translate(-16.06958,-4.400377)">
      <path
         d="m 92.358611,120.09539 h -0.225308 v 0.7028 h -0.05684 v -0.7028 h -0.224792 v -0.0506 h 0.506944 z"
         style="font-size:1.05833px;fill:#333333;stroke-width:0.264583"
         id="path915" />
      <path
         d="m 92.93598,120.79819 h -0.06666 l -0.179833,-0.34727 h -0.207222 v 0.34727 h -0.05736 v -0.75344 h 0.286803 q 0.06253,0 0.111104,0.0238 0.04909,0.0232 0.077,0.0692 0.02791,0.0455 0.02791,0.10904 0,0.0827 -0.04651,0.13591 -0.04599,0.0532 -0.127124,0.0672 z m -0.06563,-0.55036 q 0,-0.0749 -0.04547,-0.11368 -0.04496,-0.0388 -0.120406,-0.0388 h -0.222208 v 0.30489 h 0.222208 q 0.03669,0 0.06718,-0.009 0.03049,-0.01 0.05219,-0.0284 0.0217,-0.0186 0.03411,-0.0476 0.0124,-0.0289 0.0124,-0.0672 z"
         style="font-size:1.05833px;fill:#333333;stroke-width:0.264583"
         id="path917" />
      <path
         d="m 93.526267,120.53567 q 0,0.11679 -0.06098,0.1819 -0.03721,0.0413 -0.08888,0.0641 -0.05168,0.0227 -0.109037,0.0227 -0.05374,0 -0.102836,-0.0202 -0.04909,-0.0201 -0.08578,-0.0568 -0.03359,-0.0336 -0.04806,-0.0708 -0.01447,-0.0372 -0.01809,-0.0853 -0.0036,-0.0481 -0.0036,-0.14986 0,-0.10181 0.0036,-0.14986 0.0036,-0.0481 0.01809,-0.0853 0.01447,-0.0372 0.04806,-0.0708 0.03669,-0.0367 0.08527,-0.0568 0.04909,-0.0202 0.103352,-0.0202 0.06976,0 0.120923,0.0258 0.05116,0.0253 0.103352,0.0786 l -0.03824,0.0382 q -0.04703,-0.0481 -0.08785,-0.0698 -0.04031,-0.0222 -0.09819,-0.0222 -0.04031,0 -0.07751,0.0145 -0.03669,0.0145 -0.06563,0.0434 -0.02015,0.0202 -0.03152,0.0418 -0.01085,0.0217 -0.01705,0.0548 -0.0062,0.0331 -0.0078,0.0754 -0.0015,0.0424 -0.0015,0.10232 0,0.0894 0.0036,0.13642 0.0036,0.0465 0.01602,0.0791 0.0124,0.0326 0.03824,0.0584 0.02739,0.0279 0.0646,0.0434 0.03772,0.015 0.07855,0.015 0.04547,0 0.0863,-0.0186 0.04134,-0.0191 0.07028,-0.0543 0.02429,-0.03 0.03462,-0.0651 0.01085,-0.0351 0.01085,-0.0842 v -0.0677 h -0.202054 v -0.0506 h 0.258898 z"
         style="font-size:1.05833px;fill:#333333;stroke-width:0.264583"
         id="path919" />
    </g>
    <path
       inkscape:connector-curvature="0"
       id="path7265"
       d="m 94.872634,123.2764 c 0,1.24467 -0.978138,2.25457 -2.183671,2.25457 -1.205534,0 -2.183673,-1.0099 -2.183673,-2.25457 0,-1.24465 0.978139,-2.2545 2.183673,-2.2545 1.205533,0 2.183671,1.00985 2.183671,2.2545"
       style="fill:#ffffff;fill-opacity:1;fill-rule:nonzero;stroke:#ffffff;stroke-width:0.311917;stroke-miterlimit:4;stroke-dasharray:none;stroke-opacity:0.803089;paint-order:stroke fill markers" />
    <g
       aria-label="soc"
       id="text879"
       style="font-size:3.175px;line-height:1.25;font-family:'DIN Alternate Light';-inkscape-font-specification:'DIN Alternate Light, ';letter-spacing:-0.277813px;fill:#000000;stroke-width:0.264583">
      <path
         d="m 91.960635,123.60586 q 0,0.13798 -0.07596,0.24185 -0.07441,0.10232 -0.21394,0.15813 -0.137976,0.0543 -0.322461,0.0543 -0.390674,0 -0.620118,-0.21859 l 0.111622,-0.11162 q 0.178283,0.18758 0.502294,0.18758 0.223243,0 0.341065,-0.0775 0.119372,-0.0791 0.119372,-0.2341 0,-0.11782 -0.07131,-0.17983 -0.07131,-0.062 -0.221692,-0.076 l -0.254248,-0.0233 q -0.460437,-0.0372 -0.460437,-0.39997 0,-0.13023 0.06666,-0.2279 0.06821,-0.0992 0.192236,-0.15193 0.124023,-0.0543 0.291455,-0.0543 0.161231,0 0.299207,0.0434 0.137976,0.0419 0.237194,0.11782 l -0.10852,0.10852 q -0.176733,-0.13022 -0.427881,-0.13022 -0.189136,0 -0.289905,0.0775 -0.100769,0.0775 -0.100769,0.21705 0,0.12092 0.07441,0.18293 0.07596,0.0605 0.237195,0.0744 l 0.246497,0.0217 q 0.21394,0.0186 0.330212,0.10542 0.117822,0.0868 0.117822,0.29455 z"
         style="font-size:3.175px;fill:#000000;stroke-width:0.264583"
         id="path926" />
      <path
         d="m 93.31218,123.27565 q 0,0.12247 -0.0155,0.23255 -0.0155,0.11007 -0.05736,0.20929 -0.04186,0.0992 -0.117822,0.17518 -0.170532,0.16743 -0.42478,0.16743 -0.255798,0 -0.426331,-0.16743 -0.07596,-0.076 -0.117822,-0.17363 -0.04186,-0.0992 -0.05736,-0.20774 -0.0155,-0.10852 -0.0155,-0.23565 0,-0.19223 0.04031,-0.34881 0.04031,-0.15658 0.150378,-0.26665 0.167432,-0.16744 0.426331,-0.16744 0.257349,0 0.42478,0.16744 0.07596,0.076 0.117822,0.17518 0.04186,0.0992 0.05736,0.20929 0.0155,0.10852 0.0155,0.23099 z m -0.162781,0 q 0,-0.17673 -0.02636,-0.30076 -0.0248,-0.12402 -0.11007,-0.20928 -0.127124,-0.13023 -0.31626,-0.13023 -0.190686,0 -0.31781,0.13023 -0.08527,0.0853 -0.111621,0.21394 -0.02481,0.12712 -0.02481,0.2961 0,0.16743 0.02481,0.29766 0.02635,0.12867 0.111621,0.21394 0.130224,0.13022 0.31781,0.13022 0.186035,0 0.31626,-0.13022 0.08527,-0.0853 0.11007,-0.20929 0.02636,-0.12558 0.02636,-0.30231 z"
         style="font-size:3.175px;fill:#000000;stroke-width:0.264583"
         id="path928" />
      <path
         d="m 94.649772,123.82601 q -0.122473,0.13487 -0.234094,0.18448 -0.111621,0.0496 -0.271301,0.0496 -0.153479,0 -0.277502,-0.0527 -0.122474,-0.0543 -0.212391,-0.15813 -0.08992,-0.10387 -0.136425,-0.25115 -0.04651,-0.14728 -0.04651,-0.32246 0,-0.24339 0.08062,-0.41858 0.08217,-0.17518 0.234094,-0.26975 0.151929,-0.0946 0.358118,-0.0946 0.164331,0 0.274402,0.0512 0.111621,0.0496 0.230993,0.18294 l -0.111621,0.10232 q -0.06356,-0.0729 -0.124023,-0.11472 -0.06046,-0.0434 -0.124023,-0.0605 -0.06201,-0.0186 -0.145728,-0.0186 -0.2651,0 -0.406177,0.20309 -0.05581,0.0806 -0.08062,0.18448 -0.02325,0.10232 -0.02325,0.2527 0,0.15038 0.02325,0.2527 0.02325,0.10077 0.08062,0.18603 0.141077,0.20309 0.406177,0.20309 0.120923,0 0.20929,-0.0419 0.08837,-0.0434 0.184484,-0.15192 z"
         style="font-size:3.175px;fill:#000000;stroke-width:0.264583"
         id="path930" />
    </g>
  </g>
</svg>
