<?xml version="1.0" encoding="UTF-8" standalone="no"?>
<svg
   xmlns:dc="http://purl.org/dc/elements/1.1/"
   xmlns:cc="http://creativecommons.org/ns#"
   xmlns:rdf="http://www.w3.org/1999/02/22-rdf-syntax-ns#"
   xmlns:svg="http://www.w3.org/2000/svg"
   xmlns="http://www.w3.org/2000/svg"
   xmlns:sodipodi="http://sodipodi.sourceforge.net/DTD/sodipodi-0.dtd"
   xmlns:inkscape="http://www.inkscape.org/namespaces/inkscape"
   width="6.8000002mm"
   height="2.8mm"
   viewBox="0 0 6.8000001 2.8"
   version="1.1"
   id="svg15246"
   sodipodi:docname="BtAON1.svg"
   inkscape:version="1.0.2 (e86c870879, 2021-01-15)">
  <defs
     id="defs15240">
    <clipPath
       id="clip89">
      <rect
         y="0"
         x="0"
         width="18"
         height="19"
         id="rect4864" />
    </clipPath>
    <clipPath
       id="clip90">
      <path
         inkscape:connector-curvature="0"
         d="m 0.898438,0.128906 h 16.25 v 17.882813 h -16.25 z m 0,0"
         id="path4861" />
    </clipPath>
    <mask
       id="mask44">
      <g
         style="filter:url(#alpha)"
         id="g4858"
         transform="matrix(0.26458333,0,0,0.26458333,89.358789,128.57765)">
        <rect
           x="0"
           y="0"
           width="3052.8701"
           height="3351.5"
           style="fill:#000000;fill-opacity:0.149994;stroke:none"
           id="rect4856" />
      </g>
    </mask>
    <filter
       id="alpha"
       filterUnits="objectBoundingBox"
       x="0"
       y="0"
       width="1"
       height="1">
      <feColorMatrix
         type="matrix"
         in="SourceGraphic"
         values="0 0 0 0 1 0 0 0 0 1 0 0 0 0 1 0 0 0 1 0"
         id="feColorMatrix4149" />
    </filter>
    <clipPath
       id="clipPath17821">
      <rect
         y="0"
         x="0"
         width="18"
         height="19"
         id="rect17819" />
    </clipPath>
    <clipPath
       id="clipPath17825">
      <path
         inkscape:connector-curvature="0"
         d="m 0.898438,0.128906 h 16.25 v 17.882813 h -16.25 z m 0,0"
         id="path17823" />
    </clipPath>
    <clipPath
       id="clip87">
      <rect
         y="0"
         x="0"
         width="24"
         height="26"
         id="rect4848" />
    </clipPath>
    <clipPath
       id="clip88">
      <path
         inkscape:connector-curvature="0"
         d="m 0.683594,0.921875 h 22.679687 v 24.9375 H 0.683594 Z m 0,0"
         id="path4845" />
    </clipPath>
    <mask
       id="mask43">
      <g
         style="filter:url(#alpha)"
         id="g4842"
         transform="matrix(0.26458333,0,0,0.26458333,89.358789,128.57765)">
        <rect
           x="0"
           y="0"
           width="3052.8701"
           height="3351.5"
           style="fill:#000000;fill-opacity:0.149994;stroke:none"
           id="rect4840" />
      </g>
    </mask>
    <filter
       id="filter17836"
       filterUnits="objectBoundingBox"
       x="0"
       y="0"
       width="1"
       height="1">
      <feColorMatrix
         type="matrix"
         in="SourceGraphic"
         values="0 0 0 0 1 0 0 0 0 1 0 0 0 0 1 0 0 0 1 0"
         id="feColorMatrix17834" />
    </filter>
    <clipPath
       id="clipPath17840">
      <rect
         y="0"
         x="0"
         width="24"
         height="26"
         id="rect17838" />
    </clipPath>
    <clipPath
       id="clipPath17844">
      <path
         inkscape:connector-curvature="0"
         d="m 0.683594,0.921875 h 22.679687 v 24.9375 H 0.683594 Z m 0,0"
         id="path17842" />
    </clipPath>
  </defs>
  <sodipodi:namedview
     id="base"
     pagecolor="#ffffff"
     bordercolor="#666666"
     borderopacity="1.0"
     inkscape:pageopacity="0.0"
     inkscape:pageshadow="2"
     inkscape:zoom="8.0000004"
     inkscape:cx="2.6045889"
     inkscape:cy="-5.939575"
     inkscape:document-units="mm"
     inkscape:current-layer="layer1"
     showgrid="false"
     inkscape:window-width="1920"
     inkscape:window-height="1017"
     inkscape:window-x="-8"
     inkscape:window-y="-8"
     inkscape:window-maximized="1"
     units="px"
     fit-margin-top="0"
     fit-margin-left="0"
     fit-margin-right="0"
     fit-margin-bottom="0"
     inkscape:document-rotation="0"
     inkscape:snap-bbox="true"
     inkscape:snap-bbox-midpoints="true"
     inkscape:pagecheckerboard="true" />
  <metadata
     id="metadata15243">
    <rdf:RDF>
      <cc:Work
         rdf:about="">
        <dc:format>image/svg+xml</dc:format>
        <dc:type
           rdf:resource="http://purl.org/dc/dcmitype/StillImage" />
        <dc:title />
      </cc:Work>
    </rdf:RDF>
  </metadata>
  <g
     inkscape:label="Layer 1"
     inkscape:groupmode="layer"
     id="layer1"
     transform="translate(-89.288962,-119.87643)">
    <path
       inkscape:connector-curvature="0"
       id="path7261"
       d="m 92.688963,126.19512 c -1.609548,0 -2.918684,-1.30916 -2.918684,-2.91871 0,-1.60954 1.309137,-2.91867 2.918684,-2.91867 1.609549,0 2.918683,1.30913 2.918683,2.91867 0,1.60955 -1.309134,2.91871 -2.918683,2.91871"
       style="fill:#e6e6e6;fill-opacity:0;fill-rule:nonzero;stroke:#636663;stroke-width:0.25;stroke-miterlimit:4;stroke-dasharray:none;stroke-opacity:0" />
    <g
       aria-label="«"
       transform="scale(0.98120041,1.0191598)"
       id="text872"
       style="font-style:normal;font-variant:normal;font-weight:normal;font-stretch:normal;font-size:7.19074px;line-height:1.25;font-family:Corbel;-inkscape-font-specification:Corbel;display:none;fill:#ffffff;fill-opacity:1;stroke:none;stroke-width:0.269652">
      <path
         d="m 92.843848,120.88513 1.028753,-1.32018 h 0.530177 l -0.909376,1.32018 0.909376,1.32017 h -0.530177 z m 1.393908,0 0.930442,-1.32018 h 0.50911 l -0.789998,1.32018 0.789998,1.32017 h -0.50911 z"
         style="font-style:normal;font-variant:normal;font-weight:normal;font-stretch:normal;font-size:7.19074px;font-family:Corbel;-inkscape-font-specification:Corbel;fill:#ffffff;fill-opacity:1;stroke-width:0.269652"
         id="path874" />
    </g>
    <rect
       style="fill:#e72828;fill-opacity:1;stroke:#ffffff;stroke-width:0.024;stroke-miterlimit:4;stroke-dasharray:none;stroke-opacity:0.803089;paint-order:fill markers stroke;stop-color:#000000"
       id="rect863"
       width="6.6725254"
       height="2.7088952"
       x="89.352699"
       y="119.92198"
       ry="0.10130601" />
    <g
       aria-label="ALL OFF"
       id="text891"
       style="font-size:1.76389px;line-height:1.25;font-family:'DIN Alternate Light';-inkscape-font-specification:'DIN Alternate Light, ';letter-spacing:-0.134937px;fill:#ffffff;stroke-width:0.264583">
      <path
         d="m 90.790295,121.9043 h -0.102492 l -0.109382,-0.30489 h -0.585666 l -0.108521,0.30489 h -0.102491 l 0.461643,-1.25574 h 0.08527 z m -0.241157,-0.39016 -0.26355,-0.73897 -0.262689,0.73897 z"
         style="font-size:1.76389px;fill:#ffffff;stroke-width:0.264583"
         id="path929" />
      <path
         d="m 91.638072,121.9043 h -0.762228 v -1.25574 h 0.0956 v 1.17133 h 0.666626 z"
         style="font-size:1.76389px;fill:#ffffff;stroke-width:0.264583"
         id="path931" />
      <path
         d="M 92.511687,121.9043 H 91.74946 v -1.25574 h 0.0956 v 1.17133 h 0.666626 z"
         style="font-size:1.76389px;fill:#ffffff;stroke-width:0.264583"
         id="path933" />
      <path
         d="m 93.749044,121.27643 q 0,0.16967 -0.006,0.24977 -0.006,0.0801 -0.03015,0.14211 -0.02412,0.062 -0.0801,0.11799 -0.06115,0.0611 -0.142972,0.0947 -0.08096,0.0336 -0.170532,0.0336 -0.08957,0 -0.171394,-0.0336 -0.08182,-0.0336 -0.142972,-0.0947 -0.05598,-0.056 -0.0801,-0.11799 -0.02412,-0.062 -0.03014,-0.14211 -0.006,-0.0801 -0.006,-0.24977 0,-0.16967 0.006,-0.24977 0.006,-0.0801 0.03014,-0.14211 0.02412,-0.062 0.0801,-0.118 0.06115,-0.0611 0.142111,-0.0947 0.08182,-0.0336 0.172255,-0.0336 0.09043,0 0.171393,0.0336 0.08096,0.0336 0.142111,0.0947 0.05598,0.056 0.0801,0.118 0.02412,0.062 0.03015,0.14211 0.006,0.0801 0.006,0.24977 z m -0.09474,0 q 0,-0.149 -0.006,-0.22738 -0.006,-0.0784 -0.0267,-0.13177 -0.02067,-0.0543 -0.0646,-0.0982 -0.04823,-0.0482 -0.109381,-0.0724 -0.06029,-0.0241 -0.12833,-0.0241 -0.06718,0 -0.129192,0.0241 -0.06115,0.0241 -0.109381,0.0724 -0.03359,0.0336 -0.05254,0.0698 -0.01809,0.0362 -0.02842,0.0913 -0.01033,0.0551 -0.01292,0.12575 -0.0026,0.0706 -0.0026,0.17053 0,0.149 0.006,0.22737 0.006,0.0775 0.0267,0.13178 0.02067,0.0543 0.06374,0.0973 0.04737,0.0474 0.109381,0.0724 0.06201,0.025 0.129192,0.025 0.06804,0 0.129191,-0.025 0.06115,-0.025 0.10852,-0.0724 0.04479,-0.0448 0.0646,-0.0982 0.02067,-0.0534 0.0267,-0.13092 0.006,-0.0784 0.006,-0.22737 z"
         style="font-size:1.76389px;fill:#ffffff;stroke-width:0.264583"
         id="path940" />
      <path
         d="m 94.714815,120.73296 h -0.666626 v 0.51677 h 0.56758 v 0.0844 h -0.56758 v 0.57017 h -0.0956 v -1.25574 h 0.762228 z"
         style="font-size:1.76389px;fill:#ffffff;stroke-width:0.264583"
         id="path942" />
      <path
         d="m 95.596182,120.73296 h -0.666627 v 0.51677 h 0.56758 v 0.0844 h -0.56758 v 0.57017 h -0.0956 v -1.25574 h 0.762228 z"
         style="font-size:1.76389px;fill:#ffffff;stroke-width:0.264583"
         id="path944" />
    </g>
    <rect
       style="fill:none;fill-opacity:1;stroke:#ffffff;stroke-width:0.124;stroke-miterlimit:4;stroke-dasharray:none;stroke-opacity:1;paint-order:stroke fill markers;stop-color:#000000;opacity:1"
       id="rect901"
       width="6.6725254"
       height="2.7088952"
       x="89.352699"
       y="119.92198"
       ry="0.10130601" />
  </g>
</svg>
