<?xml version="1.0" encoding="UTF-8" standalone="no"?>
<svg
   xmlns:dc="http://purl.org/dc/elements/1.1/"
   xmlns:cc="http://creativecommons.org/ns#"
   xmlns:rdf="http://www.w3.org/1999/02/22-rdf-syntax-ns#"
   xmlns:svg="http://www.w3.org/2000/svg"
   xmlns="http://www.w3.org/2000/svg"
   xmlns:sodipodi="http://sodipodi.sourceforge.net/DTD/sodipodi-0.dtd"
   xmlns:inkscape="http://www.inkscape.org/namespaces/inkscape"
   width="6.8000002mm"
   height="2.8mm"
   viewBox="0 0 6.8000001 2.8"
   version="1.1"
   id="svg15246"
   sodipodi:docname="BtLOG3.svg"
   inkscape:version="1.0.2 (e86c870879, 2021-01-15)">
  <defs
     id="defs15240">
    <clipPath
       id="clip89">
      <rect
         y="0"
         x="0"
         width="18"
         height="19"
         id="rect4864" />
    </clipPath>
    <clipPath
       id="clip90">
      <path
         inkscape:connector-curvature="0"
         d="m 0.898438,0.128906 h 16.25 v 17.882813 h -16.25 z m 0,0"
         id="path4861" />
    </clipPath>
    <mask
       id="mask44">
      <g
         style="filter:url(#alpha)"
         id="g4858"
         transform="matrix(0.26458333,0,0,0.26458333,89.358789,128.57765)">
        <rect
           x="0"
           y="0"
           width="3052.8701"
           height="3351.5"
           style="fill:#000000;fill-opacity:0.149994;stroke:none"
           id="rect4856" />
      </g>
    </mask>
    <filter
       id="alpha"
       filterUnits="objectBoundingBox"
       x="0"
       y="0"
       width="1"
       height="1">
      <feColorMatrix
         type="matrix"
         in="SourceGraphic"
         values="0 0 0 0 1 0 0 0 0 1 0 0 0 0 1 0 0 0 1 0"
         id="feColorMatrix4149" />
    </filter>
    <clipPath
       id="clipPath17821">
      <rect
         y="0"
         x="0"
         width="18"
         height="19"
         id="rect17819" />
    </clipPath>
    <clipPath
       id="clipPath17825">
      <path
         inkscape:connector-curvature="0"
         d="m 0.898438,0.128906 h 16.25 v 17.882813 h -16.25 z m 0,0"
         id="path17823" />
    </clipPath>
    <clipPath
       id="clip87">
      <rect
         y="0"
         x="0"
         width="24"
         height="26"
         id="rect4848" />
    </clipPath>
    <clipPath
       id="clip88">
      <path
         inkscape:connector-curvature="0"
         d="m 0.683594,0.921875 h 22.679687 v 24.9375 H 0.683594 Z m 0,0"
         id="path4845" />
    </clipPath>
    <mask
       id="mask43">
      <g
         style="filter:url(#alpha)"
         id="g4842"
         transform="matrix(0.26458333,0,0,0.26458333,89.358789,128.57765)">
        <rect
           x="0"
           y="0"
           width="3052.8701"
           height="3351.5"
           style="fill:#000000;fill-opacity:0.149994;stroke:none"
           id="rect4840" />
      </g>
    </mask>
    <filter
       id="filter17836"
       filterUnits="objectBoundingBox"
       x="0"
       y="0"
       width="1"
       height="1">
      <feColorMatrix
         type="matrix"
         in="SourceGraphic"
         values="0 0 0 0 1 0 0 0 0 1 0 0 0 0 1 0 0 0 1 0"
         id="feColorMatrix17834" />
    </filter>
    <clipPath
       id="clipPath17840">
      <rect
         y="0"
         x="0"
         width="24"
         height="26"
         id="rect17838" />
    </clipPath>
    <clipPath
       id="clipPath17844">
      <path
         inkscape:connector-curvature="0"
         d="m 0.683594,0.921875 h 22.679687 v 24.9375 H 0.683594 Z m 0,0"
         id="path17842" />
    </clipPath>
  </defs>
  <sodipodi:namedview
     id="base"
     pagecolor="#ffffff"
     bordercolor="#666666"
     borderopacity="1.0"
     inkscape:pageopacity="0.0"
     inkscape:pageshadow="2"
     inkscape:zoom="16.000001"
     inkscape:cx="6.1926637"
     inkscape:cy="4.9699106"
     inkscape:document-units="mm"
     inkscape:current-layer="layer1"
     showgrid="false"
     inkscape:window-width="1920"
     inkscape:window-height="1017"
     inkscape:window-x="-8"
     inkscape:window-y="-8"
     inkscape:window-maximized="1"
     units="px"
     fit-margin-top="0"
     fit-margin-left="0"
     fit-margin-right="0"
     fit-margin-bottom="0"
     inkscape:document-rotation="0"
     inkscape:snap-bbox="true"
     inkscape:snap-bbox-midpoints="true"
     inkscape:pagecheckerboard="true" />
  <metadata
     id="metadata15243">
    <rdf:RDF>
      <cc:Work
         rdf:about="">
        <dc:format>image/svg+xml</dc:format>
        <dc:type
           rdf:resource="http://purl.org/dc/dcmitype/StillImage" />
        <dc:title />
      </cc:Work>
    </rdf:RDF>
  </metadata>
  <g
     inkscape:label="Layer 1"
     inkscape:groupmode="layer"
     id="layer1"
     transform="translate(-89.288962,-119.87643)">
    <path
       inkscape:connector-curvature="0"
       id="path7261"
       d="m 92.688963,126.19512 c -1.609548,0 -2.918684,-1.30916 -2.918684,-2.91871 0,-1.60954 1.309137,-2.91867 2.918684,-2.91867 1.609549,0 2.918683,1.30913 2.918683,2.91867 0,1.60955 -1.309134,2.91871 -2.918683,2.91871"
       style="fill:#e6e6e6;fill-opacity:0;fill-rule:nonzero;stroke:#636663;stroke-width:0.25;stroke-miterlimit:4;stroke-dasharray:none;stroke-opacity:0" />
    <g
       aria-label="«"
       transform="scale(0.98120041,1.0191598)"
       id="text872"
       style="font-style:normal;font-variant:normal;font-weight:normal;font-stretch:normal;font-size:7.19074px;line-height:1.25;font-family:Corbel;-inkscape-font-specification:Corbel;display:none;fill:#ffffff;fill-opacity:1;stroke:none;stroke-width:0.269652">
      <path
         d="m 92.843848,120.88513 1.028753,-1.32018 h 0.530177 l -0.909376,1.32018 0.909376,1.32017 h -0.530177 z m 1.393908,0 0.930442,-1.32018 h 0.50911 l -0.789998,1.32018 0.789998,1.32017 h -0.50911 z"
         style="font-style:normal;font-variant:normal;font-weight:normal;font-stretch:normal;font-size:7.19074px;font-family:Corbel;-inkscape-font-specification:Corbel;fill:#ffffff;fill-opacity:1;stroke-width:0.269652"
         id="path874" />
    </g>
    <rect
       style="fill:#209088;fill-opacity:1;stroke:#ffffff;stroke-width:0.024;stroke-miterlimit:4;stroke-dasharray:none;stroke-opacity:0.803089;paint-order:fill markers stroke;stop-color:#000000"
       id="rect863"
       width="6.6725254"
       height="2.7088952"
       x="89.352699"
       y="119.92198"
       ry="0.10130601" />
    <rect
       style="fill:none;fill-opacity:1;stroke:#ffffff;stroke-width:0.124;stroke-miterlimit:4;stroke-dasharray:none;stroke-opacity:1;paint-order:stroke fill markers;stop-color:#000000"
       id="rect901"
       width="6.6725254"
       height="2.7088952"
       x="89.352699"
       y="119.92198"
       ry="0.10130601" />
    <g
       aria-label="XOR"
       id="text939"
       style="font-size:2.82222px;line-height:1.25;font-family:'DIN Alternate Light';-inkscape-font-specification:'DIN Alternate Light, ';letter-spacing:-0.280458px;fill:#ffffff;stroke-width:0.264583"
       transform="translate(3.0953674e-6,-5.0023842e-5)">
      <path
         d="m 91.887658,122.28102 h -0.177767 l -0.525032,-0.89434 -0.525033,0.89434 h -0.172254 l 0.614604,-1.03077 -0.574641,-0.97841 h 0.177767 l 0.479557,0.84336 0.482313,-0.84336 h 0.17501 l -0.576019,0.97841 z"
         style="font-size:2.82222px;fill:#ffffff;stroke-width:0.264583"
         id="path988" />
      <path
         d="m 93.266356,121.27643 q 0,0.27148 -0.0096,0.39963 -0.0096,0.12816 -0.04823,0.22738 -0.03858,0.0992 -0.128158,0.18879 -0.09784,0.0978 -0.228754,0.15158 -0.129535,0.0538 -0.272851,0.0538 -0.143316,0 -0.27423,-0.0538 -0.130913,-0.0537 -0.228754,-0.15158 -0.08957,-0.0896 -0.128157,-0.18879 -0.03858,-0.0992 -0.04823,-0.22738 -0.0096,-0.12815 -0.0096,-0.39963 0,-0.27147 0.0096,-0.39963 0.0096,-0.12816 0.04823,-0.22737 0.03858,-0.0992 0.128157,-0.1888 0.09784,-0.0978 0.227376,-0.15158 0.130914,-0.0537 0.275608,-0.0537 0.144694,0 0.274229,0.0537 0.129536,0.0537 0.227376,0.15158 0.08957,0.0896 0.128158,0.1888 0.03858,0.0992 0.04823,0.22737 0.0096,0.12816 0.0096,0.39963 z m -0.151584,0 q 0,-0.2384 -0.0096,-0.3638 -0.0096,-0.1254 -0.04272,-0.21084 -0.03307,-0.0868 -0.103353,-0.1571 -0.07717,-0.0772 -0.175011,-0.11575 -0.09646,-0.0386 -0.205327,-0.0386 -0.107487,0 -0.206706,0.0386 -0.09784,0.0386 -0.17501,0.11575 -0.05374,0.0537 -0.08406,0.11163 -0.02894,0.0579 -0.04547,0.14607 -0.01654,0.0882 -0.02067,0.20119 -0.0041,0.113 -0.0041,0.27285 0,0.2384 0.0096,0.3638 0.0096,0.12403 0.04272,0.21084 0.03307,0.0868 0.101975,0.15572 0.07579,0.0758 0.17501,0.11576 0.09922,0.04 0.206706,0.04 0.108865,0 0.206705,-0.04 0.09784,-0.04 0.173633,-0.11576 0.07166,-0.0717 0.103353,-0.15709 0.03307,-0.0854 0.04272,-0.20947 0.0096,-0.1254 0.0096,-0.3638 z"
         style="font-size:2.82222px;fill:#ffffff;stroke-width:0.264583"
         id="path990" />
      <path
         d="m 94.890346,122.28102 h -0.177767 l -0.479557,-0.92604 h -0.552593 v 0.92604 h -0.152962 v -2.00918 h 0.764811 q 0.166742,0 0.296278,0.0634 0.130913,0.062 0.205327,0.18466 0.07441,0.12127 0.07441,0.29077 0,0.22048 -0.124023,0.36242 -0.122645,0.14194 -0.338997,0.17914 z m -0.175011,-1.46761 q 0,-0.19981 -0.121267,-0.30317 -0.119889,-0.10335 -0.321083,-0.10335 h -0.592556 v 0.81304 h 0.592556 q 0.09784,0 0.179145,-0.0248 0.0813,-0.0262 0.139182,-0.0758 0.05788,-0.0496 0.09095,-0.12678 0.03307,-0.0772 0.03307,-0.17915 z"
         style="font-size:2.82222px;fill:#ffffff;stroke-width:0.264583"
         id="path992" />
    </g>
  </g>
</svg>
