<?xml version="1.0" encoding="UTF-8" standalone="no"?>
<svg
   xmlns:dc="http://purl.org/dc/elements/1.1/"
   xmlns:cc="http://creativecommons.org/ns#"
   xmlns:rdf="http://www.w3.org/1999/02/22-rdf-syntax-ns#"
   xmlns:svg="http://www.w3.org/2000/svg"
   xmlns="http://www.w3.org/2000/svg"
   xmlns:sodipodi="http://sodipodi.sourceforge.net/DTD/sodipodi-0.dtd"
   xmlns:inkscape="http://www.inkscape.org/namespaces/inkscape"
   width="6.8000002mm"
   height="2.8mm"
   viewBox="0 0 6.8000001 2.8"
   version="1.1"
   id="svg15246"
   sodipodi:docname="BtMODE3.svg"
   inkscape:version="1.0.2 (e86c870879, 2021-01-15)">
  <defs
     id="defs15240">
    <clipPath
       id="clip89">
      <rect
         y="0"
         x="0"
         width="18"
         height="19"
         id="rect4864" />
    </clipPath>
    <clipPath
       id="clip90">
      <path
         inkscape:connector-curvature="0"
         d="m 0.898438,0.128906 h 16.25 v 17.882813 h -16.25 z m 0,0"
         id="path4861" />
    </clipPath>
    <mask
       id="mask44">
      <g
         style="filter:url(#alpha)"
         id="g4858"
         transform="matrix(0.26458333,0,0,0.26458333,89.358789,128.57765)">
        <rect
           x="0"
           y="0"
           width="3052.8701"
           height="3351.5"
           style="fill:#000000;fill-opacity:0.149994;stroke:none"
           id="rect4856" />
      </g>
    </mask>
    <filter
       id="alpha"
       filterUnits="objectBoundingBox"
       x="0"
       y="0"
       width="1"
       height="1">
      <feColorMatrix
         type="matrix"
         in="SourceGraphic"
         values="0 0 0 0 1 0 0 0 0 1 0 0 0 0 1 0 0 0 1 0"
         id="feColorMatrix4149" />
    </filter>
    <clipPath
       id="clipPath17821">
      <rect
         y="0"
         x="0"
         width="18"
         height="19"
         id="rect17819" />
    </clipPath>
    <clipPath
       id="clipPath17825">
      <path
         inkscape:connector-curvature="0"
         d="m 0.898438,0.128906 h 16.25 v 17.882813 h -16.25 z m 0,0"
         id="path17823" />
    </clipPath>
    <clipPath
       id="clip87">
      <rect
         y="0"
         x="0"
         width="24"
         height="26"
         id="rect4848" />
    </clipPath>
    <clipPath
       id="clip88">
      <path
         inkscape:connector-curvature="0"
         d="m 0.683594,0.921875 h 22.679687 v 24.9375 H 0.683594 Z m 0,0"
         id="path4845" />
    </clipPath>
    <mask
       id="mask43">
      <g
         style="filter:url(#alpha)"
         id="g4842"
         transform="matrix(0.26458333,0,0,0.26458333,89.358789,128.57765)">
        <rect
           x="0"
           y="0"
           width="3052.8701"
           height="3351.5"
           style="fill:#000000;fill-opacity:0.149994;stroke:none"
           id="rect4840" />
      </g>
    </mask>
    <filter
       id="filter17836"
       filterUnits="objectBoundingBox"
       x="0"
       y="0"
       width="1"
       height="1">
      <feColorMatrix
         type="matrix"
         in="SourceGraphic"
         values="0 0 0 0 1 0 0 0 0 1 0 0 0 0 1 0 0 0 1 0"
         id="feColorMatrix17834" />
    </filter>
    <clipPath
       id="clipPath17840">
      <rect
         y="0"
         x="0"
         width="24"
         height="26"
         id="rect17838" />
    </clipPath>
    <clipPath
       id="clipPath17844">
      <path
         inkscape:connector-curvature="0"
         d="m 0.683594,0.921875 h 22.679687 v 24.9375 H 0.683594 Z m 0,0"
         id="path17842" />
    </clipPath>
  </defs>
  <sodipodi:namedview
     id="base"
     pagecolor="#ffffff"
     bordercolor="#666666"
     borderopacity="1.0"
     inkscape:pageopacity="0.0"
     inkscape:pageshadow="2"
     inkscape:zoom="22.627418"
     inkscape:cx="1.9057827"
     inkscape:cy="5.7745276"
     inkscape:document-units="mm"
     inkscape:current-layer="layer1"
     showgrid="false"
     inkscape:window-width="1920"
     inkscape:window-height="1017"
     inkscape:window-x="-8"
     inkscape:window-y="-8"
     inkscape:window-maximized="1"
     units="px"
     fit-margin-top="0"
     fit-margin-left="0"
     fit-margin-right="0"
     fit-margin-bottom="0"
     inkscape:document-rotation="0"
     inkscape:snap-bbox="true"
     inkscape:snap-bbox-midpoints="true"
     inkscape:pagecheckerboard="true" />
  <metadata
     id="metadata15243">
    <rdf:RDF>
      <cc:Work
         rdf:about="">
        <dc:format>image/svg+xml</dc:format>
        <dc:type
           rdf:resource="http://purl.org/dc/dcmitype/StillImage" />
        <dc:title></dc:title>
      </cc:Work>
    </rdf:RDF>
  </metadata>
  <g
     inkscape:label="Layer 1"
     inkscape:groupmode="layer"
     id="layer1"
     transform="translate(-89.288962,-119.87643)">
    <path
       inkscape:connector-curvature="0"
       id="path7261"
       d="m 92.688963,126.19512 c -1.609548,0 -2.918684,-1.30916 -2.918684,-2.91871 0,-1.60954 1.309137,-2.91867 2.918684,-2.91867 1.609549,0 2.918683,1.30913 2.918683,2.91867 0,1.60955 -1.309134,2.91871 -2.918683,2.91871"
       style="fill:#e6e6e6;fill-opacity:0;fill-rule:nonzero;stroke:#636663;stroke-width:0.25;stroke-miterlimit:4;stroke-dasharray:none;stroke-opacity:0" />
    <g
       aria-label="«"
       transform="scale(0.98120041,1.0191598)"
       id="text872"
       style="font-style:normal;font-variant:normal;font-weight:normal;font-stretch:normal;font-size:7.19074px;line-height:1.25;font-family:Corbel;-inkscape-font-specification:Corbel;display:none;fill:#ffffff;fill-opacity:1;stroke:none;stroke-width:0.269652">
      <path
         d="m 92.843848,120.88513 1.028753,-1.32018 h 0.530177 l -0.909376,1.32018 0.909376,1.32017 h -0.530177 z m 1.393908,0 0.930442,-1.32018 h 0.50911 l -0.789998,1.32018 0.789998,1.32017 h -0.50911 z"
         style="font-style:normal;font-variant:normal;font-weight:normal;font-stretch:normal;font-size:7.19074px;font-family:Corbel;-inkscape-font-specification:Corbel;fill:#ffffff;fill-opacity:1;stroke-width:0.269652"
         id="path874" />
    </g>
    <rect
       style="fill:#85cc09;fill-opacity:1;stroke:#ffffff;stroke-width:0.024;stroke-miterlimit:4;stroke-dasharray:none;stroke-opacity:0.803089;paint-order:fill markers stroke;stop-color:#000000"
       id="rect863"
       width="6.6725254"
       height="2.7088952"
       x="89.352699"
       y="119.92198"
       ry="0.10130601" />
    <rect
       style="fill:none;fill-opacity:1;stroke:#ffffff;stroke-width:0.124;stroke-miterlimit:4;stroke-dasharray:none;stroke-opacity:1;paint-order:stroke fill markers;stop-color:#000000;opacity:1"
       id="rect901"
       width="6.6725254"
       height="2.7088952"
       x="89.352699"
       y="119.92198"
       ry="0.10130601" />
    <g
       aria-label="DIV / 10"
       id="text1275"
       style="font-size:2.82222px;line-height:1.25;font-family:'DIN Alternate Light';-inkscape-font-specification:'DIN Alternate Light, ';letter-spacing:-0.272521px;fill:#ffffff;stroke-width:0.264583">
      <path
         d="m 90.941036,121.40286 v 0.0413 q 0,0.16536 -0.02325,0.28938 -0.02239,0.12403 -0.09905,0.20068 -0.03704,0.037 -0.08527,0.0629 -0.04823,0.025 -0.105936,0.0388 -0.05684,0.0129 -0.122301,0.0129 h -0.422025 v -1.25574 h 0.422025 q 0.06546,0 0.122301,0.0138 0.0577,0.0129 0.105075,0.0379 0.04823,0.025 0.08613,0.0629 0.07751,0.0767 0.09991,0.18862 0.02239,0.11111 0.02239,0.26786 z m -0.0956,0 v -0.0525 q 0,-0.13264 -0.01722,-0.22393 -0.01723,-0.0922 -0.07665,-0.15159 -0.09388,-0.0973 -0.269579,-0.0973 h -0.303168 v 1.08693 h 0.303168 q 0.1757,0 0.269579,-0.0973 0.05943,-0.0594 0.07665,-0.16192 0.01722,-0.10335 0.01722,-0.24718 z"
         style="font-size:1.76389px"
         id="path1479" />
      <path
         d="m 91.27193,122.04882 h -0.0956 v -1.25574 h 0.0956 z"
         style="font-size:1.76389px"
         id="path1481" />
      <path
         d="m 92.286676,120.79308 -0.41255,1.25574 h -0.08096 l -0.413412,-1.25574 h 0.100769 l 0.353123,1.08779 0.352261,-1.08779 z"
         style="font-size:1.76389px"
         id="path1483" />
      <path
         d="m 93.173257,120.38484 -0.602548,1.82108 h -0.112654 l 0.603581,-1.82108 z"
         style="font-size:2.11667px"
         id="path1485" />
      <path
         d="m 93.975605,122.04882 h -0.143316 v -1.52135 l -0.36518,0.32246 v -0.17226 l 0.36518,-0.31419 h 0.143316 z"
         style="font-size:2.82222px;fill:#ffffff;stroke-width:0.264583"
         id="path1487" />
      <path
         d="m 95.294717,121.5293 q 0,0.1571 -0.06752,0.27836 -0.06615,0.11989 -0.187413,0.1888 -0.121267,0.0689 -0.272852,0.0689 -0.151584,0 -0.272851,-0.0689 -0.121267,-0.0689 -0.188791,-0.1888 -0.06615,-0.12126 -0.06615,-0.27836 v -0.6463 q 0,-0.11575 0.03858,-0.21497 0.03996,-0.0992 0.108865,-0.17088 0.07028,-0.073 0.166743,-0.11162 0.09784,-0.0386 0.213595,-0.0386 0.151585,0 0.272852,0.0689 0.121267,0.0689 0.187413,0.19017 0.06752,0.11988 0.06752,0.27698 z m -0.143316,-0.0138 v -0.61874 q 0,-0.18603 -0.101975,-0.30454 -0.100597,-0.11852 -0.282498,-0.11852 -0.180522,0 -0.282497,0.11852 -0.100597,0.11851 -0.100597,0.30454 v 0.61874 q 0,0.18604 0.100597,0.30455 0.101975,0.11851 0.282497,0.11851 0.181901,0 0.282498,-0.11851 0.101975,-0.11851 0.101975,-0.30455 z"
         style="font-size:2.82222px;fill:#ffffff;stroke-width:0.264583"
         id="path1489" />
    </g>
  </g>
</svg>
