<?xml version="1.0" encoding="UTF-8" standalone="no"?>
<svg
   xmlns:dc="http://purl.org/dc/elements/1.1/"
   xmlns:cc="http://creativecommons.org/ns#"
   xmlns:rdf="http://www.w3.org/1999/02/22-rdf-syntax-ns#"
   xmlns:svg="http://www.w3.org/2000/svg"
   xmlns="http://www.w3.org/2000/svg"
   xmlns:sodipodi="http://sodipodi.sourceforge.net/DTD/sodipodi-0.dtd"
   xmlns:inkscape="http://www.inkscape.org/namespaces/inkscape"
   width="6.8000002mm"
   height="2.8mm"
   viewBox="0 0 6.8000001 2.8"
   version="1.1"
   id="svg15246"
   sodipodi:docname="BtRESET1.svg"
   inkscape:version="1.0.2 (e86c870879, 2021-01-15)">
  <defs
     id="defs15240">
    <clipPath
       id="clip89">
      <rect
         y="0"
         x="0"
         width="18"
         height="19"
         id="rect4864" />
    </clipPath>
    <clipPath
       id="clip90">
      <path
         inkscape:connector-curvature="0"
         d="m 0.898438,0.128906 h 16.25 v 17.882813 h -16.25 z m 0,0"
         id="path4861" />
    </clipPath>
    <mask
       id="mask44">
      <g
         style="filter:url(#alpha)"
         id="g4858"
         transform="matrix(0.26458333,0,0,0.26458333,89.358789,128.57765)">
        <rect
           x="0"
           y="0"
           width="3052.8701"
           height="3351.5"
           style="fill:#000000;fill-opacity:0.149994;stroke:none"
           id="rect4856" />
      </g>
    </mask>
    <filter
       id="alpha"
       filterUnits="objectBoundingBox"
       x="0"
       y="0"
       width="1"
       height="1">
      <feColorMatrix
         type="matrix"
         in="SourceGraphic"
         values="0 0 0 0 1 0 0 0 0 1 0 0 0 0 1 0 0 0 1 0"
         id="feColorMatrix4149" />
    </filter>
    <clipPath
       id="clipPath17821">
      <rect
         y="0"
         x="0"
         width="18"
         height="19"
         id="rect17819" />
    </clipPath>
    <clipPath
       id="clipPath17825">
      <path
         inkscape:connector-curvature="0"
         d="m 0.898438,0.128906 h 16.25 v 17.882813 h -16.25 z m 0,0"
         id="path17823" />
    </clipPath>
    <clipPath
       id="clip87">
      <rect
         y="0"
         x="0"
         width="24"
         height="26"
         id="rect4848" />
    </clipPath>
    <clipPath
       id="clip88">
      <path
         inkscape:connector-curvature="0"
         d="m 0.683594,0.921875 h 22.679687 v 24.9375 H 0.683594 Z m 0,0"
         id="path4845" />
    </clipPath>
    <mask
       id="mask43">
      <g
         style="filter:url(#alpha)"
         id="g4842"
         transform="matrix(0.26458333,0,0,0.26458333,89.358789,128.57765)">
        <rect
           x="0"
           y="0"
           width="3052.8701"
           height="3351.5"
           style="fill:#000000;fill-opacity:0.149994;stroke:none"
           id="rect4840" />
      </g>
    </mask>
    <filter
       id="filter17836"
       filterUnits="objectBoundingBox"
       x="0"
       y="0"
       width="1"
       height="1">
      <feColorMatrix
         type="matrix"
         in="SourceGraphic"
         values="0 0 0 0 1 0 0 0 0 1 0 0 0 0 1 0 0 0 1 0"
         id="feColorMatrix17834" />
    </filter>
    <clipPath
       id="clipPath17840">
      <rect
         y="0"
         x="0"
         width="24"
         height="26"
         id="rect17838" />
    </clipPath>
    <clipPath
       id="clipPath17844">
      <path
         inkscape:connector-curvature="0"
         d="m 0.683594,0.921875 h 22.679687 v 24.9375 H 0.683594 Z m 0,0"
         id="path17842" />
    </clipPath>
  </defs>
  <sodipodi:namedview
     id="base"
     pagecolor="#ffffff"
     bordercolor="#666666"
     borderopacity="1.0"
     inkscape:pageopacity="0.0"
     inkscape:pageshadow="2"
     inkscape:zoom="11.313709"
     inkscape:cx="42.691613"
     inkscape:cy="2.1303909"
     inkscape:document-units="mm"
     inkscape:current-layer="layer1"
     showgrid="false"
     inkscape:window-width="1920"
     inkscape:window-height="1017"
     inkscape:window-x="-8"
     inkscape:window-y="-8"
     inkscape:window-maximized="1"
     units="px"
     fit-margin-top="0"
     fit-margin-left="0"
     fit-margin-right="0"
     fit-margin-bottom="0"
     inkscape:document-rotation="0"
     inkscape:snap-bbox="true"
     inkscape:snap-bbox-midpoints="true"
     inkscape:pagecheckerboard="true" />
  <metadata
     id="metadata15243">
    <rdf:RDF>
      <cc:Work
         rdf:about="">
        <dc:format>image/svg+xml</dc:format>
        <dc:type
           rdf:resource="http://purl.org/dc/dcmitype/StillImage" />
        <dc:title />
      </cc:Work>
    </rdf:RDF>
  </metadata>
  <g
     inkscape:label="Layer 1"
     inkscape:groupmode="layer"
     id="layer1"
     transform="translate(-89.288962,-119.87643)">
    <path
       inkscape:connector-curvature="0"
       id="path7261"
       d="m 92.688963,126.19512 c -1.609548,0 -2.918684,-1.30916 -2.918684,-2.91871 0,-1.60954 1.309137,-2.91867 2.918684,-2.91867 1.609549,0 2.918683,1.30913 2.918683,2.91867 0,1.60955 -1.309134,2.91871 -2.918683,2.91871"
       style="fill:#e6e6e6;fill-opacity:0;fill-rule:nonzero;stroke:#636663;stroke-width:0.25;stroke-miterlimit:4;stroke-dasharray:none;stroke-opacity:0" />
    <g
       aria-label="«"
       transform="scale(0.98120041,1.0191598)"
       id="text872"
       style="font-style:normal;font-variant:normal;font-weight:normal;font-stretch:normal;font-size:7.19074px;line-height:1.25;font-family:Corbel;-inkscape-font-specification:Corbel;display:none;fill:#ffffff;fill-opacity:1;stroke:none;stroke-width:0.269652">
      <path
         d="m 92.843848,120.88513 1.028753,-1.32018 h 0.530177 l -0.909376,1.32018 0.909376,1.32017 h -0.530177 z m 1.393908,0 0.930442,-1.32018 h 0.50911 l -0.789998,1.32018 0.789998,1.32017 h -0.50911 z"
         style="font-style:normal;font-variant:normal;font-weight:normal;font-stretch:normal;font-size:7.19074px;font-family:Corbel;-inkscape-font-specification:Corbel;fill:#ffffff;fill-opacity:1;stroke-width:0.269652"
         id="path874" />
    </g>
    <rect
       style="fill:#fc1016;fill-opacity:1;stroke:#ffffff;stroke-width:0.024;stroke-miterlimit:4;stroke-dasharray:none;stroke-opacity:0.803089;paint-order:fill markers stroke;stop-color:#000000"
       id="rect863"
       width="6.6725254"
       height="2.7088952"
       x="89.352699"
       y="119.92198"
       ry="0.10130601" />
    <rect
       style="fill:none;fill-opacity:1;stroke:#ffffff;stroke-width:0.124;stroke-miterlimit:4;stroke-dasharray:none;stroke-opacity:1;paint-order:stroke fill markers;stop-color:#000000;opacity:1"
       id="rect901"
       width="6.6725254"
       height="2.7088952"
       x="89.352699"
       y="119.92198"
       ry="0.10130601" />
    <g
       aria-label="RESET"
       id="text906"
       style="font-size:2.11667px;line-height:1.25;font-family:'DIN Alternate Light';-inkscape-font-specification:'DIN Alternate Light, ';letter-spacing:-0.0926042px;fill:#ffffff;stroke-width:0.264583">
      <path
         d="m 90.891341,122.02988 h -0.133326 l -0.359668,-0.69454 h -0.414446 v 0.69454 h -0.114722 v -1.50689 h 0.573609 q 0.125058,0 0.222209,0.0475 0.09819,0.0465 0.153996,0.1385 0.05581,0.091 0.05581,0.21807 0,0.16536 -0.09302,0.27182 -0.09198,0.10645 -0.254248,0.13436 z m -0.131259,-1.10071 q 0,-0.14986 -0.09095,-0.22738 -0.08992,-0.0775 -0.240813,-0.0775 h -0.444418 v 0.60978 h 0.444418 q 0.07338,0 0.134359,-0.0186 0.06098,-0.0196 0.104386,-0.0568 0.04341,-0.0372 0.06821,-0.0951 0.02481,-0.0579 0.02481,-0.13436 z"
         style="font-size:2.11667px;fill:#ffffff;stroke-width:0.264583"
         id="path909" />
      <path
         d="m 92.082381,122.02988 h -0.914674 v -1.50689 h 0.914674 v 0.10129 h -0.799953 v 0.59531 h 0.681097 v 0.10128 h -0.681097 v 0.60772 h 0.799953 z"
         style="font-size:2.11667px;fill:#ffffff;stroke-width:0.264583"
         id="path911" />
      <path
         d="m 93.225879,121.62577 q 0,0.093 -0.03514,0.17156 -0.03411,0.0775 -0.100253,0.13229 -0.06511,0.0537 -0.16123,0.0837 -0.09508,0.0289 -0.210841,0.0289 -0.107487,0 -0.19637,-0.0207 -0.08888,-0.0207 -0.163298,-0.0651 -0.07441,-0.0445 -0.142627,-0.11266 l 0.08061,-0.0806 q 0.06821,0.0682 0.131258,0.10748 0.06305,0.0382 0.135393,0.0548 0.07235,0.0155 0.161231,0.0155 0.118856,0 0.205672,-0.0362 0.08682,-0.0372 0.134359,-0.10749 0.04754,-0.0713 0.04754,-0.16743 0,-0.13849 -0.08268,-0.21187 -0.03824,-0.0331 -0.08475,-0.0496 -0.04651,-0.0176 -0.133326,-0.031 l -0.1757,-0.0269 q -0.171566,-0.0258 -0.268718,-0.11059 -0.118856,-0.0992 -0.118856,-0.27698 0,-0.0951 0.03307,-0.17157 0.03411,-0.0775 0.09405,-0.13022 0.05994,-0.0537 0.147795,-0.0816 0.08785,-0.0289 0.19327,-0.0289 0.13746,0 0.236679,0.0393 0.09922,0.0382 0.197404,0.12299 l -0.07441,0.0744 q -0.07958,-0.0713 -0.161231,-0.10542 -0.08062,-0.0341 -0.204639,-0.0341 -0.163298,0 -0.256315,0.0837 -0.09302,0.0837 -0.09302,0.22737 0,0.13126 0.07751,0.19637 0.04237,0.0341 0.103353,0.06 0.06201,0.0248 0.121956,0.0331 l 0.162265,0.0258 q 0.104386,0.0155 0.163297,0.0372 0.05891,0.0217 0.10542,0.062 0.06408,0.0527 0.09715,0.12816 0.03411,0.0744 0.03411,0.16433 z"
         style="font-size:2.11667px;fill:#ffffff;stroke-width:0.264583"
         id="path913" />
      <path
         d="m 94.40555,122.02988 h -0.914674 v -1.50689 h 0.914674 v 0.10129 h -0.799952 v 0.59531 h 0.681096 v 0.10128 h -0.681096 v 0.60772 h 0.799952 z"
         style="font-size:2.11667px;fill:#ffffff;stroke-width:0.264583"
         id="path915" />
      <path
         d="m 95.508741,120.62428 h -0.450619 v 1.4056 h -0.113689 v -1.4056 h -0.449585 v -0.10129 h 1.013893 z"
         style="font-size:2.11667px;fill:#ffffff;stroke-width:0.264583"
         id="path917" />
    </g>
  </g>
</svg>
