<?xml version="1.0" encoding="UTF-8" standalone="no"?>
<svg
   xmlns:dc="http://purl.org/dc/elements/1.1/"
   xmlns:cc="http://creativecommons.org/ns#"
   xmlns:rdf="http://www.w3.org/1999/02/22-rdf-syntax-ns#"
   xmlns:svg="http://www.w3.org/2000/svg"
   xmlns="http://www.w3.org/2000/svg"
   xmlns:sodipodi="http://sodipodi.sourceforge.net/DTD/sodipodi-0.dtd"
   xmlns:inkscape="http://www.inkscape.org/namespaces/inkscape"
   width="6.8000002mm"
   height="6.8000002mm"
   viewBox="0 0 6.8000001 6.8000001"
   version="1.1"
   id="svg15246"
   sodipodi:docname="SmallBtMS1.svg"
   inkscape:version="1.0.2 (e86c870879, 2021-01-15)">
  <defs
     id="defs15240">
    <clipPath
       id="clip89">
      <rect
         y="0"
         x="0"
         width="18"
         height="19"
         id="rect4864" />
    </clipPath>
    <clipPath
       id="clip90">
      <path
         inkscape:connector-curvature="0"
         d="m 0.898438,0.128906 h 16.25 v 17.882813 h -16.25 z m 0,0"
         id="path4861" />
    </clipPath>
    <mask
       id="mask44">
      <g
         style="filter:url(#alpha)"
         id="g4858"
         transform="matrix(0.26458333,0,0,0.26458333,89.358789,128.57765)">
        <rect
           x="0"
           y="0"
           width="3052.8701"
           height="3351.5"
           style="fill:#000000;fill-opacity:0.149994;stroke:none"
           id="rect4856" />
      </g>
    </mask>
    <filter
       id="alpha"
       filterUnits="objectBoundingBox"
       x="0"
       y="0"
       width="1"
       height="1">
      <feColorMatrix
         type="matrix"
         in="SourceGraphic"
         values="0 0 0 0 1 0 0 0 0 1 0 0 0 0 1 0 0 0 1 0"
         id="feColorMatrix4149" />
    </filter>
    <clipPath
       id="clipPath17821">
      <rect
         y="0"
         x="0"
         width="18"
         height="19"
         id="rect17819" />
    </clipPath>
    <clipPath
       id="clipPath17825">
      <path
         inkscape:connector-curvature="0"
         d="m 0.898438,0.128906 h 16.25 v 17.882813 h -16.25 z m 0,0"
         id="path17823" />
    </clipPath>
    <clipPath
       id="clip87">
      <rect
         y="0"
         x="0"
         width="24"
         height="26"
         id="rect4848" />
    </clipPath>
    <clipPath
       id="clip88">
      <path
         inkscape:connector-curvature="0"
         d="m 0.683594,0.921875 h 22.679687 v 24.9375 H 0.683594 Z m 0,0"
         id="path4845" />
    </clipPath>
    <mask
       id="mask43">
      <g
         style="filter:url(#alpha)"
         id="g4842"
         transform="matrix(0.26458333,0,0,0.26458333,89.358789,128.57765)">
        <rect
           x="0"
           y="0"
           width="3052.8701"
           height="3351.5"
           style="fill:#000000;fill-opacity:0.149994;stroke:none"
           id="rect4840" />
      </g>
    </mask>
    <filter
       id="filter17836"
       filterUnits="objectBoundingBox"
       x="0"
       y="0"
       width="1"
       height="1">
      <feColorMatrix
         type="matrix"
         in="SourceGraphic"
         values="0 0 0 0 1 0 0 0 0 1 0 0 0 0 1 0 0 0 1 0"
         id="feColorMatrix17834" />
    </filter>
    <clipPath
       id="clipPath17840">
      <rect
         y="0"
         x="0"
         width="24"
         height="26"
         id="rect17838" />
    </clipPath>
    <clipPath
       id="clipPath17844">
      <path
         inkscape:connector-curvature="0"
         d="m 0.683594,0.921875 h 22.679687 v 24.9375 H 0.683594 Z m 0,0"
         id="path17842" />
    </clipPath>
    <filter
       inkscape:collect="always"
       style="color-interpolation-filters:sRGB"
       id="filter1039"
       x="-1.0800001e-05"
       width="1.0000216"
       y="-1.0800001e-05"
       height="1.0000216">
      <feGaussianBlur
         inkscape:collect="always"
         stdDeviation="2.9475004e-05"
         id="feGaussianBlur1041" />
    </filter>
    <filter
       inkscape:collect="always"
       style="color-interpolation-filters:sRGB"
       id="filter1067"
       x="-3e-05"
       width="1.00006"
       y="-3e-05"
       height="1.00006">
      <feGaussianBlur
         inkscape:collect="always"
         stdDeviation="8.1875e-05"
         id="feGaussianBlur1069" />
    </filter>
  </defs>
  <sodipodi:namedview
     id="base"
     pagecolor="#ffffff"
     bordercolor="#666666"
     borderopacity="1.0"
     inkscape:pageopacity="0.0"
     inkscape:pageshadow="2"
     inkscape:zoom="7.919596"
     inkscape:cx="40.457406"
     inkscape:cy="6.6154531"
     inkscape:document-units="mm"
     inkscape:current-layer="layer1"
     showgrid="false"
     inkscape:window-width="1920"
     inkscape:window-height="1017"
     inkscape:window-x="-8"
     inkscape:window-y="-8"
     inkscape:window-maximized="1"
     units="px"
     fit-margin-top="0"
     fit-margin-left="0"
     fit-margin-right="0"
     fit-margin-bottom="0"
     inkscape:document-rotation="0"
     inkscape:snap-bbox="true"
     inkscape:snap-bbox-midpoints="true"
     inkscape:pagecheckerboard="true" />
  <metadata
     id="metadata15243">
    <rdf:RDF>
      <cc:Work
         rdf:about="">
        <dc:format>image/svg+xml</dc:format>
        <dc:type
           rdf:resource="http://purl.org/dc/dcmitype/StillImage" />
        <dc:title />
      </cc:Work>
    </rdf:RDF>
  </metadata>
  <g
     inkscape:label="Layer 1"
     inkscape:groupmode="layer"
     id="layer1"
     transform="translate(-89.288962,-119.87643)"
     style="display:inline;filter:url(#filter1067)">
    <path
       inkscape:connector-curvature="0"
       id="path7255"
       d="m 92.688962,126.55143 c -1.806206,0 -3.275,-1.46879 -3.275,-3.275 0,-1.80618 1.468794,-3.275 3.275,-3.275 1.806205,0 3.275,1.46882 3.275,3.275 0,1.80621 -1.468795,3.275 -3.275,3.275"
       style="display:inline;fill:#717af1;fill-opacity:0.94999999;fill-rule:nonzero;stroke:#fefefe;stroke-width:0.15;stroke-miterlimit:4;stroke-dasharray:none;stroke-opacity:0.948925;paint-order:stroke fill markers;filter:url(#filter1039)" />
    <path
       inkscape:connector-curvature="0"
       id="path7261"
       d="m 92.688963,126.19512 c -1.609548,0 -2.918684,-1.30916 -2.918684,-2.91871 0,-1.60954 1.309137,-2.91867 2.918684,-2.91867 1.609549,0 2.918683,1.30913 2.918683,2.91867 0,1.60955 -1.309134,2.91871 -2.918683,2.91871"
       style="fill:#e6e6e6;fill-opacity:0;fill-rule:nonzero;stroke:#636663;stroke-width:0.25;stroke-miterlimit:4;stroke-dasharray:none;stroke-opacity:0" />
    <path
       inkscape:connector-curvature="0"
       id="path7265"
       d="m 94.872634,123.2764 c 0,1.24467 -0.978138,2.25457 -2.183671,2.25457 -1.205534,0 -2.183673,-1.0099 -2.183673,-2.25457 0,-1.24465 0.978139,-2.2545 2.183673,-2.2545 1.205533,0 2.183671,1.00985 2.183671,2.2545"
       style="fill:#ffffff;fill-opacity:0.94999999;fill-rule:nonzero;stroke:#ffffff;stroke-width:0.311917;stroke-miterlimit:4;stroke-dasharray:none;stroke-opacity:0.94999999;paint-order:stroke fill markers" />
    <g
       aria-label="«"
       transform="scale(0.98120041,1.0191598)"
       id="text872"
       style="font-style:normal;font-variant:normal;font-weight:normal;font-stretch:normal;font-size:7.19074px;line-height:1.25;font-family:Corbel;-inkscape-font-specification:Corbel;display:none;fill:#ffffff;fill-opacity:1;stroke:none;stroke-width:0.269652">
      <path
         d="m 92.843848,120.88513 1.028753,-1.32018 h 0.530177 l -0.909376,1.32018 0.909376,1.32017 h -0.530177 z m 1.393908,0 0.930442,-1.32018 h 0.50911 l -0.789998,1.32018 0.789998,1.32017 h -0.50911 z"
         style="font-style:normal;font-variant:normal;font-weight:normal;font-stretch:normal;font-size:7.19074px;font-family:Corbel;-inkscape-font-specification:Corbel;fill:#ffffff;fill-opacity:1;stroke-width:0.269652"
         id="path874" />
    </g>
    <g
       aria-label="S"
       id="text873"
       style="font-style:normal;font-variant:normal;font-weight:normal;font-stretch:normal;font-size:4.23333px;line-height:1.25;font-family:'DIN Alternate';-inkscape-font-specification:'DIN Alternate';stroke-width:0.264583;fill:#000000">
      <path
         d="m 93.726624,123.95442 q 0,0.26045 -0.130224,0.45475 -0.128158,0.19224 -0.363802,0.29559 -0.233577,0.10335 -0.54777,0.10335 -0.227376,0 -0.40721,-0.0393 -0.179834,-0.0413 -0.332796,-0.12816 -0.150895,-0.0868 -0.293522,-0.22944 l 0.221175,-0.22118 q 0.121957,0.12196 0.24598,0.19638 0.124023,0.0723 0.260449,0.10335 0.138493,0.031 0.314192,0.031 0.332796,0 0.520898,-0.14882 0.19017,-0.14883 0.19017,-0.40928 0,-0.11782 -0.03721,-0.21911 -0.03721,-0.10128 -0.107487,-0.15916 -0.06821,-0.062 -0.146761,-0.0889 -0.07855,-0.0289 -0.24598,-0.0537 l -0.351399,-0.0558 q -0.359668,-0.0579 -0.553971,-0.22738 -0.229443,-0.20463 -0.229443,-0.5643 0,-0.25012 0.115755,-0.44442 0.115755,-0.1943 0.334863,-0.29972 0.221175,-0.10542 0.514697,-0.10542 0.285253,0 0.491959,0.0765 0.208772,0.0744 0.405143,0.25218 l -0.206706,0.20877 q -0.142627,-0.13022 -0.310058,-0.1943 -0.165365,-0.0641 -0.392741,-0.0641 -0.19637,0 -0.341064,0.0703 -0.142627,0.0682 -0.219108,0.1943 -0.07441,0.12403 -0.07441,0.29353 0,0.23151 0.134359,0.34726 0.142627,0.12402 0.40721,0.16537 l 0.328662,0.0496 q 0.198437,0.0289 0.326594,0.0806 0.130225,0.0496 0.225309,0.13229 0.254248,0.21291 0.254248,0.59738 z"
         style="font-style:normal;font-variant:normal;font-weight:normal;font-stretch:normal;font-size:4.23333px;font-family:'DIN Alternate';-inkscape-font-specification:'DIN Alternate';fill:#000000;stroke-width:0.264583"
         id="path1074" />
    </g>
  </g>
</svg>
