<?xml version="1.0" encoding="UTF-8" standalone="no"?>
<svg
   xmlns:dc="http://purl.org/dc/elements/1.1/"
   xmlns:cc="http://creativecommons.org/ns#"
   xmlns:rdf="http://www.w3.org/1999/02/22-rdf-syntax-ns#"
   xmlns:svg="http://www.w3.org/2000/svg"
   xmlns="http://www.w3.org/2000/svg"
   xmlns:sodipodi="http://sodipodi.sourceforge.net/DTD/sodipodi-0.dtd"
   xmlns:inkscape="http://www.inkscape.org/namespaces/inkscape"
   width="6.8000002mm"
   height="6.8000002mm"
   viewBox="0 0 6.8000001 6.8000001"
   version="1.1"
   id="svg15246"
   sodipodi:docname="SmallBtS1.svg"
   inkscape:version="1.0.2 (e86c870879, 2021-01-15)">
  <defs
     id="defs15240">
    <clipPath
       id="clip89">
      <rect
         y="0"
         x="0"
         width="18"
         height="19"
         id="rect4864" />
    </clipPath>
    <clipPath
       id="clip90">
      <path
         inkscape:connector-curvature="0"
         d="m 0.898438,0.128906 h 16.25 v 17.882813 h -16.25 z m 0,0"
         id="path4861" />
    </clipPath>
    <mask
       id="mask44">
      <g
         style="filter:url(#alpha)"
         id="g4858"
         transform="matrix(0.26458333,0,0,0.26458333,89.358789,128.57765)">
        <rect
           x="0"
           y="0"
           width="3052.8701"
           height="3351.5"
           style="fill:#000000;fill-opacity:0.149994;stroke:none"
           id="rect4856" />
      </g>
    </mask>
    <filter
       id="alpha"
       filterUnits="objectBoundingBox"
       x="0"
       y="0"
       width="1"
       height="1">
      <feColorMatrix
         type="matrix"
         in="SourceGraphic"
         values="0 0 0 0 1 0 0 0 0 1 0 0 0 0 1 0 0 0 1 0"
         id="feColorMatrix4149" />
    </filter>
    <clipPath
       id="clipPath17821">
      <rect
         y="0"
         x="0"
         width="18"
         height="19"
         id="rect17819" />
    </clipPath>
    <clipPath
       id="clipPath17825">
      <path
         inkscape:connector-curvature="0"
         d="m 0.898438,0.128906 h 16.25 v 17.882813 h -16.25 z m 0,0"
         id="path17823" />
    </clipPath>
    <clipPath
       id="clip87">
      <rect
         y="0"
         x="0"
         width="24"
         height="26"
         id="rect4848" />
    </clipPath>
    <clipPath
       id="clip88">
      <path
         inkscape:connector-curvature="0"
         d="m 0.683594,0.921875 h 22.679687 v 24.9375 H 0.683594 Z m 0,0"
         id="path4845" />
    </clipPath>
    <mask
       id="mask43">
      <g
         style="filter:url(#alpha)"
         id="g4842"
         transform="matrix(0.26458333,0,0,0.26458333,89.358789,128.57765)">
        <rect
           x="0"
           y="0"
           width="3052.8701"
           height="3351.5"
           style="fill:#000000;fill-opacity:0.149994;stroke:none"
           id="rect4840" />
      </g>
    </mask>
    <filter
       id="filter17836"
       filterUnits="objectBoundingBox"
       x="0"
       y="0"
       width="1"
       height="1">
      <feColorMatrix
         type="matrix"
         in="SourceGraphic"
         values="0 0 0 0 1 0 0 0 0 1 0 0 0 0 1 0 0 0 1 0"
         id="feColorMatrix17834" />
    </filter>
    <clipPath
       id="clipPath17840">
      <rect
         y="0"
         x="0"
         width="24"
         height="26"
         id="rect17838" />
    </clipPath>
    <clipPath
       id="clipPath17844">
      <path
         inkscape:connector-curvature="0"
         d="m 0.683594,0.921875 h 22.679687 v 24.9375 H 0.683594 Z m 0,0"
         id="path17842" />
    </clipPath>
  </defs>
  <sodipodi:namedview
     id="base"
     pagecolor="#ffffff"
     bordercolor="#666666"
     borderopacity="1.0"
     inkscape:pageopacity="0.0"
     inkscape:pageshadow="2"
     inkscape:zoom="22.4"
     inkscape:cx="13.441833"
     inkscape:cy="9.7871198"
     inkscape:document-units="mm"
     inkscape:current-layer="layer1"
     showgrid="false"
     inkscape:window-width="1254"
     inkscape:window-height="1040"
     inkscape:window-x="0"
     inkscape:window-y="0"
     inkscape:window-maximized="0"
     units="px"
     fit-margin-top="0"
     fit-margin-left="0"
     fit-margin-right="0"
     fit-margin-bottom="0"
     inkscape:document-rotation="0"
     inkscape:snap-bbox="true"
     inkscape:snap-bbox-midpoints="true"
     inkscape:pagecheckerboard="true" />
  <metadata
     id="metadata15243">
    <rdf:RDF>
      <cc:Work
         rdf:about="">
        <dc:format>image/svg+xml</dc:format>
        <dc:type
           rdf:resource="http://purl.org/dc/dcmitype/StillImage" />
        <dc:title />
      </cc:Work>
    </rdf:RDF>
  </metadata>
  <g
     inkscape:label="Layer 1"
     inkscape:groupmode="layer"
     id="layer1"
     transform="translate(-89.288962,-119.87643)">
    <path
       inkscape:connector-curvature="0"
       id="path7255"
       d="m 92.688962,126.55143 c -1.806206,0 -3.275,-1.46879 -3.275,-3.275 0,-1.80618 1.468794,-3.275 3.275,-3.275 1.806205,0 3.275,1.46882 3.275,3.275 0,1.80621 -1.468795,3.275 -3.275,3.275"
       style="fill:#ecf141;fill-opacity:0.88172;fill-rule:nonzero;stroke:#fefefe;stroke-width:0.15;stroke-miterlimit:4;stroke-dasharray:none;stroke-opacity:0.92204303;paint-order:stroke fill markers" />
    <path
       inkscape:connector-curvature="0"
       id="path7261"
       d="m 92.688963,126.19512 c -1.609548,0 -2.918684,-1.30916 -2.918684,-2.91871 0,-1.60954 1.309137,-2.91867 2.918684,-2.91867 1.609549,0 2.918683,1.30913 2.918683,2.91867 0,1.60955 -1.309134,2.91871 -2.918683,2.91871"
       style="fill:#e6e6e6;fill-opacity:0;fill-rule:nonzero;stroke:#636663;stroke-width:0.25;stroke-miterlimit:4;stroke-dasharray:none;stroke-opacity:0" />
    <path
       inkscape:connector-curvature="0"
       id="path7265"
       d="m 94.872634,123.2764 c 0,1.24467 -0.978138,2.25457 -2.183671,2.25457 -1.205534,0 -2.183673,-1.0099 -2.183673,-2.25457 0,-1.24465 0.978139,-2.2545 2.183673,-2.2545 1.205533,0 2.183671,1.00985 2.183671,2.2545"
       style="fill:#f9f9f9;fill-opacity:1;fill-rule:nonzero;stroke:#ffffff;stroke-width:0.311917;stroke-miterlimit:4;stroke-dasharray:none;stroke-opacity:0.803089;paint-order:stroke fill markers" />
    <g
       aria-label="«"
       transform="scale(0.98120041,1.0191598)"
       id="text872"
       style="font-style:normal;font-variant:normal;font-weight:normal;font-stretch:normal;font-size:7.19074px;line-height:1.25;font-family:Corbel;-inkscape-font-specification:Corbel;display:none;fill:#ffffff;fill-opacity:1;stroke:none;stroke-width:0.269652">
      <path
         d="m 92.843848,120.88513 1.028753,-1.32018 h 0.530177 l -0.909376,1.32018 0.909376,1.32017 h -0.530177 z m 1.393908,0 0.930442,-1.32018 h 0.50911 l -0.789998,1.32018 0.789998,1.32017 h -0.50911 z"
         style="font-style:normal;font-variant:normal;font-weight:normal;font-stretch:normal;font-size:7.19074px;font-family:Corbel;-inkscape-font-specification:Corbel;display:none;fill:#ffffff;fill-opacity:1;stroke-width:0.269652"
         id="path874" />
    </g>
    <g
       aria-label="+"
       id="text879"
       style="font-style:normal;font-variant:normal;font-weight:normal;font-stretch:normal;font-size:7.05556px;line-height:1.25;font-family:Calibri;-inkscape-font-specification:Calibri;display:none;fill:#ffffff;fill-opacity:1;stroke:none;stroke-width:0.264583"
       transform="matrix(0.03911874,0.74568346,-0.74568346,0.03911874,181.01523,48.685525)">
      <path
         d="m 94.204804,123.27988 q 0,0.0654 -0.01033,0.11368 -0.01034,0.0448 -0.02756,0.0758 -0.01723,0.031 -0.04134,0.0448 -0.02412,0.0138 -0.05168,0.0138 h -1.129992 v 1.25402 q 0,0.0276 -0.01378,0.0482 -0.01378,0.0172 -0.04479,0.031 -0.02756,0.0138 -0.07579,0.0241 -0.04823,0.007 -0.120578,0.007 -0.0689,0 -0.120579,-0.007 -0.04823,-0.0103 -0.07924,-0.0241 -0.02756,-0.0138 -0.04134,-0.031 -0.01378,-0.0207 -0.01378,-0.0482 v -1.25402 h -1.129992 q -0.03101,0 -0.05512,-0.0138 -0.02067,-0.0138 -0.0379,-0.0448 -0.01723,-0.031 -0.02756,-0.0758 -0.01033,-0.0482 -0.01033,-0.11368 0,-0.062 0.01033,-0.1068 0.01033,-0.0482 0.02756,-0.0792 0.01722,-0.031 0.0379,-0.0448 0.02412,-0.0138 0.05168,-0.0138 h 1.133437 v -1.25401 q 0,-0.0276 0.01378,-0.0482 0.01378,-0.0241 0.04134,-0.0379 0.03101,-0.0172 0.07924,-0.0241 0.05168,-0.0103 0.120579,-0.0103 0.07235,0 0.120578,0.0103 0.04823,0.007 0.07579,0.0241 0.03101,0.0138 0.04479,0.0379 0.01378,0.0207 0.01378,0.0482 v 1.25401 h 1.133437 q 0.02756,0 0.04823,0.0138 0.02411,0.0138 0.04134,0.0448 0.02067,0.031 0.02756,0.0792 0.01033,0.0448 0.01033,0.1068 z"
         style="font-style:normal;font-variant:normal;font-weight:normal;font-stretch:normal;font-size:7.05556px;font-family:Calibri;-inkscape-font-specification:Calibri;display:inline;fill:#ffffff;fill-opacity:1;stroke-width:0.264583"
         id="path881" />
    </g>
    <g
       aria-label="-"
       transform="matrix(1.2739385,-0.03612148,-0.15611763,0.78939382,-44.693794,53.482498)"
       id="text890"
       style="font-style:normal;font-variant:normal;font-weight:normal;font-stretch:normal;font-size:8.76861px;line-height:1.25;font-family:Calibri;-inkscape-font-specification:Calibri;display:none;fill:#ffffff;fill-opacity:1;stroke:none;stroke-width:0.328822">
      <path
         d="m 120.59288,95.345486 q 0,0.16698 -0.0385,0.231203 -0.0385,0.06422 -0.11132,0.06422 h -1.78968 q -0.0771,0 -0.11561,-0.06422 -0.0385,-0.0685 -0.0385,-0.231203 0,-0.162699 0.0385,-0.226922 0.0385,-0.06422 0.11561,-0.06422 h 1.78968 q 0.0343,0 0.0599,0.01284 0.03,0.01284 0.0471,0.05138 0.0214,0.03425 0.03,0.08991 0.0129,0.05566 0.0129,0.13701 z"
         style="font-style:normal;font-variant:normal;font-weight:normal;font-stretch:normal;font-size:8.76861px;font-family:Calibri;-inkscape-font-specification:Calibri;fill:#ffffff;fill-opacity:1;stroke-width:0.328822"
         id="path892" />
    </g>
    <g
       aria-label="↙"
       id="text901"
       style="font-style:normal;font-variant:normal;font-weight:normal;font-stretch:normal;font-size:5.47277px;line-height:1.25;font-family:Consolas;-inkscape-font-specification:Consolas;display:none;fill:#000000;fill-opacity:1;stroke:none;stroke-width:0.205228">
      <path
         d="m 91.673508,124.92254 -0.149646,-1.5606 h 0.08551 l 0.32067,0.98339 1.774374,-2.715 0.149647,0.12826 -1.774375,2.71501 1.0689,-0.10689 v 0.0855 z"
         style="font-style:normal;font-variant:normal;font-weight:normal;font-stretch:normal;font-size:5.47277px;font-family:Consolas;-inkscape-font-specification:Consolas;fill:#000000;fill-opacity:1;stroke-width:0.205228"
         id="path903" />
    </g>
    <g
       aria-label="⏳"
       transform="matrix(0.99991205,-0.06039468,0.0316786,0.99817458,0,0)"
       id="text910"
       style="font-style:normal;font-variant:normal;font-weight:normal;font-stretch:normal;font-size:2.90026px;line-height:1.25;font-family:DIN;-inkscape-font-specification:DIN;fill:#0726fd;fill-opacity:1;stroke:none;stroke-width:0.217519">
      <path
         d="m 89.632037,129.90862 q 0.04815,0.0425 0.07506,0.10196 0.02691,0.0609 0.02691,0.12462 0,0.0623 -0.02407,0.11754 -0.02407,0.0552 -0.06656,0.0963 -0.04107,0.0425 -0.0963,0.0666 -0.05523,0.0255 -0.11754,0.0255 h -1.628564 q -0.06373,0 -0.118956,-0.0241 -0.05523,-0.0241 -0.09771,-0.0666 -0.04107,-0.0411 -0.06514,-0.0963 -0.02407,-0.0552 -0.02407,-0.11896 0,-0.0637 0.02691,-0.12462 0.02691,-0.0595 0.07506,-0.10196 0.0042,-0.22658 0.08497,-0.41918 0.08214,-0.19401 0.227999,-0.36536 0.02407,-0.0283 0.04815,-0.0538 0.02549,-0.0269 0.05381,-0.051 0.01416,-0.0113 0.02832,-0.0226 0.01558,-0.0128 0.02691,-0.0269 0.01983,-0.0227 0.02832,-0.0496 0.0099,-0.0269 0.0099,-0.0566 0,-0.0297 -0.0099,-0.0566 -0.0085,-0.0269 -0.02832,-0.0496 -0.01133,-0.0142 -0.02691,-0.0255 -0.01416,-0.0127 -0.02832,-0.0241 -0.02832,-0.0241 -0.05381,-0.0496 -0.02407,-0.0269 -0.04815,-0.0552 -0.145863,-0.17135 -0.227999,-0.36395 -0.08072,-0.19401 -0.08497,-0.42059 -0.04815,-0.0425 -0.07506,-0.10197 -0.02691,-0.0609 -0.02691,-0.12462 0,-0.0637 0.02407,-0.11895 0.02407,-0.0552 0.06514,-0.0963 0.04248,-0.0425 0.09771,-0.0666 0.05523,-0.0241 0.118956,-0.0241 h 1.628564 q 0.06231,0 0.11754,0.0255 0.05523,0.0241 0.0963,0.0666 0.04248,0.0411 0.06656,0.0977 0.02407,0.0552 0.02407,0.11612 0,0.0637 -0.02691,0.12462 -0.02691,0.0595 -0.07506,0.10197 -0.0042,0.22658 -0.08638,0.42059 -0.08072,0.1926 -0.226582,0.36395 -0.02407,0.0283 -0.04957,0.0552 -0.02407,0.0255 -0.0524,0.0496 -0.01416,0.0113 -0.02832,0.0241 -0.01416,0.0113 -0.02691,0.0255 -0.01983,0.0227 -0.02974,0.0496 -0.0085,0.0269 -0.0085,0.0566 0,0.0297 0.0085,0.0566 0.0099,0.0269 0.02974,0.0496 0.01274,0.0142 0.02691,0.0269 0.01416,0.0113 0.02832,0.0226 0.02832,0.0241 0.0524,0.051 0.02549,0.0255 0.04957,0.0538 0.145862,0.17135 0.226582,0.36536 0.08214,0.1926 0.08638,0.41918 z m -0.71232,-1.04511 q 0,-0.0722 0.02549,-0.13737 0.02691,-0.0666 0.07647,-0.11754 0.02974,-0.0311 0.06231,-0.0581 0.03399,-0.0283 0.06373,-0.0609 0.133118,-0.14445 0.206757,-0.32005 0.07506,-0.17702 0.07506,-0.37528 h -0.101963 q 0,0.11188 -0.02549,0.20959 -0.02549,0.0977 -0.07222,0.18552 -0.04673,0.0878 -0.113292,0.1671 -0.06514,0.0779 -0.145862,0.15011 -0.05806,0.0524 -0.106211,0.10904 -0.04673,0.0552 -0.08072,0.11754 -0.03257,0.0623 -0.05098,0.13312 -0.01699,0.0694 -0.01699,0.15011 v 0.71232 q 0,0.0411 0.02974,0.0722 0.03115,0.0297 0.07222,0.0297 h 0.407849 q 0.04248,0 0.07222,0.0297 0.02974,0.0297 0.02974,0.0722 h 0.101963 q 0,-0.19826 -0.07506,-0.37387 -0.07364,-0.17701 -0.206757,-0.32146 -0.02974,-0.0326 -0.06373,-0.0595 -0.03257,-0.0283 -0.06231,-0.0595 -0.04957,-0.051 -0.07647,-0.11612 -0.02549,-0.0666 -0.02549,-0.13878 z m 0.203925,-0.71232 q 0,-0.0212 -0.01558,-0.0354 -0.01416,-0.0156 -0.0354,-0.0156 -0.02124,0 -0.03682,0.0156 -0.01416,0.0142 -0.01416,0.0354 0,0.0212 0.01416,0.0368 0.01558,0.0142 0.03682,0.0142 0.02124,0 0.0354,-0.0142 0.01558,-0.0156 0.01558,-0.0368 z m -0.356868,0.051 q 0.02124,0 0.0354,-0.0142 0.01558,-0.0156 0.01558,-0.0368 0,-0.0212 -0.01558,-0.0354 -0.01416,-0.0156 -0.0354,-0.0156 -0.01983,0 -0.0354,0.0156 -0.01558,0.0156 -0.01558,0.0354 0,0.0198 0.01558,0.0354 0.01558,0.0156 0.0354,0.0156 z m 0.05098,0.25349 q 0,-0.0198 -0.01558,-0.034 -0.01558,-0.0156 -0.0354,-0.0156 -0.01983,0 -0.0354,0.0156 -0.01558,0.0142 -0.01558,0.034 0,0.0198 0.01558,0.0354 0.01558,0.0156 0.0354,0.0156 0.02124,0 0.0354,-0.0142 0.01558,-0.0156 0.01558,-0.0368 z m -1.118753,-0.86385 q 0,0.0411 0.02974,0.0708 0.03116,0.0297 0.07222,0.0297 h 1.628564 q 0.04107,0 0.07081,-0.0297 0.02974,-0.0297 0.02974,-0.0708 0,-0.0411 -0.02974,-0.0708 -0.02974,-0.0312 -0.07081,-0.0312 h -1.628564 q -0.04248,0 -0.07222,0.0297 -0.02974,0.0297 -0.02974,0.0722 z m 0.610358,1.2717 q 0,0.0722 -0.02691,0.13878 -0.02549,0.0651 -0.07506,0.11612 -0.02974,0.0312 -0.06373,0.0595 -0.03257,0.0269 -0.06231,0.0595 -0.133117,0.14445 -0.206757,0.32146 -0.07364,0.17561 -0.07364,0.37387 h 0.100546 q 0,-0.0411 0.02974,-0.0722 0.02974,-0.0297 0.07222,-0.0297 h 0.407849 q 0.04248,0 0.07222,-0.0297 0.02974,-0.0297 0.02974,-0.0722 v -0.71232 q 0,-0.0807 -0.01841,-0.15011 -0.01699,-0.0708 -0.05098,-0.13312 -0.03257,-0.0623 -0.08072,-0.11754 -0.04673,-0.0566 -0.104794,-0.10904 -0.08072,-0.0722 -0.147279,-0.15011 -0.06514,-0.0793 -0.111875,-0.16569 -0.04673,-0.0878 -0.07222,-0.18551 -0.02549,-0.0991 -0.02549,-0.21101 h -0.100546 q 0,0.19826 0.07364,0.37528 0.07364,0.1756 0.206757,0.32005 0.02974,0.0326 0.06231,0.0609 0.03399,0.0269 0.06373,0.0581 0.04957,0.051 0.07506,0.11754 0.02691,0.0652 0.02691,0.13737 z m 1.220715,1.27169 q 0,-0.0411 -0.02974,-0.0708 -0.02974,-0.0297 -0.07081,-0.0297 H 87.80096 q -0.04107,0 -0.07222,0.0297 -0.02974,0.0297 -0.02974,0.0708 0,0.0425 0.02974,0.0722 0.02974,0.0297 0.07222,0.0297 h 1.628564 q 0.04107,0 0.07081,-0.0312 0.02974,-0.0297 0.02974,-0.0708 z"
         style="font-style:normal;font-variant:normal;font-weight:normal;font-stretch:normal;font-size:2.90026px;font-family:DIN;-inkscape-font-specification:DIN;fill:#0726fd;fill-opacity:1;stroke-width:0.217519"
         id="path912" />
    </g>
  </g>
</svg>
