<?xml version="1.0" encoding="UTF-8" standalone="no"?>
<svg
   xmlns:dc="http://purl.org/dc/elements/1.1/"
   xmlns:cc="http://creativecommons.org/ns#"
   xmlns:rdf="http://www.w3.org/1999/02/22-rdf-syntax-ns#"
   xmlns:svg="http://www.w3.org/2000/svg"
   xmlns="http://www.w3.org/2000/svg"
   xmlns:sodipodi="http://sodipodi.sourceforge.net/DTD/sodipodi-0.dtd"
   xmlns:inkscape="http://www.inkscape.org/namespaces/inkscape"
   width="30"
   height="380"
   viewBox="0 0 7.9375 100.54166"
   version="1.1"
   id="svg12553"
   inkscape:version="1.0.2 (e86c870879, 2021-01-15)"
   sodipodi:docname="Panel2hpN1.svg">
  <defs
     id="defs12547">
    <filter
       style="color-interpolation-filters:sRGB"
       inkscape:label="Lightness-Contrast"
       id="filter928">
      <feColorMatrix
         values="3.26994 0 0 0.458429 -1.13497 0 3.26994 0 0.458429 -1.13497 0 0 3.26994 0.458429 -1.13497 0 0 0 1 0"
         id="feColorMatrix926" />
    </filter>
    <filter
       style="color-interpolation-filters:sRGB"
       inkscape:label="Lightness-Contrast"
       id="filter929">
      <feColorMatrix
         values="3.26994 0 0 0.458429 -1.13497 0 3.26994 0 0.458429 -1.13497 0 0 3.26994 0.458429 -1.13497 0 0 0 1 0"
         id="feColorMatrix927" />
    </filter>
    <filter
       style="color-interpolation-filters:sRGB"
       inkscape:label="Lightness-Contrast"
       id="filter933">
      <feColorMatrix
         values="3.26994 0 0 0.458429 -1.13497 0 3.26994 0 0.458429 -1.13497 0 0 3.26994 0.458429 -1.13497 0 0 0 1 0"
         id="feColorMatrix931" />
    </filter>
  </defs>
  <sodipodi:namedview
     id="base"
     pagecolor="#ffffff"
     bordercolor="#666666"
     borderopacity="1.0"
     inkscape:pageopacity="0.0"
     inkscape:pageshadow="2"
     inkscape:zoom="5.6"
     inkscape:cx="97.04251"
     inkscape:cy="49.901663"
     inkscape:document-units="px"
     inkscape:current-layer="layer1"
     showgrid="true"
     fit-margin-top="0"
     fit-margin-left="0"
     fit-margin-right="0"
     fit-margin-bottom="0"
     units="px"
     inkscape:window-width="1897"
     inkscape:window-height="1041"
     inkscape:window-x="0"
     inkscape:window-y="0"
     inkscape:window-maximized="0"
     inkscape:snap-global="false"
     inkscape:document-rotation="0">
    <inkscape:grid
       type="xygrid"
       id="grid12870"
       originx="-20.372917"
       originy="84.666661" />
  </sodipodi:namedview>
  <metadata
     id="metadata12550">
    <rdf:RDF>
      <cc:Work
         rdf:about="">
        <dc:format>image/svg+xml</dc:format>
        <dc:type
           rdf:resource="http://purl.org/dc/dcmitype/StillImage" />
        <dc:title></dc:title>
      </cc:Work>
    </rdf:RDF>
  </metadata>
  <g
     inkscape:label="Layer 1"
     inkscape:groupmode="layer"
     id="layer1"
     transform="translate(-26.543497,-161.30655)">
    <path
       inkscape:connector-curvature="0"
       id="path33453"
       d="m 26.543497,161.26312 h 7.961123 v 100.58509 h -7.961123 z m 0,0"
       style="fill:#f4f4f4;fill-opacity:1;fill-rule:nonzero;stroke:none;stroke-width:0.144511" />
    <g
       aria-label="N1seq"
       id="text847"
       style="font-size:2.11667px;line-height:1.25;font-family:'DIN Alternate Light';-inkscape-font-specification:'DIN Alternate Light, ';letter-spacing:0px;fill:#333333;stroke-width:0.264583">
      <path
         d="M 29.225419,163.10365 H 29.11173 l -0.870232,-1.31051 v 1.31051 h -0.114722 v -1.50688 h 0.114722 l 0.870232,1.30534 v -1.30534 h 0.113689 z"
         style="font-size:2.11667px;fill:#333333;stroke-width:0.264583"
         id="path855" />
      <path
         d="m 30.025886,163.10365 h -0.125401 v -1.33118 l -0.319532,0.28215 v -0.15072 l 0.319532,-0.27492 h 0.125401 z"
         style="font-size:2.46944px;fill:#333333"
         id="path857" />
      <path
         d="m 31.095071,162.86163 q 0,0.0767 -0.0422,0.13436 -0.04134,0.0568 -0.118856,0.0879 -0.07665,0.0301 -0.179145,0.0301 -0.217041,0 -0.34451,-0.12144 l 0.06201,-0.062 q 0.09905,0.10421 0.279053,0.10421 0.124023,0 0.18948,-0.0431 0.06632,-0.0439 0.06632,-0.13006 0,-0.0654 -0.03962,-0.0999 -0.03962,-0.0344 -0.123163,-0.0422 l -0.141249,-0.0129 q -0.255798,-0.0207 -0.255798,-0.22221 0,-0.0724 0.03703,-0.12661 0.0379,-0.0551 0.106798,-0.0844 0.0689,-0.0301 0.161919,-0.0301 0.08957,0 0.166226,0.0241 0.07665,0.0232 0.131775,0.0654 l -0.06029,0.0603 q -0.09818,-0.0724 -0.237712,-0.0724 -0.105075,0 -0.161058,0.0431 -0.05598,0.0431 -0.05598,0.12058 0,0.0672 0.04134,0.10163 0.0422,0.0336 0.131775,0.0413 l 0.136943,0.0121 q 0.118856,0.0103 0.183451,0.0586 0.06546,0.0482 0.06546,0.16364 z"
         style="font-size:1.76389px;fill:#333333"
         id="path859" />
      <path
         d="m 31.996826,162.69799 h -0.590834 q 0,0.16192 0.07062,0.24891 0.07149,0.0861 0.205845,0.0861 0.07407,0 0.126607,-0.0233 0.05254,-0.0232 0.108521,-0.0792 l 0.06718,0.0534 q -0.06804,0.068 -0.137804,0.099 -0.0689,0.031 -0.169671,0.031 -0.117133,0 -0.198093,-0.0491 -0.0801,-0.05 -0.122301,-0.14728 -0.04134,-0.0973 -0.04134,-0.23944 0,-0.10335 0.02325,-0.18345 0.02325,-0.081 0.06632,-0.13608 0.04393,-0.0551 0.108521,-0.0853 0.0646,-0.0301 0.142971,-0.0301 0.0801,0 0.142111,0.0276 0.06201,0.0276 0.106798,0.0818 0.04479,0.0534 0.06804,0.13005 0.02325,0.0767 0.02325,0.17484 z m -0.09043,-0.0723 q -0.0026,-0.0629 -0.0078,-0.0904 -0.0052,-0.0284 -0.02153,-0.0698 -0.0267,-0.0655 -0.08785,-0.10422 -0.06115,-0.0387 -0.132637,-0.0387 -0.07321,0 -0.132636,0.0387 -0.05943,0.0379 -0.08785,0.10422 -0.01636,0.0413 -0.02239,0.0724 -0.0052,0.031 -0.0078,0.0879 z"
         style="font-size:1.76389px;fill:#333333"
         id="path861" />
      <path
         d="m 32.897719,163.50931 h -0.08957 v -0.51504 q -0.03617,0.0474 -0.07579,0.0741 -0.03876,0.0258 -0.08354,0.0353 -0.04392,0.0103 -0.09302,0.0103 -0.134359,0 -0.208429,-0.0741 -0.109381,-0.10938 -0.109381,-0.36174 0,-0.25149 0.109381,-0.36087 0.03445,-0.0344 0.08785,-0.0543 0.05426,-0.0198 0.120579,-0.0198 0.07924,0 0.140388,0.0258 0.06115,0.025 0.111965,0.0939 v -0.10938 h 0.08957 z m -0.08957,-0.83113 q 0,-0.16105 -0.04909,-0.25838 -0.04909,-0.0973 -0.191203,-0.0973 -0.141249,0 -0.190342,0.0973 -0.04909,0.0973 -0.04909,0.25838 0,0.16192 0.04909,0.25925 0.04909,0.0973 0.190342,0.0973 0.14211,0 0.191203,-0.0973 0.04909,-0.0973 0.04909,-0.25925 z"
         style="font-size:1.76389px;fill:#333333"
         id="path863" />
    </g>
  </g>
</svg>
