<?xml version="1.0" encoding="UTF-8" standalone="no"?>
<svg
   xmlns:dc="http://purl.org/dc/elements/1.1/"
   xmlns:cc="http://creativecommons.org/ns#"
   xmlns:rdf="http://www.w3.org/1999/02/22-rdf-syntax-ns#"
   xmlns:svg="http://www.w3.org/2000/svg"
   xmlns="http://www.w3.org/2000/svg"
   xmlns:sodipodi="http://sodipodi.sourceforge.net/DTD/sodipodi-0.dtd"
   xmlns:inkscape="http://www.inkscape.org/namespaces/inkscape"
   width="30"
   height="380"
   viewBox="0 0 7.9375 100.54166"
   version="1.1"
   id="svg12553"
   inkscape:version="1.0.2 (e86c870879, 2021-01-15)"
   sodipodi:docname="Panel2hpS16.svg">
  <defs
     id="defs12547">
    <filter
       style="color-interpolation-filters:sRGB"
       inkscape:label="Lightness-Contrast"
       id="filter928">
      <feColorMatrix
         values="3.26994 0 0 0.458429 -1.13497 0 3.26994 0 0.458429 -1.13497 0 0 3.26994 0.458429 -1.13497 0 0 0 1 0"
         id="feColorMatrix926" />
    </filter>
    <filter
       style="color-interpolation-filters:sRGB"
       inkscape:label="Lightness-Contrast"
       id="filter929">
      <feColorMatrix
         values="3.26994 0 0 0.458429 -1.13497 0 3.26994 0 0.458429 -1.13497 0 0 3.26994 0.458429 -1.13497 0 0 0 1 0"
         id="feColorMatrix927" />
    </filter>
    <filter
       style="color-interpolation-filters:sRGB"
       inkscape:label="Lightness-Contrast"
       id="filter933">
      <feColorMatrix
         values="3.26994 0 0 0.458429 -1.13497 0 3.26994 0 0.458429 -1.13497 0 0 3.26994 0.458429 -1.13497 0 0 0 1 0"
         id="feColorMatrix931" />
    </filter>
  </defs>
  <sodipodi:namedview
     id="base"
     pagecolor="#ffffff"
     bordercolor="#666666"
     borderopacity="1.0"
     inkscape:pageopacity="0.0"
     inkscape:pageshadow="2"
     inkscape:zoom="2.8"
     inkscape:cx="34.01411"
     inkscape:cy="-33.665826"
     inkscape:document-units="px"
     inkscape:current-layer="layer1"
     showgrid="true"
     fit-margin-top="0"
     fit-margin-left="0"
     fit-margin-right="0"
     fit-margin-bottom="0"
     units="px"
     inkscape:window-width="1546"
     inkscape:window-height="1041"
     inkscape:window-x="0"
     inkscape:window-y="0"
     inkscape:window-maximized="0"
     inkscape:snap-global="false"
     inkscape:document-rotation="0">
    <inkscape:grid
       type="xygrid"
       id="grid12870"
       originx="-20.372917"
       originy="84.666661" />
  </sodipodi:namedview>
  <metadata
     id="metadata12550">
    <rdf:RDF>
      <cc:Work
         rdf:about="">
        <dc:format>image/svg+xml</dc:format>
        <dc:type
           rdf:resource="http://purl.org/dc/dcmitype/StillImage" />
        <dc:title />
      </cc:Work>
    </rdf:RDF>
  </metadata>
  <g
     inkscape:label="Layer 1"
     inkscape:groupmode="layer"
     id="layer1"
     transform="translate(-26.543497,-161.30655)">
    <path
       inkscape:connector-curvature="0"
       id="path33453"
       d="m 26.543497,161.26312 h 7.961123 v 100.58509 h -7.961123 z m 0,0"
       style="fill:#f4f4f4;fill-opacity:1;fill-rule:nonzero;stroke:none;stroke-width:0.144511" />
    <g
       aria-label="SPLIT"
       id="text1012"
       style="font-size:1.41111px;line-height:0.15;font-family:'DIN Alternate Light';-inkscape-font-specification:'DIN Alternate Light, ';stroke-width:0.264583;fill:#333333">
      <path
         d="m 28.853431,162.68631 q 0,0.093 -0.03514,0.17157 -0.03411,0.0775 -0.100252,0.13229 -0.06511,0.0537 -0.161231,0.0837 -0.09509,0.0289 -0.21084,0.0289 -0.107487,0 -0.196371,-0.0207 -0.08888,-0.0207 -0.163298,-0.0651 -0.07441,-0.0444 -0.142627,-0.11265 l 0.08062,-0.0806 q 0.06821,0.0682 0.131258,0.10749 0.06304,0.0382 0.135392,0.0548 0.07235,0.0155 0.161231,0.0155 0.118856,0 0.205673,-0.0362 0.08682,-0.0372 0.134359,-0.10749 0.04754,-0.0713 0.04754,-0.16743 0,-0.1385 -0.08268,-0.21188 -0.03824,-0.0331 -0.08475,-0.0496 -0.04651,-0.0176 -0.133325,-0.031 l -0.175701,-0.0269 q -0.171566,-0.0258 -0.268717,-0.11059 -0.118856,-0.0992 -0.118856,-0.27699 0,-0.0951 0.03307,-0.17156 0.03411,-0.0775 0.09405,-0.13023 0.05995,-0.0537 0.147795,-0.0817 0.08785,-0.0289 0.19327,-0.0289 0.137459,0 0.236678,0.0393 0.09922,0.0382 0.197405,0.12299 l -0.07441,0.0744 q -0.07958,-0.0713 -0.16123,-0.10542 -0.08062,-0.0341 -0.204639,-0.0341 -0.163298,0 -0.256316,0.0837 -0.09302,0.0837 -0.09302,0.22738 0,0.13126 0.07752,0.19637 0.04237,0.0341 0.103353,0.0599 0.06201,0.0248 0.121957,0.0331 l 0.162264,0.0258 q 0.104387,0.0155 0.163298,0.0372 0.05891,0.0217 0.10542,0.062 0.06408,0.0527 0.09715,0.12816 0.03411,0.0744 0.03411,0.16433 z"
         style="font-size:2.11667px;stroke-width:0.264583;fill:#333333"
         id="path1381" />
      <path
         d="m 30.218725,162.01762 q 0,0.20154 -0.128158,0.31833 -0.127124,0.11575 -0.326596,0.11575 h -0.438216 v 0.63872 h -0.114722 v -1.50688 h 0.552938 q 0.100253,0 0.181902,0.0289 0.08268,0.0279 0.14366,0.0837 0.06098,0.0558 0.09509,0.13849 0.03411,0.0827 0.03411,0.18294 z m -0.113689,0 q 0,-0.16537 -0.09612,-0.24908 -0.09509,-0.0837 -0.257349,-0.0837 h -0.425814 v 0.66456 h 0.425814 q 0.161231,0 0.257349,-0.0827 0.09612,-0.0837 0.09612,-0.24908 z"
         style="font-size:2.11667px;stroke-width:0.264583;fill:#333333"
         id="path1383" />
      <path
         d="m 31.461028,163.09042 h -0.914674 v -1.50688 h 0.114722 v 1.4056 h 0.799952 z"
         style="font-size:2.11667px;stroke-width:0.264583;fill:#333333"
         id="path1385" />
      <path
         d="m 31.87134,163.09042 h -0.114722 v -1.50688 h 0.114722 z"
         style="font-size:2.11667px;stroke-width:0.264583;fill:#333333"
         id="path1387" />
      <path
         d="m 33.180822,161.68482 h -0.450619 v 1.4056 h -0.113688 v -1.4056 h -0.449586 v -0.10128 h 1.013893 z"
         style="font-size:2.11667px;stroke-width:0.264583;fill:#333333"
         id="path1389" />
    </g>
    <g
       aria-label="1 2 3 4 5 6 7 8 9 10 11 12 13 14 15 16"
       id="text1115"
       style="font-size:1.41111px;line-height:5.82083px;font-family:'DIN Alternate Light';-inkscape-font-specification:'DIN Alternate Light, ';text-align:end;text-anchor:end;stroke-width:0.264583;fill:#333333"
       transform="translate(0.13229266,0.63497817)">
      <path
         d="m 27.535684,166.46193 h -0.07166 v -0.76068 l -0.18259,0.16123 v -0.0861 l 0.18259,-0.1571 h 0.07166 z"
         style="text-align:end;text-anchor:end;stroke-width:0.264583;fill:#333333"
         id="path1151" />
      <path
         d="M 27.627324,172.28276 H 27.06853 v -0.0634 l 0.363802,-0.36449 q 0.09508,-0.0951 0.09508,-0.2012 0,-0.0503 -0.0248,-0.093 -0.02481,-0.0434 -0.06821,-0.0682 -0.04341,-0.0255 -0.09922,-0.0255 -0.05374,0 -0.09784,0.0241 -0.04341,0.0241 -0.0689,0.0675 -0.02549,0.0427 -0.02549,0.0965 h -0.07166 q 0,-0.0524 0.01929,-0.0978 0.01929,-0.0455 0.05512,-0.0806 0.03652,-0.0351 0.08475,-0.0538 0.04892,-0.0193 0.104731,-0.0193 0.06063,0 0.108865,0.0193 0.04823,0.0193 0.08337,0.0544 0.03514,0.0344 0.05306,0.0792 0.0186,0.0441 0.0186,0.0971 0,0.0482 -0.01447,0.091 -0.01378,0.042 -0.0379,0.0778 -0.02412,0.0358 -0.06063,0.0724 l -0.324528,0.32453 h 0.465777 z"
         style="text-align:end;text-anchor:end;stroke-width:0.264583;fill:#333333"
         id="path1153" />
      <path
         d="m 27.614922,177.99886 q 0,0.0868 -0.03721,0.1502 -0.03652,0.0634 -0.101975,0.0958 -0.06546,0.0324 -0.145383,0.0324 -0.123334,0 -0.201883,-0.0648 -0.07786,-0.0641 -0.08475,-0.18948 h 0.07166 q 0.0076,0.0971 0.06821,0.14401 0.06132,0.0469 0.146761,0.0469 0.09233,0 0.152273,-0.0586 0.06063,-0.0586 0.06063,-0.1564 0,-0.0689 -0.02343,-0.11645 -0.02274,-0.0475 -0.07166,-0.0723 -0.04892,-0.0255 -0.124023,-0.0255 h -0.01654 v -0.0634 h 0.01654 q 0.06546,0 0.110243,-0.0234 0.04479,-0.0234 0.06684,-0.0682 0.02205,-0.0448 0.02205,-0.11024 0,-0.0965 -0.05512,-0.14952 -0.05512,-0.0537 -0.139182,-0.0537 -0.08751,0 -0.139182,0.0496 -0.05168,0.0489 -0.06132,0.13367 h -0.07235 q 0.01102,-0.11507 0.08613,-0.18052 0.07579,-0.0662 0.186724,-0.0662 0.07786,0 0.138493,0.0331 0.06063,0.0331 0.09439,0.0937 0.03376,0.0599 0.03376,0.13987 0,0.082 -0.03514,0.13987 -0.03514,0.0579 -0.107487,0.0889 0.16192,0.0551 0.16192,0.25081 z"
         style="text-align:end;text-anchor:end;stroke-width:0.264583;fill:#333333"
         id="path1155" />
      <path
         d="m 27.648684,183.88239 h -0.13367 v 0.21566 h -0.07235 v -0.21566 H 27.01685 v -0.0641 l 0.383784,-0.77584 h 0.07441 l -0.383784,0.77584 h 0.3514 v -0.31833 h 0.07235 v 0.31833 h 0.13367 z"
         style="text-align:end;text-anchor:end;stroke-width:0.264583;fill:#333333"
         id="path1157" />
      <path
         d="m 27.609409,189.57851 q 0,0.0909 -0.01447,0.15502 -0.01447,0.0634 -0.06339,0.11163 -0.07097,0.0723 -0.192925,0.0723 -0.127468,0 -0.193614,-0.0675 -0.05926,-0.0606 -0.06752,-0.16399 h 0.07166 q 0.01171,0.0834 0.05788,0.1254 0.04616,0.0427 0.131602,0.0427 0.08682,0 0.137804,-0.051 0.03859,-0.0386 0.04961,-0.0937 0.01171,-0.0558 0.01171,-0.13091 0,-0.1192 -0.03859,-0.19362 -0.03858,-0.0744 -0.149517,-0.0744 -0.06959,0 -0.117822,0.0276 -0.04754,0.0269 -0.06408,0.0786 h -0.06339 v -0.51401 h 0.482313 v 0.0641 h -0.418923 v 0.35553 q 0.06408,-0.0751 0.190169,-0.0751 0.108865,0 0.169498,0.0606 0.04754,0.0469 0.06477,0.11576 0.01722,0.0689 0.01722,0.15503 z"
         style="text-align:end;text-anchor:end;stroke-width:0.264583;fill:#333333"
         id="path1159" />
      <path
         d="m 27.627324,195.25671 q 0,0.0868 -0.03445,0.15985 -0.03376,0.073 -0.09922,0.11576 -0.06477,0.042 -0.15434,0.042 -0.08957,0 -0.155029,-0.0386 -0.06546,-0.0393 -0.09991,-0.10886 -0.03376,-0.0696 -0.03376,-0.15848 0,-0.11575 0.06477,-0.22875 l 0.285254,-0.50092 h 0.07441 l -0.258382,0.44304 q 0.03032,-0.0159 0.05994,-0.0227 0.03032,-0.007 0.0689,-0.007 0.08682,0 0.150895,0.04 0.06408,0.04 0.09715,0.10956 0.03376,0.0689 0.03376,0.15503 z m -0.07166,0.008 q 0,-0.0675 -0.0248,-0.12472 -0.0248,-0.0579 -0.07441,-0.0923 -0.04892,-0.0344 -0.118511,-0.0344 -0.04823,0 -0.08819,0.0179 -0.03996,0.0172 -0.0689,0.051 -0.02894,0.0331 -0.0441,0.0806 -0.01447,0.0475 -0.01447,0.10198 0,0.0544 0.01447,0.10059 0.01516,0.0462 0.0441,0.0799 0.02894,0.0338 0.0689,0.0517 0.03996,0.0172 0.08819,0.0172 0.06477,0 0.114377,-0.031 0.0503,-0.031 0.07648,-0.0882 0.02687,-0.0572 0.02687,-0.13022 z"
         style="text-align:end;text-anchor:end;stroke-width:0.264583;fill:#333333"
         id="path1161" />
      <path
         d="m 27.656263,200.60832 -0.423747,0.95498 h -0.07441 l 0.423058,-0.95498 h -0.42168 v 0.15778 h -0.07235 v -0.22186 h 0.56913 z"
         style="text-align:end;text-anchor:end;stroke-width:0.264583;fill:#333333"
         id="path1163" />
      <path
         d="m 27.620434,206.93695 q 0,0.0786 -0.0379,0.14263 -0.0379,0.0641 -0.103353,0.1006 -0.06477,0.0358 -0.144694,0.0358 -0.08061,0 -0.146072,-0.0358 -0.06477,-0.0365 -0.102664,-0.1006 -0.0379,-0.0641 -0.0379,-0.14263 0,-0.0841 0.04203,-0.14745 0.04272,-0.0641 0.117134,-0.10404 -0.137804,-0.0737 -0.137804,-0.22875 0,-0.0551 0.0186,-0.10267 0.01929,-0.0482 0.05443,-0.0834 0.03583,-0.0358 0.08475,-0.0558 0.04961,-0.02 0.107487,-0.02 0.05926,0 0.107487,0.02 0.04823,0.0193 0.08406,0.0551 0.03583,0.0358 0.05443,0.0841 0.01929,0.0475 0.01929,0.10267 0,0.15571 -0.137115,0.22875 0.04892,0.0269 0.08406,0.0634 0.03583,0.0365 0.05443,0.0841 0.01929,0.0475 0.01929,0.10404 z m -0.09302,-0.48024 q 0,-0.0558 -0.02411,-0.10129 -0.02412,-0.0462 -0.06821,-0.0717 -0.04341,-0.0255 -0.100597,-0.0255 -0.05719,0 -0.100597,0.0255 -0.04341,0.0248 -0.06821,0.071 -0.0248,0.0455 -0.0248,0.10198 0,0.0572 0.02412,0.10266 0.0248,0.0455 0.06821,0.071 0.0441,0.0255 0.101286,0.0255 0.05719,0 0.100597,-0.0255 0.0441,-0.0255 0.06821,-0.071 0.02411,-0.0462 0.02411,-0.10266 z m 0.02136,0.48024 q 0,-0.0469 -0.01585,-0.0854 -0.01585,-0.0393 -0.0441,-0.0682 -0.02825,-0.0296 -0.06821,-0.0469 -0.03927,-0.0172 -0.08613,-0.0172 -0.09164,0 -0.153651,0.0634 -0.06132,0.0627 -0.06132,0.15434 0,0.0916 0.06201,0.15365 0.06201,0.062 0.152962,0.062 0.05857,0 0.108176,-0.0283 0.04961,-0.0282 0.07786,-0.0779 0.02825,-0.0503 0.02825,-0.10956 z"
         style="text-align:end;text-anchor:end;stroke-width:0.264583;fill:#333333"
         id="path1165" />
      <path
         d="m 27.627324,212.48355 q 0,0.0372 -0.0076,0.0758 -0.0069,0.0386 -0.02067,0.0765 -0.01378,0.0372 -0.03652,0.0765 l -0.285254,0.50091 h -0.07441 l 0.258382,-0.44304 q -0.03445,0.0165 -0.06477,0.0234 -0.02963,0.006 -0.06408,0.006 -0.08682,0 -0.150895,-0.04 -0.06408,-0.04 -0.09784,-0.10818 -0.03307,-0.0689 -0.03307,-0.1564 0,-0.0641 0.0186,-0.12196 0.01929,-0.0579 0.0565,-0.10198 0.0379,-0.0448 0.09164,-0.0689 0.05374,-0.0248 0.120578,-0.0248 0.09026,0 0.155718,0.0393 0.06546,0.0386 0.09922,0.10818 0.03445,0.0696 0.03445,0.15847 z m -0.07166,0.005 q 0,-0.0744 -0.02618,-0.13092 -0.02618,-0.0565 -0.07579,-0.0875 -0.04892,-0.0317 -0.114377,-0.0317 -0.04961,0 -0.08957,0.0179 -0.03927,0.0172 -0.06821,0.051 -0.02894,0.0331 -0.0441,0.0799 -0.01516,0.0469 -0.01516,0.10129 0,0.10473 0.05719,0.17776 0.05719,0.073 0.159852,0.073 0.06477,0 0.113688,-0.031 0.04961,-0.031 0.07579,-0.0875 0.02687,-0.0572 0.02687,-0.13229 z"
         style="text-align:end;text-anchor:end;stroke-width:0.264583;fill:#333333"
         id="path1167" />
      <path
         d="m 26.810148,218.8494 h -0.07166 v -0.76068 l -0.18259,0.16123 v -0.0861 l 0.18259,-0.15709 h 0.07166 z"
         style="text-align:end;text-anchor:end;stroke-width:0.264583;fill:#333333"
         id="path1169" />
      <path
         d="m 27.605964,218.58964 q 0,0.0785 -0.03376,0.13918 -0.03307,0.0599 -0.09371,0.0944 -0.06063,0.0345 -0.136426,0.0345 -0.07579,0 -0.136425,-0.0345 -0.06063,-0.0344 -0.0944,-0.0944 -0.03307,-0.0606 -0.03307,-0.13918 v -0.32315 q 0,-0.0579 0.01929,-0.10749 0.01998,-0.0496 0.05443,-0.0854 0.03514,-0.0365 0.08337,-0.0558 0.04892,-0.0193 0.106798,-0.0193 0.07579,0 0.136426,0.0344 0.06063,0.0345 0.09371,0.0951 0.03376,0.0599 0.03376,0.1385 z m -0.07166,-0.007 v -0.30937 q 0,-0.093 -0.05099,-0.15228 -0.0503,-0.0593 -0.141249,-0.0593 -0.09026,0 -0.141249,0.0593 -0.0503,0.0593 -0.0503,0.15228 v 0.30937 q 0,0.093 0.0503,0.15227 0.05099,0.0593 0.141249,0.0593 0.09095,0 0.141249,-0.0593 0.05099,-0.0593 0.05099,-0.15227 z"
         style="text-align:end;text-anchor:end;stroke-width:0.264583;fill:#333333"
         id="path1171" />
      <path
         d="M 27.041658,224.67023 H 26.97 v -0.76068 l -0.18259,0.16123 v -0.0861 L 26.97,223.82756 h 0.07166 z"
         style="text-align:end;text-anchor:end;stroke-width:0.264583;fill:#333333"
         id="path1173" />
      <path
         d="m 27.535684,224.67023 h -0.07166 v -0.76068 l -0.18259,0.16123 v -0.0861 l 0.18259,-0.15709 h 0.07166 z"
         style="text-align:end;text-anchor:end;stroke-width:0.264583;fill:#333333"
         id="path1175" />
      <path
         d="m 26.842532,230.49105 h -0.07166 v -0.76067 l -0.18259,0.16123 v -0.0861 l 0.18259,-0.15709 h 0.07166 z"
         style="text-align:end;text-anchor:end;stroke-width:0.264583;fill:#333333"
         id="path1177" />
      <path
         d="M 27.627324,230.49105 H 27.06853 v -0.0634 l 0.363802,-0.3645 q 0.09508,-0.0951 0.09508,-0.20119 0,-0.0503 -0.0248,-0.093 -0.02481,-0.0434 -0.06821,-0.0682 -0.04341,-0.0255 -0.09922,-0.0255 -0.05374,0 -0.09784,0.0241 -0.04341,0.0241 -0.0689,0.0675 -0.02549,0.0427 -0.02549,0.0965 h -0.07166 q 0,-0.0524 0.01929,-0.0978 0.01929,-0.0455 0.05512,-0.0806 0.03652,-0.0351 0.08475,-0.0537 0.04892,-0.0193 0.104731,-0.0193 0.06063,0 0.108865,0.0193 0.04823,0.0193 0.08337,0.0544 0.03514,0.0345 0.05306,0.0792 0.0186,0.0441 0.0186,0.0971 0,0.0482 -0.01447,0.091 -0.01378,0.042 -0.0379,0.0779 -0.02412,0.0358 -0.06063,0.0724 l -0.324528,0.32453 h 0.465777 z"
         style="text-align:end;text-anchor:end;stroke-width:0.264583;fill:#333333"
         id="path1179" />
      <path
         d="m 26.817727,236.31188 h -0.07166 v -0.76067 l -0.18259,0.16123 v -0.0861 l 0.18259,-0.1571 h 0.07166 z"
         style="text-align:end;text-anchor:end;stroke-width:0.264583;fill:#333333"
         id="path1181" />
      <path
         d="m 27.614922,236.20715 q 0,0.0868 -0.03721,0.15021 -0.03652,0.0634 -0.101975,0.0958 -0.06546,0.0324 -0.145383,0.0324 -0.123334,0 -0.201883,-0.0648 -0.07786,-0.0641 -0.08475,-0.18948 h 0.07166 q 0.0076,0.0971 0.06821,0.144 0.06132,0.0469 0.146761,0.0469 0.09233,0 0.152273,-0.0586 0.06063,-0.0586 0.06063,-0.15641 0,-0.0689 -0.02343,-0.11644 -0.02274,-0.0475 -0.07166,-0.0724 -0.04892,-0.0255 -0.124023,-0.0255 h -0.01654 v -0.0634 h 0.01654 q 0.06546,0 0.110243,-0.0234 0.04479,-0.0234 0.06684,-0.0682 0.02205,-0.0448 0.02205,-0.11024 0,-0.0965 -0.05512,-0.14952 -0.05512,-0.0537 -0.139182,-0.0537 -0.08751,0 -0.139182,0.0496 -0.05168,0.0489 -0.06132,0.13367 h -0.07235 q 0.01102,-0.11507 0.08613,-0.18053 0.07579,-0.0661 0.186724,-0.0661 0.07786,0 0.138493,0.0331 0.06063,0.0331 0.09439,0.0937 0.03376,0.0599 0.03376,0.13987 0,0.082 -0.03514,0.13987 -0.03514,0.0579 -0.107487,0.0889 0.16192,0.0551 0.16192,0.2508 z"
         style="text-align:end;text-anchor:end;stroke-width:0.264583;fill:#333333"
         id="path1183" />
      <path
         d="m 26.797746,242.13271 h -0.07166 v -0.76067 l -0.18259,0.16123 v -0.0861 l 0.18259,-0.1571 h 0.07166 z"
         style="text-align:end;text-anchor:end;stroke-width:0.264583;fill:#333333"
         id="path1185" />
      <path
         d="m 27.648684,242.09068 h -0.13367 v 0.21567 h -0.07235 v -0.21567 H 27.01685 v -0.0641 l 0.383784,-0.77584 h 0.07441 l -0.383784,0.77584 h 0.3514 v -0.31833 h 0.07235 v 0.31833 h 0.13367 z"
         style="text-align:end;text-anchor:end;stroke-width:0.264583;fill:#333333"
         id="path1187" />
      <path
         d="m 26.823239,247.95354 h -0.07166 v -0.76067 l -0.18259,0.16123 v -0.0861 l 0.18259,-0.1571 h 0.07166 z"
         style="text-align:end;text-anchor:end;stroke-width:0.264583;fill:#333333"
         id="path1189" />
      <path
         d="m 27.609409,247.7868 q 0,0.0909 -0.01447,0.15503 -0.01447,0.0634 -0.06339,0.11162 -0.07097,0.0724 -0.192925,0.0724 -0.127468,0 -0.193614,-0.0675 -0.05926,-0.0606 -0.06752,-0.16398 h 0.07166 q 0.01171,0.0834 0.05788,0.1254 0.04616,0.0427 0.131602,0.0427 0.08682,0 0.137804,-0.051 0.03859,-0.0386 0.04961,-0.0937 0.01171,-0.0558 0.01171,-0.13091 0,-0.1192 -0.03859,-0.19361 -0.03858,-0.0744 -0.149517,-0.0744 -0.06959,0 -0.117822,0.0276 -0.04754,0.0269 -0.06408,0.0785 h -0.06339 v -0.51401 h 0.482313 v 0.0641 h -0.418923 v 0.35554 q 0.06408,-0.0751 0.190169,-0.0751 0.108865,0 0.169498,0.0606 0.04754,0.0469 0.06477,0.11575 0.01722,0.0689 0.01722,0.15503 z"
         style="text-align:end;text-anchor:end;stroke-width:0.264583;fill:#333333"
         id="path1191" />
      <path
         d="M 26.803258,253.77437 H 26.7316 v -0.76067 l -0.18259,0.16123 v -0.0861 l 0.18259,-0.1571 h 0.07166 z"
         style="text-align:end;text-anchor:end;stroke-width:0.264583;fill:#333333"
         id="path1193" />
      <path
         d="m 27.627324,253.465 q 0,0.0868 -0.03445,0.15986 -0.03376,0.073 -0.09922,0.11575 -0.06477,0.042 -0.15434,0.042 -0.08957,0 -0.155029,-0.0386 -0.06546,-0.0393 -0.09991,-0.10887 -0.03376,-0.0696 -0.03376,-0.15847 0,-0.11576 0.06477,-0.22876 l 0.285254,-0.50091 h 0.07441 l -0.258382,0.44304 q 0.03032,-0.0159 0.05994,-0.0227 0.03032,-0.007 0.0689,-0.007 0.08682,0 0.150895,0.04 0.06408,0.04 0.09715,0.10955 0.03376,0.0689 0.03376,0.15503 z m -0.07166,0.008 q 0,-0.0675 -0.0248,-0.12471 -0.0248,-0.0579 -0.07441,-0.0923 -0.04892,-0.0344 -0.118511,-0.0344 -0.04823,0 -0.08819,0.0179 -0.03996,0.0172 -0.0689,0.051 -0.02894,0.0331 -0.0441,0.0806 -0.01447,0.0475 -0.01447,0.10197 0,0.0544 0.01447,0.1006 0.01516,0.0462 0.0441,0.0799 0.02894,0.0338 0.0689,0.0517 0.03996,0.0172 0.08819,0.0172 0.06477,0 0.114377,-0.031 0.0503,-0.031 0.07648,-0.0882 0.02687,-0.0572 0.02687,-0.13023 z"
         style="text-align:end;text-anchor:end;stroke-width:0.264583;fill:#333333"
         id="path1195" />
    </g>
  </g>
</svg>
