<?xml version="1.0" encoding="UTF-8" standalone="no"?>
<svg
   xmlns:dc="http://purl.org/dc/elements/1.1/"
   xmlns:cc="http://creativecommons.org/ns#"
   xmlns:rdf="http://www.w3.org/1999/02/22-rdf-syntax-ns#"
   xmlns:svg="http://www.w3.org/2000/svg"
   xmlns="http://www.w3.org/2000/svg"
   xmlns:sodipodi="http://sodipodi.sourceforge.net/DTD/sodipodi-0.dtd"
   xmlns:inkscape="http://www.inkscape.org/namespaces/inkscape"
   width="30"
   height="380"
   viewBox="0 0 7.9375 100.54166"
   version="1.1"
   id="svg12553"
   inkscape:version="1.0.2 (e86c870879, 2021-01-15)"
   sodipodi:docname="Panel2hpTOOL.svg">
  <defs
     id="defs12547" />
  <sodipodi:namedview
     id="base"
     pagecolor="#ffffff"
     bordercolor="#666666"
     borderopacity="1.0"
     inkscape:pageopacity="0.0"
     inkscape:pageshadow="2"
     inkscape:zoom="22.627417"
     inkscape:cx="14.925128"
     inkscape:cy="-4.5920555"
     inkscape:document-units="px"
     inkscape:current-layer="layer1"
     showgrid="true"
     fit-margin-top="0"
     fit-margin-left="0"
     fit-margin-right="0"
     fit-margin-bottom="0"
     units="px"
     inkscape:window-width="1272"
     inkscape:window-height="1007"
     inkscape:window-x="0"
     inkscape:window-y="0"
     inkscape:window-maximized="0"
     inkscape:snap-global="false"
     inkscape:document-rotation="0">
    <inkscape:grid
       type="xygrid"
       id="grid12870"
       originx="-20.372917"
       originy="84.666661" />
  </sodipodi:namedview>
  <metadata
     id="metadata12550">
    <rdf:RDF>
      <cc:Work
         rdf:about="">
        <dc:format>image/svg+xml</dc:format>
        <dc:type
           rdf:resource="http://purl.org/dc/dcmitype/StillImage" />
        <dc:title />
      </cc:Work>
    </rdf:RDF>
  </metadata>
  <g
     inkscape:label="Layer 1"
     inkscape:groupmode="layer"
     id="layer1"
     transform="translate(-26.543497,-161.30655)">
    <path
       inkscape:connector-curvature="0"
       id="path33453"
       d="m 26.543497,161.30655 h 7.9375 v 100.54166 h -7.9375 z m 0,0"
       style="fill:#f4f4f4;fill-opacity:1;fill-rule:nonzero;stroke:none;stroke-width:0.144265" />
    <g
       aria-label="JOIN"
       id="text934"
       style="font-size:2.11667px;line-height:1.25;font-family:'DIN Alternate Light';-inkscape-font-specification:'DIN Alternate Light, ';letter-spacing:-0.238125px;fill:#333333;stroke-width:0.264583"
       transform="translate(-36.512516)">
      <path
         d="m 29.507759,163.60504 q 0,0.13539 -0.05478,0.23977 -0.05478,0.10336 -0.157097,0.1602 -0.101286,0.0568 -0.236678,0.0568 -0.201538,0 -0.33073,-0.1292 l 0.07855,-0.0775 q 0.03927,0.0372 0.06821,0.0579 0.02997,0.0207 0.07545,0.0341 0.04548,0.0134 0.108521,0.0134 0.163298,0 0.249081,-0.0982 0.08578,-0.0992 0.08578,-0.28112 v -1.03869 h 0.113688 z"
         style="font-size:2.11667px;fill:#333333;stroke-width:0.264583"
         id="path894" />
      <path
         d="m 30.687638,163.29601 q 0,0.20361 -0.0072,0.29972 -0.0072,0.0961 -0.03617,0.17054 -0.02894,0.0744 -0.09612,0.14159 -0.07338,0.0734 -0.171566,0.11369 -0.09715,0.0403 -0.204639,0.0403 -0.107487,0 -0.205673,-0.0403 -0.09818,-0.0403 -0.171566,-0.11369 -0.06718,-0.0672 -0.09612,-0.14159 -0.02894,-0.0744 -0.03617,-0.17054 -0.0072,-0.0961 -0.0072,-0.29972 0,-0.20361 0.0072,-0.29972 0.0072,-0.0961 0.03617,-0.17054 0.02894,-0.0744 0.09612,-0.14159 0.07338,-0.0734 0.170533,-0.11369 0.09819,-0.0403 0.206706,-0.0403 0.108521,0 0.205672,0.0403 0.09715,0.0403 0.170533,0.11369 0.06718,0.0672 0.09612,0.14159 0.02894,0.0744 0.03617,0.17054 0.0072,0.0961 0.0072,0.29972 z m -0.113689,0 q 0,-0.1788 -0.0072,-0.27285 -0.0072,-0.094 -0.03204,-0.15813 -0.02481,-0.0651 -0.07752,-0.11782 -0.05788,-0.0579 -0.131258,-0.0868 -0.07235,-0.0289 -0.153996,-0.0289 -0.08062,0 -0.15503,0.0289 -0.07338,0.0289 -0.131258,0.0868 -0.04031,0.0403 -0.06305,0.0837 -0.0217,0.0434 -0.03411,0.10956 -0.0124,0.0661 -0.0155,0.15089 -0.0031,0.0847 -0.0031,0.20464 0,0.1788 0.0072,0.27285 0.0072,0.093 0.03204,0.15813 0.02481,0.0651 0.07648,0.11679 0.05684,0.0568 0.131258,0.0868 0.07441,0.03 0.15503,0.03 0.08165,0 0.155029,-0.03 0.07338,-0.03 0.130225,-0.0868 0.05374,-0.0537 0.07752,-0.11782 0.02481,-0.0641 0.03204,-0.1571 0.0072,-0.0941 0.0072,-0.27285 z"
         style="font-size:2.11667px;fill:#333333;stroke-width:0.264583"
         id="path896" />
      <path
         d="M 30.970412,164.04945 H 30.85569 v -1.50688 h 0.114722 z"
         style="font-size:2.11667px;fill:#333333;stroke-width:0.264583"
         id="path898" />
      <path
         d="M 32.296018,164.04945 H 32.18233 l -0.870233,-1.31051 v 1.31051 h -0.114722 v -1.50688 h 0.114722 l 0.870233,1.30535 v -1.30535 h 0.113688 z"
         style="font-size:2.11667px;fill:#333333;stroke-width:0.264583"
         id="path900" />
    </g>
    <g
       aria-label="CLONE"
       id="text883"
       style="font-size:2.11667px;line-height:1.25;font-family:'DIN Alternate Light';-inkscape-font-specification:'DIN Alternate Light, ';letter-spacing:-0.238125px;fill:#333333;stroke-width:0.264583"
       transform="translate(-36.512516)">
      <path
         d="m 28.735401,188.06165 q -0.09922,0.0941 -0.198438,0.14159 -0.09922,0.0465 -0.226343,0.0465 -0.107487,0 -0.205672,-0.0403 -0.09819,-0.0403 -0.171566,-0.11369 -0.06718,-0.0672 -0.09612,-0.1416 -0.02894,-0.0744 -0.03617,-0.17053 -0.0072,-0.0961 -0.0072,-0.29972 0,-0.20361 0.0072,-0.29973 0.0072,-0.0961 0.03617,-0.17053 0.02894,-0.0744 0.09612,-0.14159 0.07338,-0.0734 0.170532,-0.11369 0.09819,-0.0403 0.206706,-0.0403 0.127124,0 0.22841,0.0486 0.101286,0.0475 0.196371,0.13952 l -0.07545,0.0765 q -0.08372,-0.0837 -0.162264,-0.12299 -0.07752,-0.0403 -0.187069,-0.0403 -0.08165,0 -0.156063,0.03 -0.07441,0.0289 -0.130225,0.0858 -0.04031,0.0403 -0.06305,0.0837 -0.0217,0.0434 -0.03411,0.10955 -0.0124,0.0662 -0.0155,0.1509 -0.0031,0.0848 -0.0031,0.20464 0,0.1788 0.0072,0.27285 0.0072,0.093 0.03204,0.15813 0.02481,0.0651 0.07648,0.11679 0.05478,0.0558 0.129192,0.0868 0.07545,0.03 0.157096,0.03 0.07235,0 0.133326,-0.0186 0.06201,-0.0196 0.109554,-0.0537 0.04754,-0.0341 0.106453,-0.0909 z"
         style="font-size:2.11667px;fill:#333333;stroke-width:0.264583"
         id="path903" />
      <path
         d="m 29.791256,188.23735 h -0.914674 v -1.50689 h 0.114722 v 1.4056 h 0.799952 z"
         style="font-size:2.11667px;fill:#333333;stroke-width:0.264583"
         id="path905" />
      <path
         d="m 30.822306,187.48391 q 0,0.2036 -0.0072,0.29972 -0.0072,0.0961 -0.03617,0.17053 -0.02894,0.0744 -0.09612,0.1416 -0.07338,0.0734 -0.171566,0.11369 -0.09715,0.0403 -0.204639,0.0403 -0.107488,0 -0.205673,-0.0403 -0.09819,-0.0403 -0.171566,-0.11369 -0.06718,-0.0672 -0.09612,-0.1416 -0.02894,-0.0744 -0.03617,-0.17053 -0.0072,-0.0961 -0.0072,-0.29972 0,-0.20361 0.0072,-0.29973 0.0072,-0.0961 0.03617,-0.17053 0.02894,-0.0744 0.09612,-0.14159 0.07338,-0.0734 0.170533,-0.11369 0.09818,-0.0403 0.206706,-0.0403 0.10852,0 0.205672,0.0403 0.09715,0.0403 0.170533,0.11369 0.06718,0.0672 0.09612,0.14159 0.02894,0.0744 0.03617,0.17053 0.0072,0.0961 0.0072,0.29973 z m -0.113688,0 q 0,-0.1788 -0.0072,-0.27286 -0.0072,-0.0941 -0.03204,-0.15813 -0.0248,-0.0651 -0.07751,-0.11782 -0.05788,-0.0579 -0.131258,-0.0868 -0.07235,-0.0289 -0.153996,-0.0289 -0.08062,0 -0.15503,0.0289 -0.07338,0.0289 -0.131258,0.0868 -0.04031,0.0403 -0.06305,0.0837 -0.0217,0.0434 -0.03411,0.10955 -0.0124,0.0662 -0.0155,0.1509 -0.0031,0.0848 -0.0031,0.20464 0,0.1788 0.0072,0.27285 0.0072,0.093 0.03204,0.15813 0.02481,0.0651 0.07648,0.11679 0.05684,0.0568 0.131258,0.0868 0.07441,0.03 0.15503,0.03 0.08165,0 0.155029,-0.03 0.07338,-0.03 0.130225,-0.0868 0.05374,-0.0538 0.07751,-0.11782 0.0248,-0.0641 0.03204,-0.1571 0.0072,-0.0941 0.0072,-0.27285 z"
         style="font-size:2.11667px;fill:#333333;stroke-width:0.264583"
         id="path907" />
      <path
         d="m 32.089001,188.23735 h -0.113688 l -0.870233,-1.31052 v 1.31052 h -0.114722 v -1.50689 h 0.114722 l 0.870233,1.30535 v -1.30535 h 0.113688 z"
         style="font-size:2.11667px;fill:#333333;stroke-width:0.264583"
         id="path909" />
      <path
         d="m 33.230639,188.23735 h -0.914674 v -1.50689 h 0.914674 v 0.10129 h -0.799953 v 0.59531 h 0.681097 v 0.10129 h -0.681097 v 0.60771 h 0.799953 z"
         style="font-size:2.11667px;fill:#333333;stroke-width:0.264583"
         id="path911" />
    </g>
    <g
       aria-label="L/R"
       id="text887"
       style="font-size:2.11667px;line-height:1.25;font-family:'DIN Alternate Light';-inkscape-font-specification:'DIN Alternate Light, ';letter-spacing:-0.0555625px;fill:#333333;stroke-width:0.264583"
       transform="translate(-36.512516)">
      <path
         d="m 30.008669,213.0266 h -0.914675 v -1.50689 h 0.114722 v 1.4056 h 0.799953 z"
         style="font-size:2.11667px;fill:#333333;stroke-width:0.264583"
         id="path914" />
      <path
         d="m 30.731354,211.36261 -0.602548,1.82108 h -0.112654 l 0.603581,-1.82108 z"
         style="font-size:2.11667px;fill:#333333;stroke-width:0.264583"
         id="path916" />
      <path
         d="m 31.930498,213.0266 h -0.133326 l -0.359668,-0.69454 h -0.414446 v 0.69454 h -0.114722 v -1.50689 h 0.57361 q 0.125057,0 0.222209,0.0475 0.09819,0.0465 0.153996,0.13849 0.05581,0.091 0.05581,0.21808 0,0.16536 -0.09302,0.27182 -0.09198,0.10645 -0.254248,0.13436 z m -0.131259,-1.10071 q 0,-0.14987 -0.09095,-0.22738 -0.08992,-0.0775 -0.240813,-0.0775 h -0.444418 v 0.60979 h 0.444418 q 0.07338,0 0.134359,-0.0186 0.06098,-0.0196 0.104387,-0.0568 0.04341,-0.0372 0.06821,-0.0951 0.0248,-0.0579 0.0248,-0.13436 z"
         style="font-size:2.11667px;fill:#333333;stroke-width:0.264583"
         id="path918" />
    </g>
    <g
       aria-label="SUM"
       id="text892"
       style="font-size:2.11667px;line-height:1.25;font-family:'DIN Alternate Light';-inkscape-font-specification:'DIN Alternate Light, ';letter-spacing:-0.238125px;fill:#333333;stroke-width:0.264583"
       transform="translate(-36.512516)">
      <path
         d="m 29.715292,236.14608 q 0,0.093 -0.03514,0.17156 -0.03411,0.0775 -0.100252,0.13229 -0.06511,0.0538 -0.161231,0.0837 -0.09508,0.0289 -0.21084,0.0289 -0.107487,0 -0.196371,-0.0207 -0.08888,-0.0207 -0.163297,-0.0651 -0.07441,-0.0445 -0.142628,-0.11266 l 0.08062,-0.0806 q 0.06821,0.0682 0.131258,0.10748 0.06305,0.0382 0.135393,0.0548 0.07235,0.0155 0.16123,0.0155 0.118856,0 0.205673,-0.0362 0.08682,-0.0372 0.134359,-0.10749 0.04754,-0.0713 0.04754,-0.16743 0,-0.13849 -0.08268,-0.21187 -0.03824,-0.0331 -0.08475,-0.0496 -0.04651,-0.0176 -0.133325,-0.031 l -0.1757,-0.0269 q -0.171566,-0.0258 -0.268718,-0.11059 -0.118856,-0.0992 -0.118856,-0.27698 0,-0.0951 0.03307,-0.17157 0.03411,-0.0775 0.09405,-0.13023 0.05995,-0.0537 0.147795,-0.0816 0.08785,-0.0289 0.19327,-0.0289 0.13746,0 0.236679,0.0393 0.09922,0.0382 0.197404,0.12299 l -0.07441,0.0744 q -0.07958,-0.0713 -0.161231,-0.10542 -0.08061,-0.0341 -0.204639,-0.0341 -0.163298,0 -0.256316,0.0837 -0.09302,0.0837 -0.09302,0.22738 0,0.13126 0.07751,0.19637 0.04237,0.0341 0.103354,0.0599 0.06201,0.0248 0.121956,0.0331 l 0.162264,0.0258 q 0.104387,0.0155 0.163298,0.0372 0.05891,0.0217 0.10542,0.062 0.06408,0.0527 0.09715,0.12815 0.03411,0.0744 0.03411,0.16434 z"
         style="font-size:2.11667px;fill:#333333;stroke-width:0.264583"
         id="path921" />
      <path
         d="m 30.846594,236.06133 q 0,0.14469 -0.06615,0.25941 -0.06511,0.11472 -0.182935,0.1788 -0.116789,0.0631 -0.26665,0.0631 -0.148829,0 -0.267685,-0.0631 -0.117822,-0.0641 -0.183968,-0.1788 -0.06511,-0.11472 -0.06511,-0.25941 v -1.01803 h 0.113689 v 1.00356 q 0,0.12402 0.04961,0.21807 0.05064,0.093 0.142627,0.1447 0.09199,0.0517 0.210841,0.0517 0.116788,0 0.208773,-0.0517 0.09302,-0.0517 0.142627,-0.1447 0.05064,-0.094 0.05064,-0.21807 v -1.00356 h 0.113688 z"
         style="font-size:2.11667px;fill:#333333;stroke-width:0.264583"
         id="path923" />
      <path
         d="M 32.318962,236.55019 H 32.20424 v -1.24231 l -0.456821,1.03043 h -0.114721 l -0.465089,-1.03043 v 1.24231 h -0.114722 v -1.50689 h 0.114722 l 0.525033,1.16169 0.511598,-1.16169 h 0.114722 z"
         style="font-size:2.11667px;fill:#333333;stroke-width:0.264583"
         id="path925" />
    </g>
    <text
       xml:space="preserve"
       style="font-size:2.11667px;line-height:1.25;font-family:'DIN Alternate Light';-inkscape-font-specification:'DIN Alternate Light, ';stroke-width:0.264583"
       x="43.124928"
       y="166.53"
       id="text899"><tspan
         sodipodi:role="line"
         id="tspan897"
         x="43.124928"
         y="166.53"
         style="font-size:2.11667px;stroke-width:0.264583">JOIN</tspan></text>
    <text
       xml:space="preserve"
       style="font-size:2.11667px;line-height:1.25;font-family:'DIN Alternate Light';-inkscape-font-specification:'DIN Alternate Light, ';stroke-width:0.264583"
       x="41.960651"
       y="187.96126"
       id="text903"><tspan
         sodipodi:role="line"
         x="41.960651"
         y="187.96126"
         style="font-size:2.11667px;stroke-width:0.264583"
         id="tspan901">CLONE</tspan></text>
    <text
       xml:space="preserve"
       style="font-size:2.11667px;line-height:1.25;font-family:'DIN Alternate Light';-inkscape-font-specification:'DIN Alternate Light, ';letter-spacing:-0.182562px;stroke-width:0.264583"
       x="42.250805"
       y="211.91844"
       id="text907"><tspan
         sodipodi:role="line"
         id="tspan905"
         x="42.250805"
         y="211.91844"
         style="font-size:2.11667px;stroke-width:0.264583">L/Rsplit</tspan></text>
    <text
       xml:space="preserve"
       style="font-size:2.11667px;line-height:1.25;font-family:'DIN Alternate Light';-inkscape-font-specification:'DIN Alternate Light, ';stroke-width:0.264583"
       x="43.176601"
       y="228.4425"
       id="text911"><tspan
         sodipodi:role="line"
         id="tspan909"
         x="43.176601"
         y="228.4425"
         style="font-size:2.11667px;stroke-width:0.264583">SUM</tspan></text>
    <text
       xml:space="preserve"
       style="font-size:2.11667px;line-height:1.25;font-family:'DIN Alternate Light';-inkscape-font-specification:'DIN Alternate Light, ';stroke-width:0.264583"
       x="42.242462"
       y="245.11125"
       id="text917"><tspan
         sodipodi:role="line"
         id="tspan915"
         x="42.242462"
         y="245.11125"
         style="font-size:2.11667px;stroke-width:0.264583">CH<tspan
   style="font-size:1.76389px"
   id="tspan913">mod</tspan></tspan></text>
    <g
       aria-label="JOIN"
       id="text863"
       style="font-size:2.11667px;line-height:1.25;font-family:'DIN Alternate Light';-inkscape-font-specification:'DIN Alternate Light, ';fill:#333333;fill-opacity:0.953668;stroke-width:0.264583"
       transform="matrix(0.80998597,0,0,0.80998597,5.7977537,28.708517)">
      <path
         d="m 29.150574,166.08558 q 0,0.13539 -0.05478,0.23978 -0.05478,0.10335 -0.157097,0.1602 -0.101286,0.0568 -0.236678,0.0568 -0.201539,0 -0.33073,-0.12919 l 0.07855,-0.0775 q 0.03927,0.0372 0.06821,0.0579 0.02997,0.0207 0.07545,0.0341 0.04547,0.0134 0.108521,0.0134 0.163297,0 0.24908,-0.0982 0.08578,-0.0992 0.08578,-0.28112 v -1.0387 h 0.113689 z"
         style="font-size:2.11667px;fill:#333333;fill-opacity:0.953668;stroke-width:0.264583"
         id="path919" />
      <path
         d="m 30.568577,165.77656 q 0,0.2036 -0.0072,0.29972 -0.0072,0.0961 -0.03617,0.17053 -0.02894,0.0744 -0.09612,0.1416 -0.07338,0.0734 -0.171566,0.11368 -0.09715,0.0403 -0.204639,0.0403 -0.107488,0 -0.205673,-0.0403 -0.09819,-0.0403 -0.171566,-0.11368 -0.06718,-0.0672 -0.09612,-0.1416 -0.02894,-0.0744 -0.03617,-0.17053 -0.0072,-0.0961 -0.0072,-0.29972 0,-0.20361 0.0072,-0.29973 0.0072,-0.0961 0.03617,-0.17053 0.02894,-0.0744 0.09612,-0.14159 0.07338,-0.0734 0.170533,-0.11369 0.09819,-0.0403 0.206706,-0.0403 0.10852,0 0.205672,0.0403 0.09715,0.0403 0.170533,0.11369 0.06718,0.0672 0.09612,0.14159 0.02894,0.0744 0.03617,0.17053 0.0072,0.0961 0.0072,0.29973 z m -0.113688,0 q 0,-0.17881 -0.0072,-0.27286 -0.0072,-0.0941 -0.03204,-0.15813 -0.02481,-0.0651 -0.07751,-0.11782 -0.05788,-0.0579 -0.131258,-0.0868 -0.07235,-0.0289 -0.153996,-0.0289 -0.08062,0 -0.15503,0.0289 -0.07338,0.0289 -0.131258,0.0868 -0.04031,0.0403 -0.06305,0.0837 -0.0217,0.0434 -0.03411,0.10955 -0.0124,0.0661 -0.0155,0.1509 -0.0031,0.0847 -0.0031,0.20464 0,0.1788 0.0072,0.27285 0.0072,0.093 0.03204,0.15813 0.0248,0.0651 0.07648,0.11679 0.05684,0.0568 0.131258,0.0868 0.07441,0.03 0.15503,0.03 0.08165,0 0.155029,-0.03 0.07338,-0.03 0.130225,-0.0868 0.05374,-0.0538 0.07751,-0.11783 0.0248,-0.0641 0.03204,-0.15709 0.0072,-0.094 0.0072,-0.27285 z"
         style="font-size:2.11667px;fill:#333333;fill-opacity:0.953668;stroke-width:0.264583"
         id="path922" />
      <path
         d="m 31.089477,166.53 h -0.114722 v -1.50689 h 0.114722 z"
         style="font-size:2.11667px;fill:#333333;fill-opacity:0.953668;stroke-width:0.264583"
         id="path924" />
      <path
         d="m 32.653208,166.53 h -0.113689 l -0.870232,-1.31052 V 166.53 h -0.114722 v -1.50689 h 0.114722 l 0.870232,1.30535 v -1.30535 h 0.113689 z"
         style="font-size:2.11667px;fill:#333333;fill-opacity:0.953668;stroke-width:0.264583"
         id="path926" />
    </g>
    <g
       aria-label="CLONE"
       id="text867"
       style="font-size:2.11667px;line-height:1.25;font-family:'DIN Alternate Light';-inkscape-font-specification:'DIN Alternate Light, ';fill:#333333;fill-opacity:0.953668;stroke-width:0.264583"
       transform="matrix(0.80998597,0,0,0.80998597,5.7977399,32.780756)">
      <path
         d="m 28.259152,187.78556 q -0.09922,0.0941 -0.198438,0.14159 -0.09922,0.0465 -0.226343,0.0465 -0.107488,0 -0.205673,-0.0403 -0.09819,-0.0403 -0.171566,-0.11369 -0.06718,-0.0672 -0.09612,-0.14159 -0.02894,-0.0744 -0.03617,-0.17053 -0.0072,-0.0961 -0.0072,-0.29973 0,-0.2036 0.0072,-0.29972 0.0072,-0.0961 0.03617,-0.17053 0.02894,-0.0744 0.09612,-0.1416 0.07338,-0.0734 0.170533,-0.11368 0.09819,-0.0403 0.206706,-0.0403 0.127124,0 0.22841,0.0486 0.101286,0.0476 0.196371,0.13953 l -0.07545,0.0765 q -0.08372,-0.0837 -0.162264,-0.12299 -0.07751,-0.0403 -0.187069,-0.0403 -0.08165,0 -0.156063,0.03 -0.07442,0.0289 -0.130225,0.0858 -0.04031,0.0403 -0.06305,0.0837 -0.0217,0.0434 -0.03411,0.10955 -0.0124,0.0661 -0.0155,0.1509 -0.0031,0.0847 -0.0031,0.20463 0,0.17881 0.0072,0.27286 0.0072,0.093 0.03204,0.15813 0.02481,0.0651 0.07648,0.11679 0.05478,0.0558 0.129191,0.0868 0.07545,0.03 0.157097,0.03 0.07235,0 0.133325,-0.0186 0.06201,-0.0196 0.109554,-0.0537 0.04754,-0.0341 0.106454,-0.0909 z"
         style="font-size:2.11667px;fill:#333333;fill-opacity:0.953668;stroke-width:0.264583"
         id="path929" />
      <path
         d="m 29.553131,187.96126 h -0.914674 v -1.50689 h 0.114722 v 1.4056 h 0.799952 z"
         style="font-size:2.11667px;fill:#333333;fill-opacity:0.953668;stroke-width:0.264583"
         id="path931" />
      <path
         d="m 30.822306,187.20781 q 0,0.20361 -0.0072,0.29973 -0.0072,0.0961 -0.03617,0.17053 -0.02894,0.0744 -0.09612,0.14159 -0.07338,0.0734 -0.171566,0.11369 -0.09715,0.0403 -0.204639,0.0403 -0.107487,0 -0.205673,-0.0403 -0.09819,-0.0403 -0.171566,-0.11369 -0.06718,-0.0672 -0.09612,-0.14159 -0.02894,-0.0744 -0.03617,-0.17053 -0.0072,-0.0961 -0.0072,-0.29973 0,-0.2036 0.0072,-0.29972 0.0072,-0.0961 0.03617,-0.17053 0.02894,-0.0744 0.09612,-0.1416 0.07338,-0.0734 0.170533,-0.11368 0.09818,-0.0403 0.206706,-0.0403 0.10852,0 0.205672,0.0403 0.09715,0.0403 0.170533,0.11368 0.06718,0.0672 0.09612,0.1416 0.02894,0.0744 0.03617,0.17053 0.0072,0.0961 0.0072,0.29972 z m -0.113688,0 q 0,-0.1788 -0.0072,-0.27285 -0.0072,-0.094 -0.03204,-0.15813 -0.0248,-0.0651 -0.07751,-0.11782 -0.05788,-0.0579 -0.131258,-0.0868 -0.07235,-0.0289 -0.153996,-0.0289 -0.08062,0 -0.15503,0.0289 -0.07338,0.0289 -0.131258,0.0868 -0.04031,0.0403 -0.06304,0.0837 -0.02171,0.0434 -0.03411,0.10955 -0.0124,0.0661 -0.0155,0.1509 -0.0031,0.0847 -0.0031,0.20463 0,0.17881 0.0072,0.27286 0.0072,0.093 0.03204,0.15813 0.0248,0.0651 0.07648,0.11679 0.05684,0.0568 0.131258,0.0868 0.07441,0.03 0.15503,0.03 0.08165,0 0.155029,-0.03 0.07338,-0.03 0.130225,-0.0868 0.05374,-0.0538 0.07751,-0.11783 0.02481,-0.0641 0.03204,-0.15709 0.0072,-0.0941 0.0072,-0.27286 z"
         style="font-size:2.11667px;fill:#333333;fill-opacity:0.953668;stroke-width:0.264583"
         id="path933" />
      <path
         d="m 32.327126,187.96126 h -0.113688 l -0.870232,-1.31052 v 1.31052 h -0.114722 v -1.50689 h 0.114722 l 0.870232,1.30535 v -1.30535 h 0.113688 z"
         style="font-size:2.11667px;fill:#333333;fill-opacity:0.953668;stroke-width:0.264583"
         id="path936" />
      <path
         d="m 33.706889,187.96126 h -0.914674 v -1.50689 h 0.914674 v 0.10129 h -0.799952 v 0.59531 h 0.681096 v 0.10129 h -0.681096 v 0.60771 h 0.799952 z"
         style="font-size:2.11667px;fill:#333333;fill-opacity:0.953668;stroke-width:0.264583"
         id="path938" />
    </g>
    <g
       aria-label="L|R"
       id="text904"
       style="font-size:1.71382px;line-height:1.25;font-family:'DIN Alternate Light';-inkscape-font-specification:'DIN Alternate Light, ';letter-spacing:0px;fill:#333333;stroke-width:0.125096"
       transform="translate(-6.939874e-7,1.0914062)">
      <path
         d="m 30.077515,207.69414 h -0.740591 v -1.22009 h 0.09289 v 1.13808 h 0.647704 z"
         style="font-size:1.71382px;fill:#333333;stroke-width:0.125096"
         id="path910" />
      <path
         d="m 30.444045,207.82134 h -0.08787 v -1.47449 h 0.08787 z"
         style="font-size:1.71382px;fill:#333333;stroke-width:0.125096"
         id="path912" />
      <path
         d="m 31.687568,207.69414 h -0.10795 l -0.291216,-0.56235 h -0.335567 v 0.56235 h -0.09289 v -1.22009 h 0.464439 q 0.101256,0 0.179917,0.0385 0.0795,0.0377 0.124688,0.11213 0.04519,0.0736 0.04519,0.17657 0,0.1339 -0.07531,0.22009 -0.07448,0.0862 -0.205859,0.10879 z m -0.106277,-0.89122 q 0,-0.12134 -0.07364,-0.1841 -0.0728,-0.0628 -0.194981,-0.0628 h -0.359835 v 0.49373 h 0.359835 q 0.05941,0 0.108788,-0.0151 0.04937,-0.0159 0.08452,-0.046 0.03515,-0.0301 0.05523,-0.077 0.02008,-0.0469 0.02008,-0.10879 z"
         style="font-size:1.71382px;fill:#333333;stroke-width:0.125096"
         id="path915" />
    </g>
    <g
       aria-label="SUM"
       id="text888"
       style="font-size:2.11667px;line-height:1.25;font-family:'DIN Alternate Light';-inkscape-font-specification:'DIN Alternate Light, ';fill:#333333;fill-opacity:0.953668;stroke-width:0.264583"
       transform="matrix(0.80989608,0,0,0.80989608,5.8004972,40.493139)">
      <path
         d="m 29.477167,228.03839 q 0,0.093 -0.03514,0.17157 -0.03411,0.0775 -0.100253,0.13229 -0.06511,0.0537 -0.161231,0.0837 -0.09508,0.0289 -0.21084,0.0289 -0.107487,0 -0.19637,-0.0207 -0.08888,-0.0207 -0.163298,-0.0651 -0.07441,-0.0444 -0.142627,-0.11265 l 0.08062,-0.0806 q 0.06821,0.0682 0.131258,0.10749 0.06305,0.0382 0.135393,0.0548 0.07235,0.0155 0.161231,0.0155 0.118855,0 0.205672,-0.0362 0.08682,-0.0372 0.134359,-0.10749 0.04754,-0.0713 0.04754,-0.16743 0,-0.13849 -0.08268,-0.21188 -0.03824,-0.0331 -0.08475,-0.0496 -0.04651,-0.0176 -0.133325,-0.031 l -0.1757,-0.0269 q -0.171566,-0.0258 -0.268718,-0.11059 -0.118856,-0.0992 -0.118856,-0.27699 0,-0.0951 0.03307,-0.17156 0.03411,-0.0775 0.09405,-0.13023 0.05995,-0.0537 0.147795,-0.0817 0.08785,-0.0289 0.19327,-0.0289 0.13746,0 0.236679,0.0393 0.09922,0.0382 0.197404,0.12299 l -0.07441,0.0744 q -0.07958,-0.0713 -0.161231,-0.10542 -0.08061,-0.0341 -0.204639,-0.0341 -0.163298,0 -0.256315,0.0837 -0.09302,0.0837 -0.09302,0.22738 0,0.13126 0.07751,0.19637 0.04237,0.0341 0.103353,0.06 0.06201,0.0248 0.121956,0.0331 l 0.162264,0.0258 q 0.104387,0.0155 0.163298,0.0372 0.05891,0.0217 0.10542,0.062 0.06408,0.0527 0.09715,0.12815 0.03411,0.0744 0.03411,0.16433 z"
         style="font-size:2.11667px;fill:#333333;fill-opacity:0.953668;stroke-width:0.264583"
         id="path960" />
      <path
         d="m 30.846594,227.95365 q 0,0.14469 -0.06615,0.25941 -0.06511,0.11472 -0.182935,0.1788 -0.116788,0.0631 -0.26665,0.0631 -0.148829,0 -0.267685,-0.0631 -0.117822,-0.0641 -0.183968,-0.1788 -0.06511,-0.11472 -0.06511,-0.25941 v -1.01803 h 0.113688 v 1.00356 q 0,0.12402 0.04961,0.21807 0.05064,0.093 0.142628,0.14469 0.09198,0.0517 0.21084,0.0517 0.116789,0 0.208773,-0.0517 0.09302,-0.0517 0.142627,-0.14469 0.05064,-0.0941 0.05064,-0.21807 v -1.00356 h 0.113688 z"
         style="font-size:2.11667px;fill:#333333;fill-opacity:0.953668;stroke-width:0.264583"
         id="path962" />
      <path
         d="m 32.557087,228.4425 h -0.114722 v -1.2423 l -0.456821,1.03043 h -0.114721 l -0.465089,-1.03043 v 1.2423 h -0.114722 v -1.50688 h 0.114722 l 0.525033,1.16169 0.511598,-1.16169 h 0.114722 z"
         style="font-size:2.11667px;fill:#333333;fill-opacity:0.953668;stroke-width:0.264583"
         id="path964" />
    </g>
    <g
       id="g970"
       transform="translate(0,0.52916665)">
      <g
         aria-label="CHmod"
         id="text893"
         style="font-size:2.11667px;line-height:1.25;font-family:'DIN Alternate Light';-inkscape-font-specification:'DIN Alternate Light, ';fill:#333333;fill-opacity:0.953668;stroke-width:0.264583"
         transform="matrix(0.80998068,0,0,0.80998068,5.7978997,43.112177)">
        <path
           d="m 28.540962,244.93555 q -0.09922,0.094 -0.198438,0.1416 -0.09922,0.0465 -0.226343,0.0465 -0.107487,0 -0.205672,-0.0403 -0.09819,-0.0403 -0.171566,-0.11369 -0.06718,-0.0672 -0.09612,-0.1416 -0.02894,-0.0744 -0.03617,-0.17053 -0.0072,-0.0961 -0.0072,-0.29972 0,-0.20361 0.0072,-0.29973 0.0072,-0.0961 0.03617,-0.17053 0.02894,-0.0744 0.09612,-0.14159 0.07338,-0.0734 0.170532,-0.11369 0.09819,-0.0403 0.206706,-0.0403 0.127125,0 0.228411,0.0486 0.101285,0.0475 0.19637,0.13952 l -0.07545,0.0765 q -0.08372,-0.0837 -0.162265,-0.12299 -0.07751,-0.0403 -0.187069,-0.0403 -0.08165,0 -0.156063,0.03 -0.07441,0.0289 -0.130225,0.0858 -0.04031,0.0403 -0.06304,0.0837 -0.0217,0.0434 -0.03411,0.10955 -0.0124,0.0661 -0.0155,0.1509 -0.0031,0.0848 -0.0031,0.20464 0,0.1788 0.0072,0.27285 0.0072,0.093 0.03204,0.15813 0.02481,0.0651 0.07648,0.11679 0.05478,0.0558 0.129192,0.0868 0.07545,0.03 0.157096,0.03 0.07235,0 0.133326,-0.0186 0.06201,-0.0196 0.109554,-0.0537 0.04754,-0.0341 0.106454,-0.0909 z"
           style="font-size:2.11667px;fill:#333333;fill-opacity:0.953668;stroke-width:0.264583"
           id="path967" />
        <path
           d="m 29.934161,245.11125 h -0.113688 v -0.709 H 29.03499 v 0.709 h -0.114722 v -1.50689 h 0.114722 v 0.6966 h 0.785483 v -0.6966 h 0.113688 z"
           style="font-size:2.11667px;fill:#333333;fill-opacity:0.953668;stroke-width:0.264583"
           id="path969" />
        <path
           d="m 31.556113,245.11125 h -0.08871 v -0.5271 q 0,-0.12316 -0.06029,-0.18862 -0.06029,-0.0654 -0.173978,-0.0654 -0.110243,0 -0.1757,0.0646 -0.0646,0.0637 -0.0646,0.17312 v 0.54346 h -0.08957 v -0.5271 q 0,-0.12316 -0.06029,-0.18862 -0.06029,-0.0654 -0.173977,-0.0654 -0.07579,0 -0.130053,0.0301 -0.0534,0.0293 -0.08182,0.087 -0.02842,0.0568 -0.02842,0.13694 v 0.5271 h -0.08957 v -0.85008 h 0.08957 v 0.10077 q 0.0956,-0.1111 0.252353,-0.1111 0.06287,0 0.115411,0.0181 0.05254,0.0181 0.0913,0.0517 0.03962,0.0336 0.06632,0.0853 0.09819,-0.15503 0.289389,-0.15503 0.07062,0 0.127468,0.0207 0.05684,0.0207 0.09646,0.0603 0.08871,0.0844 0.08871,0.23599 z"
           style="font-size:1.76389px;fill:#333333;fill-opacity:0.953668"
           id="path971" />
        <path
           d="m 32.522463,244.68578 q 0,0.068 -0.0086,0.12919 -0.0086,0.0611 -0.03187,0.11628 -0.02325,0.0551 -0.06546,0.0973 -0.09474,0.093 -0.23599,0.093 -0.14211,0 -0.23685,-0.093 -0.0422,-0.0422 -0.06546,-0.0965 -0.02325,-0.0551 -0.03187,-0.11541 -0.0086,-0.0603 -0.0086,-0.13092 0,-0.1068 0.02239,-0.19378 0.02239,-0.087 0.08354,-0.14814 0.09302,-0.093 0.23685,-0.093 0.142972,0 0.23599,0.093 0.0422,0.0422 0.06546,0.0973 0.02325,0.0551 0.03187,0.11627 0.0086,0.0603 0.0086,0.12833 z m -0.09043,0 q 0,-0.0982 -0.01464,-0.16708 -0.01378,-0.0689 -0.06115,-0.11628 -0.07062,-0.0723 -0.1757,-0.0723 -0.105936,0 -0.176561,0.0723 -0.04737,0.0474 -0.06201,0.11886 -0.01378,0.0706 -0.01378,0.1645 0,0.093 0.01378,0.16537 0.01464,0.0715 0.06201,0.11885 0.07235,0.0724 0.176561,0.0724 0.103353,0 0.1757,-0.0724 0.04737,-0.0474 0.06115,-0.11627 0.01464,-0.0698 0.01464,-0.16795 z"
           style="font-size:1.76389px;fill:#333333;fill-opacity:0.953668"
           id="path973" />
        <path
           d="m 33.425079,245.11125 h -0.08957 v -0.10938 q -0.03617,0.0474 -0.07579,0.0741 -0.03876,0.0258 -0.08354,0.0353 -0.04393,0.0103 -0.09302,0.0103 -0.134359,0 -0.208429,-0.0741 -0.109382,-0.10938 -0.109382,-0.36174 0,-0.25149 0.109382,-0.36087 0.03445,-0.0344 0.08785,-0.0543 0.05426,-0.0198 0.120579,-0.0198 0.07924,0 0.140387,0.0258 0.06115,0.025 0.111966,0.0939 v -0.51505 h 0.08957 z m -0.08957,-0.42547 q 0,-0.16106 -0.04909,-0.25838 -0.04909,-0.0973 -0.191203,-0.0973 -0.141249,0 -0.190342,0.0973 -0.04909,0.0973 -0.04909,0.25838 0,0.16192 0.04909,0.25925 0.04909,0.0973 0.190342,0.0973 0.14211,0 0.191203,-0.0973 0.04909,-0.0973 0.04909,-0.25925 z"
           style="font-size:1.76389px;fill:#333333;fill-opacity:0.953668"
           id="path975" />
      </g>
    </g>
    <g
       id="g983">
      <g
         aria-label="poly TOOLS"
         id="text931"
         style="font-size:2.11667px;line-height:1.25;font-family:'DIN Alternate Light';-inkscape-font-specification:'DIN Alternate Light, ';opacity:1;fill:#333333;fill-opacity:0.861004;stroke-width:0.264583"
         transform="matrix(0.75701933,0,0,0.75701933,6.385876,63.094837)">
        <path
           d="m 28.36406,258.67941 q 0,0.30282 -0.131259,0.43408 -0.09095,0.0889 -0.250114,0.0889 -0.09508,0 -0.168465,-0.031 -0.07235,-0.031 -0.134359,-0.11266 v 0.61805 h -0.107487 v -1.50688 h 0.107487 v 0.13126 q 0.05994,-0.0816 0.133325,-0.11266 0.07441,-0.031 0.169499,-0.031 0.07958,0 0.143661,0.0238 0.06408,0.0227 0.106453,0.0651 0.131259,0.13126 0.131259,0.43305 z m -0.108521,0 q 0,-0.19327 -0.05891,-0.31006 -0.05891,-0.11679 -0.22841,-0.11679 -0.170533,0 -0.229444,0.11679 -0.05891,0.11679 -0.05891,0.31006 0,0.1943 0.05891,0.31109 0.05891,0.11679 0.229444,0.11679 0.169499,0 0.22841,-0.11679 0.05891,-0.11679 0.05891,-0.31109 z"
           style="font-size:2.11667px;fill:#333333;fill-opacity:0.861004;stroke-width:0.264583"
           id="path935" />
        <path
           d="m 29.477172,258.67941 q 0,0.0816 -0.01034,0.15503 -0.01034,0.0734 -0.03824,0.13952 -0.02791,0.0662 -0.07855,0.11679 -0.113689,0.11162 -0.283188,0.11162 -0.170532,0 -0.284221,-0.11162 -0.05064,-0.0506 -0.07855,-0.11575 -0.0279,-0.0662 -0.03824,-0.1385 -0.01034,-0.0723 -0.01034,-0.15709 0,-0.12816 0.02687,-0.23255 0.02687,-0.10438 0.100252,-0.17776 0.111622,-0.11162 0.284221,-0.11162 0.171566,0 0.283188,0.11162 0.05064,0.0506 0.07855,0.11679 0.02791,0.0661 0.03824,0.13952 0.01034,0.0723 0.01034,0.154 z m -0.108521,0 q 0,-0.11782 -0.01757,-0.20051 -0.01654,-0.0827 -0.07338,-0.13952 -0.08475,-0.0868 -0.21084,-0.0868 -0.127124,0 -0.211873,0.0868 -0.05685,0.0568 -0.07442,0.14262 -0.01654,0.0847 -0.01654,0.19741 0,0.11162 0.01654,0.19844 0.01757,0.0858 0.07442,0.14262 0.08682,0.0868 0.211873,0.0868 0.124024,0 0.21084,-0.0868 0.05684,-0.0568 0.07338,-0.13952 0.01757,-0.0837 0.01757,-0.20154 z"
           style="font-size:2.11667px;fill:#333333;fill-opacity:0.861004;stroke-width:0.264583"
           id="path937" />
        <path
           d="m 30.162402,259.18997 h -0.09302 q -0.118856,0 -0.181902,-0.0703 -0.06304,-0.0713 -0.06304,-0.1943 v -1.24231 h 0.107487 v 1.24024 q 0,0.0889 0.03514,0.13023 0.03514,0.0413 0.121957,0.0413 h 0.07338 z"
           style="font-size:2.11667px;fill:#333333;fill-opacity:0.861004;stroke-width:0.264583"
           id="path939" />
        <path
           d="m 31.111183,258.16988 -0.47439,1.29708 q -0.02687,0.0817 -0.06925,0.11885 -0.06925,0.0651 -0.19327,0.0651 h -0.05064 v -0.0951 h 0.04031 q 0.05788,0 0.09095,-0.0134 0.03307,-0.0134 0.05478,-0.0445 0.0217,-0.031 0.04031,-0.0816 l 0.08268,-0.22635 -0.372071,-1.02009 h 0.117822 l 0.306959,0.89297 0.306958,-0.89297 z"
           style="font-size:2.11667px;fill:#333333;fill-opacity:0.861004;stroke-width:0.264583"
           id="path941" />
        <path
           d="m 28.443642,260.43021 h -0.45062 v 1.4056 h -0.113688 v -1.4056 h -0.449586 v -0.10129 h 1.013894 z"
           style="font-size:2.11667px;fill:#333333;fill-opacity:0.861004;stroke-width:0.264583"
           id="path943" />
        <path
           d="m 29.71385,261.08237 q 0,0.2036 -0.0072,0.29972 -0.0072,0.0961 -0.03617,0.17053 -0.02894,0.0744 -0.09612,0.1416 -0.07338,0.0734 -0.171566,0.11368 -0.09715,0.0403 -0.204639,0.0403 -0.107488,0 -0.205673,-0.0403 -0.09819,-0.0403 -0.171566,-0.11368 -0.06718,-0.0672 -0.09612,-0.1416 -0.02894,-0.0744 -0.03617,-0.17053 -0.0072,-0.0961 -0.0072,-0.29972 0,-0.20361 0.0072,-0.29973 0.0072,-0.0961 0.03617,-0.17053 0.02894,-0.0744 0.09612,-0.14159 0.07338,-0.0734 0.170532,-0.11369 0.09819,-0.0403 0.206707,-0.0403 0.10852,0 0.205672,0.0403 0.09715,0.0403 0.170533,0.11369 0.06718,0.0672 0.09612,0.14159 0.02894,0.0744 0.03617,0.17053 0.0072,0.0961 0.0072,0.29973 z m -0.113688,0 q 0,-0.1788 -0.0072,-0.27286 -0.0072,-0.094 -0.03204,-0.15813 -0.0248,-0.0651 -0.07751,-0.11782 -0.05788,-0.0579 -0.131258,-0.0868 -0.07235,-0.0289 -0.153996,-0.0289 -0.08062,0 -0.15503,0.0289 -0.07338,0.0289 -0.131258,0.0868 -0.04031,0.0403 -0.06305,0.0837 -0.0217,0.0434 -0.03411,0.10955 -0.0124,0.0661 -0.0155,0.1509 -0.0031,0.0848 -0.0031,0.20464 0,0.1788 0.0072,0.27285 0.0072,0.093 0.03204,0.15813 0.02481,0.0651 0.07648,0.11679 0.05684,0.0568 0.131258,0.0868 0.07441,0.03 0.15503,0.03 0.08165,0 0.155029,-0.03 0.07338,-0.03 0.130225,-0.0868 0.05374,-0.0537 0.07751,-0.11783 0.0248,-0.0641 0.03204,-0.15709 0.0072,-0.094 0.0072,-0.27285 z"
           style="font-size:2.11667px;fill:#333333;fill-opacity:0.861004;stroke-width:0.264583"
           id="path945" />
        <path
           d="m 31.093613,261.08237 q 0,0.2036 -0.0072,0.29972 -0.0072,0.0961 -0.03617,0.17053 -0.02894,0.0744 -0.09612,0.1416 -0.07338,0.0734 -0.171566,0.11368 -0.09715,0.0403 -0.204639,0.0403 -0.107487,0 -0.205672,-0.0403 -0.09819,-0.0403 -0.171566,-0.11368 -0.06718,-0.0672 -0.09612,-0.1416 -0.02894,-0.0744 -0.03617,-0.17053 -0.0072,-0.0961 -0.0072,-0.29972 0,-0.20361 0.0072,-0.29973 0.0072,-0.0961 0.03617,-0.17053 0.02894,-0.0744 0.09612,-0.14159 0.07338,-0.0734 0.170532,-0.11369 0.09819,-0.0403 0.206706,-0.0403 0.108521,0 0.205673,0.0403 0.09715,0.0403 0.170532,0.11369 0.06718,0.0672 0.09612,0.14159 0.02894,0.0744 0.03617,0.17053 0.0072,0.0961 0.0072,0.29973 z m -0.113688,0 q 0,-0.1788 -0.0072,-0.27286 -0.0072,-0.094 -0.03204,-0.15813 -0.0248,-0.0651 -0.07751,-0.11782 -0.05788,-0.0579 -0.131259,-0.0868 -0.07235,-0.0289 -0.153996,-0.0289 -0.08062,0 -0.155029,0.0289 -0.07338,0.0289 -0.131259,0.0868 -0.04031,0.0403 -0.06304,0.0837 -0.0217,0.0434 -0.03411,0.10955 -0.0124,0.0661 -0.0155,0.1509 -0.0031,0.0848 -0.0031,0.20464 0,0.1788 0.0072,0.27285 0.0072,0.093 0.03204,0.15813 0.0248,0.0651 0.07648,0.11679 0.05685,0.0568 0.131259,0.0868 0.07441,0.03 0.155029,0.03 0.08165,0 0.15503,-0.03 0.07338,-0.03 0.130225,-0.0868 0.05374,-0.0537 0.07751,-0.11783 0.0248,-0.0641 0.03204,-0.15709 0.0072,-0.094 0.0072,-0.27285 z"
           style="font-size:2.11667px;fill:#333333;fill-opacity:0.861004;stroke-width:0.264583"
           id="path947" />
        <path
           d="m 32.414465,261.83581 h -0.914674 v -1.50689 h 0.114721 v 1.4056 h 0.799953 z"
           style="font-size:2.11667px;fill:#333333;fill-opacity:0.861004;stroke-width:0.264583"
           id="path950" />
        <path
           d="m 33.594756,261.4317 q 0,0.093 -0.03514,0.17156 -0.03411,0.0775 -0.100252,0.1323 -0.06511,0.0537 -0.161231,0.0837 -0.09508,0.0289 -0.21084,0.0289 -0.107487,0 -0.196371,-0.0207 -0.08888,-0.0207 -0.163298,-0.0651 -0.07441,-0.0444 -0.142627,-0.11266 l 0.08062,-0.0806 q 0.06821,0.0682 0.131259,0.10749 0.06304,0.0382 0.135392,0.0548 0.07235,0.0155 0.161231,0.0155 0.118856,0 0.205673,-0.0362 0.08682,-0.0372 0.134358,-0.10749 0.04754,-0.0713 0.04754,-0.16743 0,-0.13849 -0.08268,-0.21187 -0.03824,-0.0331 -0.08475,-0.0496 -0.04651,-0.0176 -0.133325,-0.031 l -0.175701,-0.0269 q -0.171566,-0.0258 -0.268717,-0.11059 -0.118856,-0.0992 -0.118856,-0.27698 0,-0.0951 0.03307,-0.17157 0.03411,-0.0775 0.09405,-0.13022 0.05994,-0.0538 0.147795,-0.0817 0.08785,-0.0289 0.19327,-0.0289 0.137459,0 0.236678,0.0393 0.09922,0.0382 0.197404,0.12299 l -0.07441,0.0744 q -0.07958,-0.0713 -0.16123,-0.10542 -0.08062,-0.0341 -0.204639,-0.0341 -0.163298,0 -0.256316,0.0837 -0.09302,0.0837 -0.09302,0.22737 0,0.13126 0.07751,0.19638 0.04237,0.0341 0.103353,0.0599 0.06201,0.0248 0.121957,0.0331 l 0.162264,0.0258 q 0.104387,0.0155 0.163298,0.0372 0.05891,0.0217 0.10542,0.062 0.06408,0.0527 0.09715,0.12816 0.03411,0.0744 0.03411,0.16433 z"
           style="font-size:2.11667px;fill:#333333;fill-opacity:0.861004;stroke-width:0.264583"
           id="path952" />
      </g>
      <rect
         style="fill:#333333;stroke:none;stroke-width:0;stroke-miterlimit:4;stroke-dasharray:none;stroke-opacity:0;paint-order:stroke fill markers;stop-color:#000000"
         id="rect928"
         width="6.4881144"
         height="0.054752026"
         x="27.26819"
         y="257.99368"
         ry="0.027376013" />
    </g>
  </g>
</svg>
