<?xml version="1.0" encoding="UTF-8" standalone="no"?>
<svg
   xmlns:dc="http://purl.org/dc/elements/1.1/"
   xmlns:cc="http://creativecommons.org/ns#"
   xmlns:rdf="http://www.w3.org/1999/02/22-rdf-syntax-ns#"
   xmlns:svg="http://www.w3.org/2000/svg"
   xmlns="http://www.w3.org/2000/svg"
   xmlns:sodipodi="http://sodipodi.sourceforge.net/DTD/sodipodi-0.dtd"
   xmlns:inkscape="http://www.inkscape.org/namespaces/inkscape"
   width="30"
   height="380"
   viewBox="0 0 7.9375 100.54166"
   version="1.1"
   id="svg12553"
   inkscape:version="1.0.2 (e86c870879, 2021-01-15)"
   sodipodi:docname="Panel2hpSEQ.svg">
  <defs
     id="defs12547">
    <filter
       style="color-interpolation-filters:sRGB"
       inkscape:label="Lightness-Contrast"
       id="filter928">
      <feColorMatrix
         values="3.26994 0 0 0.458429 -1.13497 0 3.26994 0 0.458429 -1.13497 0 0 3.26994 0.458429 -1.13497 0 0 0 1 0"
         id="feColorMatrix926" />
    </filter>
    <filter
       style="color-interpolation-filters:sRGB"
       inkscape:label="Lightness-Contrast"
       id="filter929">
      <feColorMatrix
         values="3.26994 0 0 0.458429 -1.13497 0 3.26994 0 0.458429 -1.13497 0 0 3.26994 0.458429 -1.13497 0 0 0 1 0"
         id="feColorMatrix927" />
    </filter>
    <filter
       style="color-interpolation-filters:sRGB"
       inkscape:label="Lightness-Contrast"
       id="filter933">
      <feColorMatrix
         values="3.26994 0 0 0.458429 -1.13497 0 3.26994 0 0.458429 -1.13497 0 0 3.26994 0.458429 -1.13497 0 0 0 1 0"
         id="feColorMatrix931" />
    </filter>
  </defs>
  <sodipodi:namedview
     id="base"
     pagecolor="#ffffff"
     bordercolor="#666666"
     borderopacity="1.0"
     inkscape:pageopacity="0.0"
     inkscape:pageshadow="2"
     inkscape:zoom="3.959798"
     inkscape:cx="0.21938495"
     inkscape:cy="92.772849"
     inkscape:document-units="px"
     inkscape:current-layer="layer1"
     showgrid="true"
     fit-margin-top="0"
     fit-margin-left="0"
     fit-margin-right="0"
     fit-margin-bottom="0"
     units="px"
     inkscape:window-width="1613"
     inkscape:window-height="1041"
     inkscape:window-x="0"
     inkscape:window-y="0"
     inkscape:window-maximized="0"
     inkscape:snap-global="false"
     inkscape:document-rotation="0">
    <inkscape:grid
       type="xygrid"
       id="grid12870"
       originx="-20.372917"
       originy="84.666661" />
  </sodipodi:namedview>
  <metadata
     id="metadata12550">
    <rdf:RDF>
      <cc:Work
         rdf:about="">
        <dc:format>image/svg+xml</dc:format>
        <dc:type
           rdf:resource="http://purl.org/dc/dcmitype/StillImage" />
        <dc:title></dc:title>
      </cc:Work>
    </rdf:RDF>
  </metadata>
  <g
     inkscape:label="Layer 1"
     inkscape:groupmode="layer"
     id="layer1"
     transform="translate(-26.543497,-161.30655)">
    <path
       inkscape:connector-curvature="0"
       id="path33453"
       d="m 26.543497,161.26312 h 7.961123 v 100.58509 h -7.961123 z m 0,0"
       style="fill:#f4f4f4;fill-opacity:1;fill-rule:nonzero;stroke:none;stroke-width:0.144511" />
    <g
       id="g977"
       transform="translate(10.054166)">
      <g
         id="g1050"
         transform="matrix(0.24055264,0,0,0.13499651,20.747804,145.83239)"
         style="fill:#000000;fill-opacity:1;filter:url(#filter928)">
        <g
           id="g1046"
           transform="translate(-0.9)"
           style="fill:#000000;fill-opacity:1" />
        <path
           id="rect1038"
           style="fill:#000000;fill-opacity:1"
           d="M 27.786701,149.52 H 53.3467 c 1.13016,0 2.04,0.90984 2.04,2.04 v 15.49 c 0,1.13016 -0.90984,2.04 -2.04,2.04 H 27.786701 c -1.13016,0 -2.04,-0.90984 -2.04,-2.04 v -15.49 c 0,-1.13016 0.90984,-2.04 2.04,-2.04 z"
           class="cls-1" />
        <path
           class="cls-2"
           d="m 53.396701,150.27 a 1.29,1.29 0 0 1 1.29,1.29 v 15.48 a 1.3,1.3 0 0 1 -1.29,1.3 h -25.6 a 1.3,1.3 0 0 1 -1.3,-1.3 v -15.48 a 1.3,1.3 0 0 1 1.3,-1.29 h 25.6 m 0,-1.5 h -25.6 a 2.81,2.81 0 0 0 -2.8,2.79 v 15.48 a 2.81,2.81 0 0 0 2.8,2.8 h 25.6 a 2.81,2.81 0 0 0 2.79,-2.8 v -15.48 a 2.8,2.8 0 0 0 -2.79,-2.79 z"
           id="path1040"
           inkscape:connector-curvature="0"
           style="fill:#000000;fill-opacity:1" />
        <path
           style="fill:#000000;fill-opacity:1;filter:url(#filter928)"
           inkscape:connector-curvature="0"
           id="path1042"
           d="m 30.496701,159.21 1.31,0.92 -0.21,4.13 -1.63,0.89 0.28,-5.39 a 0.89,0.89 0 0 1 0.13,-0.28 0.92,0.92 0 0 0 0.12,-0.27 z m 1.1,5.35 h 4.62 l 0.59,0.73 0.57,0.73 a 0.26,0.26 0 0 1 0.08,0.12 c 0,0.06 -0.06,0.09 -0.17,0.09 h -6.79 a 2.49,2.49 0 0 0 -0.19,-0.23 l -0.18,-0.23 c -0.08,-0.09 -0.12,-0.15 -0.12,-0.2 v 0 z m -1,-11.07 1.52,1 -0.21,3.51 -1.4,0.83 -0.2,-0.43 z m 1.29,-1.12 6.36,0.09 -1.61,1.59 h -4.53 l -1.42,-0.88 z m 0.3,5.85 h 4.13 l 1.15,0.9 -1.13,0.78 h -4.4 c -0.14,-0.13 -0.35,-0.29 -0.62,-0.49 l -0.54,-0.41 z m 5.37,1.1 0.61,0.67 -0.34,5.1 -0.32,0.47 -1.17,-1.41 0.21,-4 z m 0.89,-6.63 a 1.26,1.26 0 0 1 0.09,0.28 c 0,0.58 -0.07,1.44 -0.14,2.59 -0.07,1.15 -0.11,2 -0.15,2.6 l -0.62,0.66 -1,-0.74 0.21,-3.8 z"
           class="cls-3" />
        <path
           style="fill:#000000;fill-opacity:1;filter:url(#filter928)"
           inkscape:connector-curvature="0"
           id="path1044"
           d="m 42.866701,159.21 1.31,0.92 -0.21,4.13 -1.64,0.89 0.29,-5.39 a 1.07,1.07 0 0 1 0.12,-0.28 1.52,1.52 0 0 0 0.13,-0.27 z m 1.1,5.35 h 4.62 l 0.59,0.73 0.56,0.73 a 0.23,0.23 0 0 1 0.09,0.12 q 0,0.09 -0.18,0.09 h -6.82 l -0.19,-0.23 a 1.22,1.22 0 0 1 -0.18,-0.23 c -0.08,-0.09 -0.13,-0.15 -0.13,-0.2 v 0 z m -1,-11.07 1.52,1 -0.21,3.51 -1.4,0.83 -0.2,-0.43 z m 1.29,-1.12 6.36,0.09 -1.61,1.59 h -4.51 l -1.42,-0.88 z m 0.3,5.85 h 4.13 l 1.15,0.9 -1.13,0.78 h -4.41 a 6.78,6.78 0 0 0 -0.63,-0.49 l -0.54,-0.41 z m 5.37,1.1 0.6,0.67 -0.33,5.1 -0.32,0.47 -1.17,-1.41 0.21,-4 z m 0.89,-6.63 a 1,1 0 0 1 0.08,0.28 c 0,0.58 -0.06,1.44 -0.13,2.59 -0.07,1.15 -0.11,2 -0.15,2.6 l -0.62,0.66 -1,-0.74 0.21,-3.8 z"
           class="cls-3" />
        <path
           id="rect1048"
           style="display:inline;fill:#000000;fill-opacity:1;stroke-width:0.721132"
           d="m 28.893573,150.24915 h 23.141502 c 1.060451,0 1.914171,0.50424 1.914171,1.1306 v 7.91581 c 0,0.62636 -0.85372,1.1306 -1.914171,1.1306 H 28.893573 c -1.060451,0 -1.914172,-0.50424 -1.914172,-1.1306 v -7.91581 c 0,-0.62636 0.853721,-1.1306 1.914172,-1.1306 z"
           class="cls-1" />
      </g>
      <g
         id="g901"
         transform="matrix(0.24021156,0,0,0.13543131,20.76165,150.17296)"
         style="fill:#000000;fill-opacity:1;filter:url(#filter928)">
        <g
           id="g889"
           transform="translate(-0.9)"
           style="fill:#000000;fill-opacity:1" />
        <path
           id="path891"
           style="fill:#000000;fill-opacity:1"
           d="M 27.786701,149.52 H 53.3467 c 1.13016,0 2.04,0.90984 2.04,2.04 v 15.49 c 0,1.13016 -0.90984,2.04 -2.04,2.04 H 27.786701 c -1.13016,0 -2.04,-0.90984 -2.04,-2.04 v -15.49 c 0,-1.13016 0.90984,-2.04 2.04,-2.04 z"
           class="cls-1" />
        <path
           class="cls-2"
           d="m 53.396701,150.27 a 1.29,1.29 0 0 1 1.29,1.29 v 15.48 a 1.3,1.3 0 0 1 -1.29,1.3 h -25.6 a 1.3,1.3 0 0 1 -1.3,-1.3 v -15.48 a 1.3,1.3 0 0 1 1.3,-1.29 h 25.6 m 0,-1.5 h -25.6 a 2.81,2.81 0 0 0 -2.8,2.79 v 15.48 a 2.81,2.81 0 0 0 2.8,2.8 h 25.6 a 2.81,2.81 0 0 0 2.79,-2.8 v -15.48 a 2.8,2.8 0 0 0 -2.79,-2.79 z"
           id="path893"
           inkscape:connector-curvature="0"
           style="fill:#000000;fill-opacity:1" />
        <path
           style="fill:#000000;fill-opacity:1;filter:url(#filter928)"
           inkscape:connector-curvature="0"
           id="path895"
           d="m 30.496701,159.21 1.31,0.92 -0.21,4.13 -1.63,0.89 0.28,-5.39 a 0.89,0.89 0 0 1 0.13,-0.28 0.92,0.92 0 0 0 0.12,-0.27 z m 1.1,5.35 h 4.62 l 0.59,0.73 0.57,0.73 a 0.26,0.26 0 0 1 0.08,0.12 c 0,0.06 -0.06,0.09 -0.17,0.09 h -6.79 a 2.49,2.49 0 0 0 -0.19,-0.23 l -0.18,-0.23 c -0.08,-0.09 -0.12,-0.15 -0.12,-0.2 v 0 z m -1,-11.07 1.52,1 -0.21,3.51 -1.4,0.83 -0.2,-0.43 z m 1.29,-1.12 6.36,0.09 -1.61,1.59 h -4.53 l -1.42,-0.88 z m 0.3,5.85 h 4.13 l 1.15,0.9 -1.13,0.78 h -4.4 c -0.14,-0.13 -0.35,-0.29 -0.62,-0.49 l -0.54,-0.41 z m 5.37,1.1 0.61,0.67 -0.34,5.1 -0.32,0.47 -1.17,-1.41 0.21,-4 z m 0.89,-6.63 a 1.26,1.26 0 0 1 0.09,0.28 c 0,0.58 -0.07,1.44 -0.14,2.59 -0.07,1.15 -0.11,2 -0.15,2.6 l -0.62,0.66 -1,-0.74 0.21,-3.8 z"
           class="cls-3" />
        <path
           style="fill:#000000;fill-opacity:1;filter:url(#filter928)"
           inkscape:connector-curvature="0"
           id="path897"
           d="m 42.866701,159.21 1.31,0.92 -0.21,4.13 -1.64,0.89 0.29,-5.39 a 1.07,1.07 0 0 1 0.12,-0.28 1.52,1.52 0 0 0 0.13,-0.27 z m 1.1,5.35 h 4.62 l 0.59,0.73 0.56,0.73 a 0.23,0.23 0 0 1 0.09,0.12 q 0,0.09 -0.18,0.09 h -6.82 l -0.19,-0.23 a 1.22,1.22 0 0 1 -0.18,-0.23 c -0.08,-0.09 -0.13,-0.15 -0.13,-0.2 v 0 z m -1,-11.07 1.52,1 -0.21,3.51 -1.4,0.83 -0.2,-0.43 z m 1.29,-1.12 6.36,0.09 -1.61,1.59 h -4.51 l -1.42,-0.88 z m 0.3,5.85 h 4.13 l 1.15,0.9 -1.13,0.78 h -4.41 a 6.78,6.78 0 0 0 -0.63,-0.49 l -0.54,-0.41 z m 5.37,1.1 0.6,0.67 -0.33,5.1 -0.32,0.47 -1.17,-1.41 0.21,-4 z m 0.89,-6.63 a 1,1 0 0 1 0.08,0.28 c 0,0.58 -0.06,1.44 -0.13,2.59 -0.07,1.15 -0.11,2 -0.15,2.6 l -0.62,0.66 -1,-0.74 0.21,-3.8 z"
           class="cls-3" />
        <path
           id="path899"
           style="display:inline;fill:#000000;fill-opacity:1;stroke-width:0.721132"
           d="m 28.893573,150.24915 h 23.141502 c 1.060451,0 1.914171,0.50424 1.914171,1.1306 v 7.91581 c 0,0.62636 -0.85372,1.1306 -1.914171,1.1306 H 28.893573 c -1.060451,0 -1.914172,-0.50424 -1.914172,-1.1306 v -7.91581 c 0,-0.62636 0.853721,-1.1306 1.914172,-1.1306 z"
           class="cls-1" />
      </g>
      <g
         id="g915"
         transform="matrix(0.23932706,0,0,0.1353085,20.797555,195.98626)"
         style="fill:#000000;fill-opacity:1;filter:url(#filter928)">
        <g
           id="g903"
           transform="translate(-0.9)"
           style="fill:#000000;fill-opacity:1" />
        <path
           id="path905"
           style="fill:#000000;fill-opacity:1"
           d="M 27.786701,149.52 H 53.3467 c 1.13016,0 2.04,0.90984 2.04,2.04 v 15.49 c 0,1.13016 -0.90984,2.04 -2.04,2.04 H 27.786701 c -1.13016,0 -2.04,-0.90984 -2.04,-2.04 v -15.49 c 0,-1.13016 0.90984,-2.04 2.04,-2.04 z"
           class="cls-1" />
        <path
           class="cls-2"
           d="m 53.396701,150.27 a 1.29,1.29 0 0 1 1.29,1.29 v 15.48 a 1.3,1.3 0 0 1 -1.29,1.3 h -25.6 a 1.3,1.3 0 0 1 -1.3,-1.3 v -15.48 a 1.3,1.3 0 0 1 1.3,-1.29 h 25.6 m 0,-1.5 h -25.6 a 2.81,2.81 0 0 0 -2.8,2.79 v 15.48 a 2.81,2.81 0 0 0 2.8,2.8 h 25.6 a 2.81,2.81 0 0 0 2.79,-2.8 v -15.48 a 2.8,2.8 0 0 0 -2.79,-2.79 z"
           id="path907"
           inkscape:connector-curvature="0"
           style="fill:#000000;fill-opacity:1" />
        <path
           style="fill:#000000;fill-opacity:1;filter:url(#filter928)"
           inkscape:connector-curvature="0"
           id="path909"
           d="m 30.496701,159.21 1.31,0.92 -0.21,4.13 -1.63,0.89 0.28,-5.39 a 0.89,0.89 0 0 1 0.13,-0.28 0.92,0.92 0 0 0 0.12,-0.27 z m 1.1,5.35 h 4.62 l 0.59,0.73 0.57,0.73 a 0.26,0.26 0 0 1 0.08,0.12 c 0,0.06 -0.06,0.09 -0.17,0.09 h -6.79 a 2.49,2.49 0 0 0 -0.19,-0.23 l -0.18,-0.23 c -0.08,-0.09 -0.12,-0.15 -0.12,-0.2 v 0 z m -1,-11.07 1.52,1 -0.21,3.51 -1.4,0.83 -0.2,-0.43 z m 1.29,-1.12 6.36,0.09 -1.61,1.59 h -4.53 l -1.42,-0.88 z m 0.3,5.85 h 4.13 l 1.15,0.9 -1.13,0.78 h -4.4 c -0.14,-0.13 -0.35,-0.29 -0.62,-0.49 l -0.54,-0.41 z m 5.37,1.1 0.61,0.67 -0.34,5.1 -0.32,0.47 -1.17,-1.41 0.21,-4 z m 0.89,-6.63 a 1.26,1.26 0 0 1 0.09,0.28 c 0,0.58 -0.07,1.44 -0.14,2.59 -0.07,1.15 -0.11,2 -0.15,2.6 l -0.62,0.66 -1,-0.74 0.21,-3.8 z"
           class="cls-3" />
        <path
           style="fill:#000000;fill-opacity:1;filter:url(#filter928)"
           inkscape:connector-curvature="0"
           id="path911"
           d="m 42.866701,159.21 1.31,0.92 -0.21,4.13 -1.64,0.89 0.29,-5.39 a 1.07,1.07 0 0 1 0.12,-0.28 1.52,1.52 0 0 0 0.13,-0.27 z m 1.1,5.35 h 4.62 l 0.59,0.73 0.56,0.73 a 0.23,0.23 0 0 1 0.09,0.12 q 0,0.09 -0.18,0.09 h -6.82 l -0.19,-0.23 a 1.22,1.22 0 0 1 -0.18,-0.23 c -0.08,-0.09 -0.13,-0.15 -0.13,-0.2 v 0 z m -1,-11.07 1.52,1 -0.21,3.51 -1.4,0.83 -0.2,-0.43 z m 1.29,-1.12 6.36,0.09 -1.61,1.59 h -4.51 l -1.42,-0.88 z m 0.3,5.85 h 4.13 l 1.15,0.9 -1.13,0.78 h -4.41 a 6.78,6.78 0 0 0 -0.63,-0.49 l -0.54,-0.41 z m 5.37,1.1 0.6,0.67 -0.33,5.1 -0.32,0.47 -1.17,-1.41 0.21,-4 z m 0.89,-6.63 a 1,1 0 0 1 0.08,0.28 c 0,0.58 -0.06,1.44 -0.13,2.59 -0.07,1.15 -0.11,2 -0.15,2.6 l -0.62,0.66 -1,-0.74 0.21,-3.8 z"
           class="cls-3" />
        <path
           id="path913"
           style="display:inline;fill:#000000;fill-opacity:1;stroke-width:0.721132"
           d="m 28.893573,150.24915 h 23.141502 c 1.060451,0 1.914171,0.50424 1.914171,1.1306 v 7.91581 c 0,0.62636 -0.85372,1.1306 -1.914171,1.1306 H 28.893573 c -1.060451,0 -1.914172,-0.50424 -1.914172,-1.1306 v -7.91581 c 0,-0.62636 0.853721,-1.1306 1.914172,-1.1306 z"
           class="cls-1" />
      </g>
      <g
         id="g929"
         transform="matrix(0.24019025,0,0,0.13545411,20.762515,191.38627)"
         style="fill:#000000;fill-opacity:1;filter:url(#filter928)">
        <g
           id="g917"
           transform="translate(-0.9)"
           style="fill:#000000;fill-opacity:1" />
        <path
           id="path919"
           style="fill:#000000;fill-opacity:1"
           d="M 27.786701,149.52 H 53.3467 c 1.13016,0 2.04,0.90984 2.04,2.04 v 15.49 c 0,1.13016 -0.90984,2.04 -2.04,2.04 H 27.786701 c -1.13016,0 -2.04,-0.90984 -2.04,-2.04 v -15.49 c 0,-1.13016 0.90984,-2.04 2.04,-2.04 z"
           class="cls-1" />
        <path
           class="cls-2"
           d="m 53.396701,150.27 a 1.29,1.29 0 0 1 1.29,1.29 v 15.48 a 1.3,1.3 0 0 1 -1.29,1.3 h -25.6 a 1.3,1.3 0 0 1 -1.3,-1.3 v -15.48 a 1.3,1.3 0 0 1 1.3,-1.29 h 25.6 m 0,-1.5 h -25.6 a 2.81,2.81 0 0 0 -2.8,2.79 v 15.48 a 2.81,2.81 0 0 0 2.8,2.8 h 25.6 a 2.81,2.81 0 0 0 2.79,-2.8 v -15.48 a 2.8,2.8 0 0 0 -2.79,-2.79 z"
           id="path921"
           inkscape:connector-curvature="0"
           style="fill:#000000;fill-opacity:1" />
        <path
           style="fill:#000000;fill-opacity:1;filter:url(#filter928)"
           inkscape:connector-curvature="0"
           id="path923"
           d="m 30.496701,159.21 1.31,0.92 -0.21,4.13 -1.63,0.89 0.28,-5.39 a 0.89,0.89 0 0 1 0.13,-0.28 0.92,0.92 0 0 0 0.12,-0.27 z m 1.1,5.35 h 4.62 l 0.59,0.73 0.57,0.73 a 0.26,0.26 0 0 1 0.08,0.12 c 0,0.06 -0.06,0.09 -0.17,0.09 h -6.79 a 2.49,2.49 0 0 0 -0.19,-0.23 l -0.18,-0.23 c -0.08,-0.09 -0.12,-0.15 -0.12,-0.2 v 0 z m -1,-11.07 1.52,1 -0.21,3.51 -1.4,0.83 -0.2,-0.43 z m 1.29,-1.12 6.36,0.09 -1.61,1.59 h -4.53 l -1.42,-0.88 z m 0.3,5.85 h 4.13 l 1.15,0.9 -1.13,0.78 h -4.4 c -0.14,-0.13 -0.35,-0.29 -0.62,-0.49 l -0.54,-0.41 z m 5.37,1.1 0.61,0.67 -0.34,5.1 -0.32,0.47 -1.17,-1.41 0.21,-4 z m 0.89,-6.63 a 1.26,1.26 0 0 1 0.09,0.28 c 0,0.58 -0.07,1.44 -0.14,2.59 -0.07,1.15 -0.11,2 -0.15,2.6 l -0.62,0.66 -1,-0.74 0.21,-3.8 z"
           class="cls-3" />
        <path
           style="fill:#000000;fill-opacity:1;filter:url(#filter928)"
           inkscape:connector-curvature="0"
           id="path925"
           d="m 42.866701,159.21 1.31,0.92 -0.21,4.13 -1.64,0.89 0.29,-5.39 a 1.07,1.07 0 0 1 0.12,-0.28 1.52,1.52 0 0 0 0.13,-0.27 z m 1.1,5.35 h 4.62 l 0.59,0.73 0.56,0.73 a 0.23,0.23 0 0 1 0.09,0.12 q 0,0.09 -0.18,0.09 h -6.82 l -0.19,-0.23 a 1.22,1.22 0 0 1 -0.18,-0.23 c -0.08,-0.09 -0.13,-0.15 -0.13,-0.2 v 0 z m -1,-11.07 1.52,1 -0.21,3.51 -1.4,0.83 -0.2,-0.43 z m 1.29,-1.12 6.36,0.09 -1.61,1.59 h -4.51 l -1.42,-0.88 z m 0.3,5.85 h 4.13 l 1.15,0.9 -1.13,0.78 h -4.41 a 6.78,6.78 0 0 0 -0.63,-0.49 l -0.54,-0.41 z m 5.37,1.1 0.6,0.67 -0.33,5.1 -0.32,0.47 -1.17,-1.41 0.21,-4 z m 0.89,-6.63 a 1,1 0 0 1 0.08,0.28 c 0,0.58 -0.06,1.44 -0.13,2.59 -0.07,1.15 -0.11,2 -0.15,2.6 l -0.62,0.66 -1,-0.74 0.21,-3.8 z"
           class="cls-3" />
        <path
           id="path927"
           style="display:inline;fill:#000000;fill-opacity:1;stroke-width:0.721132"
           d="m 28.893573,150.24915 h 23.141502 c 1.060451,0 1.914171,0.50424 1.914171,1.1306 v 7.91581 c 0,0.62636 -0.85372,1.1306 -1.914171,1.1306 H 28.893573 c -1.060451,0 -1.914172,-0.50424 -1.914172,-1.1306 v -7.91581 c 0,-0.62636 0.853721,-1.1306 1.914172,-1.1306 z"
           class="cls-1" />
      </g>
    </g>
    <g
       aria-label="1 2 3 4 5 6 7 8 9 10 11 12 13 14 15 16"
       id="text885"
       style="font-size:1.41111px;line-height:5.55625px;font-family:'DIN Alternate Light';-inkscape-font-specification:'DIN Alternate Light, ';text-align:end;text-anchor:end;stroke-width:0.264583"
       transform="translate(-6.3499993)">
      <path
         d="m 27.535684,167.70547 h -0.07166 v -0.76067 l -0.18259,0.16123 v -0.0861 l 0.18259,-0.15709 h 0.07166 z"
         style="text-align:end;text-anchor:end;stroke-width:0.264583"
         id="path959" />
      <path
         d="M 27.627324,173.26173 H 27.06853 v -0.0634 l 0.363802,-0.3645 q 0.09508,-0.0951 0.09508,-0.20119 0,-0.0503 -0.0248,-0.093 -0.02481,-0.0434 -0.06821,-0.0682 -0.04341,-0.0255 -0.09922,-0.0255 -0.05374,0 -0.09784,0.0241 -0.04341,0.0241 -0.0689,0.0675 -0.02549,0.0427 -0.02549,0.0965 h -0.07166 q 0,-0.0524 0.01929,-0.0978 0.01929,-0.0455 0.05512,-0.0806 0.03652,-0.0351 0.08475,-0.0537 0.04892,-0.0193 0.104731,-0.0193 0.06063,0 0.108865,0.0193 0.04823,0.0193 0.08337,0.0544 0.03514,0.0345 0.05306,0.0792 0.0186,0.0441 0.0186,0.0971 0,0.0482 -0.01447,0.0909 -0.01378,0.042 -0.0379,0.0779 -0.02412,0.0358 -0.06063,0.0724 l -0.324528,0.32453 h 0.465777 z"
         style="text-align:end;text-anchor:end;stroke-width:0.264583"
         id="path961" />
      <path
         d="m 27.614922,178.71324 q 0,0.0868 -0.03721,0.15021 -0.03652,0.0634 -0.101975,0.0958 -0.06546,0.0324 -0.145383,0.0324 -0.123334,0 -0.201883,-0.0648 -0.07786,-0.0641 -0.08475,-0.18948 h 0.07166 q 0.0076,0.0971 0.06821,0.144 0.06132,0.0469 0.146761,0.0469 0.09233,0 0.152273,-0.0586 0.06063,-0.0586 0.06063,-0.15641 0,-0.0689 -0.02343,-0.11644 -0.02274,-0.0475 -0.07166,-0.0724 -0.04892,-0.0255 -0.124023,-0.0255 h -0.01654 v -0.0634 h 0.01654 q 0.06546,0 0.110243,-0.0234 0.04479,-0.0234 0.06684,-0.0682 0.02205,-0.0448 0.02205,-0.11024 0,-0.0965 -0.05512,-0.14952 -0.05512,-0.0537 -0.139182,-0.0537 -0.08751,0 -0.139182,0.0496 -0.05168,0.0489 -0.06132,0.13367 h -0.07235 q 0.01102,-0.11507 0.08613,-0.18053 0.07579,-0.0661 0.186724,-0.0661 0.07786,0 0.138493,0.0331 0.06063,0.0331 0.09439,0.0937 0.03376,0.0599 0.03376,0.13987 0,0.082 -0.03514,0.13987 -0.03514,0.0579 -0.107487,0.0889 0.16192,0.0551 0.16192,0.2508 z"
         style="text-align:end;text-anchor:end;stroke-width:0.264583"
         id="path963" />
      <path
         d="m 27.648684,184.3322 h -0.13367 v 0.21566 h -0.07235 V 184.3322 H 27.01685 v -0.0641 l 0.383784,-0.77584 h 0.07441 l -0.383784,0.77584 h 0.3514 v -0.31833 h 0.07235 v 0.31833 h 0.13367 z"
         style="text-align:end;text-anchor:end;stroke-width:0.264583"
         id="path965" />
      <path
         d="m 27.609409,189.76373 q 0,0.0909 -0.01447,0.15503 -0.01447,0.0634 -0.06339,0.11162 -0.07097,0.0724 -0.192925,0.0724 -0.127468,0 -0.193614,-0.0675 -0.05926,-0.0606 -0.06752,-0.16399 h 0.07166 q 0.01171,0.0834 0.05788,0.1254 0.04616,0.0427 0.131602,0.0427 0.08682,0 0.137804,-0.051 0.03859,-0.0386 0.04961,-0.0937 0.01171,-0.0558 0.01171,-0.13092 0,-0.1192 -0.03859,-0.19361 -0.03858,-0.0744 -0.149517,-0.0744 -0.06959,0 -0.117822,0.0276 -0.04754,0.0269 -0.06408,0.0785 h -0.06339 v -0.514 h 0.482313 v 0.0641 h -0.418923 v 0.35554 q 0.06408,-0.0751 0.190169,-0.0751 0.108865,0 0.169498,0.0606 0.04754,0.0469 0.06477,0.11575 0.01722,0.0689 0.01722,0.15503 z"
         style="text-align:end;text-anchor:end;stroke-width:0.264583"
         id="path967" />
      <path
         d="m 27.627324,195.17736 q 0,0.0868 -0.03445,0.15985 -0.03376,0.073 -0.09922,0.11575 -0.06477,0.042 -0.15434,0.042 -0.08957,0 -0.155029,-0.0386 -0.06546,-0.0393 -0.09991,-0.10887 -0.03376,-0.0696 -0.03376,-0.15847 0,-0.11576 0.06477,-0.22875 l 0.285254,-0.50092 h 0.07441 l -0.258382,0.44304 q 0.03032,-0.0159 0.05994,-0.0227 0.03032,-0.007 0.0689,-0.007 0.08682,0 0.150895,0.04 0.06408,0.04 0.09715,0.10956 0.03376,0.0689 0.03376,0.15503 z m -0.07166,0.008 q 0,-0.0675 -0.0248,-0.12472 -0.0248,-0.0579 -0.07441,-0.0923 -0.04892,-0.0345 -0.118511,-0.0345 -0.04823,0 -0.08819,0.0179 -0.03996,0.0172 -0.0689,0.051 -0.02894,0.0331 -0.0441,0.0806 -0.01447,0.0475 -0.01447,0.10198 0,0.0544 0.01447,0.10059 0.01516,0.0462 0.0441,0.0799 0.02894,0.0338 0.0689,0.0517 0.03996,0.0172 0.08819,0.0172 0.06477,0 0.114377,-0.031 0.0503,-0.031 0.07648,-0.0882 0.02687,-0.0572 0.02687,-0.13022 z"
         style="text-align:end;text-anchor:end;stroke-width:0.264583"
         id="path969" />
      <path
         d="m 27.656263,200.26438 -0.423747,0.95498 h -0.07441 l 0.423058,-0.95498 h -0.42168 v 0.15779 h -0.07235 v -0.22186 h 0.56913 z"
         style="text-align:end;text-anchor:end;stroke-width:0.264583"
         id="path971" />
      <path
         d="m 27.620434,206.32844 q 0,0.0786 -0.0379,0.14263 -0.0379,0.0641 -0.103353,0.1006 -0.06477,0.0358 -0.144694,0.0358 -0.08061,0 -0.146072,-0.0358 -0.06477,-0.0365 -0.102664,-0.1006 -0.0379,-0.0641 -0.0379,-0.14263 0,-0.0841 0.04203,-0.14745 0.04272,-0.0641 0.117134,-0.10404 -0.137804,-0.0737 -0.137804,-0.22875 0,-0.0551 0.0186,-0.10267 0.01929,-0.0482 0.05443,-0.0834 0.03583,-0.0358 0.08475,-0.0558 0.04961,-0.02 0.107487,-0.02 0.05926,0 0.107487,0.02 0.04823,0.0193 0.08406,0.0551 0.03583,0.0358 0.05443,0.0841 0.01929,0.0475 0.01929,0.10267 0,0.15571 -0.137115,0.22875 0.04892,0.0269 0.08406,0.0634 0.03583,0.0365 0.05443,0.0841 0.01929,0.0475 0.01929,0.10404 z m -0.09302,-0.48024 q 0,-0.0558 -0.02411,-0.10129 -0.02412,-0.0462 -0.06821,-0.0717 -0.04341,-0.0255 -0.100597,-0.0255 -0.05719,0 -0.100597,0.0255 -0.04341,0.0248 -0.06821,0.071 -0.0248,0.0455 -0.0248,0.10198 0,0.0572 0.02412,0.10266 0.0248,0.0455 0.06821,0.071 0.0441,0.0255 0.101286,0.0255 0.05719,0 0.100597,-0.0255 0.0441,-0.0255 0.06821,-0.071 0.02411,-0.0462 0.02411,-0.10266 z m 0.02136,0.48024 q 0,-0.0469 -0.01585,-0.0854 -0.01585,-0.0393 -0.0441,-0.0682 -0.02825,-0.0296 -0.06821,-0.0469 -0.03927,-0.0172 -0.08613,-0.0172 -0.09164,0 -0.153651,0.0634 -0.06132,0.0627 -0.06132,0.15434 0,0.0916 0.06201,0.15365 0.06201,0.062 0.152962,0.062 0.05857,0 0.108176,-0.0282 0.04961,-0.0282 0.07786,-0.0779 0.02825,-0.0503 0.02825,-0.10956 z"
         style="text-align:end;text-anchor:end;stroke-width:0.264583"
         id="path973" />
      <path
         d="m 27.627324,211.61046 q 0,0.0372 -0.0076,0.0758 -0.0069,0.0386 -0.02067,0.0765 -0.01378,0.0372 -0.03652,0.0765 l -0.285254,0.50091 h -0.07441 l 0.258382,-0.44304 q -0.03445,0.0165 -0.06477,0.0234 -0.02963,0.006 -0.06408,0.006 -0.08682,0 -0.150895,-0.04 -0.06408,-0.04 -0.09784,-0.10818 -0.03307,-0.0689 -0.03307,-0.1564 0,-0.0641 0.0186,-0.12196 0.01929,-0.0579 0.0565,-0.10198 0.0379,-0.0448 0.09164,-0.0689 0.05374,-0.0248 0.120578,-0.0248 0.09026,0 0.155718,0.0393 0.06546,0.0386 0.09922,0.10818 0.03445,0.0696 0.03445,0.15847 z m -0.07166,0.005 q 0,-0.0744 -0.02618,-0.13092 -0.02618,-0.0565 -0.07579,-0.0875 -0.04892,-0.0317 -0.114377,-0.0317 -0.04961,0 -0.08957,0.0179 -0.03927,0.0172 -0.06821,0.051 -0.02894,0.0331 -0.0441,0.0799 -0.01516,0.0468 -0.01516,0.10129 0,0.10473 0.05719,0.17776 0.05719,0.073 0.159852,0.073 0.06477,0 0.113688,-0.031 0.04961,-0.031 0.07579,-0.0875 0.02687,-0.0572 0.02687,-0.13229 z"
         style="text-align:end;text-anchor:end;stroke-width:0.264583"
         id="path975" />
      <path
         d="m 26.810148,217.71173 h -0.07166 v -0.76068 l -0.18259,0.16123 v -0.0861 l 0.18259,-0.15709 h 0.07166 z"
         style="text-align:end;text-anchor:end;stroke-width:0.264583"
         id="path977" />
      <path
         d="m 27.605964,217.45197 q 0,0.0785 -0.03376,0.13918 -0.03307,0.0599 -0.09371,0.0944 -0.06063,0.0344 -0.136426,0.0344 -0.07579,0 -0.136425,-0.0344 -0.06063,-0.0344 -0.0944,-0.0944 -0.03307,-0.0606 -0.03307,-0.13918 v -0.32315 q 0,-0.0579 0.01929,-0.10749 0.01998,-0.0496 0.05443,-0.0854 0.03514,-0.0365 0.08337,-0.0558 0.04892,-0.0193 0.106798,-0.0193 0.07579,0 0.136426,0.0344 0.06063,0.0344 0.09371,0.0951 0.03376,0.06 0.03376,0.1385 z m -0.07166,-0.007 v -0.30937 q 0,-0.093 -0.05099,-0.15228 -0.0503,-0.0592 -0.141249,-0.0592 -0.09026,0 -0.141249,0.0592 -0.0503,0.0593 -0.0503,0.15228 v 0.30937 q 0,0.093 0.0503,0.15227 0.05099,0.0592 0.141249,0.0592 0.09095,0 0.141249,-0.0592 0.05099,-0.0593 0.05099,-0.15227 z"
         style="text-align:end;text-anchor:end;stroke-width:0.264583"
         id="path979" />
      <path
         d="M 27.041658,223.26798 H 26.97 v -0.76068 l -0.18259,0.16123 v -0.0861 L 26.97,222.42531 h 0.07166 z"
         style="text-align:end;text-anchor:end;stroke-width:0.264583"
         id="path981" />
      <path
         d="m 27.535684,223.26798 h -0.07166 v -0.76068 l -0.18259,0.16123 v -0.0861 l 0.18259,-0.15709 h 0.07166 z"
         style="text-align:end;text-anchor:end;stroke-width:0.264583"
         id="path983" />
      <path
         d="m 26.842532,228.82423 h -0.07166 v -0.76068 l -0.18259,0.16123 v -0.0861 l 0.18259,-0.15709 h 0.07166 z"
         style="text-align:end;text-anchor:end;stroke-width:0.264583"
         id="path985" />
      <path
         d="M 27.627324,228.82423 H 27.06853 v -0.0634 l 0.363802,-0.36449 q 0.09508,-0.0951 0.09508,-0.2012 0,-0.0503 -0.0248,-0.093 -0.02481,-0.0434 -0.06821,-0.0682 -0.04341,-0.0255 -0.09922,-0.0255 -0.05374,0 -0.09784,0.0241 -0.04341,0.0241 -0.0689,0.0675 -0.02549,0.0427 -0.02549,0.0965 h -0.07166 q 0,-0.0524 0.01929,-0.0978 0.01929,-0.0455 0.05512,-0.0806 0.03652,-0.0351 0.08475,-0.0537 0.04892,-0.0193 0.104731,-0.0193 0.06063,0 0.108865,0.0193 0.04823,0.0193 0.08337,0.0544 0.03514,0.0345 0.05306,0.0792 0.0186,0.0441 0.0186,0.0971 0,0.0482 -0.01447,0.0909 -0.01378,0.042 -0.0379,0.0779 -0.02412,0.0358 -0.06063,0.0724 l -0.324528,0.32453 h 0.465777 z"
         style="text-align:end;text-anchor:end;stroke-width:0.264583"
         id="path987" />
      <path
         d="m 26.817727,234.38048 h -0.07166 v -0.76068 l -0.18259,0.16123 v -0.0861 l 0.18259,-0.15709 h 0.07166 z"
         style="text-align:end;text-anchor:end;stroke-width:0.264583"
         id="path989" />
      <path
         d="m 27.614922,234.27575 q 0,0.0868 -0.03721,0.1502 -0.03652,0.0634 -0.101975,0.0958 -0.06546,0.0324 -0.145383,0.0324 -0.123334,0 -0.201883,-0.0648 -0.07786,-0.0641 -0.08475,-0.18948 h 0.07166 q 0.0076,0.0971 0.06821,0.14401 0.06132,0.0469 0.146761,0.0469 0.09233,0 0.152273,-0.0586 0.06063,-0.0586 0.06063,-0.1564 0,-0.0689 -0.02343,-0.11645 -0.02274,-0.0475 -0.07166,-0.0724 -0.04892,-0.0255 -0.124023,-0.0255 h -0.01654 v -0.0634 h 0.01654 q 0.06546,0 0.110243,-0.0234 0.04479,-0.0234 0.06684,-0.0682 0.02205,-0.0448 0.02205,-0.11024 0,-0.0965 -0.05512,-0.14952 -0.05512,-0.0537 -0.139182,-0.0537 -0.08751,0 -0.139182,0.0496 -0.05168,0.0489 -0.06132,0.13367 h -0.07235 q 0.01102,-0.11507 0.08613,-0.18053 0.07579,-0.0661 0.186724,-0.0661 0.07786,0 0.138493,0.0331 0.06063,0.0331 0.09439,0.0937 0.03376,0.0599 0.03376,0.13987 0,0.082 -0.03514,0.13987 -0.03514,0.0579 -0.107487,0.0889 0.16192,0.0551 0.16192,0.25081 z"
         style="text-align:end;text-anchor:end;stroke-width:0.264583"
         id="path991" />
      <path
         d="m 26.797746,239.93673 h -0.07166 v -0.76068 l -0.18259,0.16123 v -0.0861 l 0.18259,-0.15709 h 0.07166 z"
         style="text-align:end;text-anchor:end;stroke-width:0.264583"
         id="path993" />
      <path
         d="m 27.648684,239.8947 h -0.13367 v 0.21566 h -0.07235 V 239.8947 H 27.01685 v -0.0641 l 0.383784,-0.77584 h 0.07441 l -0.383784,0.77584 h 0.3514 v -0.31833 h 0.07235 v 0.31833 h 0.13367 z"
         style="text-align:end;text-anchor:end;stroke-width:0.264583"
         id="path995" />
      <path
         d="m 26.823239,245.49298 h -0.07166 v -0.76068 l -0.18259,0.16123 v -0.0861 l 0.18259,-0.15709 h 0.07166 z"
         style="text-align:end;text-anchor:end;stroke-width:0.264583"
         id="path997" />
      <path
         d="m 27.609409,245.32623 q 0,0.091 -0.01447,0.15503 -0.01447,0.0634 -0.06339,0.11162 -0.07097,0.0724 -0.192925,0.0724 -0.127468,0 -0.193614,-0.0675 -0.05926,-0.0606 -0.06752,-0.16399 h 0.07166 q 0.01171,0.0834 0.05788,0.1254 0.04616,0.0427 0.131602,0.0427 0.08682,0 0.137804,-0.051 0.03859,-0.0386 0.04961,-0.0937 0.01171,-0.0558 0.01171,-0.13092 0,-0.1192 -0.03859,-0.19361 -0.03858,-0.0744 -0.149517,-0.0744 -0.06959,0 -0.117822,0.0276 -0.04754,0.0269 -0.06408,0.0786 h -0.06339 v -0.51401 h 0.482313 v 0.0641 h -0.418923 v 0.35553 q 0.06408,-0.0751 0.190169,-0.0751 0.108865,0 0.169498,0.0606 0.04754,0.0469 0.06477,0.11576 0.01722,0.0689 0.01722,0.15502 z"
         style="text-align:end;text-anchor:end;stroke-width:0.264583"
         id="path999" />
      <path
         d="M 26.803258,251.04923 H 26.7316 v -0.76068 l -0.18259,0.16123 v -0.0861 l 0.18259,-0.15709 h 0.07166 z"
         style="text-align:end;text-anchor:end;stroke-width:0.264583"
         id="path1001" />
      <path
         d="m 27.627324,250.73986 q 0,0.0868 -0.03445,0.15985 -0.03376,0.073 -0.09922,0.11576 -0.06477,0.042 -0.15434,0.042 -0.08957,0 -0.155029,-0.0386 -0.06546,-0.0393 -0.09991,-0.10886 -0.03376,-0.0696 -0.03376,-0.15848 0,-0.11575 0.06477,-0.22875 l 0.285254,-0.50092 h 0.07441 l -0.258382,0.44304 q 0.03032,-0.0159 0.05994,-0.0227 0.03032,-0.007 0.0689,-0.007 0.08682,0 0.150895,0.04 0.06408,0.04 0.09715,0.10956 0.03376,0.0689 0.03376,0.15503 z m -0.07166,0.008 q 0,-0.0675 -0.0248,-0.12472 -0.0248,-0.0579 -0.07441,-0.0923 -0.04892,-0.0344 -0.118511,-0.0344 -0.04823,0 -0.08819,0.0179 -0.03996,0.0172 -0.0689,0.051 -0.02894,0.0331 -0.0441,0.0806 -0.01447,0.0475 -0.01447,0.10198 0,0.0544 0.01447,0.10059 0.01516,0.0462 0.0441,0.0799 0.02894,0.0338 0.0689,0.0517 0.03996,0.0172 0.08819,0.0172 0.06477,0 0.114377,-0.031 0.0503,-0.031 0.07648,-0.0882 0.02687,-0.0572 0.02687,-0.13022 z"
         style="text-align:end;text-anchor:end;stroke-width:0.264583"
         id="path1003" />
    </g>
    <text
       xml:space="preserve"
       style="font-size:1.41111px;line-height:5.02708px;font-family:'DIN Alternate Light';-inkscape-font-specification:'DIN Alternate Light, ';text-align:end;text-anchor:end;stroke-width:0.264583"
       x="16.063505"
       y="167.70547"
       id="text957"><tspan
         style="text-align:end;text-anchor:end;stroke-width:0.264583"
         sodipodi:role="line"
         x="16.063505"
         y="167.70547"
         id="tspan925">1</tspan><tspan
         sodipodi:role="line"
         x="16.063505"
         y="172.73256"
         style="text-align:end;text-anchor:end;stroke-width:0.264583"
         id="tspan927">2</tspan><tspan
         sodipodi:role="line"
         x="16.063505"
         y="177.75964"
         style="text-align:end;text-anchor:end;stroke-width:0.264583"
         id="tspan929">3</tspan><tspan
         sodipodi:role="line"
         x="16.063505"
         y="182.78673"
         style="text-align:end;text-anchor:end;stroke-width:0.264583"
         id="tspan931">4</tspan><tspan
         sodipodi:role="line"
         x="16.063505"
         y="187.81381"
         style="text-align:end;text-anchor:end;stroke-width:0.264583"
         id="tspan933">5</tspan><tspan
         sodipodi:role="line"
         x="16.063505"
         y="192.8409"
         style="text-align:end;text-anchor:end;stroke-width:0.264583"
         id="tspan935">6</tspan><tspan
         sodipodi:role="line"
         x="16.063505"
         y="197.86798"
         style="text-align:end;text-anchor:end;stroke-width:0.264583"
         id="tspan937">7</tspan><tspan
         sodipodi:role="line"
         x="16.063505"
         y="202.89505"
         style="text-align:end;text-anchor:end;stroke-width:0.264583"
         id="tspan939">8</tspan><tspan
         sodipodi:role="line"
         x="16.063505"
         y="207.92213"
         style="text-align:end;text-anchor:end;stroke-width:0.264583"
         id="tspan941">9</tspan><tspan
         sodipodi:role="line"
         x="16.063505"
         y="212.94922"
         style="text-align:end;text-anchor:end;stroke-width:0.264583"
         id="tspan943">10</tspan><tspan
         sodipodi:role="line"
         x="16.063505"
         y="217.9763"
         style="text-align:end;text-anchor:end;stroke-width:0.264583"
         id="tspan945">11</tspan><tspan
         sodipodi:role="line"
         x="16.063505"
         y="223.00339"
         style="text-align:end;text-anchor:end;stroke-width:0.264583"
         id="tspan947">12</tspan><tspan
         sodipodi:role="line"
         x="16.063505"
         y="228.03047"
         style="text-align:end;text-anchor:end;stroke-width:0.264583"
         id="tspan949">13</tspan><tspan
         sodipodi:role="line"
         x="16.063505"
         y="233.05756"
         style="text-align:end;text-anchor:end;stroke-width:0.264583"
         id="tspan951">14</tspan><tspan
         sodipodi:role="line"
         x="16.063505"
         y="238.08464"
         style="text-align:end;text-anchor:end;stroke-width:0.264583"
         id="tspan953">15</tspan><tspan
         sodipodi:role="line"
         x="16.063505"
         y="243.11172"
         style="text-align:end;text-anchor:end;stroke-width:0.264583"
         id="tspan955">16</tspan></text>
    <g
       aria-label="SRC"
       id="text1008"
       style="font-size:1.41111px;line-height:1.25;font-family:'DIN Alternate Light';-inkscape-font-specification:'DIN Alternate Light, ';stroke-width:0.264583"
       transform="translate(0,-3.1749997)">
      <path
         d="m 29.701442,162.42173 q 0,0.093 -0.03514,0.17156 -0.03411,0.0775 -0.100252,0.13229 -0.06511,0.0537 -0.161231,0.0837 -0.09509,0.0289 -0.21084,0.0289 -0.107487,0 -0.196371,-0.0207 -0.08888,-0.0207 -0.163298,-0.0651 -0.07441,-0.0445 -0.142627,-0.11266 l 0.08062,-0.0806 q 0.06821,0.0682 0.131258,0.10748 0.06305,0.0382 0.135392,0.0548 0.07235,0.0155 0.161231,0.0155 0.118856,0 0.205673,-0.0362 0.08682,-0.0372 0.134359,-0.10749 0.04754,-0.0713 0.04754,-0.16743 0,-0.13849 -0.08268,-0.21187 -0.03824,-0.0331 -0.08475,-0.0496 -0.04651,-0.0176 -0.133325,-0.031 l -0.1757,-0.0269 q -0.171567,-0.0258 -0.268718,-0.11059 -0.118856,-0.0992 -0.118856,-0.27698 0,-0.0951 0.03307,-0.17157 0.03411,-0.0775 0.09405,-0.13023 0.05994,-0.0537 0.147795,-0.0816 0.08785,-0.0289 0.19327,-0.0289 0.137459,0 0.236678,0.0393 0.09922,0.0382 0.197405,0.12299 l -0.07441,0.0744 q -0.07958,-0.0713 -0.16123,-0.10542 -0.08062,-0.0341 -0.204639,-0.0341 -0.163298,0 -0.256316,0.0837 -0.09302,0.0837 -0.09302,0.22738 0,0.13126 0.07752,0.19637 0.04237,0.0341 0.103353,0.06 0.06201,0.0248 0.121957,0.0331 l 0.162264,0.0258 q 0.104387,0.0155 0.163298,0.0372 0.05891,0.0217 0.10542,0.062 0.06408,0.0527 0.09715,0.12815 0.03411,0.0744 0.03411,0.16434 z"
         style="font-size:2.11667px;stroke-width:0.264583"
         id="path1014" />
      <path
         d="M 31.081205,162.82584 H 30.94788 l -0.359669,-0.69454 h -0.414445 v 0.69454 h -0.114722 v -1.50689 h 0.573609 q 0.125057,0 0.222209,0.0475 0.09819,0.0465 0.153996,0.13849 0.05581,0.091 0.05581,0.21808 0,0.16536 -0.09302,0.27182 -0.09198,0.10645 -0.254248,0.13436 z m -0.131258,-1.10071 q 0,-0.14987 -0.09095,-0.22738 -0.08992,-0.0775 -0.240812,-0.0775 h -0.444418 v 0.60978 h 0.444418 q 0.07338,0 0.134359,-0.0186 0.06098,-0.0196 0.104386,-0.0568 0.04341,-0.0372 0.06821,-0.0951 0.02481,-0.0579 0.02481,-0.13436 z"
         style="font-size:2.11667px;stroke-width:0.264583"
         id="path1016" />
      <path
         d="m 32.33281,162.65014 q -0.09922,0.0941 -0.198438,0.14159 -0.09922,0.0465 -0.226343,0.0465 -0.107487,0 -0.205672,-0.0403 -0.09819,-0.0403 -0.171566,-0.11369 -0.06718,-0.0672 -0.09612,-0.14159 -0.02894,-0.0744 -0.03617,-0.17053 -0.0072,-0.0961 -0.0072,-0.29973 0,-0.2036 0.0072,-0.29972 0.0072,-0.0961 0.03617,-0.17053 0.02894,-0.0744 0.09612,-0.1416 0.07338,-0.0734 0.170532,-0.11369 0.09819,-0.0403 0.206706,-0.0403 0.127125,0 0.22841,0.0486 0.101286,0.0476 0.196371,0.13953 l -0.07545,0.0765 q -0.08372,-0.0837 -0.162265,-0.12299 -0.07751,-0.0403 -0.187069,-0.0403 -0.08165,0 -0.156063,0.03 -0.07441,0.0289 -0.130225,0.0858 -0.04031,0.0403 -0.06304,0.0837 -0.0217,0.0434 -0.03411,0.10956 -0.0124,0.0661 -0.0155,0.15089 -0.0031,0.0847 -0.0031,0.20464 0,0.1788 0.0072,0.27285 0.0072,0.093 0.03204,0.15813 0.02481,0.0651 0.07648,0.11679 0.05478,0.0558 0.129192,0.0868 0.07545,0.03 0.157096,0.03 0.07235,0 0.133326,-0.0186 0.06201,-0.0196 0.109554,-0.0537 0.04754,-0.0341 0.106454,-0.091 z"
         style="font-size:2.11667px;stroke-width:0.264583"
         id="path1018" />
    </g>
    <g
       aria-label="KNOBS"
       id="text1033"
       style="font-size:1.41111px;line-height:0.15;font-family:'DIN Alternate Light';-inkscape-font-specification:'DIN Alternate Light, ';fill:#000000;fill-opacity:1;stroke-width:0.264583"
       transform="translate(-19.050005,0.26459332)">
      <path
         d="m 28.299976,162.82584 h -0.135392 l -0.484726,-0.8444 -0.359669,0.43615 v 0.40825 h -0.114721 v -1.50689 h 0.114721 v 0.94155 l 0.763779,-0.94155 h 0.13746 l -0.465089,0.57568 z"
         style="font-size:2.11667px;fill:#000000;fill-opacity:1;stroke-width:0.264583"
         id="path932" />
      <path
         d="m 29.669404,162.82584 h -0.113689 l -0.870232,-1.31052 v 1.31052 h -0.114722 v -1.50689 h 0.114722 l 0.870232,1.30535 v -1.30535 h 0.113689 z"
         style="font-size:2.11667px;fill:#000000;fill-opacity:1;stroke-width:0.264583"
         id="path934" />
      <path
         d="m 31.108078,162.07239 q 0,0.20361 -0.0072,0.29973 -0.0072,0.0961 -0.03617,0.17053 -0.02894,0.0744 -0.09612,0.14159 -0.07338,0.0734 -0.171566,0.11369 -0.09715,0.0403 -0.204639,0.0403 -0.107487,0 -0.205672,-0.0403 -0.09819,-0.0403 -0.171566,-0.11369 -0.06718,-0.0672 -0.09612,-0.14159 -0.02894,-0.0744 -0.03617,-0.17053 -0.0072,-0.0961 -0.0072,-0.29973 0,-0.2036 0.0072,-0.29972 0.0072,-0.0961 0.03617,-0.17053 0.02894,-0.0744 0.09612,-0.1416 0.07338,-0.0734 0.170532,-0.11369 0.09819,-0.0403 0.206706,-0.0403 0.108521,0 0.205673,0.0403 0.09715,0.0403 0.170532,0.11369 0.06718,0.0672 0.09612,0.1416 0.02894,0.0744 0.03617,0.17053 0.0072,0.0961 0.0072,0.29972 z m -0.113689,0 q 0,-0.1788 -0.0072,-0.27285 -0.0072,-0.0941 -0.03204,-0.15813 -0.0248,-0.0651 -0.07751,-0.11782 -0.05788,-0.0579 -0.131259,-0.0868 -0.07235,-0.0289 -0.153996,-0.0289 -0.08061,0 -0.155029,0.0289 -0.07338,0.0289 -0.131259,0.0868 -0.04031,0.0403 -0.06304,0.0837 -0.0217,0.0434 -0.03411,0.10956 -0.0124,0.0661 -0.0155,0.15089 -0.0031,0.0847 -0.0031,0.20464 0,0.1788 0.0072,0.27285 0.0072,0.093 0.03204,0.15813 0.02481,0.0651 0.07648,0.11679 0.05684,0.0568 0.131259,0.0868 0.07441,0.03 0.155029,0.03 0.08165,0 0.15503,-0.03 0.07338,-0.03 0.130225,-0.0868 0.05374,-0.0537 0.07751,-0.11782 0.02481,-0.0641 0.03204,-0.1571 0.0072,-0.094 0.0072,-0.27285 z"
         style="font-size:2.11667px;fill:#000000;fill-opacity:1;stroke-width:0.264583"
         id="path936" />
      <path
         d="m 32.528148,162.41552 q 0,0.19741 -0.118856,0.30386 -0.118856,0.10646 -0.323495,0.10646 h -0.571542 v -1.50689 h 0.555006 q 0.127124,0 0.225309,0.0475 0.09922,0.0465 0.15503,0.13643 0.05581,0.0899 0.05581,0.2098 0,0.11886 -0.06304,0.20981 -0.06305,0.0909 -0.172599,0.12816 0.124023,0.0424 0.191203,0.13849 0.06718,0.0951 0.06718,0.22634 z m -0.137459,-0.7028 q 0,-0.0992 -0.04444,-0.16433 -0.04341,-0.0661 -0.118856,-0.0971 -0.07545,-0.031 -0.170533,-0.031 h -0.427881 v 0.58394 h 0.427881 q 0.146762,0 0.239779,-0.0724 0.09405,-0.0734 0.09405,-0.21911 z m 0.02377,0.7028 q 0,-0.0961 -0.04237,-0.16536 -0.04134,-0.0692 -0.117822,-0.10645 -0.07648,-0.0372 -0.180868,-0.0372 h -0.444418 v 0.61805 h 0.444418 q 0.104386,0 0.180868,-0.0372 0.07648,-0.0372 0.117822,-0.10645 0.04237,-0.0703 0.04237,-0.16537 z"
         style="font-size:2.11667px;fill:#000000;fill-opacity:1;stroke-width:0.264583"
         id="path938" />
      <path
         d="m 33.819027,162.42173 q 0,0.093 -0.03514,0.17156 -0.03411,0.0775 -0.100252,0.13229 -0.06511,0.0537 -0.161231,0.0837 -0.09509,0.0289 -0.21084,0.0289 -0.107487,0 -0.196371,-0.0207 -0.08888,-0.0207 -0.163297,-0.0651 -0.07441,-0.0445 -0.142628,-0.11266 l 0.08062,-0.0806 q 0.06821,0.0682 0.131258,0.10748 0.06305,0.0382 0.135393,0.0548 0.07235,0.0155 0.16123,0.0155 0.118856,0 0.205673,-0.0362 0.08682,-0.0372 0.134359,-0.10749 0.04754,-0.0713 0.04754,-0.16743 0,-0.13849 -0.08268,-0.21187 -0.03824,-0.0331 -0.08475,-0.0496 -0.04651,-0.0176 -0.133325,-0.031 l -0.1757,-0.0269 q -0.171566,-0.0258 -0.268718,-0.11059 -0.118856,-0.0992 -0.118856,-0.27698 0,-0.0951 0.03307,-0.17157 0.03411,-0.0775 0.09405,-0.13023 0.05994,-0.0537 0.147795,-0.0816 0.08785,-0.0289 0.19327,-0.0289 0.13746,0 0.236678,0.0393 0.09922,0.0382 0.197405,0.12299 l -0.07441,0.0744 q -0.07958,-0.0713 -0.161231,-0.10542 -0.08062,-0.0341 -0.204639,-0.0341 -0.163298,0 -0.256316,0.0837 -0.09302,0.0837 -0.09302,0.22738 0,0.13126 0.07751,0.19637 0.04237,0.0341 0.103353,0.06 0.06201,0.0248 0.121957,0.0331 l 0.162264,0.0258 q 0.104387,0.0155 0.163298,0.0372 0.05891,0.0217 0.10542,0.062 0.06408,0.0527 0.09715,0.12815 0.03411,0.0744 0.03411,0.16434 z"
         style="font-size:2.11667px;fill:#000000;fill-opacity:1;stroke-width:0.264583"
         id="path940" />
    </g>
    <g
       aria-label="1 2 3 4 5 6 7 8 9 10 11 12 13 14 15 16"
       id="text1023"
       style="font-size:1.41111px;line-height:5.02708px;font-family:'DIN Alternate Light';-inkscape-font-specification:'DIN Alternate Light, ';text-align:end;text-anchor:end;stroke-width:0.264583"
       transform="translate(-3.1749997)">
      <path
         d="m 27.667976,167.70547 h -0.07166 v -0.76067 l -0.18259,0.16123 v -0.0861 l 0.18259,-0.15709 h 0.07166 z"
         style="text-align:end;text-anchor:end;stroke-width:0.264583"
         id="path1025" />
      <path
         d="m 27.759616,172.73256 h -0.558794 v -0.0634 l 0.363801,-0.3645 q 0.09508,-0.0951 0.09508,-0.20119 0,-0.0503 -0.0248,-0.093 -0.0248,-0.0434 -0.06821,-0.0682 -0.04341,-0.0255 -0.09922,-0.0255 -0.05374,0 -0.09784,0.0241 -0.04341,0.0241 -0.0689,0.0675 -0.02549,0.0427 -0.02549,0.0965 h -0.07166 q 0,-0.0524 0.01929,-0.0978 0.01929,-0.0455 0.05512,-0.0806 0.03652,-0.0351 0.08475,-0.0537 0.04892,-0.0193 0.104731,-0.0193 0.06063,0 0.108865,0.0193 0.04823,0.0193 0.08337,0.0544 0.03514,0.0345 0.05305,0.0792 0.0186,0.0441 0.0186,0.0971 0,0.0482 -0.01447,0.091 -0.01378,0.042 -0.0379,0.0779 -0.02412,0.0358 -0.06063,0.0724 l -0.324528,0.32453 h 0.465777 z"
         style="text-align:end;text-anchor:end;stroke-width:0.264583"
         id="path1027" />
      <path
         d="m 27.747213,177.6549 q 0,0.0868 -0.03721,0.15021 -0.03652,0.0634 -0.101974,0.0958 -0.06546,0.0324 -0.145383,0.0324 -0.123335,0 -0.201883,-0.0648 -0.07786,-0.0641 -0.08475,-0.18948 h 0.07166 q 0.0076,0.0971 0.06821,0.144 0.06132,0.0469 0.146761,0.0469 0.09233,0 0.152273,-0.0586 0.06063,-0.0586 0.06063,-0.15641 0,-0.0689 -0.02343,-0.11644 -0.02274,-0.0475 -0.07166,-0.0724 -0.04892,-0.0255 -0.124023,-0.0255 h -0.01654 v -0.0634 h 0.01654 q 0.06546,0 0.110243,-0.0234 0.04479,-0.0234 0.06683,-0.0682 0.02205,-0.0448 0.02205,-0.11024 0,-0.0965 -0.05512,-0.14952 -0.05512,-0.0537 -0.139181,-0.0537 -0.08751,0 -0.139182,0.0496 -0.05168,0.0489 -0.06132,0.13367 h -0.07235 q 0.01103,-0.11507 0.08613,-0.18053 0.07579,-0.0661 0.186724,-0.0661 0.07786,0 0.138492,0.0331 0.06063,0.0331 0.0944,0.0937 0.03376,0.0599 0.03376,0.13987 0,0.082 -0.03514,0.13987 -0.03514,0.0579 -0.107487,0.0889 0.161919,0.0551 0.161919,0.2508 z"
         style="text-align:end;text-anchor:end;stroke-width:0.264583"
         id="path1029" />
      <path
         d="m 27.780975,182.74469 h -0.133669 v 0.21566 h -0.07235 v -0.21566 h -0.425814 v -0.0641 l 0.383784,-0.77584 h 0.07441 l -0.383784,0.77584 h 0.3514 v -0.31833 h 0.07235 v 0.31833 h 0.133669 z"
         style="text-align:end;text-anchor:end;stroke-width:0.264583"
         id="path1031" />
      <path
         d="m 27.741701,187.64705 q 0,0.0909 -0.01447,0.15503 -0.01447,0.0634 -0.06339,0.11162 -0.07097,0.0724 -0.192925,0.0724 -0.127468,0 -0.193614,-0.0675 -0.05926,-0.0606 -0.06752,-0.16399 h 0.07166 q 0.01171,0.0834 0.05788,0.1254 0.04616,0.0427 0.131603,0.0427 0.08682,0 0.137804,-0.051 0.03859,-0.0386 0.04961,-0.0937 0.01171,-0.0558 0.01171,-0.13092 0,-0.1192 -0.03859,-0.19361 -0.03858,-0.0744 -0.149517,-0.0744 -0.06959,0 -0.117822,0.0276 -0.04754,0.0269 -0.06408,0.0785 h -0.06339 v -0.514 h 0.482313 v 0.0641 H 27.30004 v 0.35554 q 0.06408,-0.0751 0.190169,-0.0751 0.108865,0 0.169499,0.0606 0.04754,0.0469 0.06477,0.11575 0.01722,0.0689 0.01722,0.15503 z"
         style="text-align:end;text-anchor:end;stroke-width:0.264583"
         id="path1033" />
      <path
         d="m 27.759616,192.53151 q 0,0.0868 -0.03445,0.15985 -0.03376,0.073 -0.09922,0.11575 -0.06477,0.042 -0.15434,0.042 -0.08957,0 -0.155029,-0.0386 -0.06546,-0.0393 -0.09991,-0.10887 -0.03376,-0.0696 -0.03376,-0.15847 0,-0.11576 0.06477,-0.22875 l 0.285254,-0.50092 h 0.07441 l -0.258382,0.44304 q 0.03032,-0.0159 0.05994,-0.0227 0.03032,-0.007 0.0689,-0.007 0.08682,0 0.150895,0.04 0.06408,0.04 0.09715,0.10956 0.03376,0.0689 0.03376,0.15503 z m -0.07166,0.008 q 0,-0.0675 -0.0248,-0.12472 -0.02481,-0.0579 -0.07441,-0.0923 -0.04892,-0.0344 -0.118511,-0.0344 -0.04823,0 -0.08819,0.0179 -0.03996,0.0172 -0.0689,0.051 -0.02894,0.0331 -0.0441,0.0806 -0.01447,0.0475 -0.01447,0.10198 0,0.0544 0.01447,0.10059 0.01516,0.0462 0.0441,0.0799 0.02894,0.0338 0.0689,0.0517 0.03996,0.0172 0.08819,0.0172 0.06477,0 0.114377,-0.031 0.0503,-0.031 0.07648,-0.0882 0.02687,-0.0572 0.02687,-0.13022 z"
         style="text-align:end;text-anchor:end;stroke-width:0.264583"
         id="path1035" />
      <path
         d="m 27.788555,197.08937 -0.423747,0.95497 h -0.07441 l 0.423057,-0.95497 h -0.421679 v 0.15778 h -0.07235 v -0.22186 h 0.56913 z"
         style="text-align:end;text-anchor:end;stroke-width:0.264583"
         id="path1037" />
      <path
         d="m 27.752726,202.62425 q 0,0.0786 -0.0379,0.14263 -0.0379,0.0641 -0.103353,0.1006 -0.06477,0.0358 -0.144694,0.0358 -0.08061,0 -0.146072,-0.0358 -0.06477,-0.0365 -0.102664,-0.1006 -0.0379,-0.0641 -0.0379,-0.14263 0,-0.0841 0.04203,-0.14745 0.04272,-0.0641 0.117133,-0.10404 -0.137803,-0.0737 -0.137803,-0.22875 0,-0.0551 0.0186,-0.10267 0.01929,-0.0482 0.05443,-0.0834 0.03583,-0.0358 0.08475,-0.0558 0.04961,-0.02 0.107487,-0.02 0.05926,0 0.107487,0.02 0.04823,0.0193 0.08406,0.0551 0.03583,0.0358 0.05443,0.0841 0.01929,0.0475 0.01929,0.10267 0,0.15571 -0.137115,0.22875 0.04892,0.0269 0.08406,0.0634 0.03583,0.0365 0.05443,0.0841 0.01929,0.0475 0.01929,0.10404 z m -0.09302,-0.48024 q 0,-0.0558 -0.02412,-0.10129 -0.02411,-0.0462 -0.06821,-0.0717 -0.04341,-0.0255 -0.100597,-0.0255 -0.05719,0 -0.100597,0.0255 -0.04341,0.0248 -0.06821,0.071 -0.0248,0.0455 -0.0248,0.10198 0,0.0572 0.02412,0.10266 0.0248,0.0455 0.06821,0.071 0.0441,0.0255 0.101286,0.0255 0.05719,0 0.100597,-0.0255 0.0441,-0.0255 0.06821,-0.071 0.02412,-0.0462 0.02412,-0.10266 z m 0.02136,0.48024 q 0,-0.0468 -0.01585,-0.0854 -0.01585,-0.0393 -0.0441,-0.0682 -0.02825,-0.0296 -0.06821,-0.0468 -0.03927,-0.0172 -0.08613,-0.0172 -0.09164,0 -0.153651,0.0634 -0.06132,0.0627 -0.06132,0.15434 0,0.0916 0.06201,0.15365 0.06201,0.062 0.152962,0.062 0.05857,0 0.108176,-0.0282 0.04961,-0.0282 0.07786,-0.0779 0.02825,-0.0503 0.02825,-0.10956 z"
         style="text-align:end;text-anchor:end;stroke-width:0.264583"
         id="path1039" />
      <path
         d="m 27.759616,207.3771 q 0,0.0372 -0.0076,0.0758 -0.0069,0.0386 -0.02067,0.0765 -0.01378,0.0372 -0.03652,0.0765 l -0.285254,0.50091 h -0.07441 l 0.258382,-0.44304 q -0.03445,0.0165 -0.06477,0.0234 -0.02963,0.006 -0.06408,0.006 -0.08682,0 -0.150895,-0.04 -0.06408,-0.04 -0.09784,-0.10818 -0.03307,-0.0689 -0.03307,-0.1564 0,-0.0641 0.0186,-0.12196 0.01929,-0.0579 0.0565,-0.10197 0.0379,-0.0448 0.09164,-0.0689 0.05374,-0.0248 0.120578,-0.0248 0.09026,0 0.155718,0.0393 0.06546,0.0386 0.09922,0.10818 0.03445,0.0696 0.03445,0.15847 z m -0.07166,0.005 q 0,-0.0744 -0.02618,-0.13092 -0.02618,-0.0565 -0.07579,-0.0875 -0.04892,-0.0317 -0.114377,-0.0317 -0.04961,0 -0.08957,0.0179 -0.03927,0.0172 -0.06821,0.051 -0.02894,0.0331 -0.0441,0.0799 -0.01516,0.0469 -0.01516,0.10129 0,0.10473 0.05719,0.17776 0.05719,0.073 0.159852,0.073 0.06477,0 0.113688,-0.031 0.04961,-0.031 0.07579,-0.0875 0.02687,-0.0572 0.02687,-0.13229 z"
         style="text-align:end;text-anchor:end;stroke-width:0.264583"
         id="path1041" />
      <path
         d="m 26.94244,212.9492 h -0.07166 v -0.76068 l -0.18259,0.16123 v -0.0861 l 0.18259,-0.15709 h 0.07166 z"
         style="text-align:end;text-anchor:end;stroke-width:0.264583"
         id="path1043" />
      <path
         d="m 27.738256,212.68944 q 0,0.0785 -0.03376,0.13918 -0.03307,0.0599 -0.09371,0.0944 -0.06063,0.0344 -0.136426,0.0344 -0.07579,0 -0.136426,-0.0344 -0.06063,-0.0344 -0.09439,-0.0944 -0.03307,-0.0606 -0.03307,-0.13918 v -0.32315 q 0,-0.0579 0.01929,-0.10749 0.01998,-0.0496 0.05443,-0.0854 0.03514,-0.0365 0.08337,-0.0558 0.04892,-0.0193 0.106798,-0.0193 0.07579,0 0.136426,0.0344 0.06063,0.0344 0.09371,0.0951 0.03376,0.06 0.03376,0.1385 z m -0.07166,-0.007 v -0.30937 q 0,-0.093 -0.05099,-0.15228 -0.0503,-0.0592 -0.141249,-0.0592 -0.09026,0 -0.141249,0.0592 -0.0503,0.0593 -0.0503,0.15228 v 0.30937 q 0,0.093 0.0503,0.15227 0.05099,0.0593 0.141249,0.0593 0.09095,0 0.141249,-0.0593 0.05099,-0.0593 0.05099,-0.15227 z"
         style="text-align:end;text-anchor:end;stroke-width:0.264583"
         id="path1045" />
      <path
         d="m 27.17395,217.97628 h -0.07166 v -0.76068 l -0.18259,0.16123 v -0.0861 l 0.18259,-0.15709 h 0.07166 z"
         style="text-align:end;text-anchor:end;stroke-width:0.264583"
         id="path1047" />
      <path
         d="m 27.667976,217.97628 h -0.07166 v -0.76068 l -0.18259,0.16123 v -0.0861 l 0.18259,-0.15709 h 0.07166 z"
         style="text-align:end;text-anchor:end;stroke-width:0.264583"
         id="path1049" />
      <path
         d="m 26.974824,223.00336 h -0.07166 v -0.76068 l -0.18259,0.16123 v -0.0861 l 0.18259,-0.15709 h 0.07166 z"
         style="text-align:end;text-anchor:end;stroke-width:0.264583"
         id="path1051" />
      <path
         d="m 27.759616,223.00336 h -0.558794 v -0.0634 l 0.363801,-0.36449 q 0.09508,-0.0951 0.09508,-0.2012 0,-0.0503 -0.0248,-0.093 -0.0248,-0.0434 -0.06821,-0.0682 -0.04341,-0.0255 -0.09922,-0.0255 -0.05374,0 -0.09784,0.0241 -0.04341,0.0241 -0.0689,0.0675 -0.02549,0.0427 -0.02549,0.0965 h -0.07166 q 0,-0.0524 0.01929,-0.0978 0.01929,-0.0455 0.05512,-0.0806 0.03652,-0.0351 0.08475,-0.0538 0.04892,-0.0193 0.104731,-0.0193 0.06063,0 0.108865,0.0193 0.04823,0.0193 0.08337,0.0544 0.03514,0.0345 0.05305,0.0792 0.0186,0.0441 0.0186,0.0971 0,0.0482 -0.01447,0.0909 -0.01378,0.042 -0.0379,0.0779 -0.02412,0.0358 -0.06063,0.0724 l -0.324528,0.32453 h 0.465777 z"
         style="text-align:end;text-anchor:end;stroke-width:0.264583"
         id="path1053" />
      <path
         d="m 26.950019,228.03044 h -0.07166 v -0.76068 l -0.18259,0.16123 v -0.0861 l 0.18259,-0.15709 h 0.07166 z"
         style="text-align:end;text-anchor:end;stroke-width:0.264583"
         id="path1055" />
      <path
         d="m 27.747213,227.92571 q 0,0.0868 -0.03721,0.1502 -0.03652,0.0634 -0.101974,0.0958 -0.06546,0.0324 -0.145383,0.0324 -0.123335,0 -0.201883,-0.0648 -0.07786,-0.0641 -0.08475,-0.18948 h 0.07166 q 0.0076,0.0971 0.06821,0.14401 0.06132,0.0469 0.146761,0.0469 0.09233,0 0.152273,-0.0586 0.06063,-0.0586 0.06063,-0.1564 0,-0.0689 -0.02343,-0.11645 -0.02274,-0.0475 -0.07166,-0.0723 -0.04892,-0.0255 -0.124023,-0.0255 h -0.01654 v -0.0634 h 0.01654 q 0.06546,0 0.110243,-0.0234 0.04479,-0.0234 0.06683,-0.0682 0.02205,-0.0448 0.02205,-0.11024 0,-0.0965 -0.05512,-0.14952 -0.05512,-0.0537 -0.139181,-0.0537 -0.08751,0 -0.139182,0.0496 -0.05168,0.0489 -0.06132,0.13367 h -0.07235 q 0.01103,-0.11507 0.08613,-0.18052 0.07579,-0.0662 0.186724,-0.0662 0.07786,0 0.138492,0.0331 0.06063,0.0331 0.0944,0.0937 0.03376,0.0599 0.03376,0.13987 0,0.082 -0.03514,0.13987 -0.03514,0.0579 -0.107487,0.0889 0.161919,0.0551 0.161919,0.25081 z"
         style="text-align:end;text-anchor:end;stroke-width:0.264583"
         id="path1057" />
      <path
         d="m 26.930037,233.05752 h -0.07166 v -0.76068 l -0.182589,0.16123 v -0.0861 l 0.182589,-0.15709 h 0.07166 z"
         style="text-align:end;text-anchor:end;stroke-width:0.264583"
         id="path1059" />
      <path
         d="m 27.780975,233.01549 h -0.133669 v 0.21566 h -0.07235 v -0.21566 h -0.425814 v -0.0641 l 0.383784,-0.77584 h 0.07441 l -0.383784,0.77584 h 0.3514 v -0.31833 h 0.07235 v 0.31833 h 0.133669 z"
         style="text-align:end;text-anchor:end;stroke-width:0.264583"
         id="path1061" />
      <path
         d="m 26.955531,238.0846 h -0.07166 v -0.76068 l -0.18259,0.16123 v -0.0861 l 0.18259,-0.15709 h 0.07166 z"
         style="text-align:end;text-anchor:end;stroke-width:0.264583"
         id="path1063" />
      <path
         d="m 27.741701,237.91786 q 0,0.091 -0.01447,0.15502 -0.01447,0.0634 -0.06339,0.11163 -0.07097,0.0723 -0.192925,0.0723 -0.127468,0 -0.193614,-0.0675 -0.05926,-0.0606 -0.06752,-0.16399 h 0.07166 q 0.01171,0.0834 0.05788,0.1254 0.04616,0.0427 0.131603,0.0427 0.08682,0 0.137804,-0.051 0.03859,-0.0386 0.04961,-0.0937 0.01171,-0.0558 0.01171,-0.13091 0,-0.11921 -0.03859,-0.19362 -0.03858,-0.0744 -0.149517,-0.0744 -0.06959,0 -0.117822,0.0276 -0.04754,0.0269 -0.06408,0.0786 h -0.06339 v -0.51401 h 0.482313 v 0.0641 H 27.30004 v 0.35553 q 0.06408,-0.0751 0.190169,-0.0751 0.108865,0 0.169499,0.0606 0.04754,0.0468 0.06477,0.11576 0.01722,0.0689 0.01722,0.15503 z"
         style="text-align:end;text-anchor:end;stroke-width:0.264583"
         id="path1065" />
      <path
         d="M 26.93555,243.11168 H 26.86389 V 242.351 l -0.18259,0.16123 v -0.0861 l 0.18259,-0.15709 h 0.07166 z"
         style="text-align:end;text-anchor:end;stroke-width:0.264583"
         id="path1067" />
      <path
         d="m 27.759616,242.80231 q 0,0.0868 -0.03445,0.15985 -0.03376,0.073 -0.09922,0.11576 -0.06477,0.042 -0.15434,0.042 -0.08957,0 -0.155029,-0.0386 -0.06546,-0.0393 -0.09991,-0.10886 -0.03376,-0.0696 -0.03376,-0.15848 0,-0.11575 0.06477,-0.22875 l 0.285254,-0.50092 h 0.07441 l -0.258382,0.44304 q 0.03032,-0.0159 0.05994,-0.0227 0.03032,-0.007 0.0689,-0.007 0.08682,0 0.150895,0.04 0.06408,0.04 0.09715,0.10955 0.03376,0.0689 0.03376,0.15503 z m -0.07166,0.008 q 0,-0.0675 -0.0248,-0.12471 -0.02481,-0.0579 -0.07441,-0.0923 -0.04892,-0.0344 -0.118511,-0.0344 -0.04823,0 -0.08819,0.0179 -0.03996,0.0172 -0.0689,0.051 -0.02894,0.0331 -0.0441,0.0806 -0.01447,0.0476 -0.01447,0.10198 0,0.0544 0.01447,0.10059 0.01516,0.0462 0.0441,0.0799 0.02894,0.0338 0.0689,0.0517 0.03996,0.0172 0.08819,0.0172 0.06477,0 0.114377,-0.031 0.0503,-0.031 0.07648,-0.0882 0.02687,-0.0572 0.02687,-0.13022 z"
         style="text-align:end;text-anchor:end;stroke-width:0.264583"
         id="path1069" />
    </g>
    <text
       xml:space="preserve"
       style="font-size:1.41111px;line-height:0.15;font-family:'DIN Alternate Light';-inkscape-font-specification:'DIN Alternate Light, ';stroke-width:0.264583"
       x="17.001945"
       y="163.09042"
       id="text1089"><tspan
         sodipodi:role="line"
         x="17.001945"
         y="163.09042"
         style="font-size:2.11667px;stroke-width:0.264583"
         id="tspan1087">SEQ16</tspan></text>
    <g
       aria-label="SEQ16"
       id="text981"
       style="font-size:1.41111px;line-height:0.15;font-family:'DIN Alternate Light';-inkscape-font-specification:'DIN Alternate Light, ';stroke-width:0.264583">
      <path
         d="m 28.771265,162.70801 q 0,0.093 -0.03514,0.17157 -0.03411,0.0775 -0.100253,0.13229 -0.06511,0.0537 -0.161231,0.0837 -0.09508,0.0289 -0.21084,0.0289 -0.107487,0 -0.196371,-0.0207 -0.08888,-0.0207 -0.163297,-0.0651 -0.07441,-0.0444 -0.142627,-0.11265 l 0.08061,-0.0806 q 0.06821,0.0682 0.131258,0.10749 0.06305,0.0382 0.135393,0.0548 0.07235,0.0155 0.16123,0.0155 0.118856,0 0.205673,-0.0362 0.08682,-0.0372 0.134359,-0.10748 0.04754,-0.0713 0.04754,-0.16743 0,-0.1385 -0.08268,-0.21188 -0.03824,-0.0331 -0.08475,-0.0496 -0.04651,-0.0176 -0.133325,-0.031 l -0.1757,-0.0269 q -0.171566,-0.0258 -0.268718,-0.11058 -0.118856,-0.0992 -0.118856,-0.27699 0,-0.0951 0.03307,-0.17157 0.03411,-0.0775 0.09405,-0.13022 0.05994,-0.0537 0.147795,-0.0816 0.08785,-0.0289 0.19327,-0.0289 0.13746,0 0.236679,0.0393 0.09922,0.0382 0.197404,0.12299 l -0.07441,0.0744 q -0.07958,-0.0713 -0.161231,-0.10542 -0.08062,-0.0341 -0.204639,-0.0341 -0.163298,0 -0.256316,0.0837 -0.09302,0.0837 -0.09302,0.22738 0,0.13125 0.07752,0.19637 0.04237,0.0341 0.103353,0.0599 0.06201,0.0248 0.121956,0.0331 l 0.162264,0.0258 q 0.104387,0.0155 0.163298,0.0372 0.05891,0.0217 0.10542,0.062 0.06408,0.0527 0.09715,0.12816 0.03411,0.0744 0.03411,0.16433 z"
         style="font-size:2.11667px;stroke-width:0.264583"
         id="path984" />
      <path
         d="m 30.04354,163.11212 h -0.914674 v -1.50689 h 0.914674 v 0.10129 h -0.799952 v 0.59531 h 0.681096 v 0.10129 h -0.681096 v 0.60772 h 0.799952 z"
         style="font-size:2.11667px;stroke-width:0.264583"
         id="path986" />
      <path
         d="m 31.438806,163.11212 -0.07648,0.0765 -0.177767,-0.17776 q -0.143661,0.11368 -0.331763,0.11368 -0.107488,0 -0.205673,-0.0403 -0.09819,-0.0403 -0.171566,-0.11369 -0.06718,-0.0672 -0.09612,-0.1416 -0.02894,-0.0744 -0.03617,-0.17053 -0.0072,-0.0961 -0.0072,-0.29972 0,-0.20361 0.0072,-0.29973 0.0072,-0.0961 0.03617,-0.17053 0.02894,-0.0744 0.09612,-0.14159 0.07338,-0.0734 0.170533,-0.11369 0.09819,-0.0403 0.206706,-0.0403 0.10852,0 0.205672,0.0403 0.09715,0.0403 0.170533,0.11369 0.06718,0.0672 0.09612,0.14159 0.02894,0.0744 0.03617,0.17053 0.0072,0.0961 0.0072,0.29973 0,0.1881 -0.0052,0.27905 -0.0052,0.0899 -0.02791,0.1633 -0.02274,0.0724 -0.07441,0.13332 z m -0.183968,-0.75344 q 0,-0.1788 -0.0072,-0.27285 -0.0072,-0.0941 -0.03204,-0.15813 -0.02481,-0.0651 -0.07752,-0.11783 -0.05788,-0.0579 -0.131258,-0.0868 -0.07235,-0.0289 -0.153996,-0.0289 -0.08062,0 -0.15503,0.0289 -0.07338,0.0289 -0.131258,0.0868 -0.04031,0.0403 -0.06305,0.0837 -0.0217,0.0434 -0.03411,0.10955 -0.0124,0.0661 -0.0155,0.1509 -0.0031,0.0847 -0.0031,0.20464 0,0.1788 0.0072,0.27285 0.0072,0.093 0.03204,0.15813 0.0248,0.0651 0.07648,0.11679 0.05684,0.0568 0.131258,0.0868 0.07441,0.03 0.15503,0.03 0.14366,0 0.255282,-0.0889 l -0.210841,-0.21187 0.07545,-0.0765 0.209807,0.20981 q 0.04754,-0.0703 0.05995,-0.16847 0.0124,-0.0992 0.0124,-0.32866 z"
         style="font-size:2.11667px;stroke-width:0.264583"
         id="path988" />
      <path
         d="m 32.026885,163.11212 h -0.107487 v -1.14102 l -0.273886,0.24185 v -0.12919 l 0.273886,-0.23565 h 0.107487 z"
         style="font-size:2.11667px;stroke-width:0.264583"
         id="path990" />
      <path
         d="m 33.262987,162.64807 q 0,0.13022 -0.05168,0.23978 -0.05064,0.10955 -0.148828,0.17363 -0.09715,0.063 -0.231511,0.063 -0.134359,0 -0.232544,-0.0579 -0.09819,-0.0589 -0.149862,-0.1633 -0.05064,-0.10439 -0.05064,-0.23771 0,-0.17364 0.09715,-0.34314 l 0.427881,-0.75137 h 0.111622 l -0.387574,0.66456 q 0.04548,-0.0238 0.08992,-0.0341 0.04548,-0.0103 0.103353,-0.0103 0.130225,0 0.226343,0.0599 0.09612,0.0599 0.145728,0.16433 0.05064,0.10336 0.05064,0.23255 z m -0.107487,0.0114 q 0,-0.10129 -0.03721,-0.18707 -0.03721,-0.0868 -0.111622,-0.1385 -0.07338,-0.0517 -0.177767,-0.0517 -0.07235,0 -0.132292,0.0269 -0.05994,0.0258 -0.103353,0.0765 -0.04341,0.0496 -0.06615,0.12092 -0.0217,0.0713 -0.0217,0.15297 0,0.0816 0.0217,0.15089 0.02274,0.0693 0.06615,0.11989 0.04341,0.0506 0.103353,0.0775 0.05994,0.0258 0.132292,0.0258 0.09715,0 0.171566,-0.0465 0.07545,-0.0465 0.114722,-0.13229 0.04031,-0.0858 0.04031,-0.19533 z"
         style="font-size:2.11667px;stroke-width:0.264583"
         id="path992" />
    </g>
  </g>
</svg>
