<?xml version="1.0" encoding="UTF-8" standalone="no"?>
<svg
   xmlns:dc="http://purl.org/dc/elements/1.1/"
   xmlns:cc="http://creativecommons.org/ns#"
   xmlns:rdf="http://www.w3.org/1999/02/22-rdf-syntax-ns#"
   xmlns:svg="http://www.w3.org/2000/svg"
   xmlns="http://www.w3.org/2000/svg"
   xmlns:sodipodi="http://sodipodi.sourceforge.net/DTD/sodipodi-0.dtd"
   xmlns:inkscape="http://www.inkscape.org/namespaces/inkscape"
   width="30"
   height="380"
   viewBox="0 0 7.9375 100.54166"
   version="1.1"
   id="svg12553"
   inkscape:version="1.0.2 (e86c870879, 2021-01-15)"
   sodipodi:docname="Panel2hpSH.svg">
  <defs
     id="defs12547">
    <filter
       style="color-interpolation-filters:sRGB"
       inkscape:label="Lightness-Contrast"
       id="filter928">
      <feColorMatrix
         values="3.26994 0 0 0.458429 -1.13497 0 3.26994 0 0.458429 -1.13497 0 0 3.26994 0.458429 -1.13497 0 0 0 1 0"
         id="feColorMatrix926" />
    </filter>
    <filter
       style="color-interpolation-filters:sRGB"
       inkscape:label="Lightness-Contrast"
       id="filter929">
      <feColorMatrix
         values="3.26994 0 0 0.458429 -1.13497 0 3.26994 0 0.458429 -1.13497 0 0 3.26994 0.458429 -1.13497 0 0 0 1 0"
         id="feColorMatrix927" />
    </filter>
    <filter
       style="color-interpolation-filters:sRGB"
       inkscape:label="Lightness-Contrast"
       id="filter933">
      <feColorMatrix
         values="3.26994 0 0 0.458429 -1.13497 0 3.26994 0 0.458429 -1.13497 0 0 3.26994 0.458429 -1.13497 0 0 0 1 0"
         id="feColorMatrix931" />
    </filter>
  </defs>
  <sodipodi:namedview
     id="base"
     pagecolor="#ffffff"
     bordercolor="#666666"
     borderopacity="1.0"
     inkscape:pageopacity="0.0"
     inkscape:pageshadow="2"
     inkscape:zoom="15.839192"
     inkscape:cx="15.672315"
     inkscape:cy="29.295557"
     inkscape:document-units="px"
     inkscape:current-layer="layer1"
     showgrid="true"
     fit-margin-top="0"
     fit-margin-left="0"
     fit-margin-right="0"
     fit-margin-bottom="0"
     units="px"
     inkscape:window-width="1546"
     inkscape:window-height="1041"
     inkscape:window-x="0"
     inkscape:window-y="0"
     inkscape:window-maximized="0"
     inkscape:snap-global="false"
     inkscape:document-rotation="0">
    <inkscape:grid
       type="xygrid"
       id="grid12870"
       originx="-20.372917"
       originy="84.666661" />
  </sodipodi:namedview>
  <metadata
     id="metadata12550">
    <rdf:RDF>
      <cc:Work
         rdf:about="">
        <dc:format>image/svg+xml</dc:format>
        <dc:type
           rdf:resource="http://purl.org/dc/dcmitype/StillImage" />
        <dc:title />
      </cc:Work>
    </rdf:RDF>
  </metadata>
  <g
     inkscape:label="Layer 1"
     inkscape:groupmode="layer"
     id="layer1"
     transform="translate(-26.543497,-161.30655)">
    <path
       inkscape:connector-curvature="0"
       id="path33453"
       d="m 26.543497,161.26312 h 7.961123 v 100.58509 h -7.961123 z m 0,0"
       style="fill:#f4f4f4;fill-opacity:1;fill-rule:nonzero;stroke:none;stroke-width:0.144511" />
    <g
       aria-label="SHseq"
       id="text1211"
       style="font-size:1.41111px;line-height:0.15;font-family:'DIN Alternate Light';-inkscape-font-specification:'DIN Alternate Light, ';stroke-width:0.264583;fill:#333333">
      <path
         d="m 28.669462,162.68631 q 0,0.093 -0.03514,0.17157 -0.03411,0.0775 -0.100253,0.13229 -0.06511,0.0537 -0.16123,0.0837 -0.09508,0.0289 -0.210841,0.0289 -0.107487,0 -0.19637,-0.0207 -0.08888,-0.0207 -0.163298,-0.0651 -0.07441,-0.0444 -0.142627,-0.11265 l 0.08061,-0.0806 q 0.06821,0.0682 0.131258,0.10749 0.06305,0.0382 0.135393,0.0548 0.07235,0.0155 0.161231,0.0155 0.118856,0 0.205672,-0.0362 0.08682,-0.0372 0.134359,-0.10749 0.04754,-0.0713 0.04754,-0.16743 0,-0.1385 -0.08268,-0.21188 -0.03824,-0.0331 -0.08475,-0.0496 -0.04651,-0.0176 -0.133326,-0.031 l -0.1757,-0.0269 q -0.171566,-0.0258 -0.268718,-0.11059 -0.118856,-0.0992 -0.118856,-0.27699 0,-0.0951 0.03307,-0.17156 0.03411,-0.0775 0.09405,-0.13023 0.05994,-0.0537 0.147795,-0.0817 0.08785,-0.0289 0.19327,-0.0289 0.13746,0 0.236679,0.0393 0.09922,0.0382 0.197404,0.12299 l -0.07441,0.0744 q -0.07958,-0.0713 -0.161231,-0.10542 -0.08061,-0.0341 -0.204639,-0.0341 -0.163298,0 -0.256315,0.0837 -0.09302,0.0837 -0.09302,0.22738 0,0.13126 0.07751,0.19637 0.04237,0.0341 0.103353,0.0599 0.06201,0.0248 0.121956,0.0331 l 0.162265,0.0258 q 0.104386,0.0155 0.163297,0.0372 0.05891,0.0217 0.10542,0.062 0.06408,0.0527 0.09715,0.12816 0.03411,0.0744 0.03411,0.16433 z"
         style="font-size:2.11667px;stroke-width:0.264583;fill:#333333"
         id="path1213" />
      <path
         d="m 30.040956,163.09042 h -0.113688 v -0.709 h -0.785483 v 0.709 h -0.114722 v -1.50688 h 0.114722 v 0.6966 h 0.785483 v -0.6966 h 0.113688 z"
         style="font-size:2.11667px;stroke-width:0.264583;fill:#333333"
         id="path1215" />
      <path
         d="m 31.201611,162.8 q 0,0.092 -0.05064,0.16123 -0.04961,0.0682 -0.142627,0.10542 -0.09199,0.0362 -0.214975,0.0362 -0.260449,0 -0.413412,-0.14573 l 0.07441,-0.0744 q 0.118856,0.12506 0.334864,0.12506 0.148829,0 0.227377,-0.0517 0.07958,-0.0527 0.07958,-0.15606 0,-0.0786 -0.04754,-0.11989 -0.04754,-0.0413 -0.147794,-0.0506 l -0.169499,-0.0155 q -0.306959,-0.0248 -0.306959,-0.26665 0,-0.0868 0.04444,-0.15193 0.04547,-0.0661 0.128158,-0.10129 0.08268,-0.0362 0.194303,-0.0362 0.107487,0 0.199472,0.0289 0.09198,0.0279 0.15813,0.0785 l -0.07235,0.0724 q -0.117823,-0.0868 -0.285255,-0.0868 -0.12609,0 -0.19327,0.0517 -0.06718,0.0517 -0.06718,0.1447 0,0.0806 0.04961,0.12195 0.05064,0.0403 0.15813,0.0496 l 0.164332,0.0145 q 0.142627,0.0124 0.220142,0.0703 0.07855,0.0579 0.07855,0.19637 z"
         style="font-size:2.11667px;stroke-width:0.264583;fill:#333333"
         id="path1217" />
      <path
         d="m 32.283717,162.60363 h -0.709002 q 0,0.1943 0.08475,0.29869 0.08578,0.10335 0.247013,0.10335 0.08888,0 0.151929,-0.0279 0.06305,-0.0279 0.130225,-0.0951 l 0.08062,0.0641 q -0.08165,0.0816 -0.165364,0.11886 -0.08268,0.0372 -0.203606,0.0372 -0.14056,0 -0.237712,-0.0589 -0.09612,-0.0599 -0.146761,-0.17673 -0.04961,-0.11679 -0.04961,-0.28732 0,-0.12402 0.02791,-0.22014 0.02791,-0.0971 0.07958,-0.1633 0.05271,-0.0661 0.130224,-0.10232 0.07752,-0.0362 0.171566,-0.0362 0.09612,0 0.170533,0.0331 0.07441,0.0331 0.128158,0.0982 0.05374,0.0641 0.08165,0.15606 0.02791,0.092 0.02791,0.2098 z m -0.108521,-0.0868 q -0.0031,-0.0754 -0.0093,-0.10852 -0.0062,-0.0341 -0.02584,-0.0837 -0.03204,-0.0786 -0.10542,-0.12506 -0.07338,-0.0465 -0.159164,-0.0465 -0.08785,0 -0.159163,0.0465 -0.07131,0.0455 -0.10542,0.12506 -0.01964,0.0496 -0.02687,0.0868 -0.0062,0.0372 -0.0093,0.10542 z"
         style="font-size:2.11667px;stroke-width:0.264583;fill:#333333"
         id="path1219" />
      <path
         d="m 33.36479,163.57722 h -0.107488 v -0.61805 q -0.04341,0.0568 -0.09095,0.0889 -0.04651,0.031 -0.100253,0.0424 -0.05271,0.0124 -0.111621,0.0124 -0.161231,0 -0.250114,-0.0889 -0.131259,-0.13126 -0.131259,-0.43408 0,-0.30179 0.131259,-0.43305 0.04134,-0.0413 0.10542,-0.0651 0.06511,-0.0238 0.144694,-0.0238 0.09508,0 0.168466,0.031 0.07338,0.03 0.134358,0.11266 v -0.13126 h 0.107488 z m -0.107488,-0.99736 q 0,-0.19327 -0.05891,-0.31006 -0.05891,-0.11679 -0.229443,-0.11679 -0.169499,0 -0.228411,0.11679 -0.05891,0.11679 -0.05891,0.31006 0,0.1943 0.05891,0.31109 0.05891,0.11679 0.228411,0.11679 0.170532,0 0.229443,-0.11679 0.05891,-0.11679 0.05891,-0.31109 z"
         style="font-size:2.11667px;stroke-width:0.264583;fill:#333333"
         id="path1221" />
    </g>
  </g>
</svg>
