<?xml version="1.0" encoding="UTF-8" standalone="no"?>
<svg
   xmlns:dc="http://purl.org/dc/elements/1.1/"
   xmlns:cc="http://creativecommons.org/ns#"
   xmlns:rdf="http://www.w3.org/1999/02/22-rdf-syntax-ns#"
   xmlns:svg="http://www.w3.org/2000/svg"
   xmlns="http://www.w3.org/2000/svg"
   xmlns:sodipodi="http://sodipodi.sourceforge.net/DTD/sodipodi-0.dtd"
   xmlns:inkscape="http://www.inkscape.org/namespaces/inkscape"
   width="30"
   height="380"
   viewBox="0 0 7.9375 100.54166"
   version="1.1"
   id="svg12553"
   inkscape:version="1.0.2 (e86c870879, 2021-01-15)"
   sodipodi:docname="Panel2hpDEBUG.svg">
  <defs
     id="defs12547">
    <filter
       style="color-interpolation-filters:sRGB"
       inkscape:label="Lightness-Contrast"
       id="filter928">
      <feColorMatrix
         values="3.26994 0 0 0.458429 -1.13497 0 3.26994 0 0.458429 -1.13497 0 0 3.26994 0.458429 -1.13497 0 0 0 1 0"
         id="feColorMatrix926" />
    </filter>
    <filter
       style="color-interpolation-filters:sRGB"
       inkscape:label="Lightness-Contrast"
       id="filter929">
      <feColorMatrix
         values="3.26994 0 0 0.458429 -1.13497 0 3.26994 0 0.458429 -1.13497 0 0 3.26994 0.458429 -1.13497 0 0 0 1 0"
         id="feColorMatrix927" />
    </filter>
    <filter
       style="color-interpolation-filters:sRGB"
       inkscape:label="Lightness-Contrast"
       id="filter933">
      <feColorMatrix
         values="3.26994 0 0 0.458429 -1.13497 0 3.26994 0 0.458429 -1.13497 0 0 3.26994 0.458429 -1.13497 0 0 0 1 0"
         id="feColorMatrix931" />
    </filter>
  </defs>
  <sodipodi:namedview
     id="base"
     pagecolor="#ffffff"
     bordercolor="#666666"
     borderopacity="1.0"
     inkscape:pageopacity="0.0"
     inkscape:pageshadow="2"
     inkscape:zoom="11.2"
     inkscape:cx="41.538859"
     inkscape:cy="3.9252295"
     inkscape:document-units="px"
     inkscape:current-layer="layer1"
     showgrid="true"
     fit-margin-top="0"
     fit-margin-left="0"
     fit-margin-right="0"
     fit-margin-bottom="0"
     units="px"
     inkscape:window-width="1546"
     inkscape:window-height="1041"
     inkscape:window-x="0"
     inkscape:window-y="0"
     inkscape:window-maximized="0"
     inkscape:snap-global="false"
     inkscape:document-rotation="0">
    <inkscape:grid
       type="xygrid"
       id="grid12870"
       originx="-20.372917"
       originy="84.666661" />
  </sodipodi:namedview>
  <metadata
     id="metadata12550">
    <rdf:RDF>
      <cc:Work
         rdf:about="">
        <dc:format>image/svg+xml</dc:format>
        <dc:type
           rdf:resource="http://purl.org/dc/dcmitype/StillImage" />
        <dc:title />
      </cc:Work>
    </rdf:RDF>
  </metadata>
  <g
     inkscape:label="Layer 1"
     inkscape:groupmode="layer"
     id="layer1"
     transform="translate(-26.543497,-161.30655)">
    <path
       inkscape:connector-curvature="0"
       id="path33453"
       d="m 26.543497,161.26312 h 7.961123 v 100.58509 h -7.961123 z m 0,0"
       style="fill:#f4f4f4;fill-opacity:1;fill-rule:nonzero;stroke:none;stroke-width:0.144511" />
    <g
       aria-label="DEBUG"
       id="text1174"
       style="font-size:1.41111px;line-height:0.15;font-family:'DIN Alternate Light';-inkscape-font-specification:'DIN Alternate Light, ';stroke-width:0.264583;fill:#333333">
      <path
         d="m 28.264836,162.31528 v 0.0496 q 0,0.19843 -0.02791,0.34726 -0.02687,0.14883 -0.118856,0.24081 -0.04444,0.0445 -0.102319,0.0755 -0.05788,0.03 -0.127124,0.0465 -0.06821,0.0155 -0.146762,0.0155 H 27.23544 v -1.50688 h 0.506429 q 0.07855,0 0.146762,0.0165 0.06925,0.0155 0.12609,0.0455 0.05788,0.03 0.103353,0.0755 0.09302,0.092 0.11989,0.22634 0.02687,0.13332 0.02687,0.32143 z m -0.114722,0 v -0.0631 q 0,-0.15916 -0.02067,-0.26872 -0.02067,-0.11059 -0.09198,-0.1819 -0.112655,-0.11679 -0.323495,-0.11679 h -0.363802 v 1.30432 h 0.363802 q 0.21084,0 0.323495,-0.11679 0.07131,-0.0713 0.09198,-0.1943 0.02067,-0.12403 0.02067,-0.29663 z"
         style="font-size:2.11667px;stroke-width:0.264583;fill:#333333"
         id="path1176" />
      <path
         d="m 29.585687,163.09042 h -0.914674 v -1.50688 h 0.914674 v 0.10128 h -0.799952 v 0.59532 h 0.681096 v 0.10128 h -0.681096 v 0.60772 h 0.799952 z"
         style="font-size:2.11667px;stroke-width:0.264583;fill:#333333"
         id="path1178" />
      <path
         d="m 30.950981,162.68011 q 0,0.19741 -0.118856,0.30386 -0.118856,0.10645 -0.323495,0.10645 h -0.571542 v -1.50688 h 0.555005 q 0.127125,0 0.22531,0.0475 0.09922,0.0465 0.15503,0.13642 0.05581,0.0899 0.05581,0.20981 0,0.11886 -0.06304,0.20981 -0.06305,0.091 -0.1726,0.12816 0.124024,0.0424 0.191203,0.13849 0.06718,0.0951 0.06718,0.22634 z m -0.13746,-0.7028 q 0,-0.0992 -0.04444,-0.16433 -0.04341,-0.0662 -0.118855,-0.0971 -0.07545,-0.031 -0.170533,-0.031 H 30.05181 v 0.58395 h 0.427881 q 0.146761,0 0.239779,-0.0724 0.09405,-0.0734 0.09405,-0.21911 z m 0.02377,0.7028 q 0,-0.0961 -0.04237,-0.16536 -0.04134,-0.0692 -0.117823,-0.10646 -0.07648,-0.0372 -0.180867,-0.0372 H 30.05181 v 0.61805 h 0.444418 q 0.104386,0 0.180867,-0.0372 0.07648,-0.0372 0.117823,-0.10645 0.04237,-0.0703 0.04237,-0.16537 z"
         style="font-size:2.11667px;stroke-width:0.264583;fill:#333333"
         id="path1180" />
      <path
         d="m 32.368984,162.60156 q 0,0.1447 -0.06615,0.25942 -0.06511,0.11472 -0.182935,0.1788 -0.116789,0.0631 -0.26665,0.0631 -0.148829,0 -0.267685,-0.0631 -0.117822,-0.0641 -0.183968,-0.1788 -0.06511,-0.11472 -0.06511,-0.25942 v -1.01802 h 0.113689 v 1.00355 q 0,0.12403 0.04961,0.21808 0.05064,0.093 0.142627,0.14469 0.09199,0.0517 0.210841,0.0517 0.116788,0 0.208773,-0.0517 0.09302,-0.0517 0.142627,-0.14469 0.05064,-0.0941 0.05064,-0.21808 v -1.00355 h 0.113688 z"
         style="font-size:2.11667px;stroke-width:0.264583;fill:#333333"
         id="path1182" />
      <path
         d="m 33.789055,162.56539 q 0,0.23358 -0.121957,0.3638 -0.07441,0.0827 -0.177767,0.12816 -0.103353,0.0455 -0.218075,0.0455 -0.107487,0 -0.205672,-0.0403 -0.09819,-0.0403 -0.171566,-0.11369 -0.06718,-0.0672 -0.09612,-0.14159 -0.02894,-0.0744 -0.03617,-0.17054 -0.0072,-0.0961 -0.0072,-0.29972 0,-0.20361 0.0072,-0.29972 0.0072,-0.0961 0.03617,-0.17054 0.02894,-0.0744 0.09612,-0.14159 0.07338,-0.0734 0.170532,-0.11369 0.09819,-0.0403 0.206706,-0.0403 0.139527,0 0.241846,0.0517 0.10232,0.0506 0.206707,0.1571 l -0.07648,0.0765 q -0.09405,-0.0961 -0.1757,-0.13953 -0.08062,-0.0444 -0.196371,-0.0444 -0.08062,0 -0.155029,0.0289 -0.07338,0.0289 -0.131258,0.0868 -0.04031,0.0403 -0.06305,0.0837 -0.0217,0.0434 -0.03411,0.10956 -0.0124,0.0661 -0.0155,0.15089 -0.0031,0.0848 -0.0031,0.20464 0,0.1788 0.0072,0.27285 0.0072,0.093 0.03204,0.15813 0.02481,0.0651 0.07648,0.11679 0.05478,0.0558 0.129191,0.0868 0.07545,0.03 0.157096,0.03 0.09095,0 0.1726,-0.0372 0.08268,-0.0382 0.14056,-0.10852 0.04858,-0.0599 0.06925,-0.13022 0.0217,-0.0703 0.0217,-0.16847 v -0.13539 h -0.404111 v -0.10129 h 0.517799 z"
         style="font-size:2.11667px;stroke-width:0.264583;fill:#333333"
         id="path1184" />
    </g>
  </g>
</svg>
