<?xml version="1.0" encoding="UTF-8" standalone="no"?>
<svg
   xmlns:dc="http://purl.org/dc/elements/1.1/"
   xmlns:cc="http://creativecommons.org/ns#"
   xmlns:rdf="http://www.w3.org/1999/02/22-rdf-syntax-ns#"
   xmlns:svg="http://www.w3.org/2000/svg"
   xmlns="http://www.w3.org/2000/svg"
   xmlns:sodipodi="http://sodipodi.sourceforge.net/DTD/sodipodi-0.dtd"
   xmlns:inkscape="http://www.inkscape.org/namespaces/inkscape"
   width="30"
   height="380"
   viewBox="0 0 7.9375 100.54166"
   version="1.1"
   id="svg12553"
   inkscape:version="1.0.2 (e86c870879, 2021-01-15)"
   sodipodi:docname="Panel2hpSWITCH.svg">
  <defs
     id="defs12547">
    <filter
       style="color-interpolation-filters:sRGB"
       inkscape:label="Lightness-Contrast"
       id="filter928">
      <feColorMatrix
         values="3.26994 0 0 0.458429 -1.13497 0 3.26994 0 0.458429 -1.13497 0 0 3.26994 0.458429 -1.13497 0 0 0 1 0"
         id="feColorMatrix926" />
    </filter>
    <filter
       style="color-interpolation-filters:sRGB"
       inkscape:label="Lightness-Contrast"
       id="filter929">
      <feColorMatrix
         values="3.26994 0 0 0.458429 -1.13497 0 3.26994 0 0.458429 -1.13497 0 0 3.26994 0.458429 -1.13497 0 0 0 1 0"
         id="feColorMatrix927" />
    </filter>
    <filter
       style="color-interpolation-filters:sRGB"
       inkscape:label="Lightness-Contrast"
       id="filter933">
      <feColorMatrix
         values="3.26994 0 0 0.458429 -1.13497 0 3.26994 0 0.458429 -1.13497 0 0 3.26994 0.458429 -1.13497 0 0 0 1 0"
         id="feColorMatrix931" />
    </filter>
  </defs>
  <sodipodi:namedview
     id="base"
     pagecolor="#ffffff"
     bordercolor="#666666"
     borderopacity="1.0"
     inkscape:pageopacity="0.0"
     inkscape:pageshadow="2"
     inkscape:zoom="31.678384"
     inkscape:cx="3.3617901"
     inkscape:cy="7.5531807"
     inkscape:document-units="px"
     inkscape:current-layer="layer1"
     showgrid="true"
     fit-margin-top="0"
     fit-margin-left="0"
     fit-margin-right="0"
     fit-margin-bottom="0"
     units="px"
     inkscape:window-width="1686"
     inkscape:window-height="1041"
     inkscape:window-x="0"
     inkscape:window-y="0"
     inkscape:window-maximized="0"
     inkscape:snap-global="false"
     inkscape:document-rotation="0">
    <inkscape:grid
       type="xygrid"
       id="grid12870"
       originx="-20.372917"
       originy="84.666661" />
  </sodipodi:namedview>
  <metadata
     id="metadata12550">
    <rdf:RDF>
      <cc:Work
         rdf:about="">
        <dc:format>image/svg+xml</dc:format>
        <dc:type
           rdf:resource="http://purl.org/dc/dcmitype/StillImage" />
        <dc:title></dc:title>
      </cc:Work>
    </rdf:RDF>
  </metadata>
  <g
     inkscape:label="Layer 1"
     inkscape:groupmode="layer"
     id="layer1"
     transform="translate(-26.543497,-161.30655)">
    <path
       inkscape:connector-curvature="0"
       id="path33453"
       d="m 26.543497,161.26312 h 7.961123 v 100.58509 h -7.961123 z m 0,0"
       style="fill:#f4f4f4;fill-opacity:1;fill-rule:nonzero;stroke:none;stroke-width:0.144511" />
    <g
       aria-label="SWITCH"
       id="text847"
       style="font-size:2.11667px;line-height:1.25;font-family:'DIN Alternate Light';-inkscape-font-specification:'DIN Alternate Light, ';letter-spacing:-0.140229px;fill:#333333;stroke-width:0.264583">
      <path
         d="m 28.299665,162.68361 q 0,0.093 -0.03514,0.17157 -0.03411,0.0775 -0.100252,0.13229 -0.06511,0.0537 -0.161231,0.0837 -0.09509,0.0289 -0.21084,0.0289 -0.107487,0 -0.196371,-0.0207 -0.08888,-0.0207 -0.163298,-0.0651 -0.07441,-0.0444 -0.142627,-0.11265 l 0.08062,-0.0806 q 0.06821,0.0682 0.131259,0.10749 0.06304,0.0382 0.135392,0.0548 0.07235,0.0155 0.161231,0.0155 0.118856,0 0.205672,-0.0362 0.08682,-0.0372 0.134359,-0.10749 0.04754,-0.0713 0.04754,-0.16743 0,-0.1385 -0.08268,-0.21188 -0.03824,-0.0331 -0.08475,-0.0496 -0.04651,-0.0176 -0.133326,-0.031 l -0.1757,-0.0269 q -0.171566,-0.0258 -0.268718,-0.11059 -0.118856,-0.0992 -0.118856,-0.27699 0,-0.0951 0.03307,-0.17156 0.03411,-0.0775 0.09405,-0.13023 0.05994,-0.0537 0.147794,-0.0816 0.08785,-0.0289 0.193271,-0.0289 0.137459,0 0.236678,0.0393 0.09922,0.0382 0.197404,0.12299 l -0.07441,0.0744 q -0.07958,-0.0713 -0.161231,-0.10542 -0.08062,-0.0341 -0.204639,-0.0341 -0.163297,0 -0.256315,0.0837 -0.09302,0.0837 -0.09302,0.22738 0,0.13126 0.07752,0.19637 0.04237,0.0341 0.103353,0.0599 0.06201,0.0248 0.121957,0.0331 l 0.162264,0.0258 q 0.104386,0.0155 0.163298,0.0372 0.05891,0.0217 0.10542,0.062 0.06408,0.0527 0.09715,0.12816 0.03411,0.0744 0.03411,0.16433 z"
         style="font-size:2.11667px;fill:#333333;stroke-width:0.264583"
         id="path849" />
      <path
         d="m 30.023925,161.58084 -0.376205,1.50688 h -0.116789 l -0.355535,-1.31258 -0.355534,1.31258 h -0.115756 l -0.377238,-1.50688 h 0.120923 l 0.317294,1.31051 0.3514,-1.31051 h 0.118856 l 0.3514,1.31051 0.317294,-1.31051 z"
         style="font-size:2.11667px;fill:#333333;stroke-width:0.264583"
         id="path851" />
      <path
         d="m 30.273336,163.08772 h -0.114721 v -1.50688 h 0.114721 z"
         style="font-size:2.11667px;fill:#333333;stroke-width:0.264583"
         id="path853" />
      <path
         d="m 31.44259,161.68212 h -0.450619 v 1.4056 h -0.113688 v -1.4056 h -0.449586 v -0.10128 h 1.013893 z"
         style="font-size:2.11667px;fill:#333333;stroke-width:0.264583"
         id="path855" />
      <path
         d="m 32.481619,162.91202 q -0.09922,0.094 -0.198438,0.1416 -0.09922,0.0465 -0.226343,0.0465 -0.107487,0 -0.205673,-0.0403 -0.09819,-0.0403 -0.171566,-0.11369 -0.06718,-0.0672 -0.09612,-0.14159 -0.02894,-0.0744 -0.03617,-0.17054 -0.0072,-0.0961 -0.0072,-0.29972 0,-0.20361 0.0072,-0.29972 0.0072,-0.0961 0.03617,-0.17054 0.02894,-0.0744 0.09612,-0.14159 0.07338,-0.0734 0.170533,-0.11369 0.09819,-0.0403 0.206706,-0.0403 0.127124,0 0.22841,0.0486 0.101286,0.0475 0.196371,0.13953 l -0.07545,0.0765 q -0.08372,-0.0837 -0.162264,-0.12299 -0.07751,-0.0403 -0.187069,-0.0403 -0.08165,0 -0.156063,0.03 -0.07441,0.0289 -0.130225,0.0858 -0.04031,0.0403 -0.06304,0.0837 -0.0217,0.0434 -0.03411,0.10955 -0.0124,0.0662 -0.0155,0.1509 -0.0031,0.0848 -0.0031,0.20464 0,0.1788 0.0072,0.27285 0.0072,0.093 0.03204,0.15813 0.02481,0.0651 0.07648,0.11679 0.05478,0.0558 0.129191,0.0868 0.07545,0.03 0.157097,0.03 0.07235,0 0.133325,-0.0186 0.06201,-0.0196 0.109555,-0.0538 0.04754,-0.0341 0.106453,-0.0909 z"
         style="font-size:2.11667px;fill:#333333;stroke-width:0.264583"
         id="path857" />
      <path
         d="m 33.734589,163.08772 h -0.113688 v -0.709 h -0.785483 v 0.709 h -0.114722 v -1.50688 h 0.114722 v 0.6966 h 0.785483 v -0.6966 h 0.113688 z"
         style="font-size:2.11667px;fill:#333333;stroke-width:0.264583"
         id="path859" />
    </g>
  </g>
</svg>
