<?xml version="1.0" encoding="UTF-8" standalone="no"?>
<svg
   xmlns:dc="http://purl.org/dc/elements/1.1/"
   xmlns:cc="http://creativecommons.org/ns#"
   xmlns:rdf="http://www.w3.org/1999/02/22-rdf-syntax-ns#"
   xmlns:svg="http://www.w3.org/2000/svg"
   xmlns="http://www.w3.org/2000/svg"
   xmlns:sodipodi="http://sodipodi.sourceforge.net/DTD/sodipodi-0.dtd"
   xmlns:inkscape="http://www.inkscape.org/namespaces/inkscape"
   width="30"
   height="380"
   viewBox="0 0 7.9375 100.54166"
   version="1.1"
   id="svg12553"
   inkscape:version="1.0.2 (e86c870879, 2021-01-15)"
   sodipodi:docname="Panel2hpMORPH.svg">
  <defs
     id="defs12547">
    <filter
       style="color-interpolation-filters:sRGB"
       inkscape:label="Lightness-Contrast"
       id="filter928">
      <feColorMatrix
         values="3.26994 0 0 0.458429 -1.13497 0 3.26994 0 0.458429 -1.13497 0 0 3.26994 0.458429 -1.13497 0 0 0 1 0"
         id="feColorMatrix926" />
    </filter>
    <filter
       style="color-interpolation-filters:sRGB"
       inkscape:label="Lightness-Contrast"
       id="filter929">
      <feColorMatrix
         values="3.26994 0 0 0.458429 -1.13497 0 3.26994 0 0.458429 -1.13497 0 0 3.26994 0.458429 -1.13497 0 0 0 1 0"
         id="feColorMatrix927" />
    </filter>
    <filter
       style="color-interpolation-filters:sRGB"
       inkscape:label="Lightness-Contrast"
       id="filter933">
      <feColorMatrix
         values="3.26994 0 0 0.458429 -1.13497 0 3.26994 0 0.458429 -1.13497 0 0 3.26994 0.458429 -1.13497 0 0 0 1 0"
         id="feColorMatrix931" />
    </filter>
  </defs>
  <sodipodi:namedview
     id="base"
     pagecolor="#ffffff"
     bordercolor="#666666"
     borderopacity="1.0"
     inkscape:pageopacity="0.0"
     inkscape:pageshadow="2"
     inkscape:zoom="31.678384"
     inkscape:cx="10.723624"
     inkscape:cy="0.65564185"
     inkscape:document-units="px"
     inkscape:current-layer="layer1"
     showgrid="true"
     fit-margin-top="0"
     fit-margin-left="0"
     fit-margin-right="0"
     fit-margin-bottom="0"
     units="px"
     inkscape:window-width="1699"
     inkscape:window-height="1041"
     inkscape:window-x="0"
     inkscape:window-y="0"
     inkscape:window-maximized="0"
     inkscape:snap-global="false"
     inkscape:document-rotation="0">
    <inkscape:grid
       type="xygrid"
       id="grid12870"
       originx="-20.372917"
       originy="84.666661" />
  </sodipodi:namedview>
  <metadata
     id="metadata12550">
    <rdf:RDF>
      <cc:Work
         rdf:about="">
        <dc:format>image/svg+xml</dc:format>
        <dc:type
           rdf:resource="http://purl.org/dc/dcmitype/StillImage" />
        <dc:title></dc:title>
      </cc:Work>
    </rdf:RDF>
  </metadata>
  <g
     inkscape:label="Layer 1"
     inkscape:groupmode="layer"
     id="layer1"
     transform="translate(-26.543497,-161.30655)">
    <path
       inkscape:connector-curvature="0"
       id="path33453"
       d="m 26.543497,161.26312 h 7.961123 v 100.58509 h -7.961123 z m 0,0"
       style="fill:#f4f4f4;fill-opacity:1;fill-rule:nonzero;stroke:none;stroke-width:0.144511" />
    <g
       aria-label="MORPH"
       id="text849"
       style="font-size:2.11667px;line-height:1.25;font-family:'DIN Alternate Light';-inkscape-font-specification:'DIN Alternate Light, ';letter-spacing:-0.224896px;fill:#333333;stroke-width:0.264583">
      <path
         d="m 28.802477,163.09392 h -0.114722 v -1.24231 l -0.456821,1.03043 h -0.114721 l -0.465089,-1.03043 v 1.24231 h -0.114722 v -1.50689 h 0.114722 l 0.525033,1.16169 0.511598,-1.16169 h 0.114722 z"
         style="font-size:2.11667px;fill:#333333;stroke-width:0.264583"
         id="path851" />
      <path
         d="m 30.016255,162.34047 q 0,0.20361 -0.0072,0.29973 -0.0072,0.0961 -0.03617,0.17053 -0.02894,0.0744 -0.09612,0.14159 -0.07338,0.0734 -0.171566,0.11369 -0.09715,0.0403 -0.204639,0.0403 -0.107487,0 -0.205672,-0.0403 -0.09819,-0.0403 -0.171566,-0.11369 -0.06718,-0.0672 -0.09612,-0.14159 -0.02894,-0.0744 -0.03617,-0.17053 -0.0072,-0.0961 -0.0072,-0.29973 0,-0.2036 0.0072,-0.29972 0.0072,-0.0961 0.03617,-0.17053 0.02894,-0.0744 0.09612,-0.1416 0.07338,-0.0734 0.170532,-0.11368 0.09819,-0.0403 0.206706,-0.0403 0.108521,0 0.205673,0.0403 0.09715,0.0403 0.170532,0.11368 0.06718,0.0672 0.09612,0.1416 0.02894,0.0744 0.03617,0.17053 0.0072,0.0961 0.0072,0.29972 z m -0.113689,0 q 0,-0.1788 -0.0072,-0.27285 -0.0072,-0.0941 -0.03204,-0.15813 -0.0248,-0.0651 -0.07751,-0.11782 -0.05788,-0.0579 -0.131259,-0.0868 -0.07235,-0.0289 -0.153996,-0.0289 -0.08062,0 -0.155029,0.0289 -0.07338,0.0289 -0.131259,0.0868 -0.04031,0.0403 -0.06304,0.0837 -0.0217,0.0434 -0.03411,0.10955 -0.0124,0.0661 -0.0155,0.1509 -0.0031,0.0847 -0.0031,0.20463 0,0.17881 0.0072,0.27286 0.0072,0.093 0.03204,0.15813 0.02481,0.0651 0.07648,0.11679 0.05684,0.0568 0.131259,0.0868 0.07441,0.03 0.155029,0.03 0.08165,0 0.15503,-0.03 0.07338,-0.03 0.130225,-0.0868 0.05374,-0.0538 0.07751,-0.11783 0.0248,-0.0641 0.03204,-0.15709 0.0072,-0.094 0.0072,-0.27286 z"
         style="font-size:2.11667px;fill:#333333;stroke-width:0.264583"
         id="path853" />
      <path
         d="m 31.219697,163.09392 h -0.133325 l -0.359668,-0.69453 h -0.414446 v 0.69453 h -0.114722 v -1.50689 h 0.573609 q 0.125058,0 0.222209,0.0475 0.09819,0.0465 0.153996,0.1385 0.05581,0.091 0.05581,0.21807 0,0.16537 -0.09302,0.27182 -0.09198,0.10645 -0.254248,0.13436 z m -0.131258,-1.10071 q 0,-0.14986 -0.09095,-0.22738 -0.08992,-0.0775 -0.240812,-0.0775 h -0.444418 v 0.60978 h 0.444418 q 0.07338,0 0.134359,-0.0186 0.06098,-0.0196 0.104386,-0.0569 0.04341,-0.0372 0.06821,-0.0951 0.02481,-0.0579 0.02481,-0.13436 z"
         style="font-size:2.11667px;fill:#333333;stroke-width:0.264583"
         id="path855" />
      <path
         d="m 32.371464,162.02111 q 0,0.20154 -0.128158,0.31833 -0.127124,0.11576 -0.326596,0.11576 h -0.438216 v 0.63872 h -0.114722 v -1.50689 h 0.552938 q 0.100253,0 0.181902,0.0289 0.08268,0.0279 0.14366,0.0837 0.06098,0.0558 0.09508,0.13849 0.03411,0.0827 0.03411,0.18293 z m -0.113689,0 q 0,-0.16536 -0.09612,-0.24908 -0.09508,-0.0837 -0.257349,-0.0837 h -0.425814 v 0.66456 h 0.425814 q 0.161231,0 0.257349,-0.0827 0.09612,-0.0837 0.09612,-0.24908 z"
         style="font-size:2.11667px;fill:#333333;stroke-width:0.264583"
         id="path857" />
      <path
         d="m 33.48809,163.09392 h -0.113688 v -0.709 h -0.785483 v 0.709 h -0.114722 v -1.50689 h 0.114722 v 0.6966 h 0.785483 v -0.6966 h 0.113688 z"
         style="font-size:2.11667px;fill:#333333;stroke-width:0.264583"
         id="path859" />
    </g>
  </g>
</svg>
