<?xml version="1.0" encoding="UTF-8" standalone="no"?>
<svg
   xmlns:dc="http://purl.org/dc/elements/1.1/"
   xmlns:cc="http://creativecommons.org/ns#"
   xmlns:rdf="http://www.w3.org/1999/02/22-rdf-syntax-ns#"
   xmlns:svg="http://www.w3.org/2000/svg"
   xmlns="http://www.w3.org/2000/svg"
   xmlns:sodipodi="http://sodipodi.sourceforge.net/DTD/sodipodi-0.dtd"
   xmlns:inkscape="http://www.inkscape.org/namespaces/inkscape"
   width="30"
   height="380"
   viewBox="0 0 7.9375 100.54166"
   version="1.1"
   id="svg12553"
   inkscape:version="1.0.2 (e86c870879, 2021-01-15)"
   sodipodi:docname="Panel2hpCRG.svg">
  <defs
     id="defs12547">
    <filter
       style="color-interpolation-filters:sRGB"
       inkscape:label="Lightness-Contrast"
       id="filter928">
      <feColorMatrix
         values="3.26994 0 0 0.458429 -1.13497 0 3.26994 0 0.458429 -1.13497 0 0 3.26994 0.458429 -1.13497 0 0 0 1 0"
         id="feColorMatrix926" />
    </filter>
    <filter
       style="color-interpolation-filters:sRGB"
       inkscape:label="Lightness-Contrast"
       id="filter929">
      <feColorMatrix
         values="3.26994 0 0 0.458429 -1.13497 0 3.26994 0 0.458429 -1.13497 0 0 3.26994 0.458429 -1.13497 0 0 0 1 0"
         id="feColorMatrix927" />
    </filter>
    <filter
       style="color-interpolation-filters:sRGB"
       inkscape:label="Lightness-Contrast"
       id="filter933">
      <feColorMatrix
         values="3.26994 0 0 0.458429 -1.13497 0 3.26994 0 0.458429 -1.13497 0 0 3.26994 0.458429 -1.13497 0 0 0 1 0"
         id="feColorMatrix931" />
    </filter>
  </defs>
  <sodipodi:namedview
     id="base"
     pagecolor="#ffffff"
     bordercolor="#666666"
     borderopacity="1.0"
     inkscape:pageopacity="0.0"
     inkscape:pageshadow="2"
     inkscape:zoom="11.2"
     inkscape:cx="48.044937"
     inkscape:cy="29.394217"
     inkscape:document-units="px"
     inkscape:current-layer="layer1"
     showgrid="true"
     fit-margin-top="0"
     fit-margin-left="0"
     fit-margin-right="0"
     fit-margin-bottom="0"
     units="px"
     inkscape:window-width="1546"
     inkscape:window-height="1041"
     inkscape:window-x="0"
     inkscape:window-y="0"
     inkscape:window-maximized="0"
     inkscape:snap-global="false"
     inkscape:document-rotation="0">
    <inkscape:grid
       type="xygrid"
       id="grid12870"
       originx="-20.372917"
       originy="84.666661" />
  </sodipodi:namedview>
  <metadata
     id="metadata12550">
    <rdf:RDF>
      <cc:Work
         rdf:about="">
        <dc:format>image/svg+xml</dc:format>
        <dc:type
           rdf:resource="http://purl.org/dc/dcmitype/StillImage" />
        <dc:title />
      </cc:Work>
    </rdf:RDF>
  </metadata>
  <g
     inkscape:label="Layer 1"
     inkscape:groupmode="layer"
     id="layer1"
     transform="translate(-26.543497,-161.30655)">
    <path
       inkscape:connector-curvature="0"
       id="path33453"
       d="m 26.543497,161.26312 h 7.961123 v 100.58509 h -7.961123 z m 0,0"
       style="fill:#f4f4f4;fill-opacity:1;fill-rule:nonzero;stroke:none;stroke-width:0.144511" />
    <g
       aria-label="CRG"
       id="text1189"
       style="font-size:1.41111px;line-height:0.15;font-family:'DIN Alternate Light';-inkscape-font-specification:'DIN Alternate Light, ';stroke-width:0.264583;fill:#333333">
      <path
         d="m 29.609976,162.91472 q -0.09922,0.0941 -0.198438,0.1416 -0.09922,0.0465 -0.226343,0.0465 -0.107487,0 -0.205673,-0.0403 -0.09819,-0.0403 -0.171566,-0.11369 -0.06718,-0.0672 -0.09612,-0.14159 -0.02894,-0.0744 -0.03617,-0.17054 -0.0072,-0.0961 -0.0072,-0.29972 0,-0.20361 0.0072,-0.29972 0.0072,-0.0961 0.03617,-0.17054 0.02894,-0.0744 0.09612,-0.14159 0.07338,-0.0734 0.170533,-0.11369 0.09819,-0.0403 0.206706,-0.0403 0.127124,0 0.22841,0.0486 0.101286,0.0475 0.196371,0.13953 l -0.07545,0.0765 q -0.08372,-0.0837 -0.162264,-0.12299 -0.07752,-0.0403 -0.187069,-0.0403 -0.08165,0 -0.156063,0.03 -0.07441,0.0289 -0.130225,0.0858 -0.04031,0.0403 -0.06305,0.0837 -0.0217,0.0434 -0.03411,0.10956 -0.0124,0.0661 -0.0155,0.15089 -0.0031,0.0848 -0.0031,0.20464 0,0.1788 0.0072,0.27285 0.0072,0.093 0.03204,0.15813 0.02481,0.0651 0.07648,0.11679 0.05478,0.0558 0.129191,0.0868 0.07545,0.03 0.157097,0.03 0.07235,0 0.133325,-0.0186 0.06201,-0.0196 0.109555,-0.0538 0.04754,-0.0341 0.106453,-0.0909 z"
         style="font-size:2.11667px;stroke-width:0.264583;fill:#333333"
         id="path1191" />
      <path
         d="m 31.011443,163.09042 h -0.133326 l -0.359668,-0.69453 h -0.414446 v 0.69453 h -0.114722 v -1.50688 h 0.57361 q 0.125057,0 0.222209,0.0475 0.09819,0.0465 0.153996,0.13849 0.05581,0.091 0.05581,0.21808 0,0.16536 -0.09302,0.27182 -0.09199,0.10645 -0.254249,0.13435 z m -0.131259,-1.10071 q 0,-0.14986 -0.09095,-0.22737 -0.08992,-0.0775 -0.240813,-0.0775 h -0.444418 v 0.60979 h 0.444418 q 0.07338,0 0.134359,-0.0186 0.06098,-0.0196 0.104387,-0.0568 0.04341,-0.0372 0.06821,-0.0951 0.0248,-0.0579 0.0248,-0.13436 z"
         style="font-size:2.11667px;stroke-width:0.264583;fill:#333333"
         id="path1193" />
      <path
         d="m 32.356065,162.56539 q 0,0.23358 -0.121956,0.3638 -0.07441,0.0827 -0.177767,0.12816 -0.103353,0.0455 -0.218075,0.0455 -0.107487,0 -0.205673,-0.0403 -0.09819,-0.0403 -0.171566,-0.11369 -0.06718,-0.0672 -0.09612,-0.14159 -0.02894,-0.0744 -0.03617,-0.17054 -0.0072,-0.0961 -0.0072,-0.29972 0,-0.20361 0.0072,-0.29972 0.0072,-0.0961 0.03617,-0.17054 0.02894,-0.0744 0.09612,-0.14159 0.07338,-0.0734 0.170533,-0.11369 0.09818,-0.0403 0.206706,-0.0403 0.139526,0 0.241846,0.0517 0.102319,0.0506 0.206706,0.1571 l -0.07648,0.0765 q -0.09405,-0.0961 -0.1757,-0.13953 -0.08062,-0.0444 -0.196371,-0.0444 -0.08062,0 -0.15503,0.0289 -0.07338,0.0289 -0.131258,0.0868 -0.04031,0.0403 -0.06304,0.0837 -0.02171,0.0434 -0.03411,0.10956 -0.0124,0.0661 -0.0155,0.15089 -0.0031,0.0848 -0.0031,0.20464 0,0.1788 0.0072,0.27285 0.0072,0.093 0.03204,0.15813 0.0248,0.0651 0.07648,0.11679 0.05478,0.0558 0.129191,0.0868 0.07545,0.03 0.157097,0.03 0.09095,0 0.172599,-0.0372 0.08268,-0.0382 0.14056,-0.10852 0.04858,-0.0599 0.06925,-0.13022 0.0217,-0.0703 0.0217,-0.16847 v -0.13539 h -0.40411 v -0.10129 h 0.517798 z"
         style="font-size:2.11667px;stroke-width:0.264583;fill:#333333"
         id="path1195" />
    </g>
  </g>
</svg>
