<?xml version="1.0" encoding="UTF-8" standalone="no"?>
<svg
   xmlns:dc="http://purl.org/dc/elements/1.1/"
   xmlns:cc="http://creativecommons.org/ns#"
   xmlns:rdf="http://www.w3.org/1999/02/22-rdf-syntax-ns#"
   xmlns:svg="http://www.w3.org/2000/svg"
   xmlns="http://www.w3.org/2000/svg"
   xmlns:sodipodi="http://sodipodi.sourceforge.net/DTD/sodipodi-0.dtd"
   xmlns:inkscape="http://www.inkscape.org/namespaces/inkscape"
   width="30"
   height="380"
   viewBox="0 0 7.9375 100.54166"
   version="1.1"
   id="svg12553"
   inkscape:version="1.0.2 (e86c870879, 2021-01-15)"
   sodipodi:docname="Panel2hpM8.svg">
  <defs
     id="defs12547">
    <filter
       style="color-interpolation-filters:sRGB"
       inkscape:label="Lightness-Contrast"
       id="filter928">
      <feColorMatrix
         values="3.26994 0 0 0.458429 -1.13497 0 3.26994 0 0.458429 -1.13497 0 0 3.26994 0.458429 -1.13497 0 0 0 1 0"
         id="feColorMatrix926" />
    </filter>
    <filter
       style="color-interpolation-filters:sRGB"
       inkscape:label="Lightness-Contrast"
       id="filter929">
      <feColorMatrix
         values="3.26994 0 0 0.458429 -1.13497 0 3.26994 0 0.458429 -1.13497 0 0 3.26994 0.458429 -1.13497 0 0 0 1 0"
         id="feColorMatrix927" />
    </filter>
    <filter
       style="color-interpolation-filters:sRGB"
       inkscape:label="Lightness-Contrast"
       id="filter933">
      <feColorMatrix
         values="3.26994 0 0 0.458429 -1.13497 0 3.26994 0 0.458429 -1.13497 0 0 3.26994 0.458429 -1.13497 0 0 0 1 0"
         id="feColorMatrix931" />
    </filter>
  </defs>
  <sodipodi:namedview
     id="base"
     pagecolor="#ffffff"
     bordercolor="#666666"
     borderopacity="1.0"
     inkscape:pageopacity="0.0"
     inkscape:pageshadow="2"
     inkscape:zoom="2.8"
     inkscape:cx="-20.001813"
     inkscape:cy="103.2587"
     inkscape:document-units="px"
     inkscape:current-layer="layer1"
     showgrid="true"
     fit-margin-top="0"
     fit-margin-left="0"
     fit-margin-right="0"
     fit-margin-bottom="0"
     units="px"
     inkscape:window-width="1546"
     inkscape:window-height="1041"
     inkscape:window-x="0"
     inkscape:window-y="0"
     inkscape:window-maximized="0"
     inkscape:snap-global="false"
     inkscape:document-rotation="0">
    <inkscape:grid
       type="xygrid"
       id="grid12870"
       originx="-20.372917"
       originy="84.666661" />
  </sodipodi:namedview>
  <metadata
     id="metadata12550">
    <rdf:RDF>
      <cc:Work
         rdf:about="">
        <dc:format>image/svg+xml</dc:format>
        <dc:type
           rdf:resource="http://purl.org/dc/dcmitype/StillImage" />
        <dc:title />
      </cc:Work>
    </rdf:RDF>
  </metadata>
  <g
     inkscape:label="Layer 1"
     inkscape:groupmode="layer"
     id="layer1"
     transform="translate(-26.543497,-161.30655)">
    <path
       inkscape:connector-curvature="0"
       id="path33453"
       d="m 26.543497,161.26312 h 7.961123 v 100.58509 h -7.961123 z m 0,0"
       style="fill:#f4f4f4;fill-opacity:1;fill-rule:nonzero;stroke:none;stroke-width:0.144511" />
    <g
       aria-label="MERGE"
       id="text1033"
       style="font-size:1.41111px;line-height:0.15;font-family:'DIN Alternate Light';-inkscape-font-specification:'DIN Alternate Light, ';fill:#333333;fill-opacity:1;stroke-width:0.264583"
       transform="translate(-1.131579e-6,0.26455332)">
      <path
         d="m 28.441053,162.82584 h -0.114722 v -1.24231 l -0.45682,1.03043 H 27.754789 L 27.2897,161.58353 v 1.24231 h -0.114721 v -1.50689 H 27.2897 l 0.525034,1.16169 0.511597,-1.16169 h 0.114722 z"
         style="font-size:2.11667px;fill:#333333;fill-opacity:1;stroke-width:0.264583"
         id="path1198" />
      <path
         d="m 29.820816,162.82584 h -0.914674 v -1.50689 h 0.914674 v 0.10129 h -0.799952 v 0.59531 h 0.681096 v 0.10128 h -0.681096 v 0.60772 h 0.799952 z"
         style="font-size:2.11667px;fill:#333333;fill-opacity:1;stroke-width:0.264583"
         id="path1200" />
      <path
         d="m 31.194378,162.82584 h -0.133326 l -0.359668,-0.69454 h -0.414446 v 0.69454 h -0.114722 v -1.50689 h 0.57361 q 0.125057,0 0.222209,0.0475 0.09819,0.0465 0.153996,0.13849 0.05581,0.091 0.05581,0.21808 0,0.16536 -0.09302,0.27182 -0.09198,0.10645 -0.254248,0.13436 z m -0.131259,-1.10071 q 0,-0.14987 -0.09095,-0.22738 -0.08992,-0.0775 -0.240813,-0.0775 h -0.444418 v 0.60978 h 0.444418 q 0.07338,0 0.134359,-0.0186 0.06098,-0.0196 0.104387,-0.0568 0.04341,-0.0372 0.06821,-0.0951 0.0248,-0.0579 0.0248,-0.13436 z"
         style="font-size:2.11667px;fill:#333333;fill-opacity:1;stroke-width:0.264583"
         id="path1202" />
      <path
         d="m 32.539001,162.3008 q 0,0.23358 -0.121957,0.36381 -0.07441,0.0827 -0.177767,0.12815 -0.103353,0.0455 -0.218075,0.0455 -0.107487,0 -0.205672,-0.0403 -0.09819,-0.0403 -0.171566,-0.11369 -0.06718,-0.0672 -0.09612,-0.14159 -0.02894,-0.0744 -0.03617,-0.17053 -0.0072,-0.0961 -0.0072,-0.29973 0,-0.2036 0.0072,-0.29972 0.0072,-0.0961 0.03617,-0.17053 0.02894,-0.0744 0.09612,-0.1416 0.07338,-0.0734 0.170532,-0.11369 0.09819,-0.0403 0.206706,-0.0403 0.139527,0 0.241846,0.0517 0.10232,0.0507 0.206706,0.1571 l -0.07648,0.0765 q -0.09405,-0.0961 -0.1757,-0.13953 -0.08062,-0.0444 -0.196371,-0.0444 -0.08062,0 -0.155029,0.0289 -0.07338,0.0289 -0.131259,0.0868 -0.04031,0.0403 -0.06304,0.0837 -0.0217,0.0434 -0.03411,0.10956 -0.0124,0.0661 -0.0155,0.15089 -0.0031,0.0847 -0.0031,0.20464 0,0.1788 0.0072,0.27285 0.0072,0.093 0.03204,0.15813 0.02481,0.0651 0.07648,0.11679 0.05478,0.0558 0.129191,0.0868 0.07545,0.03 0.157097,0.03 0.09095,0 0.1726,-0.0372 0.08268,-0.0383 0.14056,-0.10853 0.04858,-0.0599 0.06925,-0.13022 0.0217,-0.0703 0.0217,-0.16847 v -0.13539 h -0.40411 v -0.10128 h 0.517799 z"
         style="font-size:2.11667px;fill:#333333;fill-opacity:1;stroke-width:0.264583"
         id="path1204" />
      <path
         d="m 33.849517,162.82584 h -0.914675 v -1.50689 h 0.914675 v 0.10129 h -0.799953 v 0.59531 h 0.681097 v 0.10128 h -0.681097 v 0.60772 h 0.799953 z"
         style="font-size:2.11667px;fill:#333333;fill-opacity:1;stroke-width:0.264583"
         id="path1206" />
    </g>
    <g
       aria-label="1 2 3 4 5 6 7 8"
       id="text1346"
       style="font-size:1.41111px;line-height:5.82083px;font-family:'DIN Alternate Light';-inkscape-font-specification:'DIN Alternate Light, ';text-align:end;text-anchor:end;stroke-width:0.264583;fill:#333333">
      <path
         d="m 27.19462,167.09692 h -0.07166 v -0.76067 l -0.18259,0.16123 v -0.0861 l 0.18259,-0.1571 h 0.07166 z"
         style="text-align:end;text-anchor:end;stroke-width:0.264583;fill:#333333"
         id="path1364" />
      <path
         d="m 27.286259,172.91775 h -0.558794 v -0.0634 l 0.363802,-0.36449 q 0.09509,-0.0951 0.09509,-0.20119 0,-0.0503 -0.02481,-0.093 -0.0248,-0.0434 -0.06821,-0.0682 -0.04341,-0.0255 -0.09922,-0.0255 -0.05374,0 -0.09784,0.0241 -0.04341,0.0241 -0.0689,0.0675 -0.02549,0.0427 -0.02549,0.0965 h -0.07166 q 0,-0.0524 0.01929,-0.0978 0.01929,-0.0455 0.05512,-0.0806 0.03652,-0.0351 0.08475,-0.0537 0.04892,-0.0193 0.104731,-0.0193 0.06063,0 0.108865,0.0193 0.04823,0.0193 0.08337,0.0544 0.03514,0.0344 0.05305,0.0792 0.0186,0.0441 0.0186,0.0971 0,0.0482 -0.01447,0.0909 -0.01378,0.042 -0.0379,0.0779 -0.02411,0.0358 -0.06063,0.0724 l -0.324528,0.32452 h 0.465776 z"
         style="text-align:end;text-anchor:end;stroke-width:0.264583;fill:#333333"
         id="path1366" />
      <path
         d="m 27.273857,178.63385 q 0,0.0868 -0.03721,0.15021 -0.03652,0.0634 -0.101975,0.0958 -0.06546,0.0324 -0.145383,0.0324 -0.123334,0 -0.201882,-0.0648 -0.07786,-0.0641 -0.08475,-0.18948 h 0.07166 q 0.0076,0.0971 0.06821,0.144 0.06132,0.0469 0.14676,0.0469 0.09233,0 0.152274,-0.0586 0.06063,-0.0586 0.06063,-0.15641 0,-0.0689 -0.02343,-0.11644 -0.02274,-0.0475 -0.07166,-0.0724 -0.04892,-0.0255 -0.124024,-0.0255 h -0.01654 v -0.0634 h 0.01654 q 0.06546,0 0.110243,-0.0234 0.04479,-0.0234 0.06684,-0.0682 0.02205,-0.0448 0.02205,-0.11024 0,-0.0965 -0.05512,-0.14952 -0.05512,-0.0538 -0.139182,-0.0538 -0.08751,0 -0.139181,0.0496 -0.05168,0.0489 -0.06132,0.13367 h -0.07235 q 0.01102,-0.11506 0.08613,-0.18052 0.07579,-0.0661 0.186724,-0.0661 0.07786,0 0.138493,0.0331 0.06063,0.0331 0.0944,0.0937 0.03376,0.0599 0.03376,0.13988 0,0.082 -0.03514,0.13987 -0.03514,0.0579 -0.107487,0.0889 0.161919,0.0551 0.161919,0.2508 z"
         style="text-align:end;text-anchor:end;stroke-width:0.264583;fill:#333333"
         id="path1368" />
      <path
         d="m 27.307619,184.51738 h -0.13367 v 0.21567 h -0.07235 v -0.21567 h -0.425813 v -0.0641 l 0.383783,-0.77583 h 0.07441 l -0.383783,0.77583 h 0.351399 v -0.31832 h 0.07235 v 0.31832 h 0.13367 z"
         style="text-align:end;text-anchor:end;stroke-width:0.264583;fill:#333333"
         id="path1370" />
      <path
         d="m 27.268345,190.2135 q 0,0.0909 -0.01447,0.15503 -0.01447,0.0634 -0.06339,0.11162 -0.07097,0.0724 -0.192925,0.0724 -0.127469,0 -0.193615,-0.0675 -0.05926,-0.0606 -0.06752,-0.16398 h 0.07166 q 0.01171,0.0834 0.05788,0.1254 0.04616,0.0427 0.131603,0.0427 0.08682,0 0.137803,-0.051 0.03859,-0.0386 0.04961,-0.0937 0.01171,-0.0558 0.01171,-0.13091 0,-0.1192 -0.03859,-0.19361 -0.03859,-0.0744 -0.149517,-0.0744 -0.06959,0 -0.117822,0.0276 -0.04754,0.0269 -0.06408,0.0786 h -0.06339 v -0.51401 h 0.482313 v 0.0641 h -0.418923 v 0.35553 q 0.06408,-0.0751 0.190169,-0.0751 0.108865,0 0.169499,0.0606 0.04754,0.0468 0.06477,0.11575 0.01722,0.0689 0.01722,0.15503 z"
         style="text-align:end;text-anchor:end;stroke-width:0.264583;fill:#333333"
         id="path1372" />
      <path
         d="m 27.286259,195.8917 q 0,0.0868 -0.03445,0.15985 -0.03376,0.073 -0.09922,0.11576 -0.06477,0.042 -0.15434,0.042 -0.08957,0 -0.155029,-0.0386 -0.06546,-0.0393 -0.09991,-0.10887 -0.03376,-0.0696 -0.03376,-0.15847 0,-0.11576 0.06477,-0.22876 l 0.285253,-0.50091 h 0.07441 l -0.258382,0.44303 q 0.03032,-0.0158 0.05995,-0.0227 0.03032,-0.007 0.0689,-0.007 0.08682,0 0.150895,0.04 0.06408,0.04 0.09715,0.10955 0.03376,0.0689 0.03376,0.15503 z m -0.07166,0.008 q 0,-0.0675 -0.02481,-0.12471 -0.0248,-0.0579 -0.07441,-0.0923 -0.04892,-0.0345 -0.118511,-0.0345 -0.04823,0 -0.08819,0.0179 -0.03996,0.0172 -0.0689,0.051 -0.02894,0.0331 -0.0441,0.0806 -0.01447,0.0475 -0.01447,0.10197 0,0.0544 0.01447,0.1006 0.01516,0.0462 0.0441,0.0799 0.02894,0.0338 0.0689,0.0517 0.03996,0.0172 0.08819,0.0172 0.06477,0 0.114377,-0.031 0.0503,-0.031 0.07648,-0.0882 0.02687,-0.0572 0.02687,-0.13023 z"
         style="text-align:end;text-anchor:end;stroke-width:0.264583;fill:#333333"
         id="path1374" />
      <path
         d="m 27.315198,201.24331 -0.423746,0.95498 h -0.07441 l 0.423057,-0.95498 h -0.421679 v 0.15779 h -0.07235 v -0.22187 h 0.569129 z"
         style="text-align:end;text-anchor:end;stroke-width:0.264583;fill:#333333"
         id="path1376" />
      <path
         d="m 27.279369,207.57195 q 0,0.0785 -0.0379,0.14262 -0.0379,0.0641 -0.103353,0.1006 -0.06477,0.0358 -0.144693,0.0358 -0.08062,0 -0.146072,-0.0358 -0.06477,-0.0365 -0.102664,-0.1006 -0.0379,-0.0641 -0.0379,-0.14262 0,-0.0841 0.04203,-0.14745 0.04272,-0.0641 0.117133,-0.10405 -0.137804,-0.0737 -0.137804,-0.22875 0,-0.0551 0.0186,-0.10266 0.01929,-0.0482 0.05443,-0.0834 0.03583,-0.0358 0.08475,-0.0558 0.04961,-0.02 0.107487,-0.02 0.05926,0 0.107486,0.02 0.04823,0.0193 0.08406,0.0551 0.03583,0.0358 0.05443,0.0841 0.01929,0.0475 0.01929,0.10266 0,0.15572 -0.137115,0.22875 0.04892,0.0269 0.08406,0.0634 0.03583,0.0365 0.05443,0.0841 0.01929,0.0476 0.01929,0.10405 z m -0.09302,-0.48025 q 0,-0.0558 -0.02412,-0.10128 -0.02412,-0.0462 -0.06821,-0.0717 -0.04341,-0.0255 -0.100596,-0.0255 -0.05719,0 -0.100597,0.0255 -0.04341,0.0248 -0.06821,0.071 -0.02481,0.0455 -0.02481,0.10197 0,0.0572 0.02412,0.10266 0.02481,0.0455 0.06821,0.071 0.0441,0.0255 0.101286,0.0255 0.05719,0 0.100596,-0.0255 0.0441,-0.0255 0.06821,-0.071 0.02412,-0.0462 0.02412,-0.10266 z m 0.02136,0.48025 q 0,-0.0469 -0.01585,-0.0854 -0.01585,-0.0393 -0.0441,-0.0682 -0.02825,-0.0296 -0.06821,-0.0469 -0.03927,-0.0172 -0.08613,-0.0172 -0.09164,0 -0.153652,0.0634 -0.06132,0.0627 -0.06132,0.15434 0,0.0916 0.06201,0.15365 0.06201,0.062 0.152963,0.062 0.05857,0 0.108175,-0.0283 0.04961,-0.0282 0.07786,-0.0779 0.02825,-0.0503 0.02825,-0.10955 z"
         style="text-align:end;text-anchor:end;stroke-width:0.264583;fill:#333333"
         id="path1378" />
    </g>
  </g>
</svg>
