<?xml version="1.0" encoding="UTF-8" standalone="no"?>
<svg
   xmlns:dc="http://purl.org/dc/elements/1.1/"
   xmlns:cc="http://creativecommons.org/ns#"
   xmlns:rdf="http://www.w3.org/1999/02/22-rdf-syntax-ns#"
   xmlns:svg="http://www.w3.org/2000/svg"
   xmlns="http://www.w3.org/2000/svg"
   xmlns:sodipodi="http://sodipodi.sourceforge.net/DTD/sodipodi-0.dtd"
   xmlns:inkscape="http://www.inkscape.org/namespaces/inkscape"
   width="30"
   height="380"
   viewBox="0 0 7.9375 100.54166"
   version="1.1"
   id="svg12553"
   inkscape:version="1.0.2 (e86c870879, 2021-01-15)"
   sodipodi:docname="Panel2hpCV2P.svg">
  <defs
     id="defs12547">
    <filter
       style="color-interpolation-filters:sRGB"
       inkscape:label="Lightness-Contrast"
       id="filter928">
      <feColorMatrix
         values="3.26994 0 0 0.458429 -1.13497 0 3.26994 0 0.458429 -1.13497 0 0 3.26994 0.458429 -1.13497 0 0 0 1 0"
         id="feColorMatrix926" />
    </filter>
    <filter
       style="color-interpolation-filters:sRGB"
       inkscape:label="Lightness-Contrast"
       id="filter929">
      <feColorMatrix
         values="3.26994 0 0 0.458429 -1.13497 0 3.26994 0 0.458429 -1.13497 0 0 3.26994 0.458429 -1.13497 0 0 0 1 0"
         id="feColorMatrix927" />
    </filter>
    <filter
       style="color-interpolation-filters:sRGB"
       inkscape:label="Lightness-Contrast"
       id="filter933">
      <feColorMatrix
         values="3.26994 0 0 0.458429 -1.13497 0 3.26994 0 0.458429 -1.13497 0 0 3.26994 0.458429 -1.13497 0 0 0 1 0"
         id="feColorMatrix931" />
    </filter>
  </defs>
  <sodipodi:namedview
     id="base"
     pagecolor="#ffffff"
     bordercolor="#666666"
     borderopacity="1.0"
     inkscape:pageopacity="0.0"
     inkscape:pageshadow="2"
     inkscape:zoom="7.9195959"
     inkscape:cx="30.63352"
     inkscape:cy="-4.6146133"
     inkscape:document-units="px"
     inkscape:current-layer="layer1"
     showgrid="true"
     fit-margin-top="0"
     fit-margin-left="0"
     fit-margin-right="0"
     fit-margin-bottom="0"
     units="px"
     inkscape:window-width="1546"
     inkscape:window-height="1041"
     inkscape:window-x="0"
     inkscape:window-y="0"
     inkscape:window-maximized="0"
     inkscape:snap-global="false"
     inkscape:document-rotation="0">
    <inkscape:grid
       type="xygrid"
       id="grid12870"
       originx="-20.372917"
       originy="84.666661" />
  </sodipodi:namedview>
  <metadata
     id="metadata12550">
    <rdf:RDF>
      <cc:Work
         rdf:about="">
        <dc:format>image/svg+xml</dc:format>
        <dc:type
           rdf:resource="http://purl.org/dc/dcmitype/StillImage" />
        <dc:title />
      </cc:Work>
    </rdf:RDF>
  </metadata>
  <g
     inkscape:label="Layer 1"
     inkscape:groupmode="layer"
     id="layer1"
     transform="translate(-26.543497,-161.30655)">
    <path
       inkscape:connector-curvature="0"
       id="path33453"
       d="m 26.543497,161.26312 h 7.961123 v 100.58509 h -7.961123 z m 0,0"
       style="fill:#f4f4f4;fill-opacity:1;fill-rule:nonzero;stroke:none;stroke-width:0.144511" />
    <g
       aria-label="SEQ2POLY"
       transform="scale(0.96224905,1.039232)"
       id="text1153"
       style="font-size:1.35784px;line-height:0.15;font-family:'DIN Alternate Light';-inkscape-font-specification:'DIN Alternate Light, ';stroke-width:0.254595;fill:#333333">
      <path
         d="m 28.775161,156.54475 q 0,0.0895 -0.03381,0.16509 -0.03282,0.0746 -0.09647,0.1273 -0.06265,0.0517 -0.155143,0.0806 -0.0915,0.0278 -0.202881,0.0278 -0.103429,0 -0.188957,-0.0199 -0.08553,-0.0199 -0.157133,-0.0626 -0.07161,-0.0428 -0.137243,-0.1084 l 0.07757,-0.0776 q 0.06564,0.0656 0.126303,0.10343 0.06067,0.0368 0.130281,0.0527 0.06962,0.0149 0.155144,0.0149 0.114369,0 0.197908,-0.0348 0.08354,-0.0358 0.129287,-0.10343 0.04575,-0.0686 0.04575,-0.16111 0,-0.13326 -0.07956,-0.20387 -0.0368,-0.0318 -0.08155,-0.0477 -0.04475,-0.0169 -0.128292,-0.0298 l -0.169067,-0.0259 q -0.165089,-0.0249 -0.258573,-0.10641 -0.114369,-0.0955 -0.114369,-0.26653 0,-0.0915 0.03183,-0.16509 0.03282,-0.0746 0.0905,-0.12531 0.05768,-0.0517 0.142215,-0.0786 0.08453,-0.0278 0.185974,-0.0278 0.13227,0 0.227743,0.0378 0.09547,0.0368 0.189952,0.11835 l -0.07161,0.0716 q -0.07658,-0.0686 -0.155144,-0.10144 -0.07757,-0.0328 -0.196913,-0.0328 -0.157133,0 -0.246639,0.0806 -0.08951,0.0805 -0.08951,0.21879 0,0.1263 0.07459,0.18896 0.04078,0.0328 0.09945,0.0577 0.05967,0.0239 0.117352,0.0318 l 0.156138,0.0249 q 0.100446,0.0149 0.157133,0.0358 0.05669,0.0209 0.10144,0.0597 0.06166,0.0507 0.09349,0.12332 0.03282,0.0716 0.03282,0.15812 z"
         style="font-size:2.03676px;stroke-width:0.254595;fill:#333333"
         id="path1155" />
      <path
         d="m 29.999405,156.93361 h -0.880143 v -1.45 h 0.880143 v 0.0975 h -0.769752 v 0.57284 h 0.655384 v 0.0975 h -0.655384 v 0.58478 h 0.769752 z"
         style="font-size:2.03676px;stroke-width:0.254595;fill:#333333"
         id="path1157" />
      <path
         d="m 31.341996,156.93361 -0.07359,0.0736 -0.171056,-0.17105 q -0.138237,0.10939 -0.319238,0.10939 -0.103429,0 -0.197908,-0.0388 -0.09448,-0.0388 -0.165089,-0.1094 -0.06464,-0.0646 -0.09249,-0.13625 -0.02785,-0.0716 -0.03481,-0.16409 -0.007,-0.0925 -0.007,-0.28841 0,-0.19592 0.007,-0.28841 0.007,-0.0925 0.03481,-0.16409 0.02785,-0.0716 0.09249,-0.13625 0.07061,-0.0706 0.164095,-0.1094 0.09448,-0.0388 0.198902,-0.0388 0.104424,0 0.197908,0.0388 0.09348,0.0388 0.164094,0.1094 0.06464,0.0646 0.09249,0.13625 0.02785,0.0716 0.03481,0.16409 0.007,0.0925 0.007,0.28841 0,0.181 -0.005,0.26852 -0.005,0.0865 -0.02685,0.15713 -0.02188,0.0696 -0.0716,0.12829 z m -0.177023,-0.725 q 0,-0.17205 -0.007,-0.26255 -0.007,-0.0905 -0.03083,-0.15216 -0.02387,-0.0627 -0.07459,-0.11338 -0.05569,-0.0557 -0.126303,-0.0835 -0.06962,-0.0279 -0.148182,-0.0279 -0.07757,0 -0.149177,0.0279 -0.07061,0.0278 -0.126303,0.0835 -0.03879,0.0388 -0.06067,0.0806 -0.02088,0.0418 -0.03282,0.10542 -0.01193,0.0636 -0.01492,0.1452 -0.003,0.0816 -0.003,0.19691 0,0.17205 0.007,0.26255 0.007,0.0895 0.03083,0.15216 0.02387,0.0627 0.07359,0.11238 0.0547,0.0547 0.126303,0.0835 0.0716,0.0288 0.149177,0.0288 0.138237,0 0.245645,-0.0855 l -0.202881,-0.20387 0.0726,-0.0736 0.201885,0.20189 q 0.04575,-0.0676 0.05768,-0.16211 0.01193,-0.0955 0.01193,-0.31625 z"
         style="font-size:2.03676px;stroke-width:0.254595;fill:#333333"
         id="path1159" />
      <path
         d="m 32.327557,156.93361 h -0.806549 v -0.0915 l 0.525103,-0.52609 q 0.137242,-0.13725 0.137242,-0.2904 0,-0.0726 -0.0358,-0.13426 -0.0358,-0.0626 -0.09846,-0.0985 -0.06265,-0.0368 -0.14321,-0.0368 -0.07757,0 -0.14122,0.0348 -0.06265,0.0348 -0.09945,0.0975 -0.0368,0.0617 -0.0368,0.13923 h -0.10343 q 0,-0.0756 0.02785,-0.14122 0.02785,-0.0656 0.07956,-0.11636 0.05271,-0.0507 0.122325,-0.0776 0.07061,-0.0279 0.151165,-0.0279 0.08752,0 0.157133,0.0279 0.06962,0.0278 0.120336,0.0786 0.05072,0.0497 0.07658,0.11437 0.02685,0.0636 0.02685,0.14023 0,0.0696 -0.02088,0.13128 -0.01989,0.0607 -0.0547,0.11238 -0.03481,0.0517 -0.08752,0.10442 l -0.468415,0.46841 h 0.67229 z"
         style="font-size:2.03676px;stroke-width:0.254595;fill:#333333"
         id="path1161" />
      <path
         d="m 33.235546,156.24541 q 0,0.12928 -0.08221,0.2042 -0.08155,0.0743 -0.20951,0.0743 h -0.281115 v 0.40974 h -0.07359 v -0.96667 h 0.354709 q 0.06431,0 0.116689,0.0186 0.05304,0.0179 0.09216,0.0537 0.03912,0.0358 0.061,0.0888 0.02188,0.053 0.02188,0.11736 z m -0.07293,0 q 0,-0.10608 -0.06166,-0.15979 -0.061,-0.0537 -0.165089,-0.0537 h -0.273159 v 0.42631 h 0.273159 q 0.103429,0 0.165089,-0.053 0.06166,-0.0537 0.06166,-0.15978 z"
         style="font-size:1.35784px;stroke-width:0.254595;fill:#333333"
         id="path1163" />
      <path
         d="m 34.070273,156.45028 q 0,0.13061 -0.0046,0.19227 -0.0046,0.0617 -0.0232,0.10939 -0.01856,0.0477 -0.06166,0.0908 -0.04707,0.0471 -0.110059,0.0729 -0.06232,0.0259 -0.131276,0.0259 -0.06895,0 -0.131938,-0.0259 -0.06299,-0.0259 -0.11006,-0.0729 -0.0431,-0.0431 -0.06166,-0.0908 -0.01856,-0.0477 -0.02321,-0.10939 -0.0046,-0.0617 -0.0046,-0.19227 0,-0.13062 0.0046,-0.19228 0.0046,-0.0617 0.02321,-0.10939 0.01856,-0.0477 0.06166,-0.0908 0.04707,-0.0471 0.109397,-0.0729 0.06299,-0.0258 0.132601,-0.0258 0.06962,0 0.131939,0.0258 0.06232,0.0259 0.109396,0.0729 0.0431,0.0431 0.06166,0.0908 0.01856,0.0477 0.0232,0.10939 0.0046,0.0617 0.0046,0.19228 z m -0.07293,0 q 0,-0.1147 -0.0046,-0.17504 -0.0046,-0.0603 -0.02055,-0.10144 -0.01591,-0.0418 -0.04973,-0.0756 -0.03713,-0.0371 -0.0842,-0.0557 -0.04641,-0.0186 -0.09879,-0.0186 -0.05171,0 -0.09945,0.0186 -0.04707,0.0186 -0.0842,0.0557 -0.02586,0.0259 -0.04044,0.0537 -0.01392,0.0279 -0.02188,0.0703 -0.008,0.0424 -0.0099,0.0968 -0.002,0.0544 -0.002,0.13128 0,0.1147 0.0046,0.17503 0.0046,0.0597 0.02055,0.10144 0.01591,0.0418 0.04906,0.0749 0.03647,0.0365 0.0842,0.0557 0.04774,0.0192 0.09945,0.0192 0.05238,0 0.09945,-0.0192 0.04707,-0.0192 0.08354,-0.0557 0.03448,-0.0345 0.04973,-0.0756 0.01591,-0.0411 0.02055,-0.10078 0.0046,-0.0603 0.0046,-0.17503 z"
         style="font-size:1.35784px;stroke-width:0.254595;fill:#333333"
         id="path1165" />
      <path
         d="m 34.917597,156.93361 h -0.586762 v -0.96667 h 0.07359 v 0.90169 h 0.513168 z"
         style="font-size:1.35784px;stroke-width:0.254595;fill:#333333"
         id="path1167" />
      <path
         d="m 35.615081,155.96694 -0.285093,0.56621 v 0.40046 h -0.07293 v -0.40046 l -0.285756,-0.56621 h 0.0789 l 0.245976,0.48864 0.240009,-0.48864 z"
         style="font-size:1.35784px;stroke-width:0.254595;fill:#333333"
         id="path1169" />
    </g>
  </g>
</svg>
